<?xml version="1.0" encoding="utf-8" standalone="no"?>
<!DOCTYPE svg PUBLIC "-//W3C//DTD SVG 1.1//EN"
  "http://www.w3.org/Graphics/SVG/1.1/DTD/svg11.dtd">
<svg xmlns:xlink="http://www.w3.org/1999/xlink" width="167.4pt" height="110.88pt" viewBox="0 0 167.4 110.88" xmlns="http://www.w3.org/2000/svg" version="1.1">
 <metadata>
  <rdf:RDF xmlns:dc="http://purl.org/dc/elements/1.1/" xmlns:cc="http://creativecommons.org/ns#" xmlns:rdf="http://www.w3.org/1999/02/22-rdf-syntax-ns#">
   <cc:Work>
    <dc:type rdf:resource="http://purl.org/dc/dcmitype/StillImage"/>
    <dc:date>2023-10-09T10:01:45.065097</dc:date>
    <dc:format>image/svg+xml</dc:format>
    <dc:creator>
     <cc:Agent>
      <dc:title>Matplotlib v3.7.1, https://matplotlib.org/</dc:title>
     </cc:Agent>
    </dc:creator>
   </cc:Work>
  </rdf:RDF>
 </metadata>
 <defs>
  <style type="text/css">*{stroke-linejoin: round; stroke-linecap: butt}</style>
 </defs>
 <g id="figure_1">
  <g id="patch_1">
   <path d="M 0 110.88 
L 167.4 110.88 
L 167.4 0 
L 0 0 
L 0 110.88 
z
" style="fill: none"/>
  </g>
  <g id="axes_1">
   <g id="line2d_1">
    <path d="M 16.820955 32.522388 
L 17.678019 31.720839 
L 18.678062 30.400445 
L 19.653049 28.843568 
L 19.632948 24.988815 
L 19.128875 24.682814 
L 18.349174 25.783161 
L 17.866362 25.928035 
L 16.241433 26.285867 
L 15.01722 25.418481 
L 13.740785 25.766889 
L 13.545865 26.212594 
L 12.399468 27.332892 
L 11.291281 28.274877 
L 10.170592 28.900978 
L 10.732809 30.630068 
L 10.719988 32.089983 
L 9.70806 33.093581 
L 9.856529 33.821314 
L 10.488193 38.133503 
L 10.725271 38.781872 
L 9.978491 40.441725 
L 9.826141 39.304463 
L 10.452006 38.671609 
L 11.754694 37.874842 
L 12.595481 37.646063 
L 13.344376 38.11934 
L 13.881681 39.064721 
L 14.393384 39.672032 
L 15.517402 39.540075 
L 19.384018 39.976703 
L 20.135148 40.28972 
L 21.048371 40.100096 
L 22.124713 38.96306 
L 23.160797 38.898997 
L 24.750383 39.019338 
L 25.3973 39.492558 
L 25.477781 40.406659 
L 24.785601 40.443934 
L 24.52282 39.903989 
L 21.921064 40.083926 
L 19.902377 39.206109 
L 19.67885 38.818866 
L 18.014438 37.73052 
L 17.640791 36.058118 
L 18.131547 35.714386 
L 18.557173 32.227783 
L 18.829855 31.849873 
L 18.404864 30.020055 
L 18.083178 28.71567 
L 18.28358 28.267305 
L 18.953423 27.268519 
L 18.56673 26.133955 
L 18.608256 25.18043 
L 18.906448 24.582876 
L 18.835263 23.195881 
L 19.52738 22.035792 
L 19.306795 21.307312 
L 18.223764 20.89077 
L 17.527628 20.797957 
L 16.320497 21.059415 
L 15.600513 21.439748 
L 15.595023 21.52879 
L 16.592236 23.418731 
L 17.42293 24.029897 
L 17.425921 24.591482 
L 17.740116 25.06175 
L 18.558283 25.632468 
L 18.752129 26.226001 
L 18.815732 28.1705 
L 18.210382 29.329931 
L 17.380999 29.371973 
L 15.955012 29.227556 
L 14.324922 28.88122 
L 13.070511 28.956006 
L 12.994839 27.584136 
L 13.696763 27.090574 
L 14.95881 27.688229 
L 15.738435 27.607131 
L 16.323807 27.830646 
L 16.36085 29.158388 
L 16.912156 29.861646 
L 17.04654 31.520041 
L 17.460275 33.450079 
L 17.276619 34.033091 
L 16.318459 34.509438 
L 15.347647 35.246349 
L 13.733708 34.960053 
L 12.969552 33.435615 
L 11.897494 32.676326 
L 10.748852 32.453931 
L 9.870307 32.42532 
L 10.13789 33.987316 
L 10.661279 35.102708 
L 10.705618 35.565705 
L 10.574925 36.977907 
L 10.321173 38.064277 
L 9.723726 39.678154 
L 9.774622 39.948924 
L 10.185034 40.430891 
L 13.538789 39.920403 
L 14.38789 40.43973 
L 15.197907 40.386751 
L 15.813597 40.037401 
L 15.353475 38.617481 
L 15.520554 37.329925 
L 15.697358 37.028369 
L 15.83002 36.295717 
L 15.705633 36.045218 
L 15.982807 35.407067 
L 15.940307 34.41217 
L 17.567966 33.256206 
L 19.633877 34.158106 
L 20.654085 34.788879 
L 19.916329 36.896563 
L 19.407627 38.060749 
L 18.238275 38.558883 
L 17.756334 38.063194 
L 16.387327 36.070435 
L 14.19202 35.631818 
L 12.925156 36.051525 
L 11.907877 36.919174 
L 9.985897 37.265391 
L 9.748427 38.526428 
L 10.031946 40.330883 
L 11.498434 40.29957 
L 12.319979 39.990436 
L 13.378577 39.24792 
L 13.87684 38.731394 
L 14.706619 36.664954 
L 15.74302 35.188606 
L 15.469009 34.210757 
L 14.766726 33.295157 
L 14.843556 32.25455 
L 15.606832 31.020995 
L 16.011944 29.012864 
L 16.436613 28.391147 
L 17.152137 28.072616 
L 17.86984 28.186556 
L 18.347981 28.387203 
L 18.828378 28.831634 
L 19.072257 29.225439 
L 20.269394 29.593823 
L 21.989891 30.435394 
L 23.171781 30.40905 
L 23.285911 30.603141 
L 23.451618 31.334975 
L 24.067778 33.064026 
L 24.763414 34.089194 
L 25.678121 34.773339 
L 25.941277 35.228544 
L 26.294279 35.394 
L 28.424821 35.584719 
L 29.90729 36.0191 
L 31.860108 35.364196 
L 31.995654 35.186725 
L 32.070675 34.662495 
L 32.033926 34.123934 
L 32.265719 33.784051 
L 32.480518 32.171554 
L 33.274104 31.33241 
L 33.230356 31.157654 
L 34.01954 30.437616 
L 34.598136 31.18648 
L 34.945975 31.307704 
L 35.635389 32.192675 
L 37.035925 33.353031 
L 39.444478 32.647157 
L 39.2287 33.764465 
L 38.901618 34.259371 
L 38.744576 35.682563 
L 36.572503 38.050861 
L 35.409951 39.835245 
L 34.414978 40.155686 
L 30.337651 40.293759 
L 29.348525 38.490403 
L 28.885026 37.453815 
L 29.917502 35.551653 
L 30.708904 35.229568 
L 31.053803 34.628481 
L 31.04966 34.023257 
L 31.684942 33.581544 
L 32.811101 34.562978 
L 33.349776 34.648036 
L 34.28434 34.677757 
L 35.194808 34.572122 
L 36.905183 34.694841 
L 37.394863 35.271339 
L 37.310716 36.51303 
L 37.521405 36.706354 
L 37.974668 37.49255 
L 38.412586 37.648232 
L 38.806013 37.659293 
L 39.446622 38.924986 
L 39.044549 39.55383 
L 37.503365 40.365104 
L 35.351348 40.361753 
L 35.236298 40.411018 
L 34.798743 40.382104 
L 33.64903 39.765016 
L 33.27474 39.406737 
L 32.900215 38.837675 
L 32.98041 37.727208 
L 33.136395 37.605964 
L 33.362804 37.125523 
L 34.248482 36.368151 
L 35.151832 36.480129 
L 36.509002 36.892708 
L 37.397234 37.674834 
L 38.172104 38.200535 
L 39.045399 39.907519 
L 37.277351 39.302502 
L 36.872008 37.727699 
L 36.959302 36.323079 
L 37.214473 35.177318 
L 36.80195 34.942637 
L 35.935053 35.397911 
L 35.541729 35.342922 
L 35.35149 33.741115 
L 34.859775 32.951926 
L 34.955751 32.36244 
L 35.585163 31.587561 
L 36.371027 31.163601 
L 37.868927 30.807682 
L 39.124221 29.848944 
L 39.220247 28.156746 
L 38.99478 27.212944 
L 36.845179 26.003184 
L 36.008233 25.796849 
L 34.64135 26.568436 
L 34.043987 26.942096 
L 33.348191 27.047954 
L 32.224554 27.362174 
L 31.81931 27.340734 
L 31.148296 27.082834 
L 30.153877 27.082737 
L 29.014787 27.389302 
L 28.399662 23.902102 
L 28.071609 23.469836 
L 28.094744 21.12102 
L 27.013284 18.840121 
L 26.42043 18.319992 
L 26.054012 17.611088 
L 25.953379 17.123841 
L 25.616224 16.117745 
L 25.497744 15.305693 
L 25.224392 14.471128 
L 26.199806 13.438635 
L 26.912655 13.341154 
L 28.957762 13.577977 
L 29.819162 13.14899 
L 30.649521 12.095854 
L 30.881256 10.32267 
L 31.241758 10.221769 
L 31.837193 11.305467 
L 32.571082 11.251942 
L 33.535948 10.848026 
L 35.061507 10.345242 
L 36.115692 10.94764 
L 36.224754 12.004333 
L 36.997801 13.462954 
L 37.787504 14.565441 
L 38.539274 14.531385 
L 39.510739 14.053806 
L 39.482099 13.78179 
L 39.073531 13.406985 
L 39.090932 12.01564 
L 38.271853 11.668151 
L 37.412388 10.604334 
L 36.039248 10.737471 
L 33.375201 11.762262 
L 32.263634 11.7586 
L 31.868324 10.148354 
L 30.556476 10.143864 
L 29.776657 9.941917 
L 28.180428 10.126243 
L 27.985354 10.350055 
L 27.912904 10.711407 
L 28.223378 10.973237 
L 28.692333 11.850022 
L 30.355558 12.078573 
L 30.939701 12.376342 
L 32.274168 12.696358 
L 32.973284 12.439283 
L 33.877746 12.924138 
L 34.482652 14.127952 
L 34.898449 14.387543 
L 33.60586 16.582048 
L 32.025909 17.304236 
L 31.661178 18.254937 
L 31.759677 18.858559 
L 31.536126 20.037896 
L 30.847298 22.216191 
L 29.632574 23.440535 
L 28.774197 23.721918 
L 28.200759 24.314038 
L 23.934769 24.544286 
L 23.07797 25.236153 
L 21.721543 27.091615 
L 21.607694 28.443928 
L 21.696875 28.806171 
L 21.316996 29.324069 
L 20.261731 29.581065 
L 19.528661 30.617134 
L 19.841546 32.934399 
L 19.601294 33.175581 
L 18.423578 33.24099 
L 17.591351 34.541914 
L 17.27365 36.097574 
L 17.197353 39.938234 
L 16.429896 40.391697 
L 15.632405 40.270809 
L 14.825829 39.581893 
L 11.65424 38.469417 
L 9.887482 39.579508 
L 11.383203 40.415287 
L 12.79892 39.880247 
L 13.295017 39.394676 
L 13.359809 37.800336 
L 12.752028 36.971814 
L 12.142326 36.77543 
L 10.617584 37.446969 
L 10.09269 38.602833 
L 10.210289 40.250003 
L 12.182551 40.41823 
L 13.109301 40.437232 
L 14.101266 39.986028 
L 14.713729 39.42474 
L 15.913054 38.597791 
L 17.386532 37.566482 
L 17.466353 35.393398 
L 16.319408 34.604849 
L 15.333883 34.4076 
L 14.973697 34.214815 
L 13.169789 34.618135 
L 10.77416 34.00648 
L 9.954612 32.25024 
L 10.349867 31.197145 
L 9.90569 30.211209 
L 9.797512 29.698004 
L 10.191235 28.906323 
L 10.064573 26.605244 
L 10.511469 24.777457 
L 10.70072 23.826028 
L 9.704456 22.734226 
L 9.915146 20.654762 
L 9.696205 19.58309 
L 9.850118 18.104704 
L 9.741652 17.519634 
L 10.251023 16.342767 
L 10.193285 16.017925 
L 10.529558 14.216808 
L 10.316732 12.544531 
L 9.967083 12.078268 
L 10.349742 11.295598 
L 10.824553 10.649775 
L 12.053399 10.113438 
L 13.428439 10.824953 
L 14.172536 11.362678 
L 15.817775 12.816796 
L 16.849397 12.789868 
L 17.879792 12.105414 
L 18.388423 11.372356 
L 21.809383 11.389144 
L 23.3213 12.348906 
L 24.090627 14.442388 
L 23.564852 15.367597 
L 23.976522 17.052348 
L 25.714785 18.467552 
L 26.195946 19.026191 
L 27.623029 20.109019 
L 26.972597 21.739684 
L 25.692811 23.300107 
L 25.692811 23.300107 
" clip-path="url(#pb124de6f7e)" style="fill: none; stroke: #348abd; stroke-width: 0.5; stroke-linecap: square"/>
   </g>
   <g id="line2d_2">
    <path d="M 40.286811 9.160168 
L 8.948483 9.160168 
" clip-path="url(#pb124de6f7e)" style="fill: none; stroke: #000000; stroke-width: 0.8; stroke-linecap: square"/>
   </g>
   <g id="line2d_3">
    <path d="M 8.948483 9.160168 
L 8.948483 41.239832 
" clip-path="url(#pb124de6f7e)" style="fill: none; stroke: #000000; stroke-width: 0.8; stroke-linecap: square"/>
   </g>
   <g id="line2d_4">
    <path d="M 8.948483 41.239832 
L 40.286811 41.239832 
" clip-path="url(#pb124de6f7e)" style="fill: none; stroke: #000000; stroke-width: 0.8; stroke-linecap: square"/>
   </g>
   <g id="line2d_5">
    <path d="M 40.286811 41.239832 
L 40.286811 9.160168 
" clip-path="url(#pb124de6f7e)" style="fill: none; stroke: #000000; stroke-width: 0.8; stroke-linecap: square"/>
   </g>
  </g>
  <g id="axes_2">
   <g id="line2d_6">
    <path d="M 91.68791 19.541598 
L 93.257094 19.799188 
L 93.900275 19.749457 
L 95.280056 18.665982 
L 96.276465 18.318922 
L 96.444151 17.453979 
L 95.650152 16.70475 
L 94.709869 16.261881 
L 93.912417 14.898797 
L 93.173415 14.229745 
L 92.081632 14.498976 
L 91.763044 15.265573 
L 91.952398 15.942325 
L 92.30025 16.241509 
L 93.075113 16.27484 
L 94.250379 16.056549 
L 94.996519 15.637379 
L 95.53547 16.196588 
L 95.422693 17.351395 
L 94.647427 18.75407 
L 95.341352 20.177582 
L 95.694502 20.381903 
L 96.529661 20.446585 
L 97.244545 19.568244 
L 96.933767 18.230482 
L 95.476249 16.423345 
L 94.762291 16.054488 
L 94.238241 16.562359 
L 94.216633 17.922242 
L 94.71888 18.422628 
L 96.575296 18.835394 
L 97.324753 19.379413 
L 97.031957 20.611177 
L 97.274596 21.477283 
L 98.195554 21.955739 
L 98.072231 22.403283 
L 98.490223 24.029614 
L 96.4636 24.347423 
L 96.128138 24.55692 
L 95.569126 24.393688 
L 94.36966 25.495521 
L 94.030482 26.366207 
L 92.940995 26.448899 
L 92.769586 27.55993 
L 92.131134 28.046898 
L 91.836 28.577298 
L 90.987703 29.664922 
L 89.290435 31.256453 
L 88.372745 31.848143 
L 86.743949 33.637742 
L 86.425965 34.731773 
L 85.746489 34.987244 
L 84.519533 34.225805 
L 83.53113 33.853983 
L 82.16845 33.84337 
L 81.247685 33.958963 
L 80.705326 35.217406 
L 78.997197 38.00938 
L 78.833751 38.379529 
L 77.549142 38.779492 
L 76.803891 38.308571 
L 76.036697 37.022766 
L 75.046215 36.30779 
L 73.548154 34.918727 
L 72.520748 33.415477 
L 71.914711 32.773719 
L 71.073409 32.541959 
L 70.154997 31.355981 
L 69.616659 29.854506 
L 69.421028 28.998593 
L 69.08193 26.538039 
L 69.455079 24.062201 
L 69.698 23.759596 
L 70.935282 23.036738 
L 71.09363 22.294234 
L 71.477575 21.194687 
L 71.758041 20.786023 
L 73.350184 19.4803 
L 74.21616 19.171818 
L 76.099853 19.407865 
L 77.065025 19.961748 
L 77.609522 19.83276 
L 79.252948 20.227559 
L 80.224915 20.09276 
L 81.134835 20.833721 
L 82.274597 21.014889 
L 83.935439 21.053121 
L 85.14715 21.552555 
L 85.865541 21.913348 
L 86.81114 21.7285 
L 87.14202 21.823642 
L 89.1476 22.1211 
L 89.332718 22.489649 
L 89.275972 23.147854 
L 89.799553 24.292307 
L 89.998642 25.558164 
L 90.003675 26.425246 
L 89.392799 26.915334 
L 88.975442 27.074493 
L 87.711764 26.96394 
L 86.538622 26.581684 
L 84.953004 26.589157 
L 83.912677 26.371316 
L 82.531349 26.309272 
L 81.81133 26.099967 
L 80.323311 25.139682 
L 79.503989 24.942533 
L 78.528501 24.51596 
L 78.399714 24.300054 
L 78.220435 23.334488 
L 77.52972 22.602417 
L 76.550806 22.120377 
L 75.061837 22.660299 
L 74.344661 22.50479 
L 74.188188 22.64831 
L 73.184454 25.199199 
L 73.156707 26.968894 
L 73.289061 28.110803 
L 72.923044 29.229866 
L 73.023554 30.635104 
L 73.49927 31.110743 
L 74.52363 31.526046 
L 75.525022 32.114465 
L 75.784766 32.451068 
L 76.068724 33.003019 
L 77.482343 33.724314 
L 80.348192 34.650047 
L 80.930547 34.400859 
L 81.956288 34.238224 
L 84.005812 32.729588 
L 84.576793 32.050919 
L 85.332369 30.928266 
L 85.700272 29.879749 
L 86.286718 28.61852 
L 86.223531 28.286831 
L 82.927068 25.404696 
L 82.53633 25.409772 
L 80.923983 26.87365 
L 79.286396 27.03093 
L 78.586389 27.842603 
L 78.760443 28.215741 
L 78.919319 29.352672 
L 78.31815 31.160789 
L 78.27038 31.781995 
L 78.345018 33.187902 
L 79.146365 34.146243 
L 80.192563 34.979986 
L 81.212224 36.582055 
L 82.181057 36.690335 
L 82.944219 36.15236 
L 83.825712 34.979146 
L 84.030929 33.838126 
L 85.324924 33.202885 
L 86.121704 33.159241 
L 87.046136 32.639067 
L 87.853264 31.897055 
L 87.932139 31.251791 
L 87.560468 30.723621 
L 85.442477 29.516103 
L 83.453877 28.959361 
L 82.490135 27.786722 
L 82.444305 27.362777 
L 84.163594 26.682812 
L 84.964599 26.636196 
L 85.807617 26.183528 
L 88.174491 25.311552 
L 90.178461 24.489905 
L 90.373344 24.493211 
L 91.965691 23.443135 
L 92.463881 22.783466 
L 93.677011 22.067228 
L 94.611673 21.80157 
L 95.803173 22.06785 
L 98.061158 23.739698 
L 98.592367 25.224391 
L 98.088554 26.512145 
L 96.474237 28.165855 
L 95.760199 29.469573 
L 95.83227 30.661077 
L 96.922901 31.585916 
L 96.709796 32.315597 
L 95.255414 33.206743 
L 93.090357 35.152989 
L 93.355383 35.978385 
L 93.393592 36.712246 
L 92.740732 36.762881 
L 91.022274 37.349116 
L 90.471364 38.119689 
L 89.608612 38.421307 
L 88.965257 38.564733 
L 88.498928 37.831417 
L 89.802885 37.68249 
L 90.924035 37.074497 
L 92.324182 36.859652 
L 93.026309 36.193301 
L 93.165535 36.843358 
L 91.900633 37.819775 
L 90.143246 37.512678 
L 88.740015 36.429639 
L 88.423199 36.174637 
L 86.547023 34.796943 
L 86.204592 33.535637 
L 86.487736 33.180399 
L 86.869363 31.71544 
L 87.548479 30.476783 
L 89.082521 31.114785 
L 90.917887 29.398528 
L 91.442536 28.213513 
L 92.045075 27.842355 
L 93.193813 27.727464 
L 94.028178 29.21507 
L 93.982782 29.94085 
L 94.403362 30.953729 
L 94.527341 31.318064 
L 96.376985 33.057997 
L 96.355427 33.144899 
L 95.700017 33.73878 
L 94.990395 34.100945 
L 94.143546 35.191358 
L 93.995338 35.964766 
L 93.001771 36.015189 
L 92.269079 37.046363 
L 91.318814 37.861277 
L 90.561345 38.251889 
L 89.945382 38.357177 
L 89.114223 37.92352 
L 88.308259 37.3639 
L 87.045796 36.778173 
L 86.663322 36.7131 
L 84.420028 35.585553 
L 83.443155 34.605901 
L 83.048102 33.727522 
L 82.043435 33.224171 
L 82.088175 32.645666 
L 80.986404 30.814009 
L 80.679366 30.343186 
L 81.157152 28.622332 
L 81.455511 27.803169 
L 82.794072 26.832224 
L 84.178238 25.981708 
L 84.333845 25.747699 
L 84.61251 25.122232 
L 83.965406 23.845197 
L 82.914086 22.87997 
L 82.902006 22.416191 
L 83.43367 21.295458 
L 84.873613 19.717774 
L 84.965218 18.075004 
L 85.440996 17.603207 
L 86.408882 16.899606 
L 87.368652 16.647417 
L 88.094075 17.05574 
L 89.078064 17.743562 
L 89.251761 18.079663 
L 89.671231 18.506553 
L 90.812602 18.268615 
L 92.44219 18.154898 
L 93.55776 17.938015 
L 93.93749 18.128394 
L 94.296752 18.122784 
L 95.277559 17.691328 
L 96.574964 18.223842 
L 97.324198 19.149815 
L 97.186055 20.333724 
L 96.544978 21.320172 
L 96.546952 21.566333 
L 95.88082 23.007235 
L 95.740202 23.800906 
L 95.421028 24.678778 
L 94.314314 25.709763 
L 93.008737 26.579992 
L 90.365211 25.827072 
L 90.005499 25.569474 
L 88.794319 24.950229 
L 88.447841 26.309046 
L 88.587518 27.242986 
L 89.002614 27.783778 
L 89.014139 29.107546 
L 89.25527 30.085237 
L 89.71257 30.828004 
L 88.741109 33.129462 
L 87.06957 34.087121 
L 85.908707 34.878275 
L 85.131295 35.09127 
L 83.547513 34.85996 
L 82.208093 35.375646 
L 81.324742 36.344262 
L 80.240368 36.685349 
L 79.110785 36.507984 
L 78.341308 35.465341 
L 78.718515 35.077675 
L 78.88717 33.865292 
L 77.839659 31.259154 
L 77.568046 30.181839 
L 77.042984 29.518217 
L 76.714423 28.652741 
L 76.300859 28.151817 
L 75.199975 27.989715 
L 74.445362 26.735169 
L 74.069384 26.560566 
L 73.191477 26.496216 
L 72.259492 25.119351 
L 72.207929 24.735369 
L 71.48263 24.074471 
L 70.557348 23.514133 
L 69.873904 22.913951 
L 69.502748 22.961025 
L 68.824769 24.517577 
L 69.789746 25.451878 
L 69.285387 26.372402 
L 69.376018 27.102131 
L 70.580481 28.673342 
L 71.268325 29.999111 
L 72.423721 29.070127 
L 73.402491 28.981551 
L 74.088549 28.670084 
L 74.491914 29.116459 
L 74.044135 30.232897 
L 73.555898 30.465399 
L 73.061737 30.058046 
L 70.793563 29.354919 
L 70.195561 28.871801 
L 69.445026 29.033823 
L 69.785004 30.192714 
L 71.419182 33.803924 
L 73.471937 34.322465 
L 74.285935 34.925259 
L 75.352251 35.09755 
L 75.402276 35.36389 
L 75.317538 36.195731 
L 78.250441 38.470623 
L 79.182628 39.334945 
L 80.686184 39.461887 
L 82.235768 38.84901 
L 83.184903 39.177737 
L 84.152211 39.897621 
L 84.155474 40.111142 
L 84.32926 40.248936 
L 84.827695 38.770691 
L 84.870642 37.77741 
L 85.508438 36.382232 
L 85.482993 35.168528 
L 86.018666 34.320469 
L 86.642321 34.075521 
L 87.59435 34.013716 
L 88.064834 33.775828 
L 88.271245 32.093638 
L 86.805557 29.278965 
L 86.497193 29.18559 
L 84.802319 29.796887 
L 84.638238 30.002971 
L 84.128486 30.335599 
L 83.766353 31.120114 
L 82.954704 30.985195 
L 81.802773 30.372598 
L 80.307944 29.826592 
L 78.713408 29.528 
L 77.206495 28.130916 
L 76.620273 27.23781 
L 76.458892 26.724942 
L 76.768131 25.861342 
L 77.434032 24.508861 
L 77.912591 23.031196 
L 79.089873 23.729337 
L 79.544947 23.557232 
L 80.918623 23.904548 
L 81.336468 24.85856 
L 83.146668 24.956312 
L 84.033935 24.913368 
L 84.597733 25.31951 
L 84.770197 26.171865 
L 84.404604 27.325258 
L 84.804421 28.181656 
L 86.60042 29.461082 
L 87.607299 29.494286 
L 88.847916 29.07194 
L 89.739735 29.625667 
L 90.373382 31.22218 
L 89.4665 34.150416 
L 88.405326 34.534766 
L 86.95925 34.247696 
L 86.452909 34.128408 
L 85.247812 34.538308 
L 84.589968 34.152078 
L 83.416819 33.903103 
L 82.837293 33.276049 
L 82.897677 32.588829 
L 83.333903 32.134888 
L 84.918364 32.410265 
L 86.408893 34.847884 
L 86.963988 36.354639 
L 86.873717 36.909229 
L 86.873717 36.909229 
" clip-path="url(#p63c6f5d56e)" style="fill: none; stroke: #348abd; stroke-width: 0.5; stroke-linecap: square"/>
   </g>
   <g id="line2d_7">
    <path d="M 99.245608 23.189676 
L 98.876888 21.211056 
" clip-path="url(#p63c6f5d56e)" style="fill: none; stroke: #000000; stroke-width: 0.8; stroke-linecap: square"/>
   </g>
   <g id="line2d_8">
    <path d="M 98.876888 21.211056 
L 98.26882 19.295344 
" clip-path="url(#p63c6f5d56e)" style="fill: none; stroke: #000000; stroke-width: 0.8; stroke-linecap: square"/>
   </g>
   <g id="line2d_9">
    <path d="M 98.26882 19.295344 
L 97.430993 17.472752 
" clip-path="url(#p63c6f5d56e)" style="fill: none; stroke: #000000; stroke-width: 0.8; stroke-linecap: square"/>
   </g>
   <g id="line2d_10">
    <path d="M 97.430993 17.472752 
L 96.37662 15.772023 
" clip-path="url(#p63c6f5d56e)" style="fill: none; stroke: #000000; stroke-width: 0.8; stroke-linecap: square"/>
   </g>
   <g id="line2d_11">
    <path d="M 96.37662 15.772023 
L 95.122329 14.219979 
" clip-path="url(#p63c6f5d56e)" style="fill: none; stroke: #000000; stroke-width: 0.8; stroke-linecap: square"/>
   </g>
   <g id="line2d_12">
    <path d="M 95.122329 14.219979 
L 93.687901 12.841097 
" clip-path="url(#p63c6f5d56e)" style="fill: none; stroke: #000000; stroke-width: 0.8; stroke-linecap: square"/>
   </g>
   <g id="line2d_13">
    <path d="M 93.687901 12.841097 
L 92.095958 11.657122 
" clip-path="url(#p63c6f5d56e)" style="fill: none; stroke: #000000; stroke-width: 0.8; stroke-linecap: square"/>
   </g>
   <g id="line2d_14">
    <path d="M 92.095958 11.657122 
L 90.371605 10.686726 
" clip-path="url(#p63c6f5d56e)" style="fill: none; stroke: #000000; stroke-width: 0.8; stroke-linecap: square"/>
   </g>
   <g id="line2d_15">
    <path d="M 90.371605 10.686726 
L 88.542038 9.945213 
" clip-path="url(#p63c6f5d56e)" style="fill: none; stroke: #000000; stroke-width: 0.8; stroke-linecap: square"/>
   </g>
   <g id="line2d_16">
    <path d="M 88.542038 9.945213 
L 86.636109 9.444277 
" clip-path="url(#p63c6f5d56e)" style="fill: none; stroke: #000000; stroke-width: 0.8; stroke-linecap: square"/>
   </g>
   <g id="line2d_17">
    <path d="M 86.636109 9.444277 
L 84.683875 9.191819 
" clip-path="url(#p63c6f5d56e)" style="fill: none; stroke: #000000; stroke-width: 0.8; stroke-linecap: square"/>
   </g>
   <g id="line2d_18">
    <path d="M 84.683875 9.191819 
L 82.716125 9.191819 
" clip-path="url(#p63c6f5d56e)" style="fill: none; stroke: #000000; stroke-width: 0.8; stroke-linecap: square"/>
   </g>
   <g id="line2d_19">
    <path d="M 82.716125 9.191819 
L 80.763891 9.444277 
" clip-path="url(#p63c6f5d56e)" style="fill: none; stroke: #000000; stroke-width: 0.8; stroke-linecap: square"/>
   </g>
   <g id="line2d_20">
    <path d="M 80.763891 9.444277 
L 78.857962 9.945213 
" clip-path="url(#p63c6f5d56e)" style="fill: none; stroke: #000000; stroke-width: 0.8; stroke-linecap: square"/>
   </g>
   <g id="line2d_21">
    <path d="M 78.857962 9.945213 
L 77.028395 10.686726 
" clip-path="url(#p63c6f5d56e)" style="fill: none; stroke: #000000; stroke-width: 0.8; stroke-linecap: square"/>
   </g>
   <g id="line2d_22">
    <path d="M 77.028395 10.686726 
L 75.304042 11.657122 
" clip-path="url(#p63c6f5d56e)" style="fill: none; stroke: #000000; stroke-width: 0.8; stroke-linecap: square"/>
   </g>
   <g id="line2d_23">
    <path d="M 75.304042 11.657122 
L 73.712099 12.841097 
" clip-path="url(#p63c6f5d56e)" style="fill: none; stroke: #000000; stroke-width: 0.8; stroke-linecap: square"/>
   </g>
   <g id="line2d_24">
    <path d="M 73.712099 12.841097 
L 72.277671 14.219979 
" clip-path="url(#p63c6f5d56e)" style="fill: none; stroke: #000000; stroke-width: 0.8; stroke-linecap: square"/>
   </g>
   <g id="line2d_25">
    <path d="M 72.277671 14.219979 
L 71.02338 15.772023 
" clip-path="url(#p63c6f5d56e)" style="fill: none; stroke: #000000; stroke-width: 0.8; stroke-linecap: square"/>
   </g>
   <g id="line2d_26">
    <path d="M 71.02338 15.772023 
L 69.969007 17.472752 
" clip-path="url(#p63c6f5d56e)" style="fill: none; stroke: #000000; stroke-width: 0.8; stroke-linecap: square"/>
   </g>
   <g id="line2d_27">
    <path d="M 69.969007 17.472752 
L 69.13118 19.295344 
" clip-path="url(#p63c6f5d56e)" style="fill: none; stroke: #000000; stroke-width: 0.8; stroke-linecap: square"/>
   </g>
   <g id="line2d_28">
    <path d="M 69.13118 19.295344 
L 68.523112 21.211056 
" clip-path="url(#p63c6f5d56e)" style="fill: none; stroke: #000000; stroke-width: 0.8; stroke-linecap: square"/>
   </g>
   <g id="line2d_29">
    <path d="M 68.523112 21.211056 
L 68.154392 23.189676 
" clip-path="url(#p63c6f5d56e)" style="fill: none; stroke: #000000; stroke-width: 0.8; stroke-linecap: square"/>
   </g>
   <g id="line2d_30">
    <path d="M 68.154392 23.189676 
L 68.030836 25.2 
" clip-path="url(#p63c6f5d56e)" style="fill: none; stroke: #000000; stroke-width: 0.8; stroke-linecap: square"/>
   </g>
   <g id="line2d_31">
    <path d="M 68.030836 25.2 
L 68.154392 27.210324 
" clip-path="url(#p63c6f5d56e)" style="fill: none; stroke: #000000; stroke-width: 0.8; stroke-linecap: square"/>
   </g>
   <g id="line2d_32">
    <path d="M 68.154392 27.210324 
L 68.523112 29.188944 
" clip-path="url(#p63c6f5d56e)" style="fill: none; stroke: #000000; stroke-width: 0.8; stroke-linecap: square"/>
   </g>
   <g id="line2d_33">
    <path d="M 68.523112 29.188944 
L 69.13118 31.104656 
" clip-path="url(#p63c6f5d56e)" style="fill: none; stroke: #000000; stroke-width: 0.8; stroke-linecap: square"/>
   </g>
   <g id="line2d_34">
    <path d="M 69.13118 31.104656 
L 69.969007 32.927248 
" clip-path="url(#p63c6f5d56e)" style="fill: none; stroke: #000000; stroke-width: 0.8; stroke-linecap: square"/>
   </g>
   <g id="line2d_35">
    <path d="M 69.969007 32.927248 
L 71.02338 34.627977 
" clip-path="url(#p63c6f5d56e)" style="fill: none; stroke: #000000; stroke-width: 0.8; stroke-linecap: square"/>
   </g>
   <g id="line2d_36">
    <path d="M 71.02338 34.627977 
L 72.277671 36.180021 
" clip-path="url(#p63c6f5d56e)" style="fill: none; stroke: #000000; stroke-width: 0.8; stroke-linecap: square"/>
   </g>
   <g id="line2d_37">
    <path d="M 72.277671 36.180021 
L 73.712099 37.558903 
" clip-path="url(#p63c6f5d56e)" style="fill: none; stroke: #000000; stroke-width: 0.8; stroke-linecap: square"/>
   </g>
   <g id="line2d_38">
    <path d="M 73.712099 37.558903 
L 75.304042 38.742878 
" clip-path="url(#p63c6f5d56e)" style="fill: none; stroke: #000000; stroke-width: 0.8; stroke-linecap: square"/>
   </g>
   <g id="line2d_39">
    <path d="M 75.304042 38.742878 
L 77.028395 39.713274 
" clip-path="url(#p63c6f5d56e)" style="fill: none; stroke: #000000; stroke-width: 0.8; stroke-linecap: square"/>
   </g>
   <g id="line2d_40">
    <path d="M 77.028395 39.713274 
L 78.857962 40.454787 
" clip-path="url(#p63c6f5d56e)" style="fill: none; stroke: #000000; stroke-width: 0.8; stroke-linecap: square"/>
   </g>
   <g id="line2d_41">
    <path d="M 78.857962 40.454787 
L 80.763891 40.955723 
" clip-path="url(#p63c6f5d56e)" style="fill: none; stroke: #000000; stroke-width: 0.8; stroke-linecap: square"/>
   </g>
   <g id="line2d_42">
    <path d="M 80.763891 40.955723 
L 82.716125 41.208181 
" clip-path="url(#p63c6f5d56e)" style="fill: none; stroke: #000000; stroke-width: 0.8; stroke-linecap: square"/>
   </g>
   <g id="line2d_43">
    <path d="M 82.716125 41.208181 
L 84.683875 41.208181 
" clip-path="url(#p63c6f5d56e)" style="fill: none; stroke: #000000; stroke-width: 0.8; stroke-linecap: square"/>
   </g>
   <g id="line2d_44">
    <path d="M 84.683875 41.208181 
L 86.636109 40.955723 
" clip-path="url(#p63c6f5d56e)" style="fill: none; stroke: #000000; stroke-width: 0.8; stroke-linecap: square"/>
   </g>
   <g id="line2d_45">
    <path d="M 86.636109 40.955723 
L 88.542038 40.454787 
" clip-path="url(#p63c6f5d56e)" style="fill: none; stroke: #000000; stroke-width: 0.8; stroke-linecap: square"/>
   </g>
   <g id="line2d_46">
    <path d="M 88.542038 40.454787 
L 90.371605 39.713274 
" clip-path="url(#p63c6f5d56e)" style="fill: none; stroke: #000000; stroke-width: 0.8; stroke-linecap: square"/>
   </g>
   <g id="line2d_47">
    <path d="M 90.371605 39.713274 
L 92.095958 38.742878 
" clip-path="url(#p63c6f5d56e)" style="fill: none; stroke: #000000; stroke-width: 0.8; stroke-linecap: square"/>
   </g>
   <g id="line2d_48">
    <path d="M 92.095958 38.742878 
L 93.687901 37.558903 
" clip-path="url(#p63c6f5d56e)" style="fill: none; stroke: #000000; stroke-width: 0.8; stroke-linecap: square"/>
   </g>
   <g id="line2d_49">
    <path d="M 93.687901 37.558903 
L 95.122329 36.180021 
" clip-path="url(#p63c6f5d56e)" style="fill: none; stroke: #000000; stroke-width: 0.8; stroke-linecap: square"/>
   </g>
   <g id="line2d_50">
    <path d="M 95.122329 36.180021 
L 96.37662 34.627977 
" clip-path="url(#p63c6f5d56e)" style="fill: none; stroke: #000000; stroke-width: 0.8; stroke-linecap: square"/>
   </g>
   <g id="line2d_51">
    <path d="M 96.37662 34.627977 
L 97.430993 32.927248 
" clip-path="url(#p63c6f5d56e)" style="fill: none; stroke: #000000; stroke-width: 0.8; stroke-linecap: square"/>
   </g>
   <g id="line2d_52">
    <path d="M 97.430993 32.927248 
L 98.26882 31.104656 
" clip-path="url(#p63c6f5d56e)" style="fill: none; stroke: #000000; stroke-width: 0.8; stroke-linecap: square"/>
   </g>
   <g id="line2d_53">
    <path d="M 98.26882 31.104656 
L 98.876888 29.188944 
" clip-path="url(#p63c6f5d56e)" style="fill: none; stroke: #000000; stroke-width: 0.8; stroke-linecap: square"/>
   </g>
   <g id="line2d_54">
    <path d="M 98.876888 29.188944 
L 99.245608 27.210324 
" clip-path="url(#p63c6f5d56e)" style="fill: none; stroke: #000000; stroke-width: 0.8; stroke-linecap: square"/>
   </g>
   <g id="line2d_55">
    <path d="M 99.245608 27.210324 
L 99.369164 25.2 
" clip-path="url(#p63c6f5d56e)" style="fill: none; stroke: #000000; stroke-width: 0.8; stroke-linecap: square"/>
   </g>
   <g id="line2d_56">
    <path d="M 99.369164 25.2 
L 99.245608 23.189676 
" clip-path="url(#p63c6f5d56e)" style="fill: none; stroke: #000000; stroke-width: 0.8; stroke-linecap: square"/>
   </g>
  </g>
  <g id="axes_3">
   <g id="line2d_57">
    <path d="M 142.670709 28.234392 
L 142.649805 29.450407 
L 142.13717 31.054414 
L 141.836023 31.556897 
L 141.165837 32.511437 
L 139.668127 33.614518 
L 139.055742 33.269881 
L 138.442521 33.178229 
L 136.302665 33.658073 
L 135.869398 33.915586 
L 135.427931 34.014282 
L 134.623933 33.633469 
L 133.3 31.607499 
L 133.648684 30.908492 
L 133.75772 30.20465 
L 133.391393 29.324877 
L 132.879367 28.673906 
L 131.309282 28.074274 
L 130.132126 29.446537 
L 128.750987 30.06339 
L 128.13839 29.623777 
L 127.98245 29.248385 
L 127.890927 27.938159 
L 128.735748 25.878868 
L 128.824951 24.071233 
L 129.251473 23.081415 
L 129.205632 22.447794 
L 129.709577 20.99984 
L 128.893257 20.358352 
L 128.508853 19.844037 
L 128.760339 18.967653 
L 129.123308 17.01284 
L 129.470731 16.802995 
L 130.187717 16.046067 
L 131.206746 16.085752 
L 132.025541 15.502851 
L 132.253112 15.151032 
L 133.279386 14.665945 
L 133.889583 13.871697 
L 134.335837 13.4943 
L 135.329121 13.224862 
L 136.760159 12.611206 
L 138.268973 11.653253 
L 139.353644 11.838538 
L 139.727131 12.521855 
L 139.860053 12.51042 
L 140.919191 12.687622 
L 143.378839 11.247669 
L 144.321917 11.799322 
L 144.891654 12.72784 
L 145.636391 13.394457 
L 146.855694 15.024205 
L 147.118903 16.033917 
L 147.033317 16.721739 
L 146.603519 17.569536 
L 145.590092 18.525051 
L 145.202886 18.625119 
L 145.00864 18.554572 
L 143.805213 17.805626 
L 143.345358 17.841847 
L 143.75863 18.292655 
L 143.671527 19.150214 
L 144.029904 19.780988 
L 146.782041 19.853031 
L 148.727924 20.183584 
L 149.685287 20.94861 
L 151.754066 20.877172 
L 153.674015 22.152943 
L 153.990261 22.030669 
L 154.588394 21.398019 
L 155.391015 22.320586 
L 155.442612 22.885744 
L 156.280702 23.506577 
L 155.163118 25.519101 
L 155.756374 27.149278 
L 156.576405 28.519265 
L 155.917143 31.474284 
L 155.780569 32.701989 
L 156.284407 34.114468 
L 156.243377 34.795318 
L 157.042987 36.069149 
L 156.999588 37.387795 
L 156.277707 38.280219 
L 155.711244 38.801117 
L 155.569604 39.224017 
L 154.879211 39.979562 
L 153.883071 40.445865 
L 153.24755 39.965712 
L 152.42323 37.993674 
L 151.705622 37.695068 
L 150.523553 37.378928 
L 149.897307 37.096082 
L 148.576511 36.218023 
L 148.081693 36.17173 
L 147.156791 35.659384 
L 146.518238 35.789649 
L 145.439416 36.331192 
L 144.66295 36.449518 
L 143.690541 36.194938 
L 142.562768 35.483934 
L 141.912754 35.203621 
L 141.015313 33.301645 
L 140.035134 32.18862 
L 140.133877 31.42386 
L 139.580778 29.949738 
L 139.773751 29.65949 
L 140.315496 28.096744 
L 138.134182 27.743396 
L 136.552882 27.742354 
L 136.034695 27.920398 
L 135.702996 28.339926 
L 135.874839 28.970342 
L 135.880306 29.071639 
L 135.572289 29.635658 
L 134.893144 30.420748 
L 134.633033 31.179965 
L 133.397145 31.712763 
L 131.566723 31.976805 
L 130.609478 31.674508 
L 130.098704 31.229121 
L 128.807919 30.871188 
L 128.343122 30.314276 
L 128.007847 29.72834 
L 128.229736 29.38662 
L 128.99975 28.584277 
L 129.234405 27.470757 
L 130.19595 25.999452 
L 130.195312 25.831051 
L 130.755608 24.520751 
L 130.824251 23.916111 
L 130.739489 23.018668 
L 130.927658 22.185127 
L 130.882896 21.631892 
L 130.477788 21.348476 
L 130.27974 20.867608 
L 130.442746 19.978981 
L 130.89371 19.267877 
L 130.991828 18.802641 
L 131.667153 17.965743 
L 131.821278 17.228448 
L 132.159057 16.43003 
L 132.364146 16.328785 
L 133.051575 16.145713 
L 133.855815 15.405848 
L 133.904674 14.354703 
L 134.804314 13.212438 
L 135.209201 12.424738 
L 135.202975 11.831275 
L 134.327658 10.18625 
L 133.687574 9.991984 
L 132.880878 10.511107 
L 133.363141 11.171228 
L 134.32407 10.95544 
L 135.707882 11.734746 
L 137.035854 13.789904 
L 137.119846 14.911712 
L 135.88688 15.542372 
L 135.397816 15.725077 
L 135.08133 16.286552 
L 134.332286 16.801381 
L 133.802382 17.553277 
L 132.927499 18.524405 
L 131.939603 19.300303 
L 131.47573 19.20415 
L 130.331008 19.418424 
L 127.928098 19.411486 
L 128.009276 19.825861 
L 129.013464 21.174276 
L 129.909245 21.636757 
L 130.964164 22.472258 
L 131.220746 22.841292 
L 132.352515 23.027431 
L 132.842913 22.866148 
L 133.689747 22.96553 
L 133.99285 22.739516 
L 135.358751 22.048817 
L 136.778489 21.872255 
L 137.905858 22.127317 
L 139.66261 21.900502 
L 140.790698 20.957911 
L 141.105531 20.991401 
L 142.64427 21.88439 
L 142.75701 20.755994 
L 142.628706 20.363167 
L 141.988373 19.728136 
L 141.074869 18.308768 
L 140.573787 16.859957 
L 139.945193 16.458493 
L 139.174889 15.695074 
L 138.247169 14.077023 
L 137.794233 13.743145 
L 137.362813 13.195891 
L 136.882131 12.844016 
L 134.600627 14.526258 
L 133.261033 16.508376 
L 132.854471 16.996721 
L 132.220196 17.497065 
L 131.613354 17.720562 
L 129.786043 17.966129 
L 128.205002 17.957003 
L 127.860549 17.482216 
L 127.983778 16.970239 
L 128.079125 13.999237 
L 128.459332 13.320923 
L 128.353521 12.596509 
L 128.428238 11.001054 
L 128.290218 10.683597 
L 128.539832 9.952087 
L 129.693997 9.949979 
L 130.383494 10.639101 
L 131.221771 10.346819 
L 132.862037 10.667483 
L 133.079636 10.837535 
L 133.843159 11.244594 
L 134.931584 11.319468 
L 135.729584 12.0779 
L 135.98184 12.543795 
L 135.872334 14.092575 
L 135.409324 15.062749 
L 134.747881 15.202805 
L 132.682263 14.769932 
L 131.474207 13.831783 
L 130.105713 13.178888 
L 128.710428 12.966762 
L 128.16072 12.173945 
L 128.853194 11.360289 
L 129.119477 10.040952 
L 128.274692 10.043112 
L 129.010412 11.318033 
L 129.235187 12.505871 
L 129.598249 13.10878 
L 129.03931 14.969064 
L 128.997474 16.278091 
L 129.107795 17.807498 
L 128.249089 19.059255 
L 128.499011 19.691586 
L 130.154669 20.74563 
L 131.485438 20.75701 
L 132.293642 21.882215 
L 132.750466 23.010907 
L 134.010375 24.088205 
L 134.706435 24.397232 
L 135.151894 24.748495 
L 136.50915 24.622677 
L 136.914 24.853698 
L 137.672327 24.773233 
L 137.728119 23.76612 
L 137.039982 23.278984 
L 136.437611 22.34658 
L 135.841022 20.761562 
L 135.745551 19.85157 
L 136.95005 18.526793 
L 137.948662 17.988701 
L 138.480416 17.50349 
L 139.485326 17.09363 
L 139.909889 16.682731 
L 140.689383 16.120885 
L 141.945057 15.945458 
L 143.292115 14.853913 
L 143.427319 14.403931 
L 143.488252 13.719278 
L 144.082979 12.989078 
L 144.166836 11.007127 
L 143.992892 10.096443 
L 143.61445 10.054799 
L 142.233189 10.30535 
L 141.584091 10.803541 
L 141.797843 12.2148 
L 141.989237 12.633462 
L 142.854638 14.993753 
L 142.822414 16.021302 
L 142.114115 17.519369 
L 142.306059 18.117374 
L 142.578541 19.371621 
L 142.270515 20.412252 
L 141.473942 22.00626 
L 140.163542 22.953741 
L 139.96853 23.263179 
L 139.413344 23.85321 
L 138.384869 23.422527 
L 137.334569 23.507615 
L 136.589199 23.802073 
L 135.243657 24.669203 
L 134.285979 24.44212 
L 133.884916 26.031631 
L 134.208639 28.205289 
L 134.040489 28.676609 
L 133.186151 28.860923 
L 131.481124 28.666749 
L 129.698921 27.639924 
L 128.937385 28.197815 
L 127.934787 28.732508 
L 128.094153 30.399906 
L 128.744672 31.707292 
L 130.276758 32.309175 
L 131.261413 32.122832 
L 131.913778 31.716679 
L 133.225306 31.266815 
L 135.326679 30.207492 
L 136.397324 30.702671 
L 138.310603 30.843624 
L 139.75479 30.218874 
L 139.818578 29.229667 
L 139.697442 29.172092 
L 138.652553 27.890747 
L 138.592012 27.023554 
L 138.226194 26.253795 
L 137.467979 26.482655 
L 136.406648 26.138431 
L 136.141589 25.143794 
L 136.323945 23.128414 
L 136.892354 21.81298 
L 136.911646 21.208414 
L 137.324588 19.633602 
L 137.496456 19.087379 
L 137.844419 18.424316 
L 139.941946 17.625708 
L 140.125067 17.118207 
L 143.562911 15.00281 
L 144.593942 14.949819 
L 145.093367 14.576345 
L 146.895468 14.334793 
L 147.1647 14.641813 
L 148.42373 15.61679 
L 149.508862 16.122135 
L 149.654412 16.3536 
L 150.679987 17.015359 
L 155.14921 18.522304 
L 157.431782 16.949779 
L 157.401744 16.153403 
L 157.150926 15.379775 
L 154.361612 15.991368 
L 152.258684 14.912211 
L 151.720669 15.200891 
L 150.951814 16.308173 
L 150.958538 16.912322 
L 150.779711 18.239754 
L 150.023133 19.645534 
L 149.849114 20.347001 
L 147.901782 21.139011 
L 147.624276 21.620585 
L 147.072156 22.105393 
L 146.294742 22.069751 
L 145.668605 22.215789 
L 145.20631 22.184099 
L 144.586264 21.740318 
L 143.41811 21.280386 
L 143.212483 18.024999 
L 143.017059 17.374291 
L 140.818563 15.556691 
L 140.105378 15.658777 
L 139.089376 15.323655 
L 137.722903 14.745057 
L 137.422187 14.431082 
L 136.30283 12.415123 
L 136.162446 11.815801 
L 136.372348 10.835294 
L 137.374341 10.446834 
L 139.028232 9.933367 
L 139.350167 10.155663 
L 139.456649 10.538535 
L 139.984794 11.572282 
L 140.005808 12.683035 
L 139.248184 13.881339 
L 138.149942 13.672585 
L 137.46682 13.411141 
L 137.263938 12.981681 
L 136.758393 12.997798 
L 136.055254 13.153551 
L 134.927709 13.113475 
L 133.979171 13.495837 
L 133.048444 13.695559 
L 132.624563 14.208611 
L 132.752883 14.960431 
L 132.694505 15.33498 
L 132.011818 16.525685 
L 132.727374 17.807158 
L 133.266145 18.993254 
L 134.704504 19.01072 
L 135.518192 18.576225 
L 135.863967 17.895698 
L 136.361908 17.172244 
L 137.205419 16.510309 
L 138.821612 15.457991 
L 142.18007 12.971283 
L 142.74995 11.324773 
L 142.844913 10.714367 
L 143.593842 10.002649 
L 144.832726 9.995625 
L 145.973991 11.835032 
L 145.973991 11.835032 
" clip-path="url(#p0722bfa38c)" style="fill: none; stroke: #348abd; stroke-width: 0.5; stroke-linecap: square"/>
   </g>
   <g id="line2d_58">
    <path d="M 158.451517 9.160168 
L 127.113189 9.160168 
" clip-path="url(#p0722bfa38c)" style="fill: none; stroke: #000000; stroke-width: 0.8; stroke-linecap: square"/>
   </g>
   <g id="line2d_59">
    <path d="M 127.113189 9.160168 
L 127.113189 41.239832 
" clip-path="url(#p0722bfa38c)" style="fill: none; stroke: #000000; stroke-width: 0.8; stroke-linecap: square"/>
   </g>
   <g id="line2d_60">
    <path d="M 127.113189 41.239832 
L 158.451517 41.239832 
" clip-path="url(#p0722bfa38c)" style="fill: none; stroke: #000000; stroke-width: 0.8; stroke-linecap: square"/>
   </g>
   <g id="line2d_61">
    <path d="M 158.451517 41.239832 
L 158.451517 9.160168 
" clip-path="url(#p0722bfa38c)" style="fill: none; stroke: #000000; stroke-width: 0.8; stroke-linecap: square"/>
   </g>
   <g id="line2d_62">
    <path d="M 142.782353 33.219916 
L 142.782353 17.180084 
" clip-path="url(#p0722bfa38c)" style="fill: none; stroke: #000000; stroke-width: 0.8; stroke-linecap: square"/>
   </g>
   <g id="line2d_63">
    <path d="M 142.782353 33.219916 
L 142.782353 17.180084 
" clip-path="url(#p0722bfa38c)" style="fill: none; stroke: #000000; stroke-width: 0.8; stroke-linecap: square"/>
   </g>
  </g>
  <g id="axes_4">
   <g id="line2d_64">
    <path d="M 6.612529 98.400608 
L 6.000513 98.5624 
L 5.315949 98.511426 
L 4.358471 98.709768 
L 3.571791 99.496665 
L 3.007344 99.654447 
L 2.616271 99.549649 
L 2.32806 98.643789 
L 2.295313 97.751103 
L 2.628834 97.470591 
L 4.260237 98.438679 
L 4.960379 98.556946 
L 5.573514 98.974314 
L 6.47274 99.285155 
L 8.285283 98.51571 
L 9.004455 97.481116 
L 8.79006 96.732913 
L 8.905593 95.093994 
L 9.588572 93.442518 
L 10.652659 91.981459 
L 11.882414 91.148886 
L 12.070382 90.512659 
L 12.058638 88.68878 
L 11.108255 86.780395 
L 9.916063 86.310467 
L 9.095988 85.206237 
L 7.866548 85.167826 
L 7.249054 84.774765 
L 5.881001 83.587229 
L 5.127461 83.216688 
L 4.154244 81.393557 
L 3.511836 80.243573 
L 2.398359 79.483432 
L 3.119257 76.5829 
L 3.634921 75.777569 
L 3.188159 74.941802 
L 3.010213 74.194218 
L 3.082776 72.951363 
L 3.184582 72.342927 
L 3.438909 71.732991 
L 2.937274 70.669136 
L 2.245399 69.750393 
L 2.822553 67.924282 
L 2.886001 67.044242 
L 2.44025 65.371323 
L 3.074674 64.12331 
L 4.705596 63.712615 
L 5.867662 64.156901 
L 7.115892 64.191604 
L 8.968933 64.635297 
L 9.656708 64.930255 
L 10.142285 66.147082 
L 10.658806 66.322544 
L 11.387618 66.340521 
L 13.330141 64.988042 
L 14.053474 64.5902 
L 14.546762 64.848291 
L 14.448514 66.351019 
L 14.57353 67.055811 
L 14.60829 68.113157 
L 15.157355 69.501853 
L 15.221422 69.997862 
L 15.494335 70.767857 
L 15.482522 71.207457 
L 15.649813 72.522825 
L 16.868582 73.269463 
L 19.759531 74.47849 
L 20.525193 75.404769 
L 20.850835 77.04359 
L 21.085952 77.397728 
L 20.691443 77.973371 
L 19.13136 79.30094 
L 18.897506 80.087176 
L 18.726619 81.131943 
L 17.819385 83.034543 
L 17.670741 83.853606 
L 18.086837 84.64714 
L 20.673432 86.085486 
L 21.788421 87.686085 
L 21.954207 88.577055 
L 22.610815 89.438541 
L 22.849084 90.037862 
L 22.400079 90.544506 
L 21.487191 91.033383 
L 20.506009 91.699715 
L 19.773983 91.519857 
L 19.456485 91.557611 
L 18.816583 91.768517 
L 18.109234 93.165415 
L 19.390717 94.476419 
L 21.946224 95.417246 
L 23.036856 94.187165 
L 23.937639 93.474154 
L 24.204279 92.18809 
L 24.117408 91.832919 
L 23.208637 90.823077 
L 22.616744 89.155515 
L 23.077681 88.083781 
L 23.071556 86.997886 
L 25.332332 86.343257 
L 27.326945 85.307241 
L 28.244669 84.454652 
L 30.227849 85.72017 
L 31.181015 86.843693 
L 32.537548 87.544917 
L 33.883492 87.835555 
L 34.122513 88.137712 
L 34.972597 88.704406 
L 35.4286 89.376374 
L 35.899736 90.295172 
L 36.861909 90.715858 
L 37.676378 90.907784 
L 38.701309 90.996076 
L 39.387941 90.854252 
L 40.297395 91.147605 
L 40.790863 91.521796 
L 42.0145 92.729604 
L 43.318273 93.702036 
L 43.691071 94.252932 
L 44.189221 95.366707 
L 45.070086 96.148617 
L 45.848756 96.582638 
L 46.476414 97.895881 
L 46.455995 98.831725 
L 46.964933 100.073595 
L 46.921169 100.477047 
L 46.668094 101.716739 
L 46.873226 102.737602 
L 46.568767 104.889034 
L 46.514126 105.886826 
L 46.620289 106.25634 
L 46.117039 107.658366 
L 45.093175 108.353218 
L 43.708844 108.405925 
L 42.631082 107.80058 
L 41.153716 107.220472 
L 39.576197 106.922119 
L 37.644162 105.512846 
L 36.789836 104.718131 
L 36.238673 103.151919 
L 33.563102 101.001302 
L 32.24898 99.353252 
L 31.462831 99.232001 
L 30.656284 99.613064 
L 29.564911 98.899325 
L 27.809907 99.017941 
L 26.962505 99.395937 
L 25.542056 99.309789 
L 23.476661 98.136225 
L 22.278672 98.055175 
L 21.591942 98.291307 
L 21.061728 98.311121 
L 20.101771 97.809343 
L 16.865495 99.10536 
L 15.897818 98.971122 
L 14.531096 98.002966 
L 13.914986 97.847785 
L 13.373332 97.852968 
L 12.575912 97.440892 
L 12.049601 96.744447 
L 11.442668 95.602178 
L 11.413731 94.981161 
L 11.132933 93.872016 
L 11.431192 93.160469 
L 11.469993 92.652598 
L 12.05356 91.494791 
L 14.509451 90.15709 
L 14.657582 89.455464 
L 15.630265 89.122539 
L 15.67703 88.921924 
L 16.394798 88.620227 
L 17.408514 87.201808 
L 17.429985 86.279561 
L 16.982564 85.275768 
L 16.756551 84.019867 
L 16.830765 83.633395 
L 16.60825 82.669972 
L 16.685974 81.876232 
L 17.751856 80.913651 
L 17.988732 80.540398 
L 18.126845 79.386615 
L 17.222813 78.406383 
L 16.79538 78.357793 
L 14.289911 79.801916 
L 12.502127 81.187591 
L 11.651547 81.639264 
L 11.007405 81.318364 
L 7.913244 81.466713 
L 7.081887 81.70269 
L 5.957565 82.479374 
L 4.980592 81.718041 
L 2.853435 81.865679 
L 2.298349 82.457947 
L 2.244716 83.025996 
L 2.967694 84.620267 
L 2.527766 85.484984 
L 2.246128 87.407591 
L 2.852548 87.914684 
L 2.976748 88.769617 
L 2.782921 88.942399 
L 2.423617 90.613101 
L 2.940919 91.112962 
L 3.502947 91.820321 
L 4.02023 92.616861 
L 5.68276 95.002762 
L 7.118238 96.789275 
L 7.606154 98.046094 
L 7.935157 99.363989 
L 8.333406 100.008491 
L 8.769641 100.395466 
L 9.803622 100.99867 
L 10.167551 101.667205 
L 10.695482 102.337819 
L 12.800243 102.370065 
L 13.660003 101.881105 
L 14.087571 100.769413 
L 12.913585 101.170654 
L 12.405308 100.829372 
L 11.559254 101.194526 
L 10.915081 101.21278 
L 10.222844 100.716577 
L 9.038546 100.244069 
L 8.001356 99.4144 
L 6.294636 98.988094 
L 4.156765 98.290964 
L 2.734015 98.121484 
L 2.577223 97.924873 
L 2.881523 95.922074 
L 3.098468 94.983752 
L 4.599805 93.453215 
L 5.561088 93.320185 
L 6.654337 93.626895 
L 7.823031 93.913382 
L 8.203241 93.613592 
L 9.936855 95.047201 
L 10.591212 97.459489 
L 9.993314 98.202601 
L 9.855862 98.60386 
L 9.307171 99.289959 
L 8.764461 99.528761 
L 7.195289 99.813861 
L 5.001631 99.031821 
L 2.579306 97.8396 
L 2.283902 97.082919 
L 2.786027 95.25793 
L 3.758318 93.544195 
L 5.22112 91.885225 
L 5.248245 90.471136 
L 5.437527 89.890433 
L 6.816053 88.721238 
L 7.780298 88.791018 
L 8.203097 89.668825 
L 8.349901 90.898894 
L 8.276527 91.453727 
L 7.906607 92.736375 
L 8.211768 93.082657 
L 9.166546 93.693607 
L 9.931321 95.457371 
L 10.526999 96.133811 
L 11.568225 96.69793 
L 12.569666 96.795427 
L 12.958626 96.980344 
L 13.461185 97.005719 
L 14.764824 96.591259 
L 15.98792 94.468422 
L 16.888728 94.288441 
L 17.319086 94.794217 
L 18.237874 95.070022 
L 19.07855 95.102408 
L 21.161257 94.864448 
L 21.90387 95.117116 
L 22.40717 95.920169 
L 22.66757 96.949173 
L 22.301741 98.133661 
L 21.46078 99.394676 
L 21.347269 100.032986 
L 20.730467 100.892262 
L 21.890449 102.48516 
L 21.451591 103.594575 
L 22.877833 106.404797 
L 22.089286 107.562085 
L 21.190801 108.048046 
L 19.523469 108.33167 
L 18.736978 108.308093 
L 17.864269 107.622063 
L 16.135272 106.778341 
L 15.914529 106.240072 
L 14.853483 105.724227 
L 14.160706 105.144525 
L 14.242756 103.015525 
L 14.561871 102.636249 
L 15.892855 101.299971 
L 16.797077 99.178642 
L 17.41685 98.41715 
L 18.570079 97.534083 
L 19.084324 96.685613 
L 19.346457 95.852818 
L 20.786313 94.858578 
L 21.262735 94.914367 
L 22.092895 95.240541 
L 23.670398 95.738764 
L 24.148368 95.706218 
L 27.546599 96.935052 
L 27.890161 98.050355 
L 28.427402 99.36425 
L 28.593341 100.370769 
L 28.447259 100.596167 
L 28.54762 100.978502 
L 28.399505 101.534899 
L 27.787874 102.042513 
L 26.876666 104.346051 
L 24.76519 104.862448 
L 23.437731 104.546776 
L 22.420739 103.119944 
L 21.924794 102.699269 
L 22.070874 102.0089 
L 22.125949 100.670688 
L 22.399101 100.115618 
L 23.860771 98.811131 
L 25.058961 97.295059 
L 25.859391 95.76705 
L 25.505022 94.773669 
L 24.981212 94.629605 
L 24.439708 93.873485 
L 24.29075 93.419732 
L 24.404336 92.483967 
L 24.169192 91.595543 
L 24.146438 89.566685 
L 23.803636 88.5821 
L 25.758207 87.797233 
L 27.389284 87.100226 
L 28.694202 86.007258 
L 28.956701 86.265453 
L 29.582505 86.552942 
L 30.520042 86.743857 
L 32.179665 86.522479 
L 36.414536 86.379642 
L 37.704124 86.693412 
L 39.851374 86.166079 
L 40.810618 86.771467 
L 41.094516 87.914828 
L 41.647951 88.445288 
L 42.208882 89.270842 
L 45.112208 90.714604 
L 46.23341 91.234827 
L 46.218746 92.656727 
L 46.397174 93.19215 
L 46.800578 93.17484 
L 46.914154 92.068415 
L 46.8218 90.54569 
L 46.442703 89.722316 
L 45.34534 88.822352 
L 43.716721 88.453674 
L 42.761545 88.251954 
L 42.253148 87.76035 
L 41.664105 86.955077 
L 41.81264 85.394917 
L 41.70788 84.753019 
L 40.532686 83.100829 
L 40.4009 82.424941 
L 39.969623 81.414755 
L 38.140933 80.797396 
L 37.430749 80.720517 
L 36.647476 80.508365 
L 36.423483 80.043737 
L 36.488737 79.13842 
L 35.743421 78.132287 
L 36.644797 77.658354 
L 38.458785 75.766511 
L 39.540442 75.098775 
L 39.769013 75.215432 
L 40.147165 75.585518 
L 42.14445 76.049497 
L 43.373827 76.074332 
L 44.702707 75.110161 
L 44.702707 75.110161 
" clip-path="url(#p2e5f560665)" style="fill: none; stroke: #348abd; stroke-width: 0.5; stroke-linecap: square"/>
   </g>
   <g id="line2d_65">
    <path d="M 48.121393 61.620252 
L 1.113901 61.620252 
" clip-path="url(#p2e5f560665)" style="fill: none; stroke: #000000; stroke-width: 0.8; stroke-linecap: square"/>
   </g>
   <g id="line2d_66">
    <path d="M 1.113901 61.620252 
L 1.113901 109.739748 
" clip-path="url(#p2e5f560665)" style="fill: none; stroke: #000000; stroke-width: 0.8; stroke-linecap: square"/>
   </g>
   <g id="line2d_67">
    <path d="M 1.113901 109.739748 
L 48.121393 109.739748 
" clip-path="url(#p2e5f560665)" style="fill: none; stroke: #000000; stroke-width: 0.8; stroke-linecap: square"/>
   </g>
   <g id="line2d_68">
    <path d="M 48.121393 109.739748 
L 48.121393 61.620252 
" clip-path="url(#p2e5f560665)" style="fill: none; stroke: #000000; stroke-width: 0.8; stroke-linecap: square"/>
   </g>
  </g>
  <g id="axes_5">
   <g id="line2d_69">
    <path d="M 105.956513 80.971091 
L 105.621141 79.535823 
L 106.079679 77.622825 
L 105.743521 77.234354 
L 105.679555 76.403276 
L 105.210441 75.360608 
L 103.072862 74.589321 
L 101.614551 72.110456 
L 101.111272 71.98714 
L 100.132009 72.279203 
L 99.739794 71.956617 
L 99.527393 70.895539 
L 98.972195 70.763004 
L 97.714539 71.702787 
L 96.468378 73.013643 
L 96.525341 73.666462 
L 96.830577 73.974756 
L 97.23108 73.666154 
L 96.440271 72.902898 
L 94.309247 71.267913 
L 90.917989 72.790135 
L 90.729045 73.045017 
L 89.360415 73.849583 
L 87.852213 72.595271 
L 84.692247 70.735587 
L 84.166775 71.069345 
L 83.986577 70.996423 
L 82.450639 70.750106 
L 81.22996 70.426029 
L 80.277069 70.814392 
L 79.3902 71.763298 
L 79.040838 73.143303 
L 79.136433 74.405941 
L 79.46065 77.110845 
L 79.012757 77.509132 
L 78.544849 79.260832 
L 78.828968 80.083842 
L 78.587632 80.721283 
L 78.743406 81.597919 
L 79.770848 82.254146 
L 80.037926 83.026603 
L 80.117482 84.311422 
L 79.763843 86.053743 
L 79.442642 86.882016 
L 79.405064 87.425287 
L 79.631144 87.852961 
L 80.092222 88.024843 
L 80.906737 88.839339 
L 81.013545 89.126468 
L 81.670346 89.329663 
L 84.005446 91.3185 
L 85.170588 91.135142 
L 86.028056 91.15595 
L 86.163514 90.995083 
L 86.105304 90.341827 
L 85.897554 88.46903 
L 86.308124 87.942538 
L 87.835927 87.539918 
L 88.302461 87.613468 
L 89.146149 87.286371 
L 89.68215 87.533004 
L 90.068251 87.849503 
L 91.479756 89.301438 
L 92.807543 90.550648 
L 93.928082 93.840223 
L 94.78337 95.990728 
L 93.537401 100.395346 
L 93.443692 100.751836 
L 92.411203 100.94889 
L 91.643236 100.78225 
L 90.834046 100.304873 
L 90.506438 99.674934 
L 90.438498 98.9459 
L 90.076583 98.490747 
L 88.982769 97.665283 
L 88.881305 97.444917 
L 88.291117 96.645983 
L 88.089707 95.589628 
L 87.830868 95.454766 
L 87.805644 95.325185 
L 88.838154 94.349145 
L 89.763022 93.756651 
L 91.000734 93.721569 
L 91.598861 94.038323 
L 92.512877 96.006025 
L 92.222512 96.523521 
L 89.57048 95.429203 
L 87.982615 94.889066 
L 87.419444 95.247078 
L 86.401658 95.6011 
L 85.603068 95.213526 
L 85.244549 94.691584 
L 84.258801 94.404835 
L 83.032976 94.24535 
L 81.810745 93.934341 
L 81.904583 94.553929 
L 82.816107 95.311294 
L 83.574759 95.636486 
L 83.758642 96.16455 
L 83.651925 96.430974 
L 82.744742 96.868512 
L 82.189926 96.534552 
L 81.393838 96.442926 
L 80.821057 96.630037 
L 80.276286 98.020181 
L 79.563042 99.2856 
L 79.336434 99.456672 
L 79.003361 100.862559 
L 79.279769 100.920094 
L 79.423415 100.727366 
L 79.409222 100.353301 
L 79.11291 99.673094 
L 77.870666 98.772213 
L 75.684957 98.342118 
L 73.767628 98.280359 
L 72.020246 98.045646 
L 71.426075 97.009611 
L 71.719403 96.226238 
L 71.502256 95.085447 
L 70.680917 94.074829 
L 69.311981 93.345047 
L 66.046478 92.97119 
L 65.366027 92.583685 
L 63.982098 92.40502 
L 62.105626 92.78921 
L 61.467005 93.674099 
L 61.397546 94.282888 
L 61.338621 95.664288 
L 61.924599 97.744285 
L 61.702739 98.545817 
L 62.222009 99.761076 
L 63.05869 100.257552 
L 63.442962 100.212034 
L 64.481008 99.00694 
L 66.047791 97.684048 
L 67.345017 96.843111 
L 69.180274 97.16813 
L 70.686235 96.167651 
L 70.805612 95.48685 
L 71.648333 95.070257 
L 72.469942 94.79746 
L 73.724638 93.873962 
L 72.656195 93.288831 
L 72.148267 93.609831 
L 70.332197 93.37996 
L 68.527648 93.731393 
L 68.478029 94.34133 
L 67.797197 95.074208 
L 66.271504 95.274829 
L 65.79653 95.028954 
L 64.994096 93.628636 
L 64.829583 92.608436 
L 64.423771 90.826332 
L 64.701898 89.814592 
L 64.587681 89.26361 
L 64.663218 89.026191 
L 64.892727 87.763229 
L 64.681989 86.428212 
L 64.277023 86.135775 
L 62.68434 85.454028 
L 61.914736 84.638763 
L 61.543757 83.113116 
L 62.116881 81.72303 
L 63.391952 81.411254 
L 64.737299 82.254387 
L 66.203761 82.288446 
L 67.544202 82.11123 
L 71.261598 80.036053 
L 72.928754 79.164574 
L 73.890444 77.574497 
L 74.015273 77.028285 
L 74.151486 75.490282 
L 73.502249 74.5864 
L 73.163114 73.663372 
L 73.139508 72.270384 
L 72.781007 71.262179 
L 72.865172 70.40505 
L 74.010481 70.972056 
L 76.589969 70.605737 
L 78.243306 72.554573 
L 77.535879 73.982488 
L 77.54652 74.769118 
L 78.138098 76.724902 
L 79.211142 76.419041 
L 79.539375 75.45667 
L 79.122127 73.858663 
L 78.698215 71.17701 
L 78.847653 70.604555 
L 79.833616 70.843643 
L 80.172465 70.681655 
L 80.845214 71.271477 
L 82.708149 70.98089 
L 83.586486 71.407953 
L 84.379759 72.376795 
L 84.878766 72.518815 
L 85.236334 73.376122 
L 85.50315 75.637887 
L 84.230465 77.531162 
L 83.132957 78.350596 
L 82.426692 78.751303 
L 81.723901 79.481968 
L 80.17772 79.878892 
L 79.409208 81.156887 
L 80.176569 82.477997 
L 80.735611 82.769134 
L 82.214985 82.76814 
L 83.914466 82.036883 
L 85.008759 82.048726 
L 85.854967 81.551353 
L 88.774215 80.877345 
L 89.779638 81.044577 
L 92.559256 82.273058 
L 93.277608 82.388584 
L 94.05404 82.398946 
L 96.021378 83.225347 
L 96.816852 83.27584 
L 98.471347 83.158872 
L 98.799703 82.99475 
L 99.975049 82.818062 
L 100.924967 82.809413 
L 101.308351 83.160384 
L 101.453667 84.159458 
L 100.279565 84.241457 
L 98.985992 83.707045 
L 98.796047 83.263041 
L 99.309381 82.681684 
L 100.821294 81.660511 
L 101.363075 80.79214 
L 101.75518 80.775777 
L 102.363503 80.543086 
L 103.273438 82.190922 
L 103.219345 83.833178 
L 104.291557 86.141076 
L 104.48869 87.121505 
L 104.308936 87.286426 
L 101.392462 87.094408 
L 101.078436 88.215832 
L 100.904615 89.701754 
L 100.387519 91.191986 
L 100.135337 91.460663 
L 99.33682 91.755597 
L 99.101081 92.065613 
L 98.167114 92.565138 
L 97.35312 93.18181 
L 96.632904 94.005247 
L 96.111219 94.964504 
L 95.793183 95.276234 
L 95.154773 96.111793 
L 95.420641 96.9407 
L 95.359651 97.473902 
L 93.984817 97.894701 
L 92.038263 98.593417 
L 90.638909 98.806177 
L 90.04234 98.328111 
L 88.322919 98.961834 
L 87.238939 99.634395 
L 86.711137 100.169951 
L 86.453201 100.823577 
L 86.012265 100.942869 
L 84.850722 99.684216 
L 82.410662 98.956418 
L 81.869821 98.456406 
L 81.833145 98.02824 
L 82.059073 97.633128 
L 83.187627 96.728445 
L 84.450167 93.529555 
L 84.251535 92.762925 
L 84.250652 91.525942 
L 87.807234 90.065956 
L 88.758446 90.10163 
L 90.0309 90.412909 
L 90.715313 92.083317 
L 91.173811 92.406058 
L 92.011117 92.049677 
L 92.320735 90.840446 
L 92.253139 89.911627 
L 92.47115 88.939442 
L 92.441956 87.30898 
L 92.084673 86.271231 
L 91.562029 85.529657 
L 91.200427 85.249308 
L 90.279258 85.185124 
L 89.627707 85.308947 
L 88.708938 84.899758 
L 88.44937 83.822143 
L 87.019688 83.927835 
L 85.126688 82.857254 
L 84.750535 82.427678 
L 85.015858 81.407981 
L 84.522523 81.101832 
L 83.733986 81.42431 
L 83.37842 81.235514 
L 82.201431 81.616072 
L 81.728974 81.378898 
L 81.007575 81.223409 
L 78.621936 81.42716 
L 78.02761 82.460171 
L 77.390298 83.812266 
L 77.554937 85.531463 
L 76.661386 85.948819 
L 76.034906 86.868482 
L 74.823902 87.569101 
L 74.16602 88.594851 
L 73.493289 88.65629 
L 73.114583 89.44962 
L 72.70481 90.731585 
L 72.051671 91.207201 
L 71.547689 90.331839 
L 70.506048 88.383624 
L 69.116721 87.765881 
L 68.459901 86.953184 
L 67.880623 86.452622 
L 67.345243 86.408579 
L 65.850543 86.511707 
L 64.917314 85.606739 
L 64.63078 85.116487 
L 64.048594 84.607331 
L 63.681183 83.830198 
L 62.730904 82.541812 
L 62.548847 78.280717 
L 62.7838 77.185888 
L 63.007719 76.927823 
L 63.634186 74.816109 
L 63.994045 74.190278 
L 64.458361 71.917261 
L 65.726943 70.746183 
L 66.235164 70.716098 
L 66.874595 72.055944 
L 66.998418 72.759358 
L 66.627699 74.197488 
L 66.820234 74.647131 
L 65.707547 77.357224 
L 64.772964 78.182966 
L 65.536265 81.385853 
L 65.331138 83.169327 
L 65.78044 84.264259 
L 67.348271 85.663167 
L 67.217464 86.633941 
L 65.028652 86.468186 
L 64.391467 86.02437 
L 63.912051 85.501042 
L 63.58009 84.488465 
L 63.287691 84.266001 
L 62.443289 82.019558 
L 61.78941 81.210447 
L 61.336677 80.406551 
L 61.577964 79.931605 
L 61.699667 78.73021 
L 61.557914 78.259494 
L 63.713343 74.578784 
L 64.520458 73.868207 
L 66.221556 71.082117 
L 67.917046 70.73549 
L 68.883139 70.807568 
L 69.40495 70.979232 
L 69.812346 70.803371 
L 71.164609 70.483561 
L 72.119957 70.45988 
L 72.1536 71.383514 
L 73.907448 72.520337 
L 75.586351 75.543972 
L 75.617413 75.822048 
L 75.898993 77.177971 
L 76.730877 77.983275 
L 76.803186 79.179576 
L 76.436507 79.955378 
L 75.84211 80.284015 
L 75.353268 80.745011 
L 74.938604 82.381022 
L 74.340758 83.671699 
L 74.296864 84.516597 
L 74.390053 85.32894 
L 75.143044 85.793614 
L 75.264849 86.005147 
L 74.624694 87.234104 
L 73.990644 87.352701 
L 72.965767 87.268332 
L 72.965767 87.268332 
" clip-path="url(#pf6f1a73a6e)" style="fill: none; stroke: #348abd; stroke-width: 0.5; stroke-linecap: square"/>
   </g>
   <g id="line2d_70">
    <path d="M 107.203746 69.640168 
L 60.196254 69.640168 
" clip-path="url(#pf6f1a73a6e)" style="fill: none; stroke: #000000; stroke-width: 0.8; stroke-linecap: square"/>
   </g>
   <g id="line2d_71">
    <path d="M 60.196254 69.640168 
L 60.196254 101.719832 
" clip-path="url(#pf6f1a73a6e)" style="fill: none; stroke: #000000; stroke-width: 0.8; stroke-linecap: square"/>
   </g>
   <g id="line2d_72">
    <path d="M 60.196254 101.719832 
L 107.203746 101.719832 
" clip-path="url(#pf6f1a73a6e)" style="fill: none; stroke: #000000; stroke-width: 0.8; stroke-linecap: square"/>
   </g>
   <g id="line2d_73">
    <path d="M 107.203746 101.719832 
L 107.203746 69.640168 
" clip-path="url(#pf6f1a73a6e)" style="fill: none; stroke: #000000; stroke-width: 0.8; stroke-linecap: square"/>
   </g>
  </g>
  <g id="axes_6">
   <g id="line2d_74">
    <path d="M 155.524456 77.246174 
L 154.355193 78.441102 
L 154.09415 78.649532 
L 154.078236 78.963544 
L 153.770837 80.748209 
L 152.90533 81.6011 
L 152.525632 81.767839 
L 151.718197 81.715833 
L 150.962691 81.279772 
L 150.697253 80.984136 
L 150.742165 79.237003 
L 151.049864 77.787943 
L 151.648014 77.106341 
L 152.10261 76.11375 
L 152.717141 75.05662 
L 152.543795 73.81511 
L 152.537709 72.815579 
L 153.434105 71.275526 
L 153.33405 70.472631 
L 153.565647 70.462363 
L 154.514131 71.050026 
L 154.845441 71.063754 
L 156.055166 71.210728 
L 157.70172 72.24039 
L 157.675383 73.202637 
L 156.894593 74.503832 
L 155.772268 75.348709 
L 153.769148 76.229992 
L 153.545715 76.52237 
L 152.690089 78.092387 
L 152.476996 79.233386 
L 152.175075 79.64106 
L 151.509522 81.989191 
L 151.977025 83.029701 
L 152.272957 84.287779 
L 151.85252 84.795251 
L 150.586271 85.209561 
L 150.416672 85.707461 
L 150.709506 87.058728 
L 151.510686 87.509131 
L 152.692356 87.698129 
L 152.99753 87.926504 
L 154.374572 88.330359 
L 155.849593 88.085484 
L 157.636672 87.526063 
L 157.695665 85.417888 
L 156.993163 84.843302 
L 156.031672 83.837423 
L 156.081958 83.143383 
L 156.879801 81.462271 
L 156.839859 80.384982 
L 157.423128 79.154012 
L 157.426468 78.256481 
L 157.18754 76.71498 
L 157.041878 76.521818 
L 156.433116 75.2283 
L 155.277715 73.646723 
L 154.402479 73.225527 
L 153.016648 71.731999 
L 152.680749 71.544774 
L 149.761265 72.740261 
L 149.285631 72.701397 
L 148.52405 72.427966 
L 147.807888 72.428248 
L 146.756544 72.808835 
L 146.473526 72.055397 
L 146.387069 70.780709 
L 147.726731 70.87302 
L 148.35653 70.447007 
L 149.074333 70.701364 
L 149.697009 70.755277 
L 151.052418 71.15176 
L 153.119388 70.716408 
L 153.881302 70.989053 
L 154.66118 71.869889 
L 154.256368 72.575487 
L 153.934522 72.80201 
L 153.205033 73.06563 
L 152.489012 72.90178 
L 151.668073 72.216682 
L 150.585748 72.120696 
L 150.154698 71.652061 
L 150.17611 70.625294 
L 149.781165 70.507113 
L 149.167405 70.503565 
L 148.244584 71.127641 
L 146.679754 71.192817 
L 145.214032 71.075348 
L 143.272062 71.769711 
L 140.649045 70.516724 
L 138.21726 70.724405 
L 137.291606 71.41376 
L 136.64308 71.42645 
L 135.421028 72.135067 
L 135.105421 72.544266 
L 136.015692 73.623959 
L 136.031269 74.943329 
L 135.657285 76.159962 
L 136.993737 77.013817 
L 137.869288 76.931828 
L 139.763801 77.342236 
L 139.915558 77.531203 
L 140.618471 77.548531 
L 141.393469 77.324661 
L 142.835071 77.41953 
L 143.119851 77.706389 
L 145.123697 77.377765 
L 145.632176 76.864524 
L 146.652476 76.179522 
L 147.291427 76.412957 
L 147.484264 76.64706 
L 148.660623 75.024623 
L 151.159574 74.96888 
L 152.631536 74.70193 
L 154.272076 73.652175 
L 155.278728 73.580156 
L 156.004345 72.960235 
L 157.070278 72.624658 
L 157.605763 71.642641 
L 157.371552 71.116686 
L 156.088388 71.529243 
L 155.050634 71.251416 
L 154.276674 70.746296 
L 152.474958 70.462667 
L 150.574347 71.470234 
L 149.683555 72.875882 
L 147.843183 74.179792 
L 145.619213 77.209479 
L 144.967919 77.242466 
L 143.372083 77.019099 
L 142.003504 76.775003 
L 140.066287 76.005785 
L 139.28586 74.888104 
L 139.115176 74.444649 
L 138.950823 73.284082 
L 139.174843 72.485555 
L 139.072824 71.99086 
L 137.531857 70.495002 
L 135.248223 70.577255 
L 133.30504 71.214347 
L 132.29791 71.748647 
L 131.748027 71.582229 
L 130.871111 71.485861 
L 129.711213 71.664086 
L 129.901929 74.314493 
L 131.248345 74.634183 
L 131.775299 75.224552 
L 132.125573 75.81248 
L 132.575575 77.036668 
L 132.862125 79.128887 
L 131.807246 80.918358 
L 131.659192 82.043665 
L 130.642647 83.059955 
L 129.669468 84.463249 
L 128.248893 85.961283 
L 128.001216 87.039071 
L 128.342613 88.992137 
L 128.573738 89.747813 
L 130.657574 91.304996 
L 130.989396 92.07633 
L 131.185291 93.278805 
L 131.170444 94.511789 
L 131.665645 95.820456 
L 132.296151 98.401642 
L 132.291871 100.238541 
L 133.651808 100.379001 
L 133.87742 100.088273 
L 134.15347 99.070678 
L 133.839326 98.166323 
L 133.869246 97.401785 
L 134.057509 96.156115 
L 134.909305 95.974611 
L 135.887806 94.56877 
L 137.573196 93.752249 
L 139.164126 93.347123 
L 140.139946 93.334498 
L 140.735755 93.732794 
L 141.1556 93.437018 
L 142.544172 93.721546 
L 143.92716 95.707141 
L 144.979272 96.400821 
L 146.651398 98.064117 
L 147.925099 98.166117 
L 148.959096 98.906057 
L 149.552592 99.019325 
L 150.410489 100.018134 
L 152.501687 100.075282 
L 153.236391 99.511104 
L 155.05899 98.341391 
L 155.408002 97.491091 
L 155.543394 96.695177 
L 156.025634 95.592298 
L 156.151015 95.041644 
L 155.510546 94.316333 
L 155.559484 94.163296 
L 155.340043 93.163621 
L 153.848113 92.939717 
L 153.510179 93.011921 
L 152.14747 92.901617 
L 149.520217 94.157131 
L 147.385693 94.718588 
L 147.189325 95.025777 
L 146.627045 96.517035 
L 145.91188 97.378653 
L 145.571273 98.00238 
L 144.171533 98.16195 
L 143.456026 98.354444 
L 142.589489 98.391701 
L 141.201687 96.522997 
L 140.677722 95.422261 
L 139.798765 94.432278 
L 139.557097 93.568372 
L 140.376129 93.598118 
L 141.083358 93.855836 
L 141.235851 95.631817 
L 141.718903 97.053956 
L 141.769121 98.334992 
L 142.23902 99.476451 
L 141.951424 100.030964 
L 140.434287 100.690045 
L 139.56165 100.890801 
L 138.000098 100.286964 
L 135.468437 99.764843 
L 135.100246 98.815554 
L 134.522481 98.459788 
L 133.561044 96.883549 
L 133.051265 96.637596 
L 132.850475 96.081246 
L 132.638517 95.157311 
L 131.692276 93.972089 
L 131.629312 93.009964 
L 130.049146 90.08689 
L 128.871026 89.636693 
L 128.447358 87.308372 
L 128.581294 86.088534 
L 128.481847 82.479863 
L 128.200907 81.949214 
L 130.958892 82.082031 
L 131.941548 82.212066 
L 132.933178 82.223314 
L 133.577901 82.651014 
L 134.285248 82.802101 
L 135.172917 82.720735 
L 135.283096 85.54458 
L 134.920448 86.226628 
L 134.481661 87.578662 
L 133.51044 88.952072 
L 133.276817 89.656652 
L 133.547209 90.95691 
L 134.088655 91.100179 
L 134.438011 91.330916 
L 134.864415 92.049192 
L 134.710743 92.863407 
L 134.466836 93.53779 
L 134.207732 95.116501 
L 134.742788 95.667753 
L 135.070145 95.462007 
L 136.983698 94.469562 
L 137.312523 93.43252 
L 136.552556 93.431918 
L 136.222306 93.796257 
L 135.766296 94.847521 
L 134.872985 95.941724 
L 135.070648 96.589252 
L 135.153699 97.870999 
L 135.745202 99.022411 
L 138.109029 99.379854 
L 139.073047 100.575745 
L 140.527995 100.729385 
L 141.570895 100.182097 
L 141.929902 100.010318 
L 142.86677 98.915131 
L 143.363805 98.780808 
L 144.909583 97.998591 
L 145.542633 97.881861 
L 146.613937 96.870903 
L 147.024694 96.320593 
L 147.278866 96.306948 
L 148.155868 97.270111 
L 148.524806 97.958795 
L 149.633721 99.23163 
L 150.403382 100.608543 
L 151.660431 100.901092 
L 152.385151 100.531966 
L 152.621649 98.947303 
L 151.721055 96.331803 
L 151.051336 95.826269 
L 150.342487 94.929361 
L 148.439319 94.612422 
L 148.183725 95.110448 
L 148.155591 95.602986 
L 147.674336 97.232379 
L 148.047853 98.443638 
L 148.225 99.298765 
L 148.16355 100.68677 
L 147.832474 100.891786 
L 147.417147 100.892027 
L 145.514078 100.179414 
L 144.83697 99.631598 
L 143.910051 97.801171 
L 142.867221 96.779008 
L 142.325104 95.04329 
L 142.170439 93.350697 
L 141.498656 93.333542 
L 140.670569 93.450484 
L 139.475066 94.390168 
L 138.984889 94.985051 
L 139.389651 95.984512 
L 140.077405 98.446076 
L 140.554208 99.292412 
L 140.202784 99.960641 
L 140.405422 100.71206 
L 141.556376 100.955425 
L 143.654333 100.135546 
L 144.285529 99.818916 
L 144.572182 99.370208 
L 145.663625 98.637343 
L 148.828641 97.159852 
L 149.525908 97.231352 
L 150.579511 96.841426 
L 151.207119 96.067395 
L 151.407128 95.22845 
L 151.765808 94.997355 
L 153.095363 95.149676 
L 153.967205 96.00318 
L 154.471566 98.400544 
L 154.11614 99.652809 
L 152.737184 100.525351 
L 150.75698 100.698888 
L 150.022595 99.839262 
L 149.553745 98.529835 
L 148.431941 96.520475 
L 147.683075 95.083952 
L 147.230271 94.992074 
L 145.635054 95.249846 
L 144.929005 95.607468 
L 144.062979 96.07755 
L 143.72187 97.986594 
L 143.740029 98.788145 
L 144.392165 99.469899 
L 146.378101 100.713204 
L 147.231181 100.942492 
L 147.983524 100.83666 
L 148.558108 100.50906 
L 149.651762 100.147625 
L 151.150388 100.62895 
L 152.836265 100.664629 
L 153.13186 100.387341 
L 153.319665 99.834943 
L 153.715132 99.027402 
L 154.76808 97.753846 
L 155.536032 95.918349 
L 155.998723 95.580337 
L 157.054325 95.962923 
L 157.647925 97.502197 
L 157.364206 98.901221 
L 156.664672 100.1782 
L 155.610252 100.231061 
L 154.704845 100.697998 
L 152.721027 100.547378 
L 152.034336 100.30452 
L 151.462132 100.953825 
L 150.241978 100.885159 
L 149.547048 100.541918 
L 149.731859 99.645484 
L 149.600029 98.688785 
L 150.298605 97.48293 
L 151.527292 97.307897 
L 153.250364 98.191522 
L 153.385033 98.98391 
L 154.158448 99.766254 
L 153.993375 100.455137 
L 153.595425 100.880333 
L 152.60058 100.375958 
L 149.888446 98.583971 
L 149.751675 98.601286 
L 148.792717 98.410786 
L 148.32889 98.685173 
L 147.456423 99.417174 
L 147.544156 100.250176 
L 150.463643 99.743387 
L 151.215862 99.149074 
L 151.583414 98.524608 
L 152.111267 98.065075 
L 152.321083 96.692799 
L 151.994554 94.624868 
L 152.030839 93.239947 
L 152.030839 93.239947 
" clip-path="url(#p343c01c9bd)" style="fill: none; stroke: #348abd; stroke-width: 0.5; stroke-linecap: square"/>
   </g>
   <g id="line2d_75">
    <path d="M 158.451517 69.640168 
L 127.113189 69.640168 
" clip-path="url(#p343c01c9bd)" style="fill: none; stroke: #000000; stroke-width: 0.8; stroke-linecap: square"/>
   </g>
   <g id="line2d_76">
    <path d="M 127.113189 69.640168 
L 127.113189 101.719832 
" clip-path="url(#p343c01c9bd)" style="fill: none; stroke: #000000; stroke-width: 0.8; stroke-linecap: square"/>
   </g>
   <g id="line2d_77">
    <path d="M 127.113189 101.719832 
L 158.451517 101.719832 
" clip-path="url(#p343c01c9bd)" style="fill: none; stroke: #000000; stroke-width: 0.8; stroke-linecap: square"/>
   </g>
   <g id="line2d_78">
    <path d="M 158.451517 101.719832 
L 158.451517 69.640168 
" clip-path="url(#p343c01c9bd)" style="fill: none; stroke: #000000; stroke-width: 0.8; stroke-linecap: square"/>
   </g>
   <g id="line2d_79">
    <path d="M 150.616935 77.660084 
L 134.947771 77.660084 
" clip-path="url(#p343c01c9bd)" style="fill: none; stroke: #000000; stroke-width: 0.8; stroke-linecap: square"/>
   </g>
   <g id="line2d_80">
    <path d="M 134.947771 77.660084 
L 134.947771 93.699916 
" clip-path="url(#p343c01c9bd)" style="fill: none; stroke: #000000; stroke-width: 0.8; stroke-linecap: square"/>
   </g>
   <g id="line2d_81">
    <path d="M 134.947771 93.699916 
L 150.616935 93.699916 
" clip-path="url(#p343c01c9bd)" style="fill: none; stroke: #000000; stroke-width: 0.8; stroke-linecap: square"/>
   </g>
   <g id="line2d_82">
    <path d="M 150.616935 93.699916 
L 150.616935 77.660084 
" clip-path="url(#p343c01c9bd)" style="fill: none; stroke: #000000; stroke-width: 0.8; stroke-linecap: square"/>
   </g>
  </g>
 </g>
 <defs>
  <clipPath id="pb124de6f7e">
   <rect x="0" y="-0" width="49.235294" height="50.4"/>
  </clipPath>
  <clipPath id="p63c6f5d56e">
   <rect x="59.082353" y="-0" width="49.235294" height="50.4"/>
  </clipPath>
  <clipPath id="p0722bfa38c">
   <rect x="118.164706" y="-0" width="49.235294" height="50.4"/>
  </clipPath>
  <clipPath id="p2e5f560665">
   <rect x="0" y="60.48" width="49.235294" height="50.4"/>
  </clipPath>
  <clipPath id="pf6f1a73a6e">
   <rect x="59.082353" y="60.48" width="49.235294" height="50.4"/>
  </clipPath>
  <clipPath id="p343c01c9bd">
   <rect x="118.164706" y="60.48" width="49.235294" height="50.4"/>
  </clipPath>
 </defs>
</svg>
