<?xml version="1.0" encoding="utf-8" standalone="no"?>
<!DOCTYPE svg PUBLIC "-//W3C//DTD SVG 1.1//EN"
  "http://www.w3.org/Graphics/SVG/1.1/DTD/svg11.dtd">
<svg xmlns:xlink="http://www.w3.org/1999/xlink" width="69.75pt" height="67.95pt" viewBox="0 0 69.75 67.95" xmlns="http://www.w3.org/2000/svg" version="1.1">
 <metadata>
  <rdf:RDF xmlns:dc="http://purl.org/dc/elements/1.1/" xmlns:cc="http://creativecommons.org/ns#" xmlns:rdf="http://www.w3.org/1999/02/22-rdf-syntax-ns#">
   <cc:Work>
    <dc:type rdf:resource="http://purl.org/dc/dcmitype/StillImage"/>
    <dc:date>2023-03-18T13:36:40.838120</dc:date>
    <dc:format>image/svg+xml</dc:format>
    <dc:creator>
     <cc:Agent>
      <dc:title>Matplotlib v3.7.0, https://matplotlib.org/</dc:title>
     </cc:Agent>
    </dc:creator>
   </cc:Work>
  </rdf:RDF>
 </metadata>
 <defs>
  <style type="text/css">*{stroke-linejoin: round; stroke-linecap: butt}</style>
 </defs>
 <g id="figure_1">
  <g id="patch_1">
   <path d="M 0 67.95 
L 69.75 67.95 
L 69.75 0 
L 0 0 
L 0 67.95 
z
" style="fill: none"/>
  </g>
  <g id="axes_1">
   <g id="line2d_1">
    <path d="M 10.087383 11.454625 
L 10.911001 11.638303 
L 11.406633 11.551795 
L 11.758699 11.691336 
L 11.909232 11.990635 
L 12.558882 12.263134 
L 12.905881 12.739192 
L 12.958507 13.328766 
L 13.206676 13.911966 
L 13.226906 15.061424 
L 13.232811 17.378676 
L 13.171324 17.45641 
L 13.179461 17.854215 
L 12.716176 18.445938 
L 12.83555 18.708307 
L 13.065045 18.681584 
L 13.402295 18.514974 
L 14.351719 18.492554 
L 14.64096 18.453495 
L 15.376133 17.835158 
L 15.617941 18.011711 
L 16.097083 17.708284 
L 16.724486 16.396746 
L 16.723732 16.342914 
L 16.995717 15.919426 
L 17.860431 15.40935 
L 18.201617 15.030731 
L 18.749064 15.134119 
L 18.921389 14.868281 
L 18.748867 14.514469 
L 18.379105 14.084474 
L 18.258458 13.663641 
L 18.459596 13.278546 
L 18.33176 12.219177 
L 18.274564 11.660676 
L 18.424484 11.45854 
L 19.08567 11.148482 
L 19.449015 10.894579 
L 19.810347 10.377476 
L 19.831589 9.900106 
L 19.26006 9.188067 
L 19.072659 8.385652 
L 19.110919 7.886961 
L 18.341967 6.303532 
L 18.258455 5.785622 
L 17.42567 5.518215 
L 16.189305 4.945248 
L 15.598761 4.994427 
L 14.177398 6.183469 
L 14.606288 7.818667 
L 15.423283 8.719548 
L 15.864807 8.85288 
L 16.474389 8.547991 
L 17.745014 5.965329 
L 17.444208 5.526466 
L 17.15027 5.433837 
L 16.731771 5.125546 
L 16.448534 4.679561 
L 15.957587 4.639236 
L 15.252513 4.962325 
L 14.76194 5.386139 
L 14.687446 5.933668 
L 14.047053 6.902813 
L 13.621457 7.262839 
L 13.243081 7.890445 
L 12.834542 8.045056 
L 12.417328 8.395811 
L 12.24338 9.133613 
L 12.441875 9.403879 
L 13.040278 9.660177 
L 13.359682 9.578042 
L 13.872823 9.767807 
L 14.588332 9.410021 
L 14.725552 9.18539 
L 15.199889 9.158822 
L 16.544371 8.453123 
L 16.236807 7.128734 
L 16.333175 6.769961 
L 16.216327 5.986762 
L 15.947472 5.850727 
L 15.403512 5.833794 
L 14.902798 6.049982 
L 14.547167 6.632028 
L 14.390785 6.628444 
L 13.973701 6.733708 
L 12.76882 6.17603 
L 12.298941 5.483929 
L 11.723005 5.082701 
L 10.896735 4.967359 
L 10.09669 5.218609 
L 10.035416 5.81893 
L 10.526588 6.413291 
L 10.660515 6.70638 
L 10.519397 7.106158 
L 10.874048 7.556391 
L 11.325905 7.882258 
L 12.04535 7.971542 
L 12.489197 7.799606 
L 12.628438 6.072113 
L 12.859071 5.659338 
L 12.771152 5.235817 
L 12.23725 4.615458 
L 11.342053 5.047258 
L 11.183686 5.572439 
L 11.673145 6.377109 
L 12.053221 6.833022 
L 12.471702 6.786546 
L 12.875612 6.007245 
L 12.779505 5.351075 
L 12.843118 4.644644 
L 12.618495 4.621966 
L 11.896939 5.289382 
L 11.679815 5.35086 
L 11.102814 5.312077 
L 10.612872 5.656477 
L 10.103479 5.678916 
L 8.599445 4.651716 
L 7.993769 4.681741 
L 7.457282 4.929477 
L 6.964386 5.000585 
L 6.078757 4.847152 
L 5.850889 4.633336 
L 5.339908 4.742105 
L 4.981749 4.64751 
L 4.944419 4.764423 
L 5.018557 5.159713 
L 5.245983 5.529332 
L 5.092918 5.877625 
L 5.652235 6.735193 
L 6.02853 7.585909 
L 7.010349 7.743366 
L 8.73763 6.501245 
L 9.423422 6.953242 
L 12.224194 8.146356 
L 12.794804 8.205588 
L 13.972241 7.835005 
L 15.816875 8.035789 
L 16.437292 7.716282 
L 17.712236 8.540865 
L 18.065965 8.76314 
L 18.246682 9.181784 
L 19.001735 9.282834 
L 19.645795 8.886766 
L 19.736053 8.065996 
L 19.623467 7.214702 
L 19.63754 6.467935 
L 19.293541 5.88397 
L 18.653752 5.896455 
L 18.478131 6.05956 
L 18.279439 6.46906 
L 18.417902 6.850002 
L 17.556242 7.804648 
L 17.284393 8.165518 
L 17.266774 8.774537 
L 17.54527 9.553026 
L 17.580254 9.75725 
L 17.456309 10.393876 
L 17.628291 10.986983 
L 17.741577 11.623118 
L 18.15921 12.075526 
L 17.342501 13.207799 
L 15.987426 14.096211 
L 15.261403 14.76389 
L 14.828106 14.977593 
L 14.745146 15.256337 
L 14.583521 16.366528 
L 14.701057 16.799061 
L 14.635071 17.497281 
L 14.17371 18.583719 
L 17.052086 18.689113 
L 18.542755 18.220146 
L 19.084387 18.674426 
L 19.790935 18.641533 
L 19.95993 17.91355 
L 19.723023 17.327657 
L 19.20185 16.383705 
L 19.124021 15.340857 
L 19.253057 15.163533 
L 19.702837 15.067779 
L 19.99834 14.398924 
L 19.943478 12.576894 
L 19.974637 11.57968 
L 19.893013 11.42983 
L 19.988586 9.979653 
L 19.191108 8.164946 
L 18.760896 7.008803 
L 18.667186 5.902216 
L 18.810701 5.425733 
L 18.730161 4.793084 
L 19.157766 4.682438 
L 19.656572 5.089696 
L 19.57946 5.794313 
L 19.41993 6.473006 
L 17.907962 6.52266 
L 17.19722 6.171657 
L 16.691598 5.717587 
L 15.88624 5.783598 
L 14.863542 6.132515 
L 14.055372 5.876122 
L 13.561635 5.736006 
L 13.448175 5.875446 
L 13.237616 5.880984 
L 12.254132 5.331349 
L 12.191672 5.006151 
L 10.628761 5.636307 
L 10.533157 5.553597 
L 9.98526 4.697572 
L 9.323283 4.97967 
L 8.665911 5.077454 
L 8.119931 4.766724 
L 7.474195 4.811637 
L 5.989722 4.837333 
L 5.420604 4.694884 
L 4.925023 4.961834 
L 5.104009 5.420563 
L 5.353733 5.700542 
L 6.803531 6.948412 
L 6.733539 7.209512 
L 6.481349 7.40317 
L 6.17987 7.82258 
L 6.480138 9.501656 
L 6.350678 9.82466 
L 6.617437 10.497394 
L 7.558022 11.934983 
L 8.241892 12.341134 
L 8.271071 12.575312 
L 9.219889 12.68837 
L 9.9884 12.406018 
L 10.881871 11.554098 
L 10.979226 10.987357 
L 11.153537 10.744031 
L 10.060318 8.994639 
L 10.022636 7.716318 
L 9.650643 7.382999 
L 8.869792 6.195708 
L 8.267259 5.654844 
L 7.211671 5.193252 
L 6.831487 5.391986 
L 5.208865 5.943193 
L 5.455492 6.727037 
L 6.165124 7.516457 
L 6.340027 7.916499 
L 6.254397 8.463571 
L 6.377143 8.719896 
L 6.283839 9.139466 
L 5.273857 10.01983 
L 4.936542 10.581648 
L 4.967583 11.762773 
L 5.34056 12.100226 
L 5.620688 12.865391 
L 4.981135 13.445825 
L 4.910472 13.574487 
L 5.043172 14.348559 
L 5.05538 14.700045 
L 4.94226 15.069803 
L 5.109348 15.63248 
L 5.50602 16.002357 
L 6.318748 16.143026 
L 6.884198 16.060791 
L 7.669621 16.523173 
L 8.928652 16.182796 
L 9.767263 16.153622 
L 10.873062 16.213166 
L 12.18949 16.351478 
L 13.075146 16.931111 
L 13.258285 17.163521 
L 14.764576 17.297733 
L 14.543607 17.459134 
L 13.473772 17.977521 
L 12.675732 18.37885 
L 11.689908 18.007176 
L 11.425217 17.752717 
L 11.082625 17.664096 
L 10.235261 17.034578 
L 9.832362 16.476013 
L 9.570458 16.322431 
L 9.099221 15.939841 
L 8.889115 15.221186 
L 7.493652 14.774583 
L 7.212769 14.56142 
L 6.152834 14.471068 
L 4.937969 13.832386 
L 5.009333 13.461945 
L 5.292126 13.069879 
L 5.604496 12.997562 
L 5.818288 12.811518 
L 6.004524 12.301683 
L 6.004524 12.301683 
" clip-path="url(#pcd575d535e)" style="fill: none; stroke: #348abd; stroke-width: 0.5; stroke-linecap: square"/>
   </g>
   <g id="line2d_2">
    <path d="M 20.381584 4.260103 
L 4.529131 4.260103 
" clip-path="url(#pcd575d535e)" style="fill: none; stroke: #000000; stroke-width: 0.8; stroke-linecap: square"/>
   </g>
   <g id="line2d_3">
    <path d="M 4.529131 4.260103 
L 4.529131 19.170931 
" clip-path="url(#pcd575d535e)" style="fill: none; stroke: #000000; stroke-width: 0.8; stroke-linecap: square"/>
   </g>
   <g id="line2d_4">
    <path d="M 4.529131 19.170931 
L 20.381584 19.170931 
" clip-path="url(#pcd575d535e)" style="fill: none; stroke: #000000; stroke-width: 0.8; stroke-linecap: square"/>
   </g>
   <g id="line2d_5">
    <path d="M 20.381584 19.170931 
L 20.381584 4.260103 
" clip-path="url(#pcd575d535e)" style="fill: none; stroke: #000000; stroke-width: 0.8; stroke-linecap: square"/>
   </g>
  </g>
  <g id="axes_2">
   <g id="line2d_6">
    <path d="M 40.979603 10.31594 
L 41.622155 9.78624 
L 41.626172 9.294597 
L 41.79521 9.166956 
L 41.4538 8.374523 
L 40.814227 7.351891 
L 40.440522 7.245341 
L 40.163605 7.009866 
L 40.078328 6.75802 
L 39.368524 6.031376 
L 38.685524 5.982615 
L 37.455411 5.330549 
L 36.422465 5.285063 
L 36.046806 5.273843 
L 35.345337 5.745262 
L 35.080344 6.438945 
L 34.833515 6.528806 
L 33.974475 6.720234 
L 32.892319 7.299904 
L 32.385239 7.291903 
L 31.610959 7.036906 
L 31.456115 6.758421 
L 31.03158 6.654704 
L 30.100597 6.733529 
L 29.732516 6.947671 
L 29.491732 7.424383 
L 29.729324 8.753325 
L 30.011465 9.184198 
L 30.579795 9.69671 
L 30.866484 9.584235 
L 31.193952 9.044694 
L 31.800384 8.637599 
L 33.212044 8.404756 
L 33.903549 8.974492 
L 33.718854 9.337011 
L 33.763519 9.74614 
L 33.660625 9.910694 
L 33.857356 10.201722 
L 33.797284 10.860565 
L 34.481376 12.336249 
L 34.948744 12.689314 
L 35.478625 12.828704 
L 36.351171 13.333159 
L 36.856292 13.903655 
L 37.241101 14.074893 
L 37.591453 13.932851 
L 36.942104 13.731334 
L 36.379122 13.933778 
L 35.432178 13.534089 
L 34.949203 13.438661 
L 34.426632 12.979681 
L 34.040145 11.756628 
L 33.892864 11.739455 
L 33.376892 12.028912 
L 32.877928 11.826653 
L 32.046434 12.116433 
L 31.857549 12.276689 
L 31.635313 12.929155 
L 30.400191 14.275195 
L 28.448628 14.528497 
L 27.888838 14.209921 
L 27.871878 12.787806 
L 28.482466 11.614727 
L 28.650843 11.045644 
L 28.69762 10.501839 
L 29.160958 9.868391 
L 29.932084 8.916692 
L 29.378744 8.862431 
L 28.611344 8.183844 
L 28.651215 7.852014 
L 29.083588 7.488908 
L 29.385626 7.490449 
L 29.692471 7.857576 
L 30.392975 7.789989 
L 30.831328 7.950968 
L 31.581574 9.145851 
L 32.981314 10.076731 
L 33.036011 10.362851 
L 33.446799 11.053674 
L 33.735461 11.224644 
L 33.996463 11.231464 
L 34.68393 11.440422 
L 35.667624 12.169318 
L 36.548922 12.203492 
L 36.578898 12.41598 
L 36.250807 13.541034 
L 36.060143 13.97825 
L 35.94233 14.816699 
L 36.365652 15.312655 
L 37.252625 15.664149 
L 38.387376 15.858297 
L 38.596143 15.619351 
L 38.949694 14.637426 
L 38.755183 13.648254 
L 38.364123 13.029096 
L 37.543966 13.369585 
L 35.014894 13.648715 
L 34.938022 13.955861 
L 35.072433 14.686352 
L 34.789156 15.759461 
L 34.795665 15.912415 
L 34.473373 16.122477 
L 33.913022 17.366893 
L 33.944644 17.8422 
L 34.142594 18.565447 
L 35.37818 18.437608 
L 36.913646 18.029327 
L 38.356565 17.962647 
L 39.245891 17.461948 
L 39.178911 16.791282 
L 38.323033 16.321393 
L 37.885511 15.774467 
L 38.334189 14.725431 
L 38.17949 14.005607 
L 38.7821 13.032521 
L 40.036769 12.565222 
L 41.459514 12.32174 
L 41.773109 11.886569 
L 41.975852 11.812725 
L 42.352089 11.478176 
L 42.099357 11.215656 
L 40.745883 9.696884 
L 40.294949 8.888631 
L 39.985971 8.768084 
L 39.712838 8.528616 
L 38.033166 9.325676 
L 37.422789 10.052478 
L 36.821597 10.509567 
L 36.660533 10.980699 
L 36.716387 11.601697 
L 37.056685 12.09428 
L 37.045203 12.625476 
L 36.455669 13.674717 
L 35.687347 13.814384 
L 35.285312 13.632498 
L 33.957398 13.89425 
L 32.378669 14.736082 
L 32.898686 15.411986 
L 33.834409 15.505358 
L 34.378057 15.435231 
L 34.522527 15.413666 
L 35.301452 15.492192 
L 35.685442 15.707465 
L 36.353964 16.434669 
L 37.04604 16.762631 
L 37.745722 16.785585 
L 38.583493 16.414352 
L 38.965508 16.10578 
L 39.577556 15.890846 
L 39.937208 14.734779 
L 39.489301 14.285723 
L 39.159389 14.191599 
L 38.777331 13.923898 
L 37.779681 13.736468 
L 37.252473 13.463375 
L 35.536133 14.830025 
L 34.94899 15.78614 
L 35.577495 17.429929 
L 36.025837 18.452254 
L 36.423086 18.610425 
L 37.148374 18.112246 
L 37.944359 18.02432 
L 38.135029 17.77165 
L 38.817122 16.690655 
L 38.778869 16.487066 
L 39.152997 16.369099 
L 39.369877 16.442928 
L 39.60097 16.720483 
L 39.097987 17.369564 
L 37.373832 17.622811 
L 36.190255 18.195996 
L 35.641324 18.406539 
L 34.571638 18.453982 
L 34.282056 18.149812 
L 33.779298 17.924383 
L 33.513287 17.662737 
L 32.95405 15.59167 
L 33.181122 15.076664 
L 33.546246 14.594856 
L 33.376543 14.005426 
L 33.417578 13.332149 
L 33.626198 12.999433 
L 32.808761 12.10127 
L 32.886868 11.628517 
L 33.041986 10.837147 
L 33.392987 9.794994 
L 33.348379 9.543463 
L 33.987306 9.046715 
L 35.074417 9.198891 
L 35.748726 9.196996 
L 36.686663 9.69385 
L 37.078192 10.106848 
L 37.908557 10.343086 
L 38.539579 10.660902 
L 39.107652 11.092634 
L 40.175172 10.951667 
L 40.78118 10.360646 
L 40.942773 10.282091 
L 41.709627 9.479173 
L 41.874647 9.193391 
L 40.562259 7.174112 
L 39.653519 6.390936 
L 38.451438 6.620922 
L 38.07907 7.26552 
L 38.632782 7.952431 
L 39.344293 8.390922 
L 40.724942 8.959524 
L 41.490671 9.299583 
L 42.239118 10.224274 
L 42.230095 11.24061 
L 41.80639 11.700769 
L 40.694008 11.749113 
L 40.415267 11.894883 
L 40.020537 12.606272 
L 39.815193 13.364263 
L 39.563082 13.546058 
L 39.170245 13.652895 
L 38.331339 13.502227 
L 37.999503 13.006611 
L 37.781837 12.677662 
L 36.571153 12.60468 
L 36.716004 12.184678 
L 36.655993 11.961442 
L 36.574906 11.985035 
L 36.497072 11.826067 
L 36.652428 10.833942 
L 35.145531 9.649172 
L 34.299149 9.297548 
L 34.181546 8.771509 
L 34.251851 7.608537 
L 34.145872 7.260027 
L 34.240703 7.119242 
L 34.546884 6.332839 
L 34.392835 5.990817 
L 34.261673 5.354677 
L 33.395654 4.772975 
L 33.594516 4.726331 
L 34.593615 4.95623 
L 35.564837 5.00448 
L 36.170309 4.976217 
L 36.429383 5.088856 
L 37.663594 5.205996 
L 37.850097 5.83979 
L 37.543942 6.699718 
L 36.886892 6.82646 
L 36.314233 6.64788 
L 35.737713 7.164575 
L 35.476133 7.11531 
L 35.131983 7.464051 
L 34.975775 7.820844 
L 34.625159 7.90428 
L 34.130911 8.205735 
L 33.594179 8.147705 
L 33.232951 8.342486 
L 32.943155 8.340643 
L 32.364552 7.591483 
L 30.626947 6.973273 
L 30.338478 6.754132 
L 30.297321 6.502472 
L 30.625676 5.998801 
L 31.49405 5.748178 
L 31.71483 5.561268 
L 32.628658 5.395042 
L 33.415984 5.401922 
L 33.804244 5.705616 
L 33.909335 5.969588 
L 35.812123 8.515509 
L 35.879762 9.446269 
L 36.148956 9.959485 
L 35.983489 10.354094 
L 35.354704 10.786391 
L 34.287442 10.70144 
L 32.769082 9.792384 
L 31.187117 9.592495 
L 29.631155 8.734081 
L 28.96532 7.94379 
L 28.361839 8.176889 
L 28.206892 8.861312 
L 28.681547 9.531737 
L 28.911465 11.124633 
L 28.716921 11.765787 
L 28.468886 12.053005 
L 27.878381 12.416433 
L 27.642417 13.149589 
L 28.526638 14.482343 
L 28.844554 14.705356 
L 29.112335 15.120579 
L 29.112335 15.120579 
" clip-path="url(#pb8eabcc4b3)" style="fill: none; stroke: #348abd; stroke-width: 0.5; stroke-linecap: square"/>
   </g>
   <g id="line2d_7">
    <path d="M 42.738726 10.781106 
L 42.552209 9.861431 
" clip-path="url(#pb8eabcc4b3)" style="fill: none; stroke: #000000; stroke-width: 0.8; stroke-linecap: square"/>
   </g>
   <g id="line2d_8">
    <path d="M 42.552209 9.861431 
L 42.244619 8.970996 
" clip-path="url(#pb8eabcc4b3)" style="fill: none; stroke: #000000; stroke-width: 0.8; stroke-linecap: square"/>
   </g>
   <g id="line2d_9">
    <path d="M 42.244619 8.970996 
L 41.820805 8.123844 
" clip-path="url(#pb8eabcc4b3)" style="fill: none; stroke: #000000; stroke-width: 0.8; stroke-linecap: square"/>
   </g>
   <g id="line2d_10">
    <path d="M 41.820805 8.123844 
L 41.287452 7.333335 
" clip-path="url(#pb8eabcc4b3)" style="fill: none; stroke: #000000; stroke-width: 0.8; stroke-linecap: square"/>
   </g>
   <g id="line2d_11">
    <path d="M 41.287452 7.333335 
L 40.65297 6.611935 
" clip-path="url(#pb8eabcc4b3)" style="fill: none; stroke: #000000; stroke-width: 0.8; stroke-linecap: square"/>
   </g>
   <g id="line2d_12">
    <path d="M 40.65297 6.611935 
L 39.927367 5.971022 
" clip-path="url(#pb8eabcc4b3)" style="fill: none; stroke: #000000; stroke-width: 0.8; stroke-linecap: square"/>
   </g>
   <g id="line2d_13">
    <path d="M 39.927367 5.971022 
L 39.122085 5.420703 
" clip-path="url(#pb8eabcc4b3)" style="fill: none; stroke: #000000; stroke-width: 0.8; stroke-linecap: square"/>
   </g>
   <g id="line2d_14">
    <path d="M 39.122085 5.420703 
L 38.249823 4.969657 
" clip-path="url(#pb8eabcc4b3)" style="fill: none; stroke: #000000; stroke-width: 0.8; stroke-linecap: square"/>
   </g>
   <g id="line2d_15">
    <path d="M 38.249823 4.969657 
L 37.324339 4.624997 
" clip-path="url(#pb8eabcc4b3)" style="fill: none; stroke: #000000; stroke-width: 0.8; stroke-linecap: square"/>
   </g>
   <g id="line2d_16">
    <path d="M 37.324339 4.624997 
L 36.360227 4.392159 
" clip-path="url(#pb8eabcc4b3)" style="fill: none; stroke: #000000; stroke-width: 0.8; stroke-linecap: square"/>
   </g>
   <g id="line2d_17">
    <path d="M 36.360227 4.392159 
L 35.372692 4.274815 
" clip-path="url(#pb8eabcc4b3)" style="fill: none; stroke: #000000; stroke-width: 0.8; stroke-linecap: square"/>
   </g>
   <g id="line2d_18">
    <path d="M 35.372692 4.274815 
L 34.377308 4.274815 
" clip-path="url(#pb8eabcc4b3)" style="fill: none; stroke: #000000; stroke-width: 0.8; stroke-linecap: square"/>
   </g>
   <g id="line2d_19">
    <path d="M 34.377308 4.274815 
L 33.389773 4.392159 
" clip-path="url(#pb8eabcc4b3)" style="fill: none; stroke: #000000; stroke-width: 0.8; stroke-linecap: square"/>
   </g>
   <g id="line2d_20">
    <path d="M 33.389773 4.392159 
L 32.425661 4.624997 
" clip-path="url(#pb8eabcc4b3)" style="fill: none; stroke: #000000; stroke-width: 0.8; stroke-linecap: square"/>
   </g>
   <g id="line2d_21">
    <path d="M 32.425661 4.624997 
L 31.500177 4.969657 
" clip-path="url(#pb8eabcc4b3)" style="fill: none; stroke: #000000; stroke-width: 0.8; stroke-linecap: square"/>
   </g>
   <g id="line2d_22">
    <path d="M 31.500177 4.969657 
L 30.627915 5.420703 
" clip-path="url(#pb8eabcc4b3)" style="fill: none; stroke: #000000; stroke-width: 0.8; stroke-linecap: square"/>
   </g>
   <g id="line2d_23">
    <path d="M 30.627915 5.420703 
L 29.822633 5.971022 
" clip-path="url(#pb8eabcc4b3)" style="fill: none; stroke: #000000; stroke-width: 0.8; stroke-linecap: square"/>
   </g>
   <g id="line2d_24">
    <path d="M 29.822633 5.971022 
L 29.09703 6.611935 
" clip-path="url(#pb8eabcc4b3)" style="fill: none; stroke: #000000; stroke-width: 0.8; stroke-linecap: square"/>
   </g>
   <g id="line2d_25">
    <path d="M 29.09703 6.611935 
L 28.462548 7.333335 
" clip-path="url(#pb8eabcc4b3)" style="fill: none; stroke: #000000; stroke-width: 0.8; stroke-linecap: square"/>
   </g>
   <g id="line2d_26">
    <path d="M 28.462548 7.333335 
L 27.929195 8.123844 
" clip-path="url(#pb8eabcc4b3)" style="fill: none; stroke: #000000; stroke-width: 0.8; stroke-linecap: square"/>
   </g>
   <g id="line2d_27">
    <path d="M 27.929195 8.123844 
L 27.505381 8.970996 
" clip-path="url(#pb8eabcc4b3)" style="fill: none; stroke: #000000; stroke-width: 0.8; stroke-linecap: square"/>
   </g>
   <g id="line2d_28">
    <path d="M 27.505381 8.970996 
L 27.197791 9.861431 
" clip-path="url(#pb8eabcc4b3)" style="fill: none; stroke: #000000; stroke-width: 0.8; stroke-linecap: square"/>
   </g>
   <g id="line2d_29">
    <path d="M 27.197791 9.861431 
L 27.011274 10.781106 
" clip-path="url(#pb8eabcc4b3)" style="fill: none; stroke: #000000; stroke-width: 0.8; stroke-linecap: square"/>
   </g>
   <g id="line2d_30">
    <path d="M 27.011274 10.781106 
L 26.948774 11.715517 
" clip-path="url(#pb8eabcc4b3)" style="fill: none; stroke: #000000; stroke-width: 0.8; stroke-linecap: square"/>
   </g>
   <g id="line2d_31">
    <path d="M 26.948774 11.715517 
L 27.011274 12.649928 
" clip-path="url(#pb8eabcc4b3)" style="fill: none; stroke: #000000; stroke-width: 0.8; stroke-linecap: square"/>
   </g>
   <g id="line2d_32">
    <path d="M 27.011274 12.649928 
L 27.197791 13.569603 
" clip-path="url(#pb8eabcc4b3)" style="fill: none; stroke: #000000; stroke-width: 0.8; stroke-linecap: square"/>
   </g>
   <g id="line2d_33">
    <path d="M 27.197791 13.569603 
L 27.505381 14.460038 
" clip-path="url(#pb8eabcc4b3)" style="fill: none; stroke: #000000; stroke-width: 0.8; stroke-linecap: square"/>
   </g>
   <g id="line2d_34">
    <path d="M 27.505381 14.460038 
L 27.929195 15.30719 
" clip-path="url(#pb8eabcc4b3)" style="fill: none; stroke: #000000; stroke-width: 0.8; stroke-linecap: square"/>
   </g>
   <g id="line2d_35">
    <path d="M 27.929195 15.30719 
L 28.462548 16.0977 
" clip-path="url(#pb8eabcc4b3)" style="fill: none; stroke: #000000; stroke-width: 0.8; stroke-linecap: square"/>
   </g>
   <g id="line2d_36">
    <path d="M 28.462548 16.0977 
L 29.09703 16.819099 
" clip-path="url(#pb8eabcc4b3)" style="fill: none; stroke: #000000; stroke-width: 0.8; stroke-linecap: square"/>
   </g>
   <g id="line2d_37">
    <path d="M 29.09703 16.819099 
L 29.822633 17.460012 
" clip-path="url(#pb8eabcc4b3)" style="fill: none; stroke: #000000; stroke-width: 0.8; stroke-linecap: square"/>
   </g>
   <g id="line2d_38">
    <path d="M 29.822633 17.460012 
L 30.627915 18.010331 
" clip-path="url(#pb8eabcc4b3)" style="fill: none; stroke: #000000; stroke-width: 0.8; stroke-linecap: square"/>
   </g>
   <g id="line2d_39">
    <path d="M 30.627915 18.010331 
L 31.500177 18.461377 
" clip-path="url(#pb8eabcc4b3)" style="fill: none; stroke: #000000; stroke-width: 0.8; stroke-linecap: square"/>
   </g>
   <g id="line2d_40">
    <path d="M 31.500177 18.461377 
L 32.425661 18.806037 
" clip-path="url(#pb8eabcc4b3)" style="fill: none; stroke: #000000; stroke-width: 0.8; stroke-linecap: square"/>
   </g>
   <g id="line2d_41">
    <path d="M 32.425661 18.806037 
L 33.389773 19.038875 
" clip-path="url(#pb8eabcc4b3)" style="fill: none; stroke: #000000; stroke-width: 0.8; stroke-linecap: square"/>
   </g>
   <g id="line2d_42">
    <path d="M 33.389773 19.038875 
L 34.377308 19.15622 
" clip-path="url(#pb8eabcc4b3)" style="fill: none; stroke: #000000; stroke-width: 0.8; stroke-linecap: square"/>
   </g>
   <g id="line2d_43">
    <path d="M 34.377308 19.15622 
L 35.372692 19.15622 
" clip-path="url(#pb8eabcc4b3)" style="fill: none; stroke: #000000; stroke-width: 0.8; stroke-linecap: square"/>
   </g>
   <g id="line2d_44">
    <path d="M 35.372692 19.15622 
L 36.360227 19.038875 
" clip-path="url(#pb8eabcc4b3)" style="fill: none; stroke: #000000; stroke-width: 0.8; stroke-linecap: square"/>
   </g>
   <g id="line2d_45">
    <path d="M 36.360227 19.038875 
L 37.324339 18.806037 
" clip-path="url(#pb8eabcc4b3)" style="fill: none; stroke: #000000; stroke-width: 0.8; stroke-linecap: square"/>
   </g>
   <g id="line2d_46">
    <path d="M 37.324339 18.806037 
L 38.249823 18.461377 
" clip-path="url(#pb8eabcc4b3)" style="fill: none; stroke: #000000; stroke-width: 0.8; stroke-linecap: square"/>
   </g>
   <g id="line2d_47">
    <path d="M 38.249823 18.461377 
L 39.122085 18.010331 
" clip-path="url(#pb8eabcc4b3)" style="fill: none; stroke: #000000; stroke-width: 0.8; stroke-linecap: square"/>
   </g>
   <g id="line2d_48">
    <path d="M 39.122085 18.010331 
L 39.927367 17.460012 
" clip-path="url(#pb8eabcc4b3)" style="fill: none; stroke: #000000; stroke-width: 0.8; stroke-linecap: square"/>
   </g>
   <g id="line2d_49">
    <path d="M 39.927367 17.460012 
L 40.65297 16.819099 
" clip-path="url(#pb8eabcc4b3)" style="fill: none; stroke: #000000; stroke-width: 0.8; stroke-linecap: square"/>
   </g>
   <g id="line2d_50">
    <path d="M 40.65297 16.819099 
L 41.287452 16.0977 
" clip-path="url(#pb8eabcc4b3)" style="fill: none; stroke: #000000; stroke-width: 0.8; stroke-linecap: square"/>
   </g>
   <g id="line2d_51">
    <path d="M 41.287452 16.0977 
L 41.820805 15.30719 
" clip-path="url(#pb8eabcc4b3)" style="fill: none; stroke: #000000; stroke-width: 0.8; stroke-linecap: square"/>
   </g>
   <g id="line2d_52">
    <path d="M 41.820805 15.30719 
L 42.244619 14.460038 
" clip-path="url(#pb8eabcc4b3)" style="fill: none; stroke: #000000; stroke-width: 0.8; stroke-linecap: square"/>
   </g>
   <g id="line2d_53">
    <path d="M 42.244619 14.460038 
L 42.552209 13.569603 
" clip-path="url(#pb8eabcc4b3)" style="fill: none; stroke: #000000; stroke-width: 0.8; stroke-linecap: square"/>
   </g>
   <g id="line2d_54">
    <path d="M 42.552209 13.569603 
L 42.738726 12.649928 
" clip-path="url(#pb8eabcc4b3)" style="fill: none; stroke: #000000; stroke-width: 0.8; stroke-linecap: square"/>
   </g>
   <g id="line2d_55">
    <path d="M 42.738726 12.649928 
L 42.801226 11.715517 
" clip-path="url(#pb8eabcc4b3)" style="fill: none; stroke: #000000; stroke-width: 0.8; stroke-linecap: square"/>
   </g>
   <g id="line2d_56">
    <path d="M 42.801226 11.715517 
L 42.738726 10.781106 
" clip-path="url(#pb8eabcc4b3)" style="fill: none; stroke: #000000; stroke-width: 0.8; stroke-linecap: square"/>
   </g>
  </g>
  <g id="axes_3">
   <g id="line2d_57">
    <path d="M 55.731152 4.686999 
L 54.86374 4.756867 
L 54.350146 4.803291 
L 53.748219 5.30116 
L 53.337555 6.258456 
L 53.063065 6.49109 
L 52.929474 7.133735 
L 53.12115 8.331893 
L 52.773779 9.782496 
L 52.435297 11.382791 
L 52.705859 11.879932 
L 52.707684 12.424778 
L 53.169856 13.163496 
L 53.517769 15.547257 
L 53.765314 15.751473 
L 53.962298 16.898782 
L 54.83929 17.752994 
L 55.70786 17.492075 
L 56.085282 17.58 
L 56.282147 17.209311 
L 56.163887 16.79206 
L 56.231257 16.476606 
L 56.524006 15.854894 
L 56.578417 15.276649 
L 56.82328 14.962828 
L 57.193815 13.883381 
L 57.156186 12.793024 
L 56.723546 12.333536 
L 55.750647 11.789042 
L 55.368922 11.430928 
L 54.831312 11.138547 
L 54.239248 11.261324 
L 53.680641 11.563664 
L 53.219359 11.584039 
L 52.745624 12.136987 
L 52.181445 12.313545 
L 51.642985 12.904477 
L 51.675055 13.199857 
L 50.844071 14.374212 
L 50.747773 14.915245 
L 50.065071 15.801329 
L 49.839095 16.100141 
L 50.067188 17.4454 
L 49.997011 17.636779 
L 50.219985 18.152024 
L 51.192544 18.339572 
L 52.22162 17.267149 
L 52.314344 16.836984 
L 52.191361 15.80724 
L 52.322054 15.028378 
L 52.209328 14.789225 
L 52.398146 14.260219 
L 52.902693 13.868441 
L 53.859317 14.289486 
L 54.605238 14.395395 
L 55.072199 14.858908 
L 55.137387 14.916755 
L 55.99552 16.184312 
L 55.971623 16.558201 
L 56.064672 16.908222 
L 55.816251 17.869017 
L 55.408177 18.024351 
L 55.048822 18.033437 
L 53.746563 18.436549 
L 52.571334 18.713357 
L 52.098934 18.565446 
L 49.932458 18.509801 
L 49.837994 18.083024 
L 49.837753 17.240764 
L 50.294052 16.583775 
L 50.886255 16.412215 
L 51.093132 16.061683 
L 51.603773 15.656882 
L 51.88907 14.660327 
L 51.935349 14.602525 
L 52.912082 13.671995 
L 53.06493 13.330023 
L 53.03183 12.834873 
L 53.267218 13.34187 
L 53.17464 13.546092 
L 53.329482 13.771911 
L 53.615771 13.835199 
L 54.108877 13.660417 
L 54.915298 13.610907 
L 56.280854 12.598709 
L 57.187198 12.541676 
L 57.137844 13.427538 
L 56.705525 13.887939 
L 56.447282 13.963867 
L 55.716744 13.766264 
L 55.105144 13.511945 
L 54.545966 13.512478 
L 54.503352 13.828137 
L 53.53968 14.571234 
L 52.950256 16.154902 
L 53.237601 16.617499 
L 53.384261 17.184823 
L 53.562935 18.757411 
L 54.342731 18.517533 
L 55.603426 18.755847 
L 56.259144 17.732264 
L 56.332063 17.587105 
L 57.382541 17.396399 
L 57.729718 17.577666 
L 58.534862 17.863081 
L 59.239761 18.559878 
L 59.70454 18.813568 
L 59.94747 18.766068 
L 60.807786 18.172776 
L 60.984478 17.805183 
L 60.941859 16.905884 
L 60.776908 16.502403 
L 60.815861 16.155835 
L 61.037977 15.865573 
L 62.176461 15.393633 
L 61.955058 14.776791 
L 61.993132 14.241865 
L 62.242022 13.948801 
L 62.142404 13.87956 
L 60.382154 13.538718 
L 59.851662 13.372138 
L 59.232706 13.202852 
L 58.352295 13.312676 
L 58.181622 13.851695 
L 57.769724 14.547229 
L 57.02151 15.859236 
L 56.673445 16.452354 
L 56.200905 16.798202 
L 55.326133 16.430848 
L 53.978876 16.696728 
L 53.326644 16.5567 
L 52.718921 15.741898 
L 51.413386 15.11102 
L 50.948451 16.123361 
L 50.67409 16.407564 
L 50.252351 16.490552 
L 49.923315 16.897853 
L 50.521428 16.804342 
L 50.830872 15.991834 
L 51.277408 15.269808 
L 51.259803 15.142241 
L 50.90104 14.613097 
L 50.18718 14.09938 
L 49.755524 13.803003 
L 49.989576 12.436298 
L 50.12959 12.119302 
L 50.495456 11.69775 
L 50.692894 10.91685 
L 51.139685 10.282008 
L 51.366754 9.111324 
L 51.076494 7.822007 
L 50.412283 7.175082 
L 49.782758 6.845032 
L 49.783754 6.285962 
L 50.434126 5.688048 
L 50.789283 5.088813 
L 51.044128 4.955194 
L 52.049963 5.144849 
L 52.879383 5.334984 
L 53.739355 6.131608 
L 54.229106 6.324388 
L 54.776863 6.396125 
L 54.985331 6.88677 
L 55.289335 7.212957 
L 55.075017 7.504364 
L 54.544929 8.103787 
L 54.979169 8.660276 
L 56.074482 9.007611 
L 57.167224 10.135693 
L 57.255551 10.355579 
L 57.259903 11.029913 
L 56.667619 11.385892 
L 56.5211 12.035185 
L 56.537559 12.881155 
L 56.682706 13.162739 
L 56.288941 13.905133 
L 56.290684 14.46107 
L 55.118656 14.612598 
L 54.595461 14.968829 
L 54.299442 15.0436 
L 53.522654 16.07517 
L 50.859119 17.361627 
L 50.307892 17.692347 
L 50.351731 18.023977 
L 50.285383 18.423355 
L 51.096286 18.492797 
L 52.241856 18.256725 
L 52.672885 18.247101 
L 53.127617 17.937129 
L 53.456077 17.958927 
L 54.193864 18.17208 
L 54.267963 18.340632 
L 55.282913 18.474083 
L 55.312693 18.467522 
L 55.665737 18.807642 
L 56.79461 18.652975 
L 56.773066 18.139044 
L 56.973433 17.727264 
L 56.854093 16.400194 
L 56.919008 15.342703 
L 56.742378 14.444175 
L 57.132009 13.762896 
L 56.968591 12.416441 
L 56.627221 11.826749 
L 56.549115 11.429809 
L 56.808792 11.002328 
L 56.898653 10.554251 
L 56.57169 10.241649 
L 56.493418 9.885294 
L 56.514331 9.223119 
L 56.642476 8.91707 
L 57.181351 8.185658 
L 57.148123 7.488842 
L 57.00479 7.200337 
L 56.308276 6.919357 
L 55.986728 6.966255 
L 55.364554 6.248956 
L 55.351587 5.817205 
L 55.18597 5.017806 
L 54.578755 4.980385 
L 52.928057 5.292587 
L 52.381886 5.533293 
L 52.211141 5.547601 
L 51.614068 5.435211 
L 50.957629 5.090433 
L 50.793977 4.689731 
L 49.770693 4.755081 
L 49.750133 5.309932 
L 49.82819 5.869158 
L 49.833241 6.626979 
L 50.631451 7.230968 
L 50.794865 7.268998 
L 51.38574 6.667494 
L 51.563609 6.293964 
L 51.648284 5.375583 
L 51.277746 4.807098 
L 50.756171 4.623881 
L 50.05576 4.655979 
L 49.769236 5.029523 
L 50.101206 5.89724 
L 50.015958 6.24581 
L 50.687863 7.631447 
L 50.564702 7.888618 
L 50.928398 8.129375 
L 51.00502 9.071434 
L 52.097395 9.950203 
L 52.289886 10.436029 
L 52.28958 11.651137 
L 53.275134 12.714299 
L 53.570836 13.386073 
L 55.080789 12.190275 
L 55.551041 12.130825 
L 55.942522 12.484226 
L 56.103462 13.007294 
L 56.521344 13.285503 
L 57.090286 13.455101 
L 57.159521 13.824056 
L 57.033115 14.2198 
L 56.85251 14.311498 
L 56.258182 15.564437 
L 56.311767 15.892806 
L 56.152559 16.436659 
L 55.318655 16.960579 
L 54.278962 17.622723 
L 53.616065 17.493025 
L 53.393101 17.240449 
L 53.598736 16.495637 
L 53.074362 15.934077 
L 51.371213 15.706581 
L 50.624139 15.694936 
L 50.176458 15.212453 
L 50.146884 14.77532 
L 50.242839 14.305447 
L 50.798449 14.040415 
L 51.128261 13.379646 
L 51.049395 11.98514 
L 50.031862 11.182454 
L 49.829542 10.776468 
L 50.947663 9.912333 
L 51.676092 9.868491 
L 52.007338 9.249245 
L 52.616586 9.413289 
L 52.720607 9.87991 
L 52.48892 10.367954 
L 52.266221 10.568988 
L 51.588891 10.51121 
L 51.135122 10.602457 
L 50.377719 10.123823 
L 49.77743 9.02354 
L 50.012253 8.305484 
L 49.929396 7.426784 
L 49.753921 6.943298 
L 50.341382 6.712413 
L 52.036646 6.79706 
L 52.539247 6.390388 
L 53.082532 5.793169 
L 53.184219 5.806055 
L 53.184219 5.806055 
" clip-path="url(#p92611f1b45)" style="fill: none; stroke: #348abd; stroke-width: 0.5; stroke-linecap: square"/>
   </g>
   <g id="line2d_58">
    <path d="M 65.220869 4.260103 
L 49.368416 4.260103 
" clip-path="url(#p92611f1b45)" style="fill: none; stroke: #000000; stroke-width: 0.8; stroke-linecap: square"/>
   </g>
   <g id="line2d_59">
    <path d="M 49.368416 4.260103 
L 49.368416 19.170931 
" clip-path="url(#p92611f1b45)" style="fill: none; stroke: #000000; stroke-width: 0.8; stroke-linecap: square"/>
   </g>
   <g id="line2d_60">
    <path d="M 49.368416 19.170931 
L 65.220869 19.170931 
" clip-path="url(#p92611f1b45)" style="fill: none; stroke: #000000; stroke-width: 0.8; stroke-linecap: square"/>
   </g>
   <g id="line2d_61">
    <path d="M 65.220869 19.170931 
L 65.220869 4.260103 
" clip-path="url(#p92611f1b45)" style="fill: none; stroke: #000000; stroke-width: 0.8; stroke-linecap: square"/>
   </g>
   <g id="line2d_62">
    <path d="M 57.294643 15.443224 
L 57.294643 7.98781 
" clip-path="url(#p92611f1b45)" style="fill: none; stroke: #000000; stroke-width: 0.8; stroke-linecap: square"/>
   </g>
   <g id="line2d_63">
    <path d="M 57.294643 15.443224 
L 57.294643 7.98781 
" clip-path="url(#p92611f1b45)" style="fill: none; stroke: #000000; stroke-width: 0.8; stroke-linecap: square"/>
   </g>
  </g>
  <g id="axes_4">
   <g id="line2d_64">
    <path d="M 10.063428 35.323741 
L 11.238637 35.735426 
L 11.360064 36.035938 
L 11.332825 36.487327 
L 11.685385 37.302101 
L 11.186904 38.017218 
L 11.196717 38.31104 
L 11.103447 39.033051 
L 10.300107 39.615141 
L 9.797814 40.109847 
L 8.488999 39.813686 
L 8.025435 38.955088 
L 7.513403 36.830193 
L 6.575905 36.221708 
L 6.632151 35.405393 
L 5.542837 34.680802 
L 5.24761 34.338085 
L 5.042924 33.657495 
L 5.1729 32.433401 
L 5.306771 32.29009 
L 5.950775 32.034864 
L 6.215932 32.105644 
L 6.617167 31.750742 
L 6.895956 31.756418 
L 7.814798 32.417865 
L 8.212015 32.885922 
L 8.143708 33.405246 
L 8.653675 34.050064 
L 9.02522 34.465086 
L 9.358273 35.544532 
L 9.831223 36.141968 
L 9.536729 36.766029 
L 8.89798 37.472203 
L 9.183035 39.031281 
L 9.67212 40.517048 
L 10.482088 40.791147 
L 10.942948 40.903947 
L 12.210743 40.026461 
L 12.666912 39.871937 
L 13.182267 39.426397 
L 14.606279 39.122621 
L 15.107292 38.912221 
L 16.555094 39.285144 
L 16.773334 39.194024 
L 16.704387 38.666961 
L 16.850049 38.440529 
L 16.8088 38.240446 
L 17.21977 37.336469 
L 17.502352 37.168432 
L 18.151334 37.089356 
L 18.848265 37.570841 
L 18.651632 37.948414 
L 17.67085 38.712655 
L 16.567066 39.17521 
L 16.448959 39.568679 
L 15.811621 39.799381 
L 15.152747 40.337081 
L 14.72895 38.796469 
L 14.553822 38.768656 
L 13.382304 38.868339 
L 12.80272 39.040194 
L 12.429544 38.795795 
L 10.822475 38.510762 
L 9.56116 38.218114 
L 7.567691 37.271863 
L 6.610788 37.066978 
L 6.340263 37.117943 
L 5.703692 37.00281 
L 5.208201 35.622039 
L 5.39042 35.195316 
L 6.30991 34.378106 
L 6.696479 34.569599 
L 7.766764 34.709779 
L 10.054977 33.970933 
L 10.35151 34.136949 
L 10.487754 33.936842 
L 10.969457 33.645029 
L 12.41365 33.519017 
L 13.33685 33.193386 
L 14.148549 33.165943 
L 15.082882 32.886922 
L 15.474593 32.906976 
L 16.13592 33.081266 
L 16.362158 33.458616 
L 16.86747 35.553414 
L 16.895511 36.590893 
L 16.754337 36.721436 
L 15.9741 36.811657 
L 15.782956 37.078457 
L 15.015238 37.611704 
L 15.238879 37.943837 
L 16.738574 38.601811 
L 16.935749 38.804448 
L 17.19463 39.476898 
L 16.715867 39.768344 
L 15.98734 40.028794 
L 15.224284 39.803116 
L 14.499824 39.811255 
L 14.274525 39.608305 
L 13.959127 39.335784 
L 11.468005 39.770203 
L 10.772845 40.256472 
L 10.274099 40.410163 
L 9.453729 40.465674 
L 8.262004 39.610694 
L 7.5418 38.788694 
L 7.444237 38.329015 
L 6.693738 37.044475 
L 6.050057 36.754054 
L 5.752257 36.59707 
L 5.479277 36.014105 
L 5.151702 35.728395 
L 5.084796 35.434959 
L 5.215495 35.095796 
L 5.670934 34.76017 
L 5.767066 34.420371 
L 6.635405 33.648922 
L 6.677084 32.758641 
L 7.050533 32.179092 
L 7.230616 31.455052 
L 7.649576 30.798087 
L 8.511343 30.68878 
L 8.713709 29.918025 
L 8.694455 29.723419 
L 8.743367 29.727664 
L 9.430929 30.173251 
L 9.932744 30.298732 
L 9.562636 31.02538 
L 9.280642 31.24873 
L 8.568421 31.26287 
L 8.324986 31.628949 
L 8.641667 32.465426 
L 8.995055 33.088699 
L 9.134513 32.911785 
L 9.165039 32.647771 
L 9.05133 32.299219 
L 8.768592 31.82616 
L 7.376924 31.55012 
L 7.03858 30.85541 
L 6.700441 30.441002 
L 6.861472 30.222918 
L 9.127912 29.788725 
L 9.770995 29.422573 
L 10.156716 29.634371 
L 10.980803 29.457539 
L 11.23088 29.215271 
L 11.393262 28.899232 
L 11.261724 28.398387 
L 11.413746 27.248444 
L 12.718696 27.077481 
L 13.153508 27.233437 
L 13.80414 27.999909 
L 13.806778 28.361505 
L 14.013783 28.656892 
L 15.179958 29.108984 
L 16.766662 31.025194 
L 16.910208 31.412619 
L 17.130744 31.679264 
L 16.451331 32.340769 
L 16.161228 32.446426 
L 15.88269 32.384024 
L 14.943662 32.408096 
L 14.32104 32.014869 
L 13.532439 30.568846 
L 12.710008 30.289708 
L 12.167685 30.292908 
L 10.210769 28.372118 
L 9.561226 28.33297 
L 8.903249 28.420611 
L 8.49657 28.017729 
L 8.98141 27.914127 
L 10.011522 27.96875 
L 10.179014 28.000117 
L 10.462161 28.167356 
L 11.238785 27.955265 
L 11.617944 27.635597 
L 12.28396 28.109477 
L 12.852738 28.782694 
L 13.096932 29.527373 
L 13.086387 30.53138 
L 12.801656 31.362138 
L 12.783929 31.370554 
L 12.421506 32.289133 
L 12.413148 32.695757 
L 12.636265 33.097387 
L 13.189156 33.276819 
L 13.735604 33.959785 
L 13.853984 34.970831 
L 13.787256 35.164399 
L 13.95302 35.987389 
L 13.185898 36.471069 
L 13.270435 36.742847 
L 13.657945 37.068669 
L 14.260622 36.780937 
L 16.215657 38.045434 
L 16.711457 38.476085 
L 17.757593 38.244404 
L 18.029465 38.108143 
L 18.590686 37.457908 
L 18.699253 37.388575 
L 19.031039 37.039205 
L 18.713649 35.310018 
L 19.109713 34.620289 
L 19.300023 34.17371 
L 19.632356 32.36808 
L 19.116467 31.10365 
L 18.227879 30.726854 
L 18.184956 30.548879 
L 18.35997 29.616771 
L 15.617803 28.108162 
L 15.712383 27.594352 
L 14.370774 27.624994 
L 13.189102 27.147701 
L 12.38634 27.099317 
L 11.367489 28.109867 
L 10.789108 28.369542 
L 9.926227 27.546654 
L 8.920647 27.7775 
L 8.66085 28.134255 
L 8.703713 28.807525 
L 8.542917 28.970086 
L 8.691607 29.371335 
L 8.528803 29.984895 
L 8.263031 30.445487 
L 6.993667 31.746291 
L 6.615464 31.809021 
L 6.094337 31.502213 
L 5.375127 31.708069 
L 5.424653 32.109692 
L 5.272286 32.896747 
L 5.446716 33.392797 
L 5.16321 33.938962 
L 5.566519 34.515705 
L 6.183443 34.840168 
L 7.250512 35.175499 
L 7.62346 35.368168 
L 8.217848 34.886806 
L 8.878221 34.641892 
L 9.159027 34.665681 
L 9.773024 34.448186 
L 10.173954 34.547467 
L 11.427676 35.137927 
L 12.561161 35.113342 
L 13.167555 34.862912 
L 13.528753 34.891801 
L 14.076388 34.526817 
L 14.750975 33.533491 
L 15.239717 33.41265 
L 16.275736 33.726933 
L 16.725324 33.787658 
L 17.219759 34.422871 
L 17.265549 34.663927 
L 17.517828 34.737753 
L 17.854233 34.536104 
L 18.487586 34.940091 
L 18.909693 34.887378 
L 19.468405 34.654436 
L 19.910823 34.95391 
L 19.70387 35.599312 
L 17.209125 37.520718 
L 16.720156 38.79218 
L 16.993707 39.544897 
L 16.708635 39.768902 
L 16.105193 39.927949 
L 15.86147 40.109813 
L 14.244915 40.105489 
L 12.990606 40.867443 
L 12.493079 40.88213 
L 12.213502 41.003796 
L 11.749232 40.946677 
L 10.028077 40.358223 
L 9.451611 39.866123 
L 8.962211 39.814373 
L 8.288785 39.847364 
L 7.842866 39.258963 
L 7.691502 38.689998 
L 8.049774 38.217916 
L 7.923001 37.789235 
L 7.206249 36.971295 
L 5.796726 36.64659 
L 5.424891 36.253964 
L 5.42243 35.973402 
L 5.57978 35.624935 
L 6.111598 35.245713 
L 7.507086 34.765646 
L 8.386433 34.85185 
L 9.775406 36.206645 
L 10.065164 37.049154 
L 10.144877 37.769802 
L 10.429215 38.261397 
L 10.951455 39.574688 
L 11.030389 39.72246 
L 11.030389 39.72246 
" clip-path="url(#p373d60ee85)" style="fill: none; stroke: #348abd; stroke-width: 0.5; stroke-linecap: square"/>
   </g>
   <g id="line2d_65">
    <path d="M 20.319083 33.040589 
L 20.132567 32.120914 
" clip-path="url(#p373d60ee85)" style="fill: none; stroke: #000000; stroke-width: 0.8; stroke-linecap: square"/>
   </g>
   <g id="line2d_66">
    <path d="M 20.132567 32.120914 
L 19.824976 31.230479 
" clip-path="url(#p373d60ee85)" style="fill: none; stroke: #000000; stroke-width: 0.8; stroke-linecap: square"/>
   </g>
   <g id="line2d_67">
    <path d="M 19.824976 31.230479 
L 19.401162 30.383327 
" clip-path="url(#p373d60ee85)" style="fill: none; stroke: #000000; stroke-width: 0.8; stroke-linecap: square"/>
   </g>
   <g id="line2d_68">
    <path d="M 19.401162 30.383327 
L 18.867809 29.592818 
" clip-path="url(#p373d60ee85)" style="fill: none; stroke: #000000; stroke-width: 0.8; stroke-linecap: square"/>
   </g>
   <g id="line2d_69">
    <path d="M 18.867809 29.592818 
L 18.233328 28.871418 
" clip-path="url(#p373d60ee85)" style="fill: none; stroke: #000000; stroke-width: 0.8; stroke-linecap: square"/>
   </g>
   <g id="line2d_70">
    <path d="M 18.233328 28.871418 
L 17.507724 28.230505 
" clip-path="url(#p373d60ee85)" style="fill: none; stroke: #000000; stroke-width: 0.8; stroke-linecap: square"/>
   </g>
   <g id="line2d_71">
    <path d="M 17.507724 28.230505 
L 16.702442 27.680186 
" clip-path="url(#p373d60ee85)" style="fill: none; stroke: #000000; stroke-width: 0.8; stroke-linecap: square"/>
   </g>
   <g id="line2d_72">
    <path d="M 16.702442 27.680186 
L 15.83018 27.22914 
" clip-path="url(#p373d60ee85)" style="fill: none; stroke: #000000; stroke-width: 0.8; stroke-linecap: square"/>
   </g>
   <g id="line2d_73">
    <path d="M 15.83018 27.22914 
L 14.904696 26.88448 
" clip-path="url(#p373d60ee85)" style="fill: none; stroke: #000000; stroke-width: 0.8; stroke-linecap: square"/>
   </g>
   <g id="line2d_74">
    <path d="M 14.904696 26.88448 
L 13.940584 26.651642 
" clip-path="url(#p373d60ee85)" style="fill: none; stroke: #000000; stroke-width: 0.8; stroke-linecap: square"/>
   </g>
   <g id="line2d_75">
    <path d="M 13.940584 26.651642 
L 12.953049 26.534298 
" clip-path="url(#p373d60ee85)" style="fill: none; stroke: #000000; stroke-width: 0.8; stroke-linecap: square"/>
   </g>
   <g id="line2d_76">
    <path d="M 12.953049 26.534298 
L 11.957665 26.534298 
" clip-path="url(#p373d60ee85)" style="fill: none; stroke: #000000; stroke-width: 0.8; stroke-linecap: square"/>
   </g>
   <g id="line2d_77">
    <path d="M 11.957665 26.534298 
L 10.97013 26.651642 
" clip-path="url(#p373d60ee85)" style="fill: none; stroke: #000000; stroke-width: 0.8; stroke-linecap: square"/>
   </g>
   <g id="line2d_78">
    <path d="M 10.97013 26.651642 
L 10.006018 26.88448 
" clip-path="url(#p373d60ee85)" style="fill: none; stroke: #000000; stroke-width: 0.8; stroke-linecap: square"/>
   </g>
   <g id="line2d_79">
    <path d="M 10.006018 26.88448 
L 9.080534 27.22914 
" clip-path="url(#p373d60ee85)" style="fill: none; stroke: #000000; stroke-width: 0.8; stroke-linecap: square"/>
   </g>
   <g id="line2d_80">
    <path d="M 9.080534 27.22914 
L 8.208273 27.680186 
" clip-path="url(#p373d60ee85)" style="fill: none; stroke: #000000; stroke-width: 0.8; stroke-linecap: square"/>
   </g>
   <g id="line2d_81">
    <path d="M 8.208273 27.680186 
L 7.40299 28.230505 
" clip-path="url(#p373d60ee85)" style="fill: none; stroke: #000000; stroke-width: 0.8; stroke-linecap: square"/>
   </g>
   <g id="line2d_82">
    <path d="M 7.40299 28.230505 
L 6.677387 28.871418 
" clip-path="url(#p373d60ee85)" style="fill: none; stroke: #000000; stroke-width: 0.8; stroke-linecap: square"/>
   </g>
   <g id="line2d_83">
    <path d="M 6.677387 28.871418 
L 6.042905 29.592818 
" clip-path="url(#p373d60ee85)" style="fill: none; stroke: #000000; stroke-width: 0.8; stroke-linecap: square"/>
   </g>
   <g id="line2d_84">
    <path d="M 6.042905 29.592818 
L 5.509552 30.383327 
" clip-path="url(#p373d60ee85)" style="fill: none; stroke: #000000; stroke-width: 0.8; stroke-linecap: square"/>
   </g>
   <g id="line2d_85">
    <path d="M 5.509552 30.383327 
L 5.085738 31.230479 
" clip-path="url(#p373d60ee85)" style="fill: none; stroke: #000000; stroke-width: 0.8; stroke-linecap: square"/>
   </g>
   <g id="line2d_86">
    <path d="M 5.085738 31.230479 
L 4.778148 32.120914 
" clip-path="url(#p373d60ee85)" style="fill: none; stroke: #000000; stroke-width: 0.8; stroke-linecap: square"/>
   </g>
   <g id="line2d_87">
    <path d="M 4.778148 32.120914 
L 4.591631 33.040589 
" clip-path="url(#p373d60ee85)" style="fill: none; stroke: #000000; stroke-width: 0.8; stroke-linecap: square"/>
   </g>
   <g id="line2d_88">
    <path d="M 4.591631 33.040589 
L 4.529131 33.975 
" clip-path="url(#p373d60ee85)" style="fill: none; stroke: #000000; stroke-width: 0.8; stroke-linecap: square"/>
   </g>
   <g id="line2d_89">
    <path d="M 4.529131 33.975 
L 4.591631 34.909411 
" clip-path="url(#p373d60ee85)" style="fill: none; stroke: #000000; stroke-width: 0.8; stroke-linecap: square"/>
   </g>
   <g id="line2d_90">
    <path d="M 4.591631 34.909411 
L 4.778148 35.829086 
" clip-path="url(#p373d60ee85)" style="fill: none; stroke: #000000; stroke-width: 0.8; stroke-linecap: square"/>
   </g>
   <g id="line2d_91">
    <path d="M 4.778148 35.829086 
L 5.085738 36.719521 
" clip-path="url(#p373d60ee85)" style="fill: none; stroke: #000000; stroke-width: 0.8; stroke-linecap: square"/>
   </g>
   <g id="line2d_92">
    <path d="M 5.085738 36.719521 
L 5.509552 37.566673 
" clip-path="url(#p373d60ee85)" style="fill: none; stroke: #000000; stroke-width: 0.8; stroke-linecap: square"/>
   </g>
   <g id="line2d_93">
    <path d="M 5.509552 37.566673 
L 6.042905 38.357182 
" clip-path="url(#p373d60ee85)" style="fill: none; stroke: #000000; stroke-width: 0.8; stroke-linecap: square"/>
   </g>
   <g id="line2d_94">
    <path d="M 6.042905 38.357182 
L 6.677387 39.078582 
" clip-path="url(#p373d60ee85)" style="fill: none; stroke: #000000; stroke-width: 0.8; stroke-linecap: square"/>
   </g>
   <g id="line2d_95">
    <path d="M 6.677387 39.078582 
L 7.40299 39.719495 
" clip-path="url(#p373d60ee85)" style="fill: none; stroke: #000000; stroke-width: 0.8; stroke-linecap: square"/>
   </g>
   <g id="line2d_96">
    <path d="M 7.40299 39.719495 
L 8.208273 40.269814 
" clip-path="url(#p373d60ee85)" style="fill: none; stroke: #000000; stroke-width: 0.8; stroke-linecap: square"/>
   </g>
   <g id="line2d_97">
    <path d="M 8.208273 40.269814 
L 9.080534 40.72086 
" clip-path="url(#p373d60ee85)" style="fill: none; stroke: #000000; stroke-width: 0.8; stroke-linecap: square"/>
   </g>
   <g id="line2d_98">
    <path d="M 9.080534 40.72086 
L 10.006018 41.06552 
" clip-path="url(#p373d60ee85)" style="fill: none; stroke: #000000; stroke-width: 0.8; stroke-linecap: square"/>
   </g>
   <g id="line2d_99">
    <path d="M 10.006018 41.06552 
L 10.97013 41.298358 
" clip-path="url(#p373d60ee85)" style="fill: none; stroke: #000000; stroke-width: 0.8; stroke-linecap: square"/>
   </g>
   <g id="line2d_100">
    <path d="M 10.97013 41.298358 
L 11.957665 41.415702 
" clip-path="url(#p373d60ee85)" style="fill: none; stroke: #000000; stroke-width: 0.8; stroke-linecap: square"/>
   </g>
   <g id="line2d_101">
    <path d="M 11.957665 41.415702 
L 12.953049 41.415702 
" clip-path="url(#p373d60ee85)" style="fill: none; stroke: #000000; stroke-width: 0.8; stroke-linecap: square"/>
   </g>
   <g id="line2d_102">
    <path d="M 12.953049 41.415702 
L 13.940584 41.298358 
" clip-path="url(#p373d60ee85)" style="fill: none; stroke: #000000; stroke-width: 0.8; stroke-linecap: square"/>
   </g>
   <g id="line2d_103">
    <path d="M 13.940584 41.298358 
L 14.904696 41.06552 
" clip-path="url(#p373d60ee85)" style="fill: none; stroke: #000000; stroke-width: 0.8; stroke-linecap: square"/>
   </g>
   <g id="line2d_104">
    <path d="M 14.904696 41.06552 
L 15.83018 40.72086 
" clip-path="url(#p373d60ee85)" style="fill: none; stroke: #000000; stroke-width: 0.8; stroke-linecap: square"/>
   </g>
   <g id="line2d_105">
    <path d="M 15.83018 40.72086 
L 16.702442 40.269814 
" clip-path="url(#p373d60ee85)" style="fill: none; stroke: #000000; stroke-width: 0.8; stroke-linecap: square"/>
   </g>
   <g id="line2d_106">
    <path d="M 16.702442 40.269814 
L 17.507724 39.719495 
" clip-path="url(#p373d60ee85)" style="fill: none; stroke: #000000; stroke-width: 0.8; stroke-linecap: square"/>
   </g>
   <g id="line2d_107">
    <path d="M 17.507724 39.719495 
L 18.233328 39.078582 
" clip-path="url(#p373d60ee85)" style="fill: none; stroke: #000000; stroke-width: 0.8; stroke-linecap: square"/>
   </g>
   <g id="line2d_108">
    <path d="M 18.233328 39.078582 
L 18.867809 38.357182 
" clip-path="url(#p373d60ee85)" style="fill: none; stroke: #000000; stroke-width: 0.8; stroke-linecap: square"/>
   </g>
   <g id="line2d_109">
    <path d="M 18.867809 38.357182 
L 19.401162 37.566673 
" clip-path="url(#p373d60ee85)" style="fill: none; stroke: #000000; stroke-width: 0.8; stroke-linecap: square"/>
   </g>
   <g id="line2d_110">
    <path d="M 19.401162 37.566673 
L 19.824976 36.719521 
" clip-path="url(#p373d60ee85)" style="fill: none; stroke: #000000; stroke-width: 0.8; stroke-linecap: square"/>
   </g>
   <g id="line2d_111">
    <path d="M 19.824976 36.719521 
L 20.132567 35.829086 
" clip-path="url(#p373d60ee85)" style="fill: none; stroke: #000000; stroke-width: 0.8; stroke-linecap: square"/>
   </g>
   <g id="line2d_112">
    <path d="M 20.132567 35.829086 
L 20.319083 34.909411 
" clip-path="url(#p373d60ee85)" style="fill: none; stroke: #000000; stroke-width: 0.8; stroke-linecap: square"/>
   </g>
   <g id="line2d_113">
    <path d="M 20.319083 34.909411 
L 20.381584 33.975 
" clip-path="url(#p373d60ee85)" style="fill: none; stroke: #000000; stroke-width: 0.8; stroke-linecap: square"/>
   </g>
   <g id="line2d_114">
    <path d="M 20.381584 33.975 
L 20.319083 33.040589 
" clip-path="url(#p373d60ee85)" style="fill: none; stroke: #000000; stroke-width: 0.8; stroke-linecap: square"/>
   </g>
  </g>
  <g id="axes_5">
   <g id="line2d_115">
    <path d="M 41.127878 27.826818 
L 41.912826 27.958277 
L 42.698479 27.826901 
L 42.689017 27.799277 
L 41.934298 27.118467 
L 40.819764 26.865904 
L 40.399534 26.969184 
L 39.719155 27.627677 
L 39.081007 28.419762 
L 39.010713 28.448564 
L 38.991346 29.309339 
L 39.203872 29.578361 
L 40.113494 29.991315 
L 40.404873 29.840597 
L 41.114679 29.760076 
L 41.598746 30.054708 
L 42.888348 31.163803 
L 43.163376 31.129263 
L 43.444433 30.929609 
L 43.76507 30.521631 
L 43.881704 29.916567 
L 43.763457 29.687939 
L 42.832286 28.746816 
L 42.870119 27.929617 
L 41.879287 26.864882 
L 41.289721 25.519831 
L 39.955901 24.264809 
L 39.338853 23.677507 
L 38.69028 24.190239 
L 38.552273 24.377341 
L 37.983956 24.618616 
L 37.909291 24.96267 
L 38.040135 25.281123 
L 38.464012 25.228104 
L 39.03734 24.257915 
L 39.024976 23.779769 
L 36.875095 23.510707 
L 36.337176 23.485722 
L 35.428666 24.119598 
L 35.465469 24.333437 
L 34.639017 25.389753 
L 34.391994 25.515318 
L 33.231392 25.980451 
L 32.255647 26.577674 
L 32.149938 28.178372 
L 32.224489 28.388216 
L 32.755138 28.878762 
L 33.38038 28.776735 
L 33.734131 28.483368 
L 34.663598 28.031823 
L 34.890969 27.77978 
L 35.311687 27.537852 
L 35.343106 26.722489 
L 35.057082 26.229766 
L 35.33591 25.577667 
L 35.496258 25.140132 
L 36.018724 24.735496 
L 35.542711 23.479198 
L 35.413524 23.352045 
L 34.606804 23.586774 
L 34.279355 23.962621 
L 34.102138 24.415297 
L 34.584749 25.143406 
L 34.997783 25.649635 
L 34.745249 26.597937 
L 34.597576 27.255653 
L 34.007586 27.747597 
L 33.74952 28.240102 
L 33.653569 28.7615 
L 33.156191 30.105936 
L 33.357023 30.718402 
L 33.568153 31.506933 
L 34.04626 32.099115 
L 34.089182 32.474937 
L 33.855969 32.561905 
L 33.862907 32.853194 
L 33.52649 33.420193 
L 33.114709 32.734839 
L 31.773935 32.129066 
L 31.875952 31.699361 
L 32.195087 31.512359 
L 32.620963 31.571577 
L 33.1611 30.742405 
L 33.242936 29.927156 
L 33.56875 29.643233 
L 33.282669 29.134404 
L 33.258002 28.047007 
L 33.046373 27.520028 
L 32.02501 26.942345 
L 31.979633 26.91126 
L 30.397713 27.612991 
L 29.339834 27.508738 
L 29.18049 27.175113 
L 28.993441 26.466122 
L 28.436611 25.085671 
L 28.520168 24.517536 
L 29.02298 23.91622 
L 29.03891 23.490511 
L 29.22471 23.332916 
L 29.530107 23.32453 
L 30.897766 23.785411 
L 31.010586 24.561915 
L 30.814225 25.415833 
L 30.244493 26.32216 
L 30.154402 26.657399 
L 29.873196 27.048543 
L 29.625048 28.646868 
L 27.72269 30.275904 
L 27.972486 30.636682 
L 28.258887 30.746134 
L 29.415001 30.62629 
L 29.623997 30.767188 
L 29.87235 31.975807 
L 29.157668 32.701374 
L 28.87906 32.583595 
L 28.447469 32.233066 
L 27.823688 32.852946 
L 27.517987 33.570014 
L 27.728562 33.942646 
L 28.086812 34.775526 
L 28.10421 35.578526 
L 28.917261 37.812209 
L 29.265006 37.873606 
L 29.853935 37.839745 
L 30.534 37.230108 
L 30.9172 36.244605 
L 31.616073 35.13405 
L 31.49642 34.4447 
L 31.205075 34.176686 
L 31.126311 33.439983 
L 30.665917 32.746816 
L 31.137422 31.492782 
L 30.98666 30.899029 
L 31.134927 30.654692 
L 32.391207 29.847858 
L 33.305915 29.853907 
L 34.397139 30.774296 
L 34.567327 31.304275 
L 35.009074 31.579662 
L 36.205086 30.972318 
L 36.410756 30.266172 
L 37.383529 29.820983 
L 38.104814 29.605114 
L 39.053168 29.758193 
L 39.435354 31.109276 
L 38.623183 32.5331 
L 36.671352 33.723117 
L 36.398615 34.344504 
L 35.888637 34.406191 
L 35.062484 33.754786 
L 34.408442 34.049534 
L 33.343702 34.307256 
L 32.634847 34.204382 
L 32.450152 33.988473 
L 31.515911 33.904644 
L 31.208646 33.656353 
L 30.743554 33.680812 
L 30.525904 33.975735 
L 30.079559 34.32386 
L 28.722498 34.918574 
L 28.544667 35.475575 
L 28.095275 35.923867 
L 28.813456 36.94272 
L 28.909176 37.858861 
L 28.237788 38.930702 
L 27.276383 39.605471 
L 27.248501 40.387208 
L 26.315195 40.765751 
L 25.983046 40.29451 
L 25.955243 39.266727 
L 26.262466 37.824488 
L 26.501495 37.214925 
L 27.357018 37.416222 
L 28.003228 37.930526 
L 28.11823 38.48913 
L 27.788458 38.808557 
L 27.236549 39.181305 
L 26.318487 39.598837 
L 26.384743 40.353512 
L 26.501399 40.571159 
L 26.427136 40.893698 
L 26.523508 41.728139 
L 26.938591 42.938619 
L 27.395222 43.311125 
L 27.865663 43.52993 
L 29.375505 44.527478 
L 29.779375 44.439009 
L 30.309222 44.183149 
L 31.013323 44.331178 
L 31.125689 44.0394 
L 31.028399 43.860573 
L 30.411458 43.027503 
L 30.915101 41.393816 
L 30.494102 40.730627 
L 30.341004 40.392928 
L 29.649983 40.341379 
L 28.881911 40.40477 
L 27.919535 40.346676 
L 27.332633 40.165799 
L 26.866372 40.282924 
L 26.336405 39.845462 
L 26.224409 39.547924 
L 26.081734 39.007236 
L 25.836366 39.137047 
L 25.828673 39.888492 
L 26.141793 40.181988 
L 26.779927 40.592391 
L 27.355419 40.296675 
L 27.653234 39.976289 
L 28.091519 39.864353 
L 28.019411 39.600924 
L 27.962818 38.892139 
L 28.679417 38.82633 
L 30.087101 37.838596 
L 29.590415 37.276443 
L 28.991663 37.169851 
L 28.778771 36.732754 
L 28.87159 35.307413 
L 29.487438 34.006461 
L 30.653335 33.249956 
L 30.738078 32.728647 
L 32.102097 32.358999 
L 33.03686 32.882456 
L 33.517248 32.916433 
L 33.656019 32.503765 
L 34.081902 32.131392 
L 35.023328 31.946419 
L 36.089543 31.895353 
L 36.664236 31.538878 
L 37.211051 30.00311 
L 36.871925 29.624445 
L 36.839572 28.709574 
L 37.225288 27.922744 
L 37.222093 27.624156 
L 37.106004 27.182133 
L 36.417678 26.573165 
L 35.707703 26.653899 
L 35.1687 26.347343 
L 35.11924 26.076601 
L 34.230147 25.738638 
L 33.936667 25.857357 
L 32.541104 26.937105 
L 30.702605 27.095 
L 30.358358 27.568999 
L 30.120103 27.64428 
L 28.694556 27.292171 
L 28.584599 27.110759 
L 28.371973 27.080593 
L 27.887926 26.486766 
L 27.707208 25.84667 
L 27.732161 25.68329 
L 27.996233 25.020946 
L 27.848422 23.930573 
L 27.500128 23.465361 
L 26.831372 23.35815 
L 26.35503 24.112137 
L 26.27261 24.859013 
L 26.366484 25.488292 
L 26.322264 25.737091 
L 25.72793 26.30451 
L 25.094606 26.333339 
L 24.759013 26.205524 
L 24.56823 26.009814 
L 24.191818 25.829568 
L 23.728218 25.476328 
L 23.946207 24.783548 
L 23.995114 24.192878 
L 24.338184 24.164566 
L 25.291199 23.368717 
L 25.663913 23.34792 
L 27.004756 23.447322 
L 27.126707 23.357094 
L 27.66112 23.697378 
L 27.829961 23.710176 
L 28.30513 23.859441 
L 29.506114 23.897765 
L 30.067566 23.739294 
L 30.461767 23.806425 
L 31.115117 23.679342 
L 31.367071 23.517197 
L 31.859623 23.463994 
L 32.319626 23.748406 
L 32.659745 24.641221 
L 31.759243 25.314861 
L 31.856279 25.688118 
L 32.760862 26.496769 
L 33.007906 26.495216 
L 33.084794 26.329126 
L 33.563907 26.054387 
L 33.576775 25.860084 
L 33.380801 25.689233 
L 32.988632 24.986749 
L 31.670505 24.44154 
L 31.241221 24.500362 
L 28.755766 24.340562 
L 28.712687 24.474298 
L 28.712687 24.474298 
" clip-path="url(#p685585a6d1)" style="fill: none; stroke: #348abd; stroke-width: 0.5; stroke-linecap: square"/>
   </g>
   <g id="line2d_116">
    <path d="M 46.76434 22.791879 
L 22.98566 22.791879 
" clip-path="url(#p685585a6d1)" style="fill: none; stroke: #000000; stroke-width: 0.8; stroke-linecap: square"/>
   </g>
   <g id="line2d_117">
    <path d="M 22.98566 22.791879 
L 22.98566 45.158121 
" clip-path="url(#p685585a6d1)" style="fill: none; stroke: #000000; stroke-width: 0.8; stroke-linecap: square"/>
   </g>
   <g id="line2d_118">
    <path d="M 22.98566 45.158121 
L 46.76434 45.158121 
" clip-path="url(#p685585a6d1)" style="fill: none; stroke: #000000; stroke-width: 0.8; stroke-linecap: square"/>
   </g>
   <g id="line2d_119">
    <path d="M 46.76434 45.158121 
L 46.76434 22.791879 
" clip-path="url(#p685585a6d1)" style="fill: none; stroke: #000000; stroke-width: 0.8; stroke-linecap: square"/>
   </g>
  </g>
  <g id="axes_6">
   <g id="line2d_120">
    <path d="M 58.593196 35.092126 
L 58.844429 35.553038 
L 59.954487 35.928865 
L 60.410578 36.434924 
L 60.708507 36.932159 
L 61.033267 36.636929 
L 61.710006 36.209207 
L 62.367679 36.439936 
L 62.795767 38.029146 
L 63.401644 38.099092 
L 63.701535 37.661869 
L 63.583055 35.48943 
L 63.712416 34.950157 
L 64.228355 34.277468 
L 64.230454 33.174007 
L 64.487779 32.52205 
L 63.841361 31.05862 
L 63.166096 30.58538 
L 62.060046 30.199542 
L 61.150757 30.203617 
L 60.008145 29.844165 
L 58.901798 29.484962 
L 57.179561 28.466589 
L 56.851795 28.449669 
L 56.435801 28.692918 
L 56.421392 29.169507 
L 56.626672 29.891339 
L 56.974373 30.563911 
L 56.833304 30.797511 
L 56.426615 31.121023 
L 56.166334 31.650123 
L 56.223274 32.36188 
L 56.447426 32.666796 
L 56.781437 33.396945 
L 56.64668 33.745918 
L 56.693145 34.419889 
L 57.068915 34.827601 
L 56.992786 35.170184 
L 56.016733 36.438908 
L 55.181225 36.306371 
L 54.945416 35.997456 
L 55.092058 34.149364 
L 54.515985 33.746287 
L 53.945204 33.643294 
L 53.128783 33.349144 
L 52.776459 32.761117 
L 52.646206 32.016445 
L 53.137335 31.837935 
L 53.5406 31.888858 
L 54.555467 31.367417 
L 55.190914 30.990683 
L 55.420961 30.765736 
L 56.193163 30.719359 
L 56.806576 30.091766 
L 56.95243 29.376308 
L 57.460241 29.005616 
L 57.865072 28.552299 
L 57.882115 28.213539 
L 57.630467 27.743931 
L 58.008931 27.169513 
L 59.449194 27.385063 
L 60.034772 27.738988 
L 62.10437 28.644745 
L 62.408029 29.021969 
L 62.789185 29.281087 
L 63.330676 30.332251 
L 64.102173 31.138896 
L 64.34942 31.923618 
L 64.212598 32.216724 
L 63.468811 32.676309 
L 63.243302 33.47789 
L 63.325332 34.121984 
L 63.098215 34.915548 
L 63.276233 36.670456 
L 63.01784 37.430334 
L 63.067925 38.232895 
L 62.8306 38.76808 
L 62.507317 39.063296 
L 61.517812 39.427545 
L 60.976642 40.062905 
L 60.346253 40.268472 
L 59.865368 40.101662 
L 58.066863 40.791123 
L 56.797463 41.013463 
L 56.500566 40.986921 
L 56.292608 40.662239 
L 55.986284 40.71355 
L 53.097881 39.227238 
L 53.066405 38.553448 
L 53.290819 37.956544 
L 53.990124 37.359484 
L 54.274157 36.890614 
L 53.973329 36.190755 
L 54.068444 35.848177 
L 54.197872 35.816745 
L 55.087054 35.238475 
L 55.525892 34.831917 
L 55.956714 34.830189 
L 57.039907 35.498185 
L 57.277329 35.479338 
L 57.685242 35.730384 
L 58.973966 35.538762 
L 60.288565 34.362155 
L 60.597138 34.477798 
L 60.946591 35.163817 
L 61.425325 35.226413 
L 62.082693 35.503906 
L 62.59234 35.595798 
L 62.89531 36.058307 
L 63.694471 36.430998 
L 63.120461 37.029093 
L 63.150441 37.74099 
L 62.348273 38.943585 
L 61.866706 39.263265 
L 60.972214 39.332584 
L 59.756542 40.597933 
L 59.197546 40.766378 
L 58.826619 40.760364 
L 58.242748 40.933792 
L 57.552773 40.978552 
L 57.283959 40.865444 
L 56.348789 39.900558 
L 56.147457 39.572142 
L 55.909462 38.845504 
L 55.384551 38.5175 
L 53.883241 37.690659 
L 53.603156 37.758754 
L 53.071497 37.347636 
L 52.953927 35.991464 
L 53.042371 35.473592 
L 52.256422 34.724087 
L 50.304405 33.053842 
L 50.333968 32.204842 
L 50.658076 31.666806 
L 50.983287 31.706636 
L 51.612766 31.244507 
L 52.136857 31.086216 
L 52.877458 31.188856 
L 53.188166 31.257385 
L 53.607866 30.975678 
L 54.018955 30.900409 
L 54.711233 31.005404 
L 54.833567 31.304397 
L 54.635521 32.18406 
L 54.14824 32.952633 
L 53.153068 33.820282 
L 51.983894 33.893225 
L 50.852638 34.614024 
L 50.22579 34.424048 
L 50.223127 34.433524 
L 49.927693 35.402621 
L 50.503463 35.676956 
L 50.807617 35.996766 
L 51.71198 36.268916 
L 52.891235 36.014949 
L 53.261856 35.584226 
L 53.378121 34.466767 
L 53.049254 34.612721 
L 53.08507 34.956024 
L 52.936028 35.272015 
L 52.537059 35.447987 
L 51.883002 35.935427 
L 50.710124 35.965669 
L 50.224687 35.648786 
L 49.919694 35.145121 
L 50.03318 34.493822 
L 50.25812 33.942954 
L 50.209677 33.429928 
L 51.391907 32.858306 
L 53.245802 31.091441 
L 53.585048 30.40249 
L 53.264162 29.91801 
L 53.461291 29.648084 
L 53.4775 29.222042 
L 53.245746 28.717284 
L 53.165229 28.232654 
L 53.459726 27.878439 
L 53.86613 27.886122 
L 54.395369 27.750296 
L 54.618632 27.498348 
L 55.688738 27.223428 
L 56.109208 27.163752 
L 56.581229 26.930237 
L 57.307596 26.953784 
L 57.956904 27.868754 
L 57.972803 28.664421 
L 57.725388 30.086815 
L 57.166564 30.738321 
L 57.230488 31.013384 
L 58.02977 31.393848 
L 58.429863 31.383323 
L 59.316562 31.475203 
L 60.368116 32.156458 
L 60.600925 32.097081 
L 61.244447 31.654996 
L 61.698688 30.857023 
L 61.724084 30.612362 
L 62.146403 30.002781 
L 61.741598 29.561139 
L 61.313022 28.886993 
L 60.70816 28.310407 
L 60.453037 27.712562 
L 59.497605 27.358706 
L 58.736031 27.821503 
L 58.4213 28.598824 
L 58.962349 29.803857 
L 58.966204 30.855651 
L 59.902679 31.678927 
L 60.67949 31.288853 
L 61.250564 31.447971 
L 61.477441 32.211383 
L 60.953626 33.36515 
L 60.500683 33.348183 
L 60.192864 33.110257 
L 59.536057 33.152318 
L 58.142748 33.728497 
L 57.739408 34.599908 
L 57.786817 34.681495 
L 58.007302 34.748495 
L 58.601432 35.206766 
L 59.116269 35.359843 
L 59.246935 34.782579 
L 59.540824 34.416494 
L 59.810955 33.6816 
L 59.487531 32.827714 
L 59.454585 32.749785 
L 59.578915 32.480304 
L 60.138083 32.382766 
L 60.658451 31.78036 
L 60.767471 31.241033 
L 61.045028 30.66855 
L 60.907683 30.116359 
L 61.108671 29.409883 
L 61.336057 29.338116 
L 61.912681 28.933625 
L 62.241396 28.900761 
L 62.95591 29.856691 
L 62.982436 30.60821 
L 63.210554 31.900621 
L 63.114149 32.319341 
L 63.33489 32.803205 
L 63.677801 32.912081 
L 64.716069 32.9732 
L 64.592624 33.381646 
L 64.793346 33.849386 
L 64.257144 34.778953 
L 64.066385 34.770811 
L 63.31904 36.229331 
L 63.078566 36.377243 
L 62.911511 36.842468 
L 60.892225 36.828888 
L 60.199185 36.2688 
L 59.420965 35.998538 
L 58.98218 35.440178 
L 58.915407 34.569865 
L 57.958416 33.604016 
L 57.426106 32.455359 
L 55.720986 31.888793 
L 55.088114 31.20242 
L 54.556831 30.933985 
L 54.384747 31.003704 
L 54.109146 30.895327 
L 53.321424 30.771212 
L 52.948387 30.478557 
L 52.710332 30.503691 
L 52.445085 30.919366 
L 51.998447 30.83329 
L 51.59249 30.48795 
L 51.317096 30.426307 
L 50.656877 30.743155 
L 50.33856 31.251647 
L 51.083822 32.079712 
L 52.353461 32.504645 
L 52.657428 32.405626 
L 52.976282 31.416081 
L 52.511237 30.586788 
L 52.380665 29.346179 
L 51.86729 29.213327 
L 51.381306 29.674325 
L 51.314849 31.008162 
L 51.313032 31.131083 
L 51.798362 31.831933 
L 51.56887 32.170099 
L 51.181853 32.458731 
L 51.637425 34.079125 
L 51.514905 35.097364 
L 51.520371 35.340145 
L 51.235774 35.925381 
L 51.144295 36.889429 
L 51.412978 37.293343 
L 52.222738 37.699851 
L 52.467692 38.065295 
L 52.38636 38.561253 
L 52.38636 38.561253 
" clip-path="url(#pdf4dc5db6b)" style="fill: none; stroke: #348abd; stroke-width: 0.5; stroke-linecap: square"/>
   </g>
   <g id="line2d_121">
    <path d="M 65.158369 33.040589 
L 64.971852 32.120914 
" clip-path="url(#pdf4dc5db6b)" style="fill: none; stroke: #000000; stroke-width: 0.8; stroke-linecap: square"/>
   </g>
   <g id="line2d_122">
    <path d="M 64.971852 32.120914 
L 64.664262 31.230479 
" clip-path="url(#pdf4dc5db6b)" style="fill: none; stroke: #000000; stroke-width: 0.8; stroke-linecap: square"/>
   </g>
   <g id="line2d_123">
    <path d="M 64.664262 31.230479 
L 64.240448 30.383327 
" clip-path="url(#pdf4dc5db6b)" style="fill: none; stroke: #000000; stroke-width: 0.8; stroke-linecap: square"/>
   </g>
   <g id="line2d_124">
    <path d="M 64.240448 30.383327 
L 63.707095 29.592818 
" clip-path="url(#pdf4dc5db6b)" style="fill: none; stroke: #000000; stroke-width: 0.8; stroke-linecap: square"/>
   </g>
   <g id="line2d_125">
    <path d="M 63.707095 29.592818 
L 63.072613 28.871418 
" clip-path="url(#pdf4dc5db6b)" style="fill: none; stroke: #000000; stroke-width: 0.8; stroke-linecap: square"/>
   </g>
   <g id="line2d_126">
    <path d="M 63.072613 28.871418 
L 62.34701 28.230505 
" clip-path="url(#pdf4dc5db6b)" style="fill: none; stroke: #000000; stroke-width: 0.8; stroke-linecap: square"/>
   </g>
   <g id="line2d_127">
    <path d="M 62.34701 28.230505 
L 61.541727 27.680186 
" clip-path="url(#pdf4dc5db6b)" style="fill: none; stroke: #000000; stroke-width: 0.8; stroke-linecap: square"/>
   </g>
   <g id="line2d_128">
    <path d="M 61.541727 27.680186 
L 60.669466 27.22914 
" clip-path="url(#pdf4dc5db6b)" style="fill: none; stroke: #000000; stroke-width: 0.8; stroke-linecap: square"/>
   </g>
   <g id="line2d_129">
    <path d="M 60.669466 27.22914 
L 59.743982 26.88448 
" clip-path="url(#pdf4dc5db6b)" style="fill: none; stroke: #000000; stroke-width: 0.8; stroke-linecap: square"/>
   </g>
   <g id="line2d_130">
    <path d="M 59.743982 26.88448 
L 58.77987 26.651642 
" clip-path="url(#pdf4dc5db6b)" style="fill: none; stroke: #000000; stroke-width: 0.8; stroke-linecap: square"/>
   </g>
   <g id="line2d_131">
    <path d="M 58.77987 26.651642 
L 57.792335 26.534298 
" clip-path="url(#pdf4dc5db6b)" style="fill: none; stroke: #000000; stroke-width: 0.8; stroke-linecap: square"/>
   </g>
   <g id="line2d_132">
    <path d="M 57.792335 26.534298 
L 56.796951 26.534298 
" clip-path="url(#pdf4dc5db6b)" style="fill: none; stroke: #000000; stroke-width: 0.8; stroke-linecap: square"/>
   </g>
   <g id="line2d_133">
    <path d="M 56.796951 26.534298 
L 55.809416 26.651642 
" clip-path="url(#pdf4dc5db6b)" style="fill: none; stroke: #000000; stroke-width: 0.8; stroke-linecap: square"/>
   </g>
   <g id="line2d_134">
    <path d="M 55.809416 26.651642 
L 54.845304 26.88448 
" clip-path="url(#pdf4dc5db6b)" style="fill: none; stroke: #000000; stroke-width: 0.8; stroke-linecap: square"/>
   </g>
   <g id="line2d_135">
    <path d="M 54.845304 26.88448 
L 53.91982 27.22914 
" clip-path="url(#pdf4dc5db6b)" style="fill: none; stroke: #000000; stroke-width: 0.8; stroke-linecap: square"/>
   </g>
   <g id="line2d_136">
    <path d="M 53.91982 27.22914 
L 53.047558 27.680186 
" clip-path="url(#pdf4dc5db6b)" style="fill: none; stroke: #000000; stroke-width: 0.8; stroke-linecap: square"/>
   </g>
   <g id="line2d_137">
    <path d="M 53.047558 27.680186 
L 52.242276 28.230505 
" clip-path="url(#pdf4dc5db6b)" style="fill: none; stroke: #000000; stroke-width: 0.8; stroke-linecap: square"/>
   </g>
   <g id="line2d_138">
    <path d="M 52.242276 28.230505 
L 51.516672 28.871418 
" clip-path="url(#pdf4dc5db6b)" style="fill: none; stroke: #000000; stroke-width: 0.8; stroke-linecap: square"/>
   </g>
   <g id="line2d_139">
    <path d="M 51.516672 28.871418 
L 50.882191 29.592818 
" clip-path="url(#pdf4dc5db6b)" style="fill: none; stroke: #000000; stroke-width: 0.8; stroke-linecap: square"/>
   </g>
   <g id="line2d_140">
    <path d="M 50.882191 29.592818 
L 50.348838 30.383327 
" clip-path="url(#pdf4dc5db6b)" style="fill: none; stroke: #000000; stroke-width: 0.8; stroke-linecap: square"/>
   </g>
   <g id="line2d_141">
    <path d="M 50.348838 30.383327 
L 49.925024 31.230479 
" clip-path="url(#pdf4dc5db6b)" style="fill: none; stroke: #000000; stroke-width: 0.8; stroke-linecap: square"/>
   </g>
   <g id="line2d_142">
    <path d="M 49.925024 31.230479 
L 49.617433 32.120914 
" clip-path="url(#pdf4dc5db6b)" style="fill: none; stroke: #000000; stroke-width: 0.8; stroke-linecap: square"/>
   </g>
   <g id="line2d_143">
    <path d="M 49.617433 32.120914 
L 49.430917 33.040589 
" clip-path="url(#pdf4dc5db6b)" style="fill: none; stroke: #000000; stroke-width: 0.8; stroke-linecap: square"/>
   </g>
   <g id="line2d_144">
    <path d="M 49.430917 33.040589 
L 49.368416 33.975 
" clip-path="url(#pdf4dc5db6b)" style="fill: none; stroke: #000000; stroke-width: 0.8; stroke-linecap: square"/>
   </g>
   <g id="line2d_145">
    <path d="M 49.368416 33.975 
L 49.430917 34.909411 
" clip-path="url(#pdf4dc5db6b)" style="fill: none; stroke: #000000; stroke-width: 0.8; stroke-linecap: square"/>
   </g>
   <g id="line2d_146">
    <path d="M 49.430917 34.909411 
L 49.617433 35.829086 
" clip-path="url(#pdf4dc5db6b)" style="fill: none; stroke: #000000; stroke-width: 0.8; stroke-linecap: square"/>
   </g>
   <g id="line2d_147">
    <path d="M 49.617433 35.829086 
L 49.925024 36.719521 
" clip-path="url(#pdf4dc5db6b)" style="fill: none; stroke: #000000; stroke-width: 0.8; stroke-linecap: square"/>
   </g>
   <g id="line2d_148">
    <path d="M 49.925024 36.719521 
L 50.348838 37.566673 
" clip-path="url(#pdf4dc5db6b)" style="fill: none; stroke: #000000; stroke-width: 0.8; stroke-linecap: square"/>
   </g>
   <g id="line2d_149">
    <path d="M 50.348838 37.566673 
L 50.882191 38.357182 
" clip-path="url(#pdf4dc5db6b)" style="fill: none; stroke: #000000; stroke-width: 0.8; stroke-linecap: square"/>
   </g>
   <g id="line2d_150">
    <path d="M 50.882191 38.357182 
L 51.516672 39.078582 
" clip-path="url(#pdf4dc5db6b)" style="fill: none; stroke: #000000; stroke-width: 0.8; stroke-linecap: square"/>
   </g>
   <g id="line2d_151">
    <path d="M 51.516672 39.078582 
L 52.242276 39.719495 
" clip-path="url(#pdf4dc5db6b)" style="fill: none; stroke: #000000; stroke-width: 0.8; stroke-linecap: square"/>
   </g>
   <g id="line2d_152">
    <path d="M 52.242276 39.719495 
L 53.047558 40.269814 
" clip-path="url(#pdf4dc5db6b)" style="fill: none; stroke: #000000; stroke-width: 0.8; stroke-linecap: square"/>
   </g>
   <g id="line2d_153">
    <path d="M 53.047558 40.269814 
L 53.91982 40.72086 
" clip-path="url(#pdf4dc5db6b)" style="fill: none; stroke: #000000; stroke-width: 0.8; stroke-linecap: square"/>
   </g>
   <g id="line2d_154">
    <path d="M 53.91982 40.72086 
L 54.845304 41.06552 
" clip-path="url(#pdf4dc5db6b)" style="fill: none; stroke: #000000; stroke-width: 0.8; stroke-linecap: square"/>
   </g>
   <g id="line2d_155">
    <path d="M 54.845304 41.06552 
L 55.809416 41.298358 
" clip-path="url(#pdf4dc5db6b)" style="fill: none; stroke: #000000; stroke-width: 0.8; stroke-linecap: square"/>
   </g>
   <g id="line2d_156">
    <path d="M 55.809416 41.298358 
L 56.796951 41.415702 
" clip-path="url(#pdf4dc5db6b)" style="fill: none; stroke: #000000; stroke-width: 0.8; stroke-linecap: square"/>
   </g>
   <g id="line2d_157">
    <path d="M 56.796951 41.415702 
L 57.792335 41.415702 
" clip-path="url(#pdf4dc5db6b)" style="fill: none; stroke: #000000; stroke-width: 0.8; stroke-linecap: square"/>
   </g>
   <g id="line2d_158">
    <path d="M 57.792335 41.415702 
L 58.77987 41.298358 
" clip-path="url(#pdf4dc5db6b)" style="fill: none; stroke: #000000; stroke-width: 0.8; stroke-linecap: square"/>
   </g>
   <g id="line2d_159">
    <path d="M 58.77987 41.298358 
L 59.743982 41.06552 
" clip-path="url(#pdf4dc5db6b)" style="fill: none; stroke: #000000; stroke-width: 0.8; stroke-linecap: square"/>
   </g>
   <g id="line2d_160">
    <path d="M 59.743982 41.06552 
L 60.669466 40.72086 
" clip-path="url(#pdf4dc5db6b)" style="fill: none; stroke: #000000; stroke-width: 0.8; stroke-linecap: square"/>
   </g>
   <g id="line2d_161">
    <path d="M 60.669466 40.72086 
L 61.541727 40.269814 
" clip-path="url(#pdf4dc5db6b)" style="fill: none; stroke: #000000; stroke-width: 0.8; stroke-linecap: square"/>
   </g>
   <g id="line2d_162">
    <path d="M 61.541727 40.269814 
L 62.34701 39.719495 
" clip-path="url(#pdf4dc5db6b)" style="fill: none; stroke: #000000; stroke-width: 0.8; stroke-linecap: square"/>
   </g>
   <g id="line2d_163">
    <path d="M 62.34701 39.719495 
L 63.072613 39.078582 
" clip-path="url(#pdf4dc5db6b)" style="fill: none; stroke: #000000; stroke-width: 0.8; stroke-linecap: square"/>
   </g>
   <g id="line2d_164">
    <path d="M 63.072613 39.078582 
L 63.707095 38.357182 
" clip-path="url(#pdf4dc5db6b)" style="fill: none; stroke: #000000; stroke-width: 0.8; stroke-linecap: square"/>
   </g>
   <g id="line2d_165">
    <path d="M 63.707095 38.357182 
L 64.240448 37.566673 
" clip-path="url(#pdf4dc5db6b)" style="fill: none; stroke: #000000; stroke-width: 0.8; stroke-linecap: square"/>
   </g>
   <g id="line2d_166">
    <path d="M 64.240448 37.566673 
L 64.664262 36.719521 
" clip-path="url(#pdf4dc5db6b)" style="fill: none; stroke: #000000; stroke-width: 0.8; stroke-linecap: square"/>
   </g>
   <g id="line2d_167">
    <path d="M 64.664262 36.719521 
L 64.971852 35.829086 
" clip-path="url(#pdf4dc5db6b)" style="fill: none; stroke: #000000; stroke-width: 0.8; stroke-linecap: square"/>
   </g>
   <g id="line2d_168">
    <path d="M 64.971852 35.829086 
L 65.158369 34.909411 
" clip-path="url(#pdf4dc5db6b)" style="fill: none; stroke: #000000; stroke-width: 0.8; stroke-linecap: square"/>
   </g>
   <g id="line2d_169">
    <path d="M 65.158369 34.909411 
L 65.220869 33.975 
" clip-path="url(#pdf4dc5db6b)" style="fill: none; stroke: #000000; stroke-width: 0.8; stroke-linecap: square"/>
   </g>
   <g id="line2d_170">
    <path d="M 65.220869 33.975 
L 65.158369 33.040589 
" clip-path="url(#pdf4dc5db6b)" style="fill: none; stroke: #000000; stroke-width: 0.8; stroke-linecap: square"/>
   </g>
  </g>
  <g id="axes_7">
   <g id="line2d_171">
    <path d="M 18.783783 62.530785 
L 18.99081 62.961707 
L 19.889919 62.827118 
L 19.944639 62.678412 
L 19.799469 61.169169 
L 19.119074 60.690481 
L 19.05739 60.396666 
L 19.564529 59.831642 
L 19.862053 58.868963 
L 19.581987 57.508252 
L 19.142419 57.011841 
L 18.979612 56.468551 
L 19.115465 56.205649 
L 18.616446 55.973755 
L 17.22939 56.473017 
L 16.147635 57.447334 
L 15.269874 57.89902 
L 15.12971 58.91387 
L 15.331562 59.860243 
L 16.001978 60.540931 
L 16.438598 60.685186 
L 17.216818 60.064285 
L 17.718598 59.418209 
L 18.006003 59.342147 
L 18.342021 59.132404 
L 18.577995 58.846589 
L 19.792486 58.408163 
L 19.981147 57.955699 
L 19.807542 56.787512 
L 19.741785 56.38242 
L 19.509622 56.2775 
L 19.222333 55.67169 
L 18.497455 55.058068 
L 18.174127 54.835214 
L 18.063594 54.439972 
L 17.403691 54.077002 
L 17.593039 53.533685 
L 18.270664 52.897083 
L 19.288378 52.65607 
L 19.526706 52.224781 
L 19.882695 50.902496 
L 18.477061 49.475332 
L 17.847213 49.37394 
L 17.008635 49.448575 
L 16.439213 49.237791 
L 15.999987 49.444548 
L 14.569533 49.626209 
L 13.829141 50.110522 
L 13.873231 51.020822 
L 13.413547 52.427602 
L 13.276693 52.5681 
L 13.242659 53.06636 
L 13.461795 53.158728 
L 14.334809 53.834053 
L 15.738614 53.974054 
L 15.678844 51.92757 
L 15.371812 51.449012 
L 14.153017 50.657575 
L 13.970951 50.323911 
L 13.006979 49.786724 
L 11.634835 50.343844 
L 10.892897 50.674395 
L 10.660538 50.623672 
L 10.356485 50.239596 
L 9.603881 50.053135 
L 9.361046 49.341224 
L 8.921007 49.141988 
L 8.281855 49.46657 
L 8.309391 49.585538 
L 6.935259 51.208186 
L 6.638325 51.291891 
L 6.306516 51.066891 
L 5.911184 50.526912 
L 6.041127 50.42423 
L 6.809271 49.313056 
L 7.118427 49.334114 
L 7.582491 49.819779 
L 9.128207 50.32142 
L 9.347785 50.001644 
L 9.36998 49.767988 
L 9.033832 49.290159 
L 8.674166 49.137565 
L 7.346581 49.370347 
L 6.855573 49.817985 
L 6.270273 49.785809 
L 5.952486 49.926623 
L 5.305719 49.987925 
L 5.70454 51.134291 
L 5.088108 52.471134 
L 5.090457 52.808796 
L 5.56431 53.257267 
L 5.908033 53.210304 
L 6.371367 53.388841 
L 6.818054 53.440252 
L 7.065144 53.694988 
L 7.068738 54.175877 
L 7.296552 55.072313 
L 8.332175 55.915852 
L 8.745569 57.247006 
L 8.869001 57.546657 
L 8.750862 58.006333 
L 8.350503 58.385362 
L 8.105216 58.345587 
L 7.825557 58.479252 
L 6.493874 57.873555 
L 5.928382 57.888527 
L 5.901145 57.259733 
L 6.823106 55.690196 
L 7.213137 55.493301 
L 7.773955 55.147758 
L 9.193567 53.758572 
L 9.790946 53.145964 
L 11.026781 52.712255 
L 11.783471 52.684942 
L 12.122529 52.964523 
L 12.043307 53.376615 
L 11.297155 54.237414 
L 10.789123 54.296 
L 10.450587 54.532777 
L 10.124476 54.607278 
L 9.669923 54.376651 
L 7.996678 53.985985 
L 6.553419 53.286565 
L 6.149995 53.302487 
L 5.725398 52.977511 
L 4.996211 52.969639 
L 4.987305 51.063408 
L 5.465813 50.38492 
L 5.664856 50.314864 
L 6.049974 50.471521 
L 6.556048 50.225298 
L 6.923506 49.59186 
L 6.858874 49.433598 
L 5.57527 49.199069 
L 5.22582 49.495832 
L 5.115981 50.203374 
L 5.375979 50.702004 
L 6.207979 50.98757 
L 6.442651 50.842633 
L 8.169982 50.669071 
L 8.614503 50.063638 
L 9.641496 49.179336 
L 11.703274 49.381307 
L 11.926684 49.467978 
L 12.152127 50.10472 
L 11.544402 50.470433 
L 9.962935 50.77798 
L 9.319227 51.478629 
L 8.611879 51.437451 
L 7.568593 50.837767 
L 6.196623 49.432675 
L 5.596787 49.319167 
L 5.083565 49.639692 
L 4.911433 50.294666 
L 5.09969 50.72067 
L 5.277947 50.99063 
L 5.385216 51.750847 
L 5.243387 52.099527 
L 4.914311 52.541864 
L 5.110934 53.203994 
L 4.929161 54.45603 
L 5.173404 54.735441 
L 5.620533 55.010435 
L 6.156872 55.027626 
L 6.399904 55.246438 
L 7.094983 55.295268 
L 7.634623 55.4601 
L 7.885427 56.038704 
L 7.332158 57.428196 
L 7.245279 58.235003 
L 6.878986 58.897026 
L 6.253754 59.143518 
L 5.885299 59.881351 
L 5.577661 60.171928 
L 5.134735 60.857855 
L 5.2687 62.217999 
L 5.639591 62.807231 
L 5.747127 63.190809 
L 7.014172 63.051509 
L 7.487378 63.261805 
L 10.044144 63.042973 
L 11.044198 62.717657 
L 11.338448 62.448111 
L 11.590575 62.054806 
L 12.740229 61.442107 
L 13.063886 61.638653 
L 13.88889 61.878476 
L 14.51411 62.341496 
L 14.542393 62.798306 
L 14.999932 63.225246 
L 16.335241 63.146204 
L 16.95148 62.983079 
L 17.567399 62.65392 
L 17.879435 61.98636 
L 19.250383 61.949091 
L 19.935117 62.588383 
L 19.975005 62.682445 
L 19.086109 62.801992 
L 18.099971 63.321734 
L 17.684494 63.139237 
L 16.577169 63.289791 
L 16.152072 63.267849 
L 15.622969 62.66101 
L 15.60075 62.218475 
L 15.195026 61.14925 
L 14.914748 60.963149 
L 14.759932 60.425125 
L 13.492093 59.371906 
L 13.095435 59.36103 
L 11.87894 60.859105 
L 10.924292 61.422161 
L 9.754189 61.5451 
L 9.055741 61.960578 
L 8.219302 61.660603 
L 7.241493 61.532142 
L 6.946312 61.05906 
L 6.56542 60.803055 
L 6.037088 60.309152 
L 5.899197 59.879126 
L 5.572746 59.630198 
L 5.133169 58.274554 
L 4.995757 58.186194 
L 5.511054 56.873398 
L 6.408887 55.873038 
L 6.756149 55.408868 
L 7.15829 55.126758 
L 7.433993 54.606473 
L 7.61338 54.649346 
L 8.008178 54.365989 
L 8.0674 54.127265 
L 8.740952 53.208924 
L 8.989231 52.036504 
L 8.745547 51.332397 
L 7.929037 50.878794 
L 4.955289 50.429814 
L 5.170348 49.895236 
L 5.953774 49.355758 
L 6.583666 49.138009 
L 6.89976 49.199734 
L 7.26028 49.58357 
L 8.174463 49.838755 
L 8.67716 50.102644 
L 8.736362 50.686885 
L 8.422151 50.887772 
L 7.866944 51.537708 
L 7.692158 52.318668 
L 7.278229 53.031731 
L 6.64992 52.922894 
L 5.328462 53.567602 
L 4.961705 54.47489 
L 5.631949 56.182119 
L 5.981285 56.487133 
L 6.878119 56.71712 
L 7.060588 57.163421 
L 7.115267 57.729724 
L 6.553343 58.537593 
L 5.950234 58.973295 
L 5.568455 59.624517 
L 5.57572 59.955272 
L 5.766182 60.17085 
L 6.298054 60.331911 
L 7.062931 60.16169 
L 7.854038 60.363332 
L 9.262139 61.139271 
L 9.335978 62.220457 
L 9.189938 62.502631 
L 9.188757 63.114542 
L 9.634658 63.300148 
L 11.178907 63.049885 
L 13.649965 62.961454 
L 14.551471 63.078833 
L 14.807508 62.741725 
L 15.338259 61.415168 
L 15.243178 60.916779 
L 14.919938 60.890437 
L 14.28108 61.05358 
L 13.966406 61.342011 
L 13.818338 62.073523 
L 13.169865 62.26359 
L 12.804246 62.170978 
L 12.593749 61.923865 
L 12.321646 61.394795 
L 11.935696 61.125747 
L 11.588636 60.265791 
L 11.702789 59.697043 
L 11.550104 58.925441 
L 11.212201 58.535378 
L 11.64325 57.991417 
L 12.403055 57.879407 
L 12.38105 57.535448 
L 12.123222 56.813056 
L 12.404075 56.259593 
L 12.404075 56.259593 
" clip-path="url(#pd4c4f6a101)" style="fill: none; stroke: #348abd; stroke-width: 0.5; stroke-linecap: square"/>
   </g>
   <g id="line2d_172">
    <path d="M 20.381584 48.779069 
L 4.529131 48.779069 
" clip-path="url(#pd4c4f6a101)" style="fill: none; stroke: #000000; stroke-width: 0.8; stroke-linecap: square"/>
   </g>
   <g id="line2d_173">
    <path d="M 4.529131 48.779069 
L 4.529131 63.689897 
" clip-path="url(#pd4c4f6a101)" style="fill: none; stroke: #000000; stroke-width: 0.8; stroke-linecap: square"/>
   </g>
   <g id="line2d_174">
    <path d="M 4.529131 63.689897 
L 20.381584 63.689897 
" clip-path="url(#pd4c4f6a101)" style="fill: none; stroke: #000000; stroke-width: 0.8; stroke-linecap: square"/>
   </g>
   <g id="line2d_175">
    <path d="M 20.381584 63.689897 
L 20.381584 48.779069 
" clip-path="url(#pd4c4f6a101)" style="fill: none; stroke: #000000; stroke-width: 0.8; stroke-linecap: square"/>
   </g>
   <g id="line2d_176">
    <path d="M 12.455357 59.96219 
L 12.455357 52.506776 
" clip-path="url(#pd4c4f6a101)" style="fill: none; stroke: #000000; stroke-width: 0.8; stroke-linecap: square"/>
   </g>
   <g id="line2d_177">
    <path d="M 12.455357 59.96219 
L 12.455357 52.506776 
" clip-path="url(#pd4c4f6a101)" style="fill: none; stroke: #000000; stroke-width: 0.8; stroke-linecap: square"/>
   </g>
  </g>
  <g id="axes_8">
   <g id="line2d_178">
    <path d="M 44.257042 49.399092 
L 44.061849 49.313074 
L 43.218183 49.695759 
L 41.482959 49.150652 
L 40.188906 49.421478 
L 39.227243 49.225413 
L 38.468596 49.567623 
L 37.957539 49.824892 
L 37.554562 49.985772 
L 36.547915 50.982278 
L 35.82615 51.227599 
L 35.707776 51.516029 
L 35.014698 52.008299 
L 34.488703 52.221717 
L 33.023162 51.542507 
L 33.015818 50.559066 
L 33.042575 49.955509 
L 32.746101 49.271084 
L 32.440369 49.134246 
L 32.20205 49.198458 
L 31.980262 49.764924 
L 32.090046 50.112375 
L 32.863072 51.056827 
L 32.590898 52.819449 
L 32.739441 53.074915 
L 34.214143 53.216628 
L 34.637548 53.659275 
L 35.030701 53.828188 
L 36.009358 53.240736 
L 35.392738 53.040598 
L 34.965338 53.090037 
L 34.595953 52.897202 
L 34.255921 52.922941 
L 34.05067 52.091027 
L 34.062913 51.892426 
L 34.673217 51.742369 
L 34.785102 51.202193 
L 34.929872 51.166997 
L 35.257652 50.811835 
L 35.216153 49.987703 
L 35.960005 49.449514 
L 36.28645 49.46914 
L 36.953337 49.65172 
L 38.32794 49.328124 
L 40.423561 49.266422 
L 40.728917 49.47969 
L 40.735798 50.502466 
L 40.315057 51.051409 
L 40.242285 51.547843 
L 40.631758 52.464764 
L 40.606705 53.050785 
L 41.105375 53.384351 
L 41.684506 53.470027 
L 41.819882 53.623393 
L 42.089136 53.738145 
L 42.334796 53.989018 
L 42.52347 54.795713 
L 42.612528 56.346575 
L 41.959929 57.193657 
L 41.624332 57.294817 
L 41.048285 57.08533 
L 40.270916 56.962821 
L 40.067763 57.048861 
L 39.604245 56.927081 
L 38.99938 56.887348 
L 38.153168 57.28046 
L 36.985131 57.134118 
L 36.62407 56.010262 
L 36.520226 55.620244 
L 36.921251 54.941962 
L 36.40922 54.033027 
L 36.001827 53.721479 
L 34.630819 53.771567 
L 34.252781 53.892223 
L 33.301049 54.333814 
L 32.784993 55.451258 
L 31.936473 55.817985 
L 31.556763 55.639431 
L 32.074792 54.688501 
L 32.63487 54.4339 
L 32.673709 53.689957 
L 32.441519 52.929609 
L 31.394962 52.702253 
L 31.057138 52.677323 
L 30.527185 53.203692 
L 30.266844 54.078782 
L 29.767832 54.346266 
L 28.366628 53.888636 
L 28.035964 53.785092 
L 27.876654 53.459301 
L 28.166449 53.014245 
L 28.516514 51.812679 
L 28.488268 51.16942 
L 28.178454 50.440858 
L 26.732035 50.107755 
L 26.659288 50.235863 
L 25.90167 50.153662 
L 25.636645 50.320499 
L 24.405492 50.370826 
L 24.002409 50.027077 
L 23.874934 49.538776 
L 23.575936 49.189739 
L 23.993949 49.556222 
L 24.462812 50.042848 
L 24.644127 50.39948 
L 25.519771 50.446748 
L 26.136393 50.062892 
L 26.232417 49.644223 
L 27.035041 49.175392 
L 30.324729 49.310903 
L 32.033304 49.295094 
L 32.520488 49.390385 
L 33.146436 50.020137 
L 33.715782 50.179719 
L 33.908997 50.092819 
L 33.645599 49.994722 
L 33.150938 50.065687 
L 32.304048 49.6641 
L 30.921485 49.473109 
L 30.36487 49.138926 
L 30.017554 49.254709 
L 29.735345 49.858944 
L 29.77792 50.246206 
L 30.574291 51.682394 
L 30.860658 52.260817 
L 30.619575 52.673701 
L 30.953161 53.572037 
L 30.790565 54.111871 
L 30.367524 54.889516 
L 29.81361 54.998982 
L 29.055122 54.829752 
L 28.671418 54.617371 
L 28.41835 54.275238 
L 28.40455 54.053345 
L 27.993189 53.874964 
L 27.429495 54.023639 
L 25.303864 54.26399 
L 24.892287 54.544509 
L 24.7114 55.280459 
L 24.827281 55.739576 
L 25.148576 56.291755 
L 26.160284 56.85381 
L 26.718476 56.971622 
L 27.273167 56.948438 
L 28.62057 57.348284 
L 29.383191 57.200957 
L 30.340455 56.480226 
L 30.334638 56.00436 
L 30.445843 55.294764 
L 30.976472 54.459893 
L 31.250798 53.87056 
L 30.540684 54.07632 
L 29.977839 54.043583 
L 29.040255 54.450888 
L 28.542293 54.545853 
L 28.230813 54.453852 
L 27.372501 54.901914 
L 27.221232 54.7532 
L 27.502259 54.317104 
L 27.960713 54.077493 
L 28.31704 53.447737 
L 28.295773 52.477486 
L 27.055843 51.209422 
L 26.659656 51.355062 
L 25.989622 51.208852 
L 25.262252 51.452356 
L 24.862652 51.768602 
L 24.520223 51.60173 
L 23.638405 50.827723 
L 23.555165 50.430568 
L 23.924205 49.42304 
L 24.403901 49.152697 
L 25.151404 49.42759 
L 25.406183 49.94575 
L 25.84824 50.305434 
L 25.982686 50.619791 
L 26.168076 51.380399 
L 25.730361 51.613174 
L 25.377852 51.599832 
L 25.090891 51.764031 
L 24.525259 51.85753 
L 24.073322 51.39517 
L 23.942939 50.848769 
L 23.73016 50.69749 
L 23.590128 49.760361 
L 24.259108 49.329226 
L 25.289933 49.304546 
L 26.328224 49.629363 
L 26.755612 49.715097 
L 28.542222 49.507344 
L 28.524296 49.439584 
L 27.684901 49.498299 
L 26.941441 50.096427 
L 25.93887 50.40963 
L 25.355082 50.100676 
L 25.022598 49.492866 
L 23.922462 49.785219 
L 23.576938 49.670434 
L 24.12297 49.261552 
L 26.575521 49.938425 
L 27.892233 49.821428 
L 28.23402 49.598614 
L 28.775192 49.553895 
L 29.079875 49.707883 
L 29.043744 50.112213 
L 30.359143 51.378017 
L 30.465591 51.898941 
L 30.67537 52.274781 
L 31.803612 53.056571 
L 32.06282 53.523976 
L 32.569796 53.862161 
L 33.020872 54.577011 
L 33.869077 55.110505 
L 34.021017 55.891831 
L 34.482625 56.095315 
L 35.331867 55.835526 
L 35.712965 55.42125 
L 35.522187 55.146583 
L 34.021769 54.897118 
L 33.833522 54.597075 
L 33.349896 54.206953 
L 33.080981 54.192126 
L 32.755387 54.348182 
L 31.704976 54.421525 
L 31.460554 54.146444 
L 31.374388 53.810933 
L 30.953619 53.495817 
L 31.319684 53.181049 
L 31.444685 52.333915 
L 31.662859 51.809628 
L 31.582846 51.489639 
L 31.994243 49.812403 
L 31.815201 49.345276 
L 31.570852 49.145002 
L 30.983879 49.624144 
L 29.631831 52.74168 
L 29.61794 53.028049 
L 29.928876 53.985195 
L 30.068068 54.34377 
L 30.119745 54.859759 
L 31.147784 54.738444 
L 31.957805 54.116749 
L 32.195609 53.456689 
L 32.138983 53.141312 
L 32.208691 51.791452 
L 32.490966 51.198175 
L 32.943076 50.940219 
L 33.609294 50.917663 
L 32.420927 50.345103 
L 32.272198 50.368952 
L 30.375083 49.841402 
L 30.204173 49.534927 
L 30.000806 49.441606 
L 28.181281 49.822427 
L 27.765684 50.130668 
L 27.436205 50.885897 
L 26.739253 51.242332 
L 24.578564 50.660526 
L 23.722807 50.286484 
L 23.933647 49.304385 
L 24.07388 49.178652 
L 24.262757 49.189766 
L 24.772114 49.721806 
L 25.339674 50.638443 
L 25.569751 50.640253 
L 26.181356 51.176784 
L 26.339027 51.481524 
L 27.233827 52.080747 
L 27.943897 52.329712 
L 28.221503 52.824931 
L 28.574357 52.971302 
L 28.753905 52.898029 
L 29.414362 53.016307 
L 29.736382 51.909146 
L 29.436885 51.317976 
L 28.52833 50.720852 
L 27.970638 50.563045 
L 27.713906 50.202887 
L 27.471939 49.725281 
L 27.475517 49.235636 
L 28.170923 49.649572 
L 29.007213 49.852426 
L 29.007213 49.852426 
" clip-path="url(#pfb5740cc96)" style="fill: none; stroke: #348abd; stroke-width: 0.5; stroke-linecap: square"/>
   </g>
   <g id="line2d_179">
    <path d="M 46.76434 48.779069 
L 22.98566 48.779069 
" clip-path="url(#pfb5740cc96)" style="fill: none; stroke: #000000; stroke-width: 0.8; stroke-linecap: square"/>
   </g>
   <g id="line2d_180">
    <path d="M 22.98566 48.779069 
L 22.98566 63.689897 
" clip-path="url(#pfb5740cc96)" style="fill: none; stroke: #000000; stroke-width: 0.8; stroke-linecap: square"/>
   </g>
   <g id="line2d_181">
    <path d="M 22.98566 63.689897 
L 46.76434 63.689897 
" clip-path="url(#pfb5740cc96)" style="fill: none; stroke: #000000; stroke-width: 0.8; stroke-linecap: square"/>
   </g>
   <g id="line2d_182">
    <path d="M 46.76434 63.689897 
L 46.76434 48.779069 
" clip-path="url(#pfb5740cc96)" style="fill: none; stroke: #000000; stroke-width: 0.8; stroke-linecap: square"/>
   </g>
  </g>
  <g id="axes_9">
   <g id="line2d_183">
    <path d="M 59.179411 60.271157 
L 59.58136 59.789106 
L 59.869327 59.975919 
L 59.98602 60.298306 
L 59.816674 60.680881 
L 59.89005 61.125607 
L 60.15667 61.770478 
L 61.656479 62.313645 
L 61.701022 63.240978 
L 60.9391 63.206503 
L 60.602879 62.953439 
L 60.556011 62.23505 
L 60.213096 61.864346 
L 59.766295 61.703914 
L 58.556354 61.792565 
L 58.43267 61.927884 
L 58.362056 62.347178 
L 58.370395 63.058613 
L 58.724815 63.280298 
L 60.124779 63.266842 
L 61.092384 63.166845 
L 61.550171 63.283212 
L 62.731276 62.396757 
L 64.746884 62.098844 
L 64.813669 61.871873 
L 64.307214 61.665348 
L 63.264718 61.406833 
L 63.049668 61.144688 
L 62.49102 60.870316 
L 61.204017 60.826108 
L 61.06925 60.878389 
L 60.42512 60.939742 
L 60.178454 61.164475 
L 59.348058 61.409404 
L 58.238873 61.308756 
L 57.635225 61.450138 
L 56.751501 62.413975 
L 56.605806 62.952506 
L 55.703422 63.229752 
L 54.924864 63.25633 
L 53.8546 63.304079 
L 53.328945 62.953368 
L 53.280028 62.573569 
L 53.351992 62.076624 
L 54.144796 60.882995 
L 54.676995 60.130829 
L 55.392578 59.879731 
L 55.84942 60.076365 
L 56.095838 60.464476 
L 55.882726 60.685862 
L 54.641018 61.263634 
L 53.588907 61.018388 
L 53.507856 60.936375 
L 53.151348 60.780595 
L 52.921014 60.816449 
L 52.612649 61.199711 
L 52.340592 61.310964 
L 51.468594 61.482746 
L 50.75174 62.098739 
L 50.777801 62.351817 
L 51.469583 63.306967 
L 51.946832 63.248981 
L 52.290946 63.038156 
L 52.381846 62.797627 
L 52.371192 62.278113 
L 52.1918 61.757269 
L 52.316052 61.331852 
L 52.563002 60.893471 
L 52.486029 60.328883 
L 52.049118 59.803433 
L 51.546039 59.503591 
L 51.652491 59.095706 
L 51.978226 58.899198 
L 52.757455 57.880447 
L 52.594389 57.325625 
L 51.883742 56.798681 
L 51.561971 56.26979 
L 51.622669 55.801384 
L 51.177953 55.482405 
L 50.51025 55.567388 
L 50.11061 55.790474 
L 50.255181 57.14904 
L 51.51892 58.477656 
L 51.744586 58.358753 
L 51.725748 58.13961 
L 52.413792 57.641252 
L 52.426159 56.906992 
L 52.608995 56.250815 
L 52.432449 55.97369 
L 52.492271 55.80129 
L 52.87208 55.561815 
L 53.426416 55.021225 
L 53.380147 54.737793 
L 52.950097 54.16578 
L 52.391702 53.842611 
L 52.059409 53.798044 
L 51.63843 54.020127 
L 49.85442 53.199487 
L 49.751571 53.072939 
L 49.76653 52.826644 
L 49.910038 52.385912 
L 50.477424 51.436536 
L 50.630881 50.996958 
L 50.576785 50.39195 
L 50.47423 49.789491 
L 50.507619 49.335859 
L 51.220405 49.421604 
L 52.099308 49.709611 
L 52.605511 49.213856 
L 53.167306 49.197713 
L 53.882095 49.755167 
L 53.608984 50.124661 
L 52.856826 51.309536 
L 53.033838 51.642475 
L 53.555242 52.131417 
L 54.011885 52.201795 
L 54.832995 52.623165 
L 55.384592 51.653864 
L 56.343947 50.993287 
L 56.680694 50.509354 
L 57.071611 49.735574 
L 59.161865 49.138163 
L 59.361171 49.515325 
L 59.468634 52.167386 
L 59.066667 52.324227 
L 58.099291 51.611462 
L 58.060476 51.514821 
L 57.23089 50.909064 
L 56.908155 51.128969 
L 56.346159 51.101147 
L 56.129764 50.812966 
L 56.158421 50.206375 
L 56.354698 49.645619 
L 56.597805 49.37194 
L 57.056474 49.460058 
L 58.173588 49.287624 
L 58.301269 49.180641 
L 58.888064 49.135208 
L 59.086889 49.279025 
L 60.313158 49.599107 
L 61.527488 49.649118 
L 62.187302 49.901108 
L 62.77205 49.471827 
L 63.331489 49.26461 
L 63.642321 49.470676 
L 64.603921 49.300294 
L 64.475473 50.566687 
L 63.646338 51.202992 
L 62.056019 51.882092 
L 61.674808 52.735712 
L 61.820663 52.96612 
L 62.519284 53.18655 
L 62.886595 53.474711 
L 64.434564 52.189916 
L 64.663906 49.608744 
L 64.34825 49.191952 
L 63.646279 49.169671 
L 60.983486 49.29747 
L 60.490794 49.154086 
L 59.586621 49.153752 
L 58.187598 49.372939 
L 57.788491 49.31518 
L 56.07527 50.169332 
L 55.055834 50.699933 
L 54.897734 51.264191 
L 53.840113 51.558105 
L 53.174187 51.983796 
L 53.020898 51.884588 
L 52.327744 51.862461 
L 51.390221 50.939263 
L 50.639551 51.249667 
L 49.996857 51.166908 
L 49.994323 50.461995 
L 50.179597 50.144326 
L 50.146856 49.84217 
L 50.297627 49.464775 
L 51.098061 49.200957 
L 51.494943 49.731945 
L 51.115069 50.648168 
L 50.832442 50.730952 
L 49.927424 51.48862 
L 49.892534 52.106861 
L 50.456444 52.06914 
L 50.751397 51.829845 
L 51.022212 51.461481 
L 52.487639 50.158549 
L 54.142971 50.364243 
L 54.920785 50.459856 
L 55.23073 50.656725 
L 55.719608 50.654973 
L 56.282935 51.01378 
L 56.660958 51.026761 
L 57.676622 50.363874 
L 57.553188 49.738816 
L 57.617028 49.774168 
L 57.923451 50.0927 
L 58.379206 50.320756 
L 59.174044 51.481005 
L 59.231694 51.65812 
L 59.799921 52.392612 
L 60.923446 52.039507 
L 61.084559 51.527281 
L 61.641712 51.216869 
L 62.649823 50.994241 
L 63.031411 51.109153 
L 63.935321 51.019369 
L 64.054525 50.805279 
L 63.967124 49.963556 
L 64.096675 49.68811 
L 63.963191 49.194367 
L 63.608194 49.372733 
L 63.387996 49.7985 
L 63.357257 50.329431 
L 63.27436 51.775916 
L 62.898559 52.517494 
L 62.594965 52.516451 
L 62.298587 52.839118 
L 62.236395 53.298786 
L 62.398809 53.882146 
L 63.266288 54.164796 
L 63.425511 54.269575 
L 64.809219 55.099765 
L 64.795375 55.994903 
L 64.004126 56.179136 
L 63.054532 56.039238 
L 62.416957 56.132129 
L 61.436859 56.019578 
L 61.169782 56.400715 
L 61.485318 56.609515 
L 61.55155 56.859937 
L 61.706421 57.191677 
L 61.908677 57.637924 
L 62.564752 58.074286 
L 62.687676 58.085088 
L 63.639475 58.767729 
L 64.401808 59.122355 
L 64.773326 58.780823 
L 64.790232 58.105923 
L 64.530642 57.494554 
L 63.963448 56.652795 
L 63.99238 55.245191 
L 63.553269 55.028919 
L 63.284802 55.048392 
L 62.13599 54.66542 
L 62.064544 54.725051 
L 62.192061 55.266293 
L 62.494082 55.857951 
L 62.894645 56.209966 
L 63.423577 54.791559 
L 63.321188 54.641875 
L 62.704909 54.458557 
L 62.215629 53.955501 
L 61.92946 53.469757 
L 61.66056 53.232493 
L 61.403869 53.208162 
L 61.328152 53.961476 
L 61.507281 54.455317 
L 61.391865 54.892949 
L 61.475102 55.887965 
L 62.053699 56.546468 
L 62.865558 56.896166 
L 63.348374 57.304331 
L 63.768453 57.857054 
L 63.346429 58.49645 
L 63.104988 60.006157 
L 63.523353 60.70955 
L 63.818007 60.758801 
L 64.705871 59.271784 
L 64.726399 58.233554 
L 64.363821 56.883945 
L 64.501097 56.135374 
L 64.346327 55.526845 
L 63.819805 54.918832 
L 63.745821 54.139334 
L 63.980433 53.813789 
L 64.262379 53.691235 
L 64.822969 52.784874 
L 64.780941 52.106446 
L 64.5795 51.273144 
L 64.021561 51.165975 
L 62.987962 50.592291 
L 62.700241 50.554028 
L 62.858783 49.188659 
L 63.221125 49.194508 
L 64.831035 49.434591 
L 64.650676 49.149804 
L 62.304178 49.723431 
L 61.787799 50.564742 
L 61.778236 50.878616 
L 61.653723 51.185049 
L 61.890792 51.364482 
L 62.145557 51.349566 
L 62.130791 51.306877 
L 62.121399 51.15569 
L 63.372948 51.340017 
L 64.153461 52.411394 
L 64.12797 52.824881 
L 64.581475 54.323576 
L 64.007537 55.239867 
L 63.341888 55.81056 
L 63.12651 56.324762 
L 62.511806 56.932281 
L 61.811834 57.680878 
L 61.642971 58.345764 
L 61.31421 58.594391 
L 61.311915 58.994683 
L 61.644043 59.157072 
L 62.39933 59.211306 
L 63.165525 58.881295 
L 63.6118 58.898958 
L 64.030959 56.398845 
L 64.79014 56.012968 
L 64.840368 55.785939 
L 64.840368 55.785939 
" clip-path="url(#p75c7fd1a9e)" style="fill: none; stroke: #348abd; stroke-width: 0.5; stroke-linecap: square"/>
   </g>
   <g id="line2d_184">
    <path d="M 65.220869 48.779069 
L 49.368416 48.779069 
" clip-path="url(#p75c7fd1a9e)" style="fill: none; stroke: #000000; stroke-width: 0.8; stroke-linecap: square"/>
   </g>
   <g id="line2d_185">
    <path d="M 49.368416 48.779069 
L 49.368416 63.689897 
" clip-path="url(#p75c7fd1a9e)" style="fill: none; stroke: #000000; stroke-width: 0.8; stroke-linecap: square"/>
   </g>
   <g id="line2d_186">
    <path d="M 49.368416 63.689897 
L 65.220869 63.689897 
" clip-path="url(#p75c7fd1a9e)" style="fill: none; stroke: #000000; stroke-width: 0.8; stroke-linecap: square"/>
   </g>
   <g id="line2d_187">
    <path d="M 65.220869 63.689897 
L 65.220869 48.779069 
" clip-path="url(#p75c7fd1a9e)" style="fill: none; stroke: #000000; stroke-width: 0.8; stroke-linecap: square"/>
   </g>
   <g id="line2d_188">
    <path d="M 61.257756 52.506776 
L 53.33153 52.506776 
" clip-path="url(#p75c7fd1a9e)" style="fill: none; stroke: #000000; stroke-width: 0.8; stroke-linecap: square"/>
   </g>
   <g id="line2d_189">
    <path d="M 53.33153 52.506776 
L 53.33153 59.96219 
" clip-path="url(#p75c7fd1a9e)" style="fill: none; stroke: #000000; stroke-width: 0.8; stroke-linecap: square"/>
   </g>
   <g id="line2d_190">
    <path d="M 53.33153 59.96219 
L 61.257756 59.96219 
" clip-path="url(#p75c7fd1a9e)" style="fill: none; stroke: #000000; stroke-width: 0.8; stroke-linecap: square"/>
   </g>
   <g id="line2d_191">
    <path d="M 61.257756 59.96219 
L 61.257756 52.506776 
" clip-path="url(#p75c7fd1a9e)" style="fill: none; stroke: #000000; stroke-width: 0.8; stroke-linecap: square"/>
   </g>
  </g>
 </g>
 <defs>
  <clipPath id="pcd575d535e">
   <rect x="0" y="0" width="24.910714" height="23.431034"/>
  </clipPath>
  <clipPath id="pb8eabcc4b3">
   <rect x="22.419643" y="0" width="24.910714" height="23.431034"/>
  </clipPath>
  <clipPath id="p92611f1b45">
   <rect x="44.839286" y="0" width="24.910714" height="23.431034"/>
  </clipPath>
  <clipPath id="p373d60ee85">
   <rect x="0" y="22.259483" width="24.910714" height="23.431034"/>
  </clipPath>
  <clipPath id="p685585a6d1">
   <rect x="22.419643" y="22.259483" width="24.910714" height="23.431034"/>
  </clipPath>
  <clipPath id="pdf4dc5db6b">
   <rect x="44.839286" y="22.259483" width="24.910714" height="23.431034"/>
  </clipPath>
  <clipPath id="pd4c4f6a101">
   <rect x="0" y="44.518966" width="24.910714" height="23.431034"/>
  </clipPath>
  <clipPath id="pfb5740cc96">
   <rect x="22.419643" y="44.518966" width="24.910714" height="23.431034"/>
  </clipPath>
  <clipPath id="p75c7fd1a9e">
   <rect x="44.839286" y="44.518966" width="24.910714" height="23.431034"/>
  </clipPath>
 </defs>
</svg>
