<?xml version="1.0" encoding="utf-8" standalone="no"?>
<!DOCTYPE svg PUBLIC "-//W3C//DTD SVG 1.1//EN"
  "http://www.w3.org/Graphics/SVG/1.1/DTD/svg11.dtd">
<svg xmlns:xlink="http://www.w3.org/1999/xlink" width="216pt" height="144pt" viewBox="0 0 216 144" xmlns="http://www.w3.org/2000/svg" version="1.1">
 <metadata>
  <rdf:RDF xmlns:dc="http://purl.org/dc/elements/1.1/" xmlns:cc="http://creativecommons.org/ns#" xmlns:rdf="http://www.w3.org/1999/02/22-rdf-syntax-ns#">
   <cc:Work>
    <dc:type rdf:resource="http://purl.org/dc/dcmitype/StillImage"/>
    <dc:date>2023-02-02T11:34:47.613579</dc:date>
    <dc:format>image/svg+xml</dc:format>
    <dc:creator>
     <cc:Agent>
      <dc:title>Matplotlib v3.6.2, https://matplotlib.org/</dc:title>
     </cc:Agent>
    </dc:creator>
   </cc:Work>
  </rdf:RDF>
 </metadata>
 <defs>
  <style type="text/css">*{stroke-linejoin: round; stroke-linecap: butt}</style>
 </defs>
 <g id="figure_1">
  <g id="patch_1">
   <path d="M 0 144 
L 216 144 
L 216 0 
L 0 0 
L 0 144 
z
" style="fill: none"/>
  </g>
  <g id="axes_1">
   <g id="patch_2">
    <path d="M 68.85 41.384348 
C 68.85 38.636502 68.308734 35.915376 67.257179 33.376697 
C 66.205624 30.838018 64.66423 28.531159 62.721209 26.588138 
C 60.778189 24.645118 58.471329 23.103724 55.932651 22.052169 
C 53.393972 21.000614 50.672846 20.459348 47.925 20.459348 
C 45.177154 20.459348 42.456028 21.000614 39.917349 22.052169 
C 37.378671 23.103724 35.071811 24.645118 33.128791 26.588138 
C 31.18577 28.531159 29.644376 30.838018 28.592821 33.376697 
C 27.541266 35.915376 27 38.636502 27 41.384348 
C 27 44.132194 27.541266 46.85332 28.592821 49.391999 
C 29.644376 51.930677 31.18577 54.237537 33.128791 56.180557 
C 35.071811 58.123578 37.378671 59.664972 39.917349 60.716527 
C 42.456028 61.768082 45.177154 62.309348 47.925 62.309348 
C 50.672846 62.309348 53.393972 61.768082 55.932651 60.716527 
C 58.471329 59.664972 60.778189 58.123578 62.721209 56.180557 
C 64.66423 54.237537 66.205624 51.930677 67.257179 49.391999 
C 68.308734 46.85332 68.85 44.132194 68.85 41.384348 
M 47.925 41.384348 
C 47.925 41.384348 47.925 41.384348 47.925 41.384348 
C 47.925 41.384348 47.925 41.384348 47.925 41.384348 
C 47.925 41.384348 47.925 41.384348 47.925 41.384348 
C 47.925 41.384348 47.925 41.384348 47.925 41.384348 
C 47.925 41.384348 47.925 41.384348 47.925 41.384348 
C 47.925 41.384348 47.925 41.384348 47.925 41.384348 
C 47.925 41.384348 47.925 41.384348 47.925 41.384348 
C 47.925 41.384348 47.925 41.384348 47.925 41.384348 
C 47.925 41.384348 47.925 41.384348 47.925 41.384348 
C 47.925 41.384348 47.925 41.384348 47.925 41.384348 
C 47.925 41.384348 47.925 41.384348 47.925 41.384348 
C 47.925 41.384348 47.925 41.384348 47.925 41.384348 
C 47.925 41.384348 47.925 41.384348 47.925 41.384348 
C 47.925 41.384348 47.925 41.384348 47.925 41.384348 
C 47.925 41.384348 47.925 41.384348 47.925 41.384348 
C 47.925 41.384348 47.925 41.384348 47.925 41.384348 
M 68.85 41.384348 
L 68.85 41.384348 
z
" style="fill: none"/>
   </g>
   <g id="matplotlib.axis_1">
    <g id="xtick_1">
     <g id="line2d_1">
      <path d="M 47.925 41.384348 
L 68.85 41.384348 
" clip-path="url(#pb00d6fe713)" style="fill: none; stroke: #b0b0b0; stroke-width: 0.8; stroke-linecap: square"/>
     </g>
    </g>
    <g id="xtick_2">
     <g id="line2d_2">
      <path d="M 47.925 41.384348 
L 62.721209 26.588138 
" clip-path="url(#pb00d6fe713)" style="fill: none; stroke: #b0b0b0; stroke-width: 0.8; stroke-linecap: square"/>
     </g>
    </g>
    <g id="xtick_3">
     <g id="line2d_3">
      <path d="M 47.925 41.384348 
L 47.925 20.459348 
" clip-path="url(#pb00d6fe713)" style="fill: none; stroke: #b0b0b0; stroke-width: 0.8; stroke-linecap: square"/>
     </g>
    </g>
    <g id="xtick_4">
     <g id="line2d_4">
      <path d="M 47.925 41.384348 
L 33.128791 26.588138 
" clip-path="url(#pb00d6fe713)" style="fill: none; stroke: #b0b0b0; stroke-width: 0.8; stroke-linecap: square"/>
     </g>
    </g>
    <g id="xtick_5">
     <g id="line2d_5">
      <path d="M 47.925 41.384348 
L 27 41.384348 
" clip-path="url(#pb00d6fe713)" style="fill: none; stroke: #b0b0b0; stroke-width: 0.8; stroke-linecap: square"/>
     </g>
    </g>
    <g id="xtick_6">
     <g id="line2d_6">
      <path d="M 47.925 41.384348 
L 33.128791 56.180557 
" clip-path="url(#pb00d6fe713)" style="fill: none; stroke: #b0b0b0; stroke-width: 0.8; stroke-linecap: square"/>
     </g>
    </g>
    <g id="xtick_7">
     <g id="line2d_7">
      <path d="M 47.925 41.384348 
L 47.925 62.309348 
" clip-path="url(#pb00d6fe713)" style="fill: none; stroke: #b0b0b0; stroke-width: 0.8; stroke-linecap: square"/>
     </g>
    </g>
    <g id="xtick_8">
     <g id="line2d_8">
      <path d="M 47.925 41.384348 
L 62.721209 56.180557 
" clip-path="url(#pb00d6fe713)" style="fill: none; stroke: #b0b0b0; stroke-width: 0.8; stroke-linecap: square"/>
     </g>
    </g>
   </g>
   <g id="matplotlib.axis_2">
    <g id="ytick_1">
     <g id="line2d_9">
      <path d="M 52.11 41.384348 
C 52.11 40.834779 52.001747 40.290553 51.791436 39.782818 
C 51.581125 39.275082 51.272846 38.81371 50.884242 38.425106 
C 50.495638 38.036502 50.034266 37.728223 49.52653 37.517912 
C 49.018794 37.307601 48.474569 37.199348 47.925 37.199348 
C 47.375431 37.199348 46.831206 37.307601 46.32347 37.517912 
C 45.815734 37.728223 45.354362 38.036502 44.965758 38.425106 
C 44.577154 38.81371 44.268875 39.275082 44.058564 39.782818 
C 43.848253 40.290553 43.74 40.834779 43.74 41.384348 
C 43.74 41.933917 43.848253 42.478142 44.058564 42.985878 
C 44.268875 43.493614 44.577154 43.954986 44.965758 44.34359 
C 45.354362 44.732194 45.815734 45.040473 46.32347 45.250784 
C 46.831206 45.461095 47.375431 45.569348 47.925 45.569348 
C 48.474569 45.569348 49.018794 45.461095 49.52653 45.250784 
C 50.034266 45.040473 50.495638 44.732194 50.884242 44.34359 
C 51.272846 43.954986 51.581125 43.493614 51.791436 42.985878 
C 52.001747 42.478142 52.11 41.933917 52.11 41.384348 
" clip-path="url(#pb00d6fe713)" style="fill: none; stroke: #b0b0b0; stroke-width: 0.8; stroke-linecap: square"/>
     </g>
     <g id="text_1">
      <!-- $\mathdefault{0.05}$ -->
      <g transform="translate(51.791436 38.169148) scale(0.0833 -0.0833)">
       <defs>
        <path id="CMR17-30" d="M 2688 2038 
C 2688 2430 2682 3099 2413 3613 
C 2176 4063 1798 4224 1466 4224 
C 1158 4224 768 4082 525 3620 
C 269 3137 243 2539 243 2038 
C 243 1671 250 1112 448 623 
C 723 -39 1216 -128 1466 -128 
C 1760 -128 2208 -7 2470 604 
C 2662 1048 2688 1568 2688 2038 
z
M 1466 -26 
C 1056 -26 813 328 723 816 
C 653 1196 653 1749 653 2109 
C 653 2604 653 3015 736 3407 
C 858 3954 1216 4121 1466 4121 
C 1728 4121 2067 3947 2189 3420 
C 2272 3054 2278 2623 2278 2109 
C 2278 1691 2278 1176 2202 797 
C 2067 96 1690 -26 1466 -26 
z
" transform="scale(0.015625)"/>
        <path id="CMMI12-3a" d="M 1178 307 
C 1178 492 1024 620 870 620 
C 685 620 557 467 557 313 
C 557 128 710 0 864 0 
C 1050 0 1178 153 1178 307 
z
" transform="scale(0.015625)"/>
        <path id="CMR17-35" d="M 730 3750 
C 794 3724 1056 3641 1325 3641 
C 1920 3641 2246 3961 2432 4140 
C 2432 4191 2432 4224 2394 4224 
C 2387 4224 2374 4224 2323 4198 
C 2099 4102 1837 4032 1517 4032 
C 1325 4032 1037 4055 723 4191 
C 653 4224 640 4224 634 4224 
C 602 4224 595 4217 595 4090 
L 595 2231 
C 595 2113 595 2080 659 2080 
C 691 2080 704 2093 736 2139 
C 941 2435 1222 2560 1542 2560 
C 1766 2560 2246 2415 2246 1293 
C 2246 1087 2246 716 2054 422 
C 1894 159 1645 25 1370 25 
C 947 25 518 319 403 812 
C 429 806 480 793 506 793 
C 589 793 749 838 749 1036 
C 749 1209 627 1280 506 1280 
C 358 1280 262 1190 262 1011 
C 262 454 704 -128 1382 -128 
C 2042 -128 2669 441 2669 1267 
C 2669 2054 2170 2662 1549 2662 
C 1222 2662 947 2540 730 2304 
L 730 3750 
z
" transform="scale(0.015625)"/>
       </defs>
       <use xlink:href="#CMR17-30" transform="scale(0.996264)"/>
       <use xlink:href="#CMMI12-3a" transform="translate(45.690477 0) scale(0.996264)"/>
       <use xlink:href="#CMR17-30" transform="translate(72.787654 0) scale(0.996264)"/>
       <use xlink:href="#CMR17-35" transform="translate(118.478131 0) scale(0.996264)"/>
      </g>
     </g>
    </g>
    <g id="ytick_2">
     <g id="line2d_10">
      <path d="M 68.85 41.384348 
C 68.85 38.636502 68.308734 35.915376 67.257179 33.376697 
C 66.205624 30.838018 64.66423 28.531159 62.721209 26.588138 
C 60.778189 24.645118 58.471329 23.103724 55.932651 22.052169 
C 53.393972 21.000614 50.672846 20.459348 47.925 20.459348 
C 45.177154 20.459348 42.456028 21.000614 39.917349 22.052169 
C 37.378671 23.103724 35.071811 24.645118 33.128791 26.588138 
C 31.18577 28.531159 29.644376 30.838018 28.592821 33.376697 
C 27.541266 35.915376 27 38.636502 27 41.384348 
C 27 44.132194 27.541266 46.85332 28.592821 49.391999 
C 29.644376 51.930677 31.18577 54.237537 33.128791 56.180557 
C 35.071811 58.123578 37.378671 59.664972 39.917349 60.716527 
C 42.456028 61.768082 45.177154 62.309348 47.925 62.309348 
C 50.672846 62.309348 53.393972 61.768082 55.932651 60.716527 
C 58.471329 59.664972 60.778189 58.123578 62.721209 56.180557 
C 64.66423 54.237537 66.205624 51.930677 67.257179 49.391999 
C 68.308734 46.85332 68.85 44.132194 68.85 41.384348 
" clip-path="url(#pb00d6fe713)" style="fill: none; stroke: #b0b0b0; stroke-width: 0.8; stroke-linecap: square"/>
     </g>
     <g id="text_2">
      <!-- $\mathdefault{0.25}$ -->
      <g transform="translate(67.257179 31.763028) scale(0.0833 -0.0833)">
       <defs>
        <path id="CMR17-32" d="M 2669 990 
L 2554 990 
C 2490 537 2438 460 2413 422 
C 2381 371 1920 371 1830 371 
L 602 371 
C 832 620 1280 1073 1824 1596 
C 2214 1966 2669 2400 2669 3033 
C 2669 3788 2067 4224 1395 4224 
C 691 4224 262 3603 262 3027 
C 262 2777 448 2745 525 2745 
C 589 2745 781 2783 781 3007 
C 781 3206 614 3264 525 3264 
C 486 3264 448 3257 422 3244 
C 544 3788 915 4057 1306 4057 
C 1862 4057 2227 3616 2227 3033 
C 2227 2477 1901 1998 1536 1583 
L 262 147 
L 262 0 
L 2515 0 
L 2669 990 
z
" transform="scale(0.015625)"/>
       </defs>
       <use xlink:href="#CMR17-30" transform="scale(0.996264)"/>
       <use xlink:href="#CMMI12-3a" transform="translate(45.690477 0) scale(0.996264)"/>
       <use xlink:href="#CMR17-32" transform="translate(72.787654 0) scale(0.996264)"/>
       <use xlink:href="#CMR17-35" transform="translate(118.478131 0) scale(0.996264)"/>
      </g>
     </g>
    </g>
   </g>
   <g id="line2d_11">
    <path d="M 33.395064 41.845585 
L 33.689039 42.743717 
L 34.212335 43.578529 
L 34.596944 44.394622 
L 34.978263 45.185853 
L 35.486336 45.911651 
L 36.061217 46.576477 
L 36.408535 47.321498 
L 37.105329 47.862119 
L 37.426937 48.611736 
L 37.976057 49.208283 
L 38.682384 49.65348 
L 39.211548 50.237161 
L 39.644325 50.940756 
L 40.276705 51.43409 
L 40.813113 52.073873 
L 41.422152 52.647611 
L 42.241734 52.851481 
L 42.946261 53.270512 
L 43.547643 54.03189 
L 44.334316 54.371938 
L 45.124673 54.767541 
L 45.939632 55.192883 
L 46.780568 55.779718 
L 47.6867 56.402041 
L 48.619917 55.972455 
L 49.518707 55.674434 
L 50.329357 55.020131 
L 51.178758 54.796522 
L 51.878862 54.100052 
L 52.688228 53.852074 
L 53.431513 53.441929 
L 53.985459 52.695674 
L 54.609849 52.15827 
L 55.373996 51.844999 
L 55.805811 51.084828 
L 56.606925 50.783879 
L 57.09092 50.124035 
L 57.659164 49.552281 
L 57.889449 48.721016 
L 58.585946 48.235722 
L 59.074082 47.58753 
L 59.551257 46.918471 
L 60.059184 46.242142 
L 60.533686 45.52544 
L 61.01781 44.781463 
L 61.43528 43.988241 
L 61.917974 43.17012 
L 62.239125 42.294037 
L 62.844154 41.384348 
L 62.398698 40.464517 
L 61.865541 39.605268 
L 61.444363 38.778704 
L 60.880947 38.022744 
L 60.605248 37.219753 
L 60.338892 36.414575 
L 59.844778 35.710509 
L 59.194175 35.114347 
L 58.717124 34.448671 
L 58.212943 33.809496 
L 57.605513 33.261433 
L 57.115785 32.620952 
L 56.427602 32.178962 
L 55.829975 31.654124 
L 55.146341 31.243393 
L 54.666979 30.51835 
L 53.978594 30.085834 
L 53.305255 29.603234 
L 52.636352 29.052409 
L 52.01619 28.226995 
L 51.121123 28.209751 
L 50.363318 27.555961 
L 49.501131 27.251858 
L 48.630418 26.575809 
L 47.689887 26.56749 
L 46.766535 26.812461 
L 45.938504 27.567964 
L 45.089219 27.831715 
L 44.302976 28.283401 
L 43.574008 28.812981 
L 42.861001 29.294637 
L 42.14491 29.721853 
L 41.430081 30.134817 
L 40.84166 30.73773 
L 40.20548 31.241017 
L 39.759418 31.960764 
L 39.078993 32.396859 
L 38.364284 32.83062 
L 38.025916 33.599622 
L 37.351834 34.105255 
L 36.915987 34.793217 
L 36.508371 35.498667 
L 35.913525 36.127582 
L 35.298831 36.788798 
L 35.145629 37.631986 
L 34.692329 38.395617 
L 34.436769 39.226078 
L 33.689039 40.024978 
L 33.336949 40.921266 
" clip-path="url(#pb00d6fe713)" style="fill: none; stroke: #348abd; stroke-opacity: 0.75; stroke-width: 2; stroke-linecap: square"/>
   </g>
   <g id="patch_3">
    <path d="M 68.85 41.384348 
C 68.85 38.636502 68.308734 35.915376 67.257179 33.376697 
C 66.205624 30.838018 64.66423 28.531159 62.721209 26.588138 
C 60.778189 24.645118 58.471329 23.103724 55.932651 22.052169 
C 53.393972 21.000614 50.672846 20.459348 47.925 20.459348 
C 45.177154 20.459348 42.456028 21.000614 39.917349 22.052169 
C 37.378671 23.103724 35.071811 24.645118 33.128791 26.588138 
C 31.18577 28.531159 29.644376 30.838018 28.592821 33.376697 
C 27.541266 35.915376 27 38.636502 27 41.384348 
C 27 44.132194 27.541266 46.85332 28.592821 49.391999 
C 29.644376 51.930677 31.18577 54.237537 33.128791 56.180557 
C 35.071811 58.123578 37.378671 59.664972 39.917349 60.716527 
C 42.456028 61.768082 45.177154 62.309348 47.925 62.309348 
C 50.672846 62.309348 53.393972 61.768082 55.932651 60.716527 
C 58.471329 59.664972 60.778189 58.123578 62.721209 56.180557 
C 64.66423 54.237537 66.205624 51.930677 67.257179 49.391999 
C 68.308734 46.85332 68.85 44.132194 68.85 41.384348 
" style="fill: none; stroke: #000000; stroke-width: 0.8; stroke-linejoin: miter; stroke-linecap: square"/>
   </g>
   <g id="text_3">
    <!-- Square -->
    <g transform="translate(34.217819 18.715886) scale(0.09 -0.09)">
     <defs>
      <path id="CMR17-53" d="M 2803 4351 
C 2803 4467 2797 4473 2758 4473 
C 2720 4473 2707 4447 2682 4390 
L 2490 3965 
C 2246 4320 1875 4480 1472 4480 
C 819 4480 294 3958 294 3301 
C 294 3101 339 2817 557 2546 
C 794 2250 1018 2198 1530 2063 
C 1722 2011 2042 1927 2106 1901 
C 2470 1747 2662 1360 2662 999 
C 2662 534 2336 38 1779 38 
C 1094 38 454 425 410 1328 
C 403 1431 397 1437 352 1437 
C 301 1437 294 1431 294 1302 
L 294 0 
C 294 -116 301 -122 339 -122 
C 384 -122 397 -90 486 109 
C 493 128 493 141 614 386 
C 934 -39 1472 -128 1779 -128 
C 2477 -128 2970 457 2970 1141 
C 2970 1476 2848 1734 2778 1850 
C 2509 2263 2221 2340 1914 2417 
C 1869 2437 1856 2437 1498 2527 
C 1152 2617 1005 2662 845 2836 
C 666 3036 602 3243 602 3449 
C 602 3868 934 4326 1478 4326 
C 2157 4326 2579 3842 2675 3036 
C 2694 2920 2701 2914 2746 2914 
C 2803 2914 2803 2933 2803 3043 
L 2803 4351 
z
" transform="scale(0.015625)"/>
      <path id="CMR17-71" d="M 2630 2816 
L 2528 2816 
L 2336 2177 
C 2189 2519 1920 2816 1491 2816 
C 838 2816 211 2228 211 1376 
C 211 529 800 -64 1440 -64 
C 1933 -64 2208 316 2291 458 
L 2291 -834 
C 2291 -1081 2266 -1114 1856 -1114 
L 1856 -1280 
C 2010 -1268 2291 -1268 2458 -1268 
C 2624 -1268 2912 -1268 3066 -1280 
L 3066 -1114 
C 2656 -1114 2630 -1088 2630 -834 
L 2630 2816 
z
M 2304 871 
C 2304 594 2074 335 2054 316 
C 1856 90 1626 38 1472 38 
C 992 38 621 652 621 1369 
C 621 2125 1043 2700 1536 2700 
C 2048 2700 2304 2112 2304 1776 
L 2304 871 
z
" transform="scale(0.015625)"/>
      <path id="CMR17-75" d="M 1882 2745 
L 1882 2579 
C 2259 2579 2317 2540 2317 2229 
L 2317 1053 
C 2317 510 2029 38 1555 38 
C 1030 38 986 355 986 691 
L 986 2816 
L 211 2745 
L 211 2579 
C 467 2579 640 2579 646 2320 
L 646 1079 
C 646 646 646 368 813 187 
C 896 103 1056 -64 1517 -64 
C 2061 -64 2272 400 2323 536 
L 2330 536 
L 2330 -64 
L 3091 -13 
L 3091 154 
C 2714 154 2656 193 2656 503 
L 2656 2816 
L 1882 2745 
z
" transform="scale(0.015625)"/>
      <path id="CMR17-61" d="M 2304 1656 
C 2304 2048 2304 2275 2035 2534 
C 1798 2751 1523 2816 1306 2816 
C 800 2816 435 2408 435 1977 
C 435 1740 627 1728 666 1728 
C 749 1728 896 1779 896 1958 
C 896 2118 774 2188 666 2188 
C 640 2188 608 2182 589 2176 
C 723 2594 1069 2713 1293 2713 
C 1613 2713 1965 2421 1965 1875 
L 1965 1632 
C 1587 1619 1133 1568 774 1373 
C 371 1147 256 822 256 576 
C 256 77 832 -64 1171 -64 
C 1523 -64 1850 135 1990 505 
C 2003 219 2182 -39 2464 -39 
C 2598 -39 2938 51 2938 563 
L 2938 926 
L 2822 926 
L 2822 557 
C 2822 161 2650 109 2566 109 
C 2304 109 2304 446 2304 732 
L 2304 1656 
z
M 1965 887 
C 1965 323 1568 38 1216 38 
C 896 38 646 278 646 576 
C 646 771 730 1114 1101 1322 
C 1408 1497 1760 1523 1965 1536 
L 1965 887 
z
" transform="scale(0.015625)"/>
      <path id="CMR17-72" d="M 960 1517 
C 960 2134 1222 2713 1702 2713 
C 1747 2713 1792 2707 1837 2687 
C 1837 2687 1696 2642 1696 2475 
C 1696 2321 1818 2257 1914 2257 
C 1990 2257 2131 2302 2131 2482 
C 2131 2687 1926 2816 1709 2816 
C 1222 2816 1011 2340 947 2115 
L 941 2115 
L 941 2816 
L 198 2745 
L 198 2578 
C 576 2578 634 2540 634 2231 
L 634 443 
C 634 198 608 166 198 166 
L 198 0 
C 352 12 646 12 813 12 
C 998 12 1325 12 1498 0 
L 1498 166 
C 1037 166 960 166 960 455 
L 960 1517 
z
" transform="scale(0.015625)"/>
      <path id="CMR17-65" d="M 2438 1503 
C 2464 1529 2464 1542 2464 1606 
C 2464 2251 2118 2816 1389 2816 
C 710 2816 173 2175 173 1394 
C 173 554 781 -64 1459 -64 
C 2176 -64 2458 619 2458 755 
C 2458 800 2419 800 2406 800 
C 2362 800 2355 787 2330 709 
C 2189 270 1837 51 1504 51 
C 1229 51 954 206 781 490 
C 582 819 582 1200 582 1503 
L 2438 1503 
z
M 589 1600 
C 634 2511 1126 2713 1382 2713 
C 1818 2713 2112 2308 2118 1600 
L 589 1600 
z
" transform="scale(0.015625)"/>
     </defs>
     <use xlink:href="#CMR17-53" transform="scale(0.996264)"/>
     <use xlink:href="#CMR17-71" transform="translate(50.89537 0) scale(0.996264)"/>
     <use xlink:href="#CMR17-75" transform="translate(99.188286 0) scale(0.996264)"/>
     <use xlink:href="#CMR17-61" transform="translate(150.083655 0) scale(0.996264)"/>
     <use xlink:href="#CMR17-72" transform="translate(195.774133 0) scale(0.996264)"/>
     <use xlink:href="#CMR17-65" transform="translate(231.0549 0) scale(0.996264)"/>
    </g>
   </g>
  </g>
  <g id="axes_2">
   <g id="patch_4">
    <path d="M 131.625 41.384348 
C 131.625 38.636502 131.083734 35.915376 130.032179 33.376697 
C 128.980624 30.838018 127.43923 28.531159 125.496209 26.588138 
C 123.553189 24.645118 121.246329 23.103724 118.707651 22.052169 
C 116.168972 21.000614 113.447846 20.459348 110.7 20.459348 
C 107.952154 20.459348 105.231028 21.000614 102.692349 22.052169 
C 100.153671 23.103724 97.846811 24.645118 95.903791 26.588138 
C 93.96077 28.531159 92.419376 30.838018 91.367821 33.376697 
C 90.316266 35.915376 89.775 38.636502 89.775 41.384348 
C 89.775 44.132194 90.316266 46.85332 91.367821 49.391999 
C 92.419376 51.930677 93.96077 54.237537 95.903791 56.180557 
C 97.846811 58.123578 100.153671 59.664972 102.692349 60.716527 
C 105.231028 61.768082 107.952154 62.309348 110.7 62.309348 
C 113.447846 62.309348 116.168972 61.768082 118.707651 60.716527 
C 121.246329 59.664972 123.553189 58.123578 125.496209 56.180557 
C 127.43923 54.237537 128.980624 51.930677 130.032179 49.391999 
C 131.083734 46.85332 131.625 44.132194 131.625 41.384348 
M 110.7 41.384348 
C 110.7 41.384348 110.7 41.384348 110.7 41.384348 
C 110.7 41.384348 110.7 41.384348 110.7 41.384348 
C 110.7 41.384348 110.7 41.384348 110.7 41.384348 
C 110.7 41.384348 110.7 41.384348 110.7 41.384348 
C 110.7 41.384348 110.7 41.384348 110.7 41.384348 
C 110.7 41.384348 110.7 41.384348 110.7 41.384348 
C 110.7 41.384348 110.7 41.384348 110.7 41.384348 
C 110.7 41.384348 110.7 41.384348 110.7 41.384348 
C 110.7 41.384348 110.7 41.384348 110.7 41.384348 
C 110.7 41.384348 110.7 41.384348 110.7 41.384348 
C 110.7 41.384348 110.7 41.384348 110.7 41.384348 
C 110.7 41.384348 110.7 41.384348 110.7 41.384348 
C 110.7 41.384348 110.7 41.384348 110.7 41.384348 
C 110.7 41.384348 110.7 41.384348 110.7 41.384348 
C 110.7 41.384348 110.7 41.384348 110.7 41.384348 
C 110.7 41.384348 110.7 41.384348 110.7 41.384348 
M 131.625 41.384348 
L 131.625 41.384348 
z
" style="fill: none"/>
   </g>
   <g id="matplotlib.axis_3">
    <g id="xtick_9">
     <g id="line2d_12">
      <path d="M 110.7 41.384348 
L 131.625 41.384348 
" clip-path="url(#p42e998e866)" style="fill: none; stroke: #b0b0b0; stroke-width: 0.8; stroke-linecap: square"/>
     </g>
    </g>
    <g id="xtick_10">
     <g id="line2d_13">
      <path d="M 110.7 41.384348 
L 125.496209 26.588138 
" clip-path="url(#p42e998e866)" style="fill: none; stroke: #b0b0b0; stroke-width: 0.8; stroke-linecap: square"/>
     </g>
    </g>
    <g id="xtick_11">
     <g id="line2d_14">
      <path d="M 110.7 41.384348 
L 110.7 20.459348 
" clip-path="url(#p42e998e866)" style="fill: none; stroke: #b0b0b0; stroke-width: 0.8; stroke-linecap: square"/>
     </g>
    </g>
    <g id="xtick_12">
     <g id="line2d_15">
      <path d="M 110.7 41.384348 
L 95.903791 26.588138 
" clip-path="url(#p42e998e866)" style="fill: none; stroke: #b0b0b0; stroke-width: 0.8; stroke-linecap: square"/>
     </g>
    </g>
    <g id="xtick_13">
     <g id="line2d_16">
      <path d="M 110.7 41.384348 
L 89.775 41.384348 
" clip-path="url(#p42e998e866)" style="fill: none; stroke: #b0b0b0; stroke-width: 0.8; stroke-linecap: square"/>
     </g>
    </g>
    <g id="xtick_14">
     <g id="line2d_17">
      <path d="M 110.7 41.384348 
L 95.903791 56.180557 
" clip-path="url(#p42e998e866)" style="fill: none; stroke: #b0b0b0; stroke-width: 0.8; stroke-linecap: square"/>
     </g>
    </g>
    <g id="xtick_15">
     <g id="line2d_18">
      <path d="M 110.7 41.384348 
L 110.7 62.309348 
" clip-path="url(#p42e998e866)" style="fill: none; stroke: #b0b0b0; stroke-width: 0.8; stroke-linecap: square"/>
     </g>
    </g>
    <g id="xtick_16">
     <g id="line2d_19">
      <path d="M 110.7 41.384348 
L 125.496209 56.180557 
" clip-path="url(#p42e998e866)" style="fill: none; stroke: #b0b0b0; stroke-width: 0.8; stroke-linecap: square"/>
     </g>
    </g>
   </g>
   <g id="matplotlib.axis_4">
    <g id="ytick_3">
     <g id="line2d_20">
      <path d="M 114.885 41.384348 
C 114.885 40.834779 114.776747 40.290553 114.566436 39.782818 
C 114.356125 39.275082 114.047846 38.81371 113.659242 38.425106 
C 113.270638 38.036502 112.809266 37.728223 112.30153 37.517912 
C 111.793794 37.307601 111.249569 37.199348 110.7 37.199348 
C 110.150431 37.199348 109.606206 37.307601 109.09847 37.517912 
C 108.590734 37.728223 108.129362 38.036502 107.740758 38.425106 
C 107.352154 38.81371 107.043875 39.275082 106.833564 39.782818 
C 106.623253 40.290553 106.515 40.834779 106.515 41.384348 
C 106.515 41.933917 106.623253 42.478142 106.833564 42.985878 
C 107.043875 43.493614 107.352154 43.954986 107.740758 44.34359 
C 108.129362 44.732194 108.590734 45.040473 109.09847 45.250784 
C 109.606206 45.461095 110.150431 45.569348 110.7 45.569348 
C 111.249569 45.569348 111.793794 45.461095 112.30153 45.250784 
C 112.809266 45.040473 113.270638 44.732194 113.659242 44.34359 
C 114.047846 43.954986 114.356125 43.493614 114.566436 42.985878 
C 114.776747 42.478142 114.885 41.933917 114.885 41.384348 
" clip-path="url(#p42e998e866)" style="fill: none; stroke: #b0b0b0; stroke-width: 0.8; stroke-linecap: square"/>
     </g>
     <g id="text_4">
      <!-- $\mathdefault{0.05}$ -->
      <g transform="translate(114.566436 38.169148) scale(0.0833 -0.0833)">
       <use xlink:href="#CMR17-30" transform="scale(0.996264)"/>
       <use xlink:href="#CMMI12-3a" transform="translate(45.690477 0) scale(0.996264)"/>
       <use xlink:href="#CMR17-30" transform="translate(72.787654 0) scale(0.996264)"/>
       <use xlink:href="#CMR17-35" transform="translate(118.478131 0) scale(0.996264)"/>
      </g>
     </g>
    </g>
    <g id="ytick_4">
     <g id="line2d_21">
      <path d="M 131.625 41.384348 
C 131.625 38.636502 131.083734 35.915376 130.032179 33.376697 
C 128.980624 30.838018 127.43923 28.531159 125.496209 26.588138 
C 123.553189 24.645118 121.246329 23.103724 118.707651 22.052169 
C 116.168972 21.000614 113.447846 20.459348 110.7 20.459348 
C 107.952154 20.459348 105.231028 21.000614 102.692349 22.052169 
C 100.153671 23.103724 97.846811 24.645118 95.903791 26.588138 
C 93.96077 28.531159 92.419376 30.838018 91.367821 33.376697 
C 90.316266 35.915376 89.775 38.636502 89.775 41.384348 
C 89.775 44.132194 90.316266 46.85332 91.367821 49.391999 
C 92.419376 51.930677 93.96077 54.237537 95.903791 56.180557 
C 97.846811 58.123578 100.153671 59.664972 102.692349 60.716527 
C 105.231028 61.768082 107.952154 62.309348 110.7 62.309348 
C 113.447846 62.309348 116.168972 61.768082 118.707651 60.716527 
C 121.246329 59.664972 123.553189 58.123578 125.496209 56.180557 
C 127.43923 54.237537 128.980624 51.930677 130.032179 49.391999 
C 131.083734 46.85332 131.625 44.132194 131.625 41.384348 
" clip-path="url(#p42e998e866)" style="fill: none; stroke: #b0b0b0; stroke-width: 0.8; stroke-linecap: square"/>
     </g>
     <g id="text_5">
      <!-- $\mathdefault{0.25}$ -->
      <g transform="translate(130.032179 31.763028) scale(0.0833 -0.0833)">
       <use xlink:href="#CMR17-30" transform="scale(0.996264)"/>
       <use xlink:href="#CMMI12-3a" transform="translate(45.690477 0) scale(0.996264)"/>
       <use xlink:href="#CMR17-32" transform="translate(72.787654 0) scale(0.996264)"/>
       <use xlink:href="#CMR17-35" transform="translate(118.478131 0) scale(0.996264)"/>
      </g>
     </g>
    </g>
   </g>
   <g id="line2d_22">
    <path d="M 97.390468 41.806844 
L 97.369079 42.657296 
L 97.544506 43.489376 
L 97.826954 44.291853 
L 98.056296 45.096874 
L 98.174413 45.943289 
L 98.5142 46.717406 
L 98.88285 47.476512 
L 99.321375 48.196767 
L 99.883022 48.831293 
L 100.296093 49.56607 
L 100.850729 50.196238 
L 101.188433 51.048041 
L 102.02818 51.392162 
L 102.608349 52.016654 
L 103.448305 52.284011 
L 104.061043 52.883359 
L 104.830128 53.227996 
L 105.571164 53.628852 
L 106.329126 54.013158 
L 107.144881 54.243298 
L 108.001163 54.282502 
L 108.795687 54.629136 
L 109.643013 54.679779 
L 110.48797 54.746474 
L 111.334115 54.696061 
L 112.168771 54.554184 
L 113.01257 54.499582 
L 113.851883 54.376589 
L 114.693098 54.226237 
L 115.396732 53.678019 
L 116.202121 53.432313 
L 117.126795 53.379409 
L 117.763158 52.767988 
L 118.606606 52.487622 
L 119.154082 51.790467 
L 119.505658 50.917839 
L 120.172917 50.416756 
L 120.737851 49.807105 
L 121.51362 49.346247 
L 122.010163 48.652948 
L 122.421836 47.906202 
L 122.521937 47.011615 
L 122.975265 46.298623 
L 123.515838 45.593475 
L 123.686645 44.753917 
L 123.835283 43.915966 
L 123.936632 43.073596 
L 123.981514 42.228413 
L 123.980557 41.384348 
L 123.857548 40.548161 
L 123.86978 39.703631 
L 123.806736 38.858231 
L 123.745483 37.999513 
L 123.292365 37.248616 
L 123.086903 36.42538 
L 122.743867 35.651442 
L 122.375646 34.888193 
L 121.953468 34.152183 
L 121.360386 33.535272 
L 121.018254 32.726304 
L 120.411055 32.124876 
L 119.797955 31.5344 
L 119.229907 30.884896 
L 118.431074 30.527574 
L 117.687914 30.121978 
L 116.98076 29.661849 
L 116.210356 29.318352 
L 115.369379 29.162273 
L 114.697807 28.527316 
L 113.830075 28.482001 
L 113.02083 28.222264 
L 112.177852 28.133087 
L 111.334995 28.054155 
L 110.487488 27.991832 
L 109.666995 28.390577 
L 108.793806 28.126479 
L 107.95326 28.257255 
L 107.190658 28.690975 
L 106.383584 28.912883 
L 105.576779 29.153251 
L 104.777315 29.434139 
L 103.954005 29.699942 
L 103.29825 30.259144 
L 102.720388 30.89926 
L 101.914817 31.245706 
L 101.342309 31.876991 
L 100.766034 32.496683 
L 100.172485 33.105418 
L 99.707782 33.816759 
L 99.246545 34.527128 
L 98.723111 35.209832 
L 98.299925 35.957514 
L 98.046512 36.778855 
L 98.005579 37.65693 
L 97.449283 38.391541 
L 97.681515 39.301243 
L 97.615071 40.134889 
L 97.278201 40.958287 
" clip-path="url(#p42e998e866)" style="fill: none; stroke: #348abd; stroke-opacity: 0.75; stroke-width: 2; stroke-linecap: square"/>
   </g>
   <g id="patch_5">
    <path d="M 131.625 41.384348 
C 131.625 38.636502 131.083734 35.915376 130.032179 33.376697 
C 128.980624 30.838018 127.43923 28.531159 125.496209 26.588138 
C 123.553189 24.645118 121.246329 23.103724 118.707651 22.052169 
C 116.168972 21.000614 113.447846 20.459348 110.7 20.459348 
C 107.952154 20.459348 105.231028 21.000614 102.692349 22.052169 
C 100.153671 23.103724 97.846811 24.645118 95.903791 26.588138 
C 93.96077 28.531159 92.419376 30.838018 91.367821 33.376697 
C 90.316266 35.915376 89.775 38.636502 89.775 41.384348 
C 89.775 44.132194 90.316266 46.85332 91.367821 49.391999 
C 92.419376 51.930677 93.96077 54.237537 95.903791 56.180557 
C 97.846811 58.123578 100.153671 59.664972 102.692349 60.716527 
C 105.231028 61.768082 107.952154 62.309348 110.7 62.309348 
C 113.447846 62.309348 116.168972 61.768082 118.707651 60.716527 
C 121.246329 59.664972 123.553189 58.123578 125.496209 56.180557 
C 127.43923 54.237537 128.980624 51.930677 130.032179 49.391999 
C 131.083734 46.85332 131.625 44.132194 131.625 41.384348 
" style="fill: none; stroke: #000000; stroke-width: 0.8; stroke-linejoin: miter; stroke-linecap: square"/>
   </g>
   <g id="text_6">
    <!-- Circle -->
    <g transform="translate(98.91269 18.715886) scale(0.09 -0.09)">
     <defs>
      <path id="CMR17-43" d="M 3974 4351 
C 3974 4467 3968 4473 3930 4473 
C 3904 4473 3898 4467 3853 4390 
L 3571 3849 
C 3258 4249 2874 4480 2381 4480 
C 1286 4480 294 3507 294 2179 
C 294 837 1286 -128 2387 -128 
C 3366 -128 3974 741 3974 1482 
C 3974 1547 3974 1573 3917 1573 
C 3866 1573 3866 1553 3859 1495 
C 3808 592 3168 38 2477 38 
C 1824 38 781 502 781 2179 
C 781 3862 1843 4313 2464 4313 
C 3187 4313 3712 3681 3834 2785 
C 3846 2707 3846 2695 3904 2695 
C 3974 2695 3974 2707 3974 2824 
L 3974 4351 
z
" transform="scale(0.015625)"/>
      <path id="CMR17-69" d="M 992 3961 
C 992 4102 877 4224 730 4224 
C 589 4224 467 4108 467 3961 
C 467 3820 582 3699 730 3699 
C 870 3699 992 3814 992 3961 
z
M 243 2745 
L 243 2579 
C 602 2579 653 2540 653 2231 
L 653 443 
C 653 198 627 166 218 166 
L 218 0 
C 371 12 646 12 806 12 
C 960 12 1222 12 1370 0 
L 1370 166 
C 992 166 979 205 979 436 
L 979 2816 
L 243 2745 
z
" transform="scale(0.015625)"/>
      <path id="CMR17-63" d="M 2234 2240 
C 2112 2240 1933 2240 1933 2015 
C 1933 1836 2080 1785 2163 1785 
C 2208 1785 2394 1804 2394 2028 
C 2394 2476 1958 2816 1466 2816 
C 787 2816 211 2201 211 1379 
C 211 521 813 -64 1466 -64 
C 2259 -64 2458 676 2458 747 
C 2458 773 2451 792 2406 792 
C 2362 792 2355 786 2330 702 
C 2163 180 1798 51 1523 51 
C 1114 51 621 431 621 1385 
C 621 2358 1094 2700 1472 2700 
C 1722 2700 2093 2582 2234 2240 
z
" transform="scale(0.015625)"/>
      <path id="CMR17-6c" d="M 979 4416 
L 218 4345 
L 218 4179 
C 595 4179 653 4141 653 3835 
L 653 439 
C 653 198 627 166 218 166 
L 218 0 
C 371 12 653 12 813 12 
C 979 12 1261 12 1414 0 
L 1414 166 
C 1005 166 979 191 979 439 
L 979 4416 
z
" transform="scale(0.015625)"/>
     </defs>
     <use xlink:href="#CMR17-43" transform="scale(0.996264)"/>
     <use xlink:href="#CMR17-69" transform="translate(66.509881 0) scale(0.996264)"/>
     <use xlink:href="#CMR17-72" transform="translate(91.380939 0) scale(0.996264)"/>
     <use xlink:href="#CMR17-63" transform="translate(126.661707 0) scale(0.996264)"/>
     <use xlink:href="#CMR17-6c" transform="translate(167.147367 0) scale(0.996264)"/>
     <use xlink:href="#CMR17-65" transform="translate(192.018426 0) scale(0.996264)"/>
    </g>
   </g>
  </g>
  <g id="axes_3">
   <g id="patch_6">
    <path d="M 194.4 41.384348 
C 194.4 38.636502 193.858734 35.915376 192.807179 33.376697 
C 191.755624 30.838018 190.21423 28.531159 188.271209 26.588138 
C 186.328189 24.645118 184.021329 23.103724 181.482651 22.052169 
C 178.943972 21.000614 176.222846 20.459348 173.475 20.459348 
C 170.727154 20.459348 168.006028 21.000614 165.467349 22.052169 
C 162.928671 23.103724 160.621811 24.645118 158.678791 26.588138 
C 156.73577 28.531159 155.194376 30.838018 154.142821 33.376697 
C 153.091266 35.915376 152.55 38.636502 152.55 41.384348 
C 152.55 44.132194 153.091266 46.85332 154.142821 49.391999 
C 155.194376 51.930677 156.73577 54.237537 158.678791 56.180557 
C 160.621811 58.123578 162.928671 59.664972 165.467349 60.716527 
C 168.006028 61.768082 170.727154 62.309348 173.475 62.309348 
C 176.222846 62.309348 178.943972 61.768082 181.482651 60.716527 
C 184.021329 59.664972 186.328189 58.123578 188.271209 56.180557 
C 190.21423 54.237537 191.755624 51.930677 192.807179 49.391999 
C 193.858734 46.85332 194.4 44.132194 194.4 41.384348 
M 173.475 41.384348 
C 173.475 41.384348 173.475 41.384348 173.475 41.384348 
C 173.475 41.384348 173.475 41.384348 173.475 41.384348 
C 173.475 41.384348 173.475 41.384348 173.475 41.384348 
C 173.475 41.384348 173.475 41.384348 173.475 41.384348 
C 173.475 41.384348 173.475 41.384348 173.475 41.384348 
C 173.475 41.384348 173.475 41.384348 173.475 41.384348 
C 173.475 41.384348 173.475 41.384348 173.475 41.384348 
C 173.475 41.384348 173.475 41.384348 173.475 41.384348 
C 173.475 41.384348 173.475 41.384348 173.475 41.384348 
C 173.475 41.384348 173.475 41.384348 173.475 41.384348 
C 173.475 41.384348 173.475 41.384348 173.475 41.384348 
C 173.475 41.384348 173.475 41.384348 173.475 41.384348 
C 173.475 41.384348 173.475 41.384348 173.475 41.384348 
C 173.475 41.384348 173.475 41.384348 173.475 41.384348 
C 173.475 41.384348 173.475 41.384348 173.475 41.384348 
C 173.475 41.384348 173.475 41.384348 173.475 41.384348 
M 194.4 41.384348 
L 194.4 41.384348 
z
" style="fill: none"/>
   </g>
   <g id="matplotlib.axis_5">
    <g id="xtick_17">
     <g id="line2d_23">
      <path d="M 173.475 41.384348 
L 194.4 41.384348 
" clip-path="url(#pccbd14a41b)" style="fill: none; stroke: #b0b0b0; stroke-width: 0.8; stroke-linecap: square"/>
     </g>
    </g>
    <g id="xtick_18">
     <g id="line2d_24">
      <path d="M 173.475 41.384348 
L 188.271209 26.588138 
" clip-path="url(#pccbd14a41b)" style="fill: none; stroke: #b0b0b0; stroke-width: 0.8; stroke-linecap: square"/>
     </g>
    </g>
    <g id="xtick_19">
     <g id="line2d_25">
      <path d="M 173.475 41.384348 
L 173.475 20.459348 
" clip-path="url(#pccbd14a41b)" style="fill: none; stroke: #b0b0b0; stroke-width: 0.8; stroke-linecap: square"/>
     </g>
    </g>
    <g id="xtick_20">
     <g id="line2d_26">
      <path d="M 173.475 41.384348 
L 158.678791 26.588138 
" clip-path="url(#pccbd14a41b)" style="fill: none; stroke: #b0b0b0; stroke-width: 0.8; stroke-linecap: square"/>
     </g>
    </g>
    <g id="xtick_21">
     <g id="line2d_27">
      <path d="M 173.475 41.384348 
L 152.55 41.384348 
" clip-path="url(#pccbd14a41b)" style="fill: none; stroke: #b0b0b0; stroke-width: 0.8; stroke-linecap: square"/>
     </g>
    </g>
    <g id="xtick_22">
     <g id="line2d_28">
      <path d="M 173.475 41.384348 
L 158.678791 56.180557 
" clip-path="url(#pccbd14a41b)" style="fill: none; stroke: #b0b0b0; stroke-width: 0.8; stroke-linecap: square"/>
     </g>
    </g>
    <g id="xtick_23">
     <g id="line2d_29">
      <path d="M 173.475 41.384348 
L 173.475 62.309348 
" clip-path="url(#pccbd14a41b)" style="fill: none; stroke: #b0b0b0; stroke-width: 0.8; stroke-linecap: square"/>
     </g>
    </g>
    <g id="xtick_24">
     <g id="line2d_30">
      <path d="M 173.475 41.384348 
L 188.271209 56.180557 
" clip-path="url(#pccbd14a41b)" style="fill: none; stroke: #b0b0b0; stroke-width: 0.8; stroke-linecap: square"/>
     </g>
    </g>
   </g>
   <g id="matplotlib.axis_6">
    <g id="ytick_5">
     <g id="line2d_31">
      <path d="M 177.66 41.384348 
C 177.66 40.834779 177.551747 40.290553 177.341436 39.782818 
C 177.131125 39.275082 176.822846 38.81371 176.434242 38.425106 
C 176.045638 38.036502 175.584266 37.728223 175.07653 37.517912 
C 174.568794 37.307601 174.024569 37.199348 173.475 37.199348 
C 172.925431 37.199348 172.381206 37.307601 171.87347 37.517912 
C 171.365734 37.728223 170.904362 38.036502 170.515758 38.425106 
C 170.127154 38.81371 169.818875 39.275082 169.608564 39.782818 
C 169.398253 40.290553 169.29 40.834779 169.29 41.384348 
C 169.29 41.933917 169.398253 42.478142 169.608564 42.985878 
C 169.818875 43.493614 170.127154 43.954986 170.515758 44.34359 
C 170.904362 44.732194 171.365734 45.040473 171.87347 45.250784 
C 172.381206 45.461095 172.925431 45.569348 173.475 45.569348 
C 174.024569 45.569348 174.568794 45.461095 175.07653 45.250784 
C 175.584266 45.040473 176.045638 44.732194 176.434242 44.34359 
C 176.822846 43.954986 177.131125 43.493614 177.341436 42.985878 
C 177.551747 42.478142 177.66 41.933917 177.66 41.384348 
" clip-path="url(#pccbd14a41b)" style="fill: none; stroke: #b0b0b0; stroke-width: 0.8; stroke-linecap: square"/>
     </g>
     <g id="text_7">
      <!-- $\mathdefault{0.05}$ -->
      <g transform="translate(177.341436 38.169148) scale(0.0833 -0.0833)">
       <use xlink:href="#CMR17-30" transform="scale(0.996264)"/>
       <use xlink:href="#CMMI12-3a" transform="translate(45.690477 0) scale(0.996264)"/>
       <use xlink:href="#CMR17-30" transform="translate(72.787654 0) scale(0.996264)"/>
       <use xlink:href="#CMR17-35" transform="translate(118.478131 0) scale(0.996264)"/>
      </g>
     </g>
    </g>
    <g id="ytick_6">
     <g id="line2d_32">
      <path d="M 194.4 41.384348 
C 194.4 38.636502 193.858734 35.915376 192.807179 33.376697 
C 191.755624 30.838018 190.21423 28.531159 188.271209 26.588138 
C 186.328189 24.645118 184.021329 23.103724 181.482651 22.052169 
C 178.943972 21.000614 176.222846 20.459348 173.475 20.459348 
C 170.727154 20.459348 168.006028 21.000614 165.467349 22.052169 
C 162.928671 23.103724 160.621811 24.645118 158.678791 26.588138 
C 156.73577 28.531159 155.194376 30.838018 154.142821 33.376697 
C 153.091266 35.915376 152.55 38.636502 152.55 41.384348 
C 152.55 44.132194 153.091266 46.85332 154.142821 49.391999 
C 155.194376 51.930677 156.73577 54.237537 158.678791 56.180557 
C 160.621811 58.123578 162.928671 59.664972 165.467349 60.716527 
C 168.006028 61.768082 170.727154 62.309348 173.475 62.309348 
C 176.222846 62.309348 178.943972 61.768082 181.482651 60.716527 
C 184.021329 59.664972 186.328189 58.123578 188.271209 56.180557 
C 190.21423 54.237537 191.755624 51.930677 192.807179 49.391999 
C 193.858734 46.85332 194.4 44.132194 194.4 41.384348 
" clip-path="url(#pccbd14a41b)" style="fill: none; stroke: #b0b0b0; stroke-width: 0.8; stroke-linecap: square"/>
     </g>
     <g id="text_8">
      <!-- $\mathdefault{0.25}$ -->
      <g transform="translate(192.807179 31.763028) scale(0.0833 -0.0833)">
       <use xlink:href="#CMR17-30" transform="scale(0.996264)"/>
       <use xlink:href="#CMMI12-3a" transform="translate(45.690477 0) scale(0.996264)"/>
       <use xlink:href="#CMR17-32" transform="translate(72.787654 0) scale(0.996264)"/>
       <use xlink:href="#CMR17-35" transform="translate(118.478131 0) scale(0.996264)"/>
      </g>
     </g>
    </g>
   </g>
   <g id="line2d_33">
    <path d="M 159.017707 41.843279 
L 159.499501 42.718846 
L 159.643594 43.597529 
L 160.340291 44.350953 
L 160.529531 45.18548 
L 161.035094 45.912103 
L 161.419943 46.660186 
L 161.898633 47.35238 
L 162.312927 48.067116 
L 163.067278 48.549541 
L 163.288188 49.395345 
L 163.973374 49.885209 
L 164.603038 50.398207 
L 165.164902 50.974712 
L 165.815501 51.448812 
L 166.355793 52.084875 
L 166.950348 52.685377 
L 167.676132 53.084731 
L 168.341058 53.64104 
L 169.093753 54.043128 
L 169.88502 54.369391 
L 170.717705 54.561884 
L 171.511636 55.039848 
L 172.341669 55.640085 
L 173.245506 55.847102 
L 174.153318 55.623987 
L 175.044687 55.459052 
L 175.853197 54.871775 
L 176.621587 54.354757 
L 177.441025 54.139169 
L 178.137304 53.587906 
L 178.92058 53.308504 
L 179.595371 52.807495 
L 180.234396 52.278417 
L 180.825116 51.706141 
L 181.437469 51.185341 
L 182.25914 50.894542 
L 182.760467 50.238023 
L 183.260791 49.595601 
L 183.878932 49.044601 
L 184.296027 48.3386 
L 184.799603 47.685188 
L 185.25279 46.9906 
L 185.447248 46.177313 
L 185.930518 45.475135 
L 186.538391 44.773829 
L 186.758206 43.944476 
L 187.165175 43.131477 
L 187.528005 42.277443 
L 187.536534 41.384348 
L 187.555699 40.489493 
L 187.065553 39.649933 
L 186.993066 38.778954 
L 186.813396 37.923512 
L 186.24313 37.190889 
L 185.750265 36.470073 
L 185.200291 35.803085 
L 184.781127 35.093787 
L 184.306032 34.423666 
L 183.769328 33.804795 
L 183.318491 33.124678 
L 182.724124 32.565325 
L 182.161408 31.979963 
L 181.588286 31.397715 
L 180.937027 30.905397 
L 180.279682 30.417292 
L 179.560423 30.02643 
L 178.924971 29.450576 
L 178.181635 29.064753 
L 177.429254 28.667382 
L 176.679223 28.176362 
L 175.888994 27.693907 
L 175.017004 27.557859 
L 174.160926 26.984994 
L 173.248546 27.113179 
L 172.359996 27.359137 
L 171.502985 27.66868 
L 170.63543 27.813607 
L 169.792762 28.065604 
L 169.099372 28.741801 
L 168.222103 28.843665 
L 167.499502 29.327578 
L 167.075886 30.300757 
L 166.216718 30.474783 
L 165.559411 30.983385 
L 164.990964 31.593248 
L 164.466774 32.232046 
L 163.677925 32.619156 
L 163.255987 33.348027 
L 162.8768 34.08802 
L 162.436509 34.775568 
L 162.033706 35.485951 
L 161.511948 36.148775 
L 160.940721 36.822243 
L 160.696897 37.632358 
L 160.174013 38.380187 
L 159.993294 39.227122 
L 159.56659 40.056256 
L 159.236957 40.932377 
" clip-path="url(#pccbd14a41b)" style="fill: none; stroke: #348abd; stroke-opacity: 0.75; stroke-width: 2; stroke-linecap: square"/>
   </g>
   <g id="patch_7">
    <path d="M 194.4 41.384348 
C 194.4 38.636502 193.858734 35.915376 192.807179 33.376697 
C 191.755624 30.838018 190.21423 28.531159 188.271209 26.588138 
C 186.328189 24.645118 184.021329 23.103724 181.482651 22.052169 
C 178.943972 21.000614 176.222846 20.459348 173.475 20.459348 
C 170.727154 20.459348 168.006028 21.000614 165.467349 22.052169 
C 162.928671 23.103724 160.621811 24.645118 158.678791 26.588138 
C 156.73577 28.531159 155.194376 30.838018 154.142821 33.376697 
C 153.091266 35.915376 152.55 38.636502 152.55 41.384348 
C 152.55 44.132194 153.091266 46.85332 154.142821 49.391999 
C 155.194376 51.930677 156.73577 54.237537 158.678791 56.180557 
C 160.621811 58.123578 162.928671 59.664972 165.467349 60.716527 
C 168.006028 61.768082 170.727154 62.309348 173.475 62.309348 
C 176.222846 62.309348 178.943972 61.768082 181.482651 60.716527 
C 184.021329 59.664972 186.328189 58.123578 188.271209 56.180557 
C 190.21423 54.237537 191.755624 51.930677 192.807179 49.391999 
C 193.858734 46.85332 194.4 44.132194 194.4 41.384348 
" style="fill: none; stroke: #000000; stroke-width: 0.8; stroke-linejoin: miter; stroke-linecap: square"/>
   </g>
   <g id="text_9">
    <!-- Large Square -->
    <g transform="translate(146.892935 18.715886) scale(0.09 -0.09)">
     <defs>
      <path id="CMR17-4c" d="M 3469 1612 
L 3354 1612 
C 3302 981 3219 166 2125 166 
L 1530 166 
C 1274 166 1261 198 1261 414 
L 1261 3892 
C 1261 4121 1274 4185 1760 4185 
L 1901 4185 
L 1901 4352 
C 1638 4339 1331 4339 1069 4339 
C 870 4339 512 4339 326 4352 
L 326 4185 
C 768 4185 838 4185 838 3898 
L 838 453 
C 838 166 768 166 326 166 
L 326 0 
L 3315 0 
L 3469 1612 
z
" transform="scale(0.015625)"/>
      <path id="CMR17-67" d="M 710 1165 
C 832 1068 1043 960 1299 960 
C 1805 960 2240 1359 2240 1895 
C 2240 2063 2189 2321 1997 2521 
C 2176 2713 2438 2777 2586 2777 
C 2611 2777 2650 2777 2682 2758 
C 2656 2751 2598 2726 2598 2623 
C 2598 2540 2656 2483 2739 2483 
C 2835 2483 2886 2547 2886 2630 
C 2886 2751 2790 2880 2586 2880 
C 2330 2880 2106 2758 1926 2591 
C 1734 2764 1504 2828 1299 2828 
C 794 2828 358 2431 358 1895 
C 358 1527 570 1294 634 1230 
C 442 1004 442 742 442 710 
C 442 544 506 300 723 166 
C 390 82 128 -184 128 -517 
C 128 -996 736 -1344 1466 -1344 
C 2170 -1344 2803 -1009 2803 -510 
C 2803 384 1856 384 1363 384 
C 1216 384 954 384 922 390 
C 723 422 589 601 589 825 
C 589 883 589 1024 710 1165 
z
M 1299 1068 
C 736 1068 736 1766 736 1895 
C 736 2024 736 2719 1299 2719 
C 1862 2719 1862 2024 1862 1895 
C 1862 1766 1862 1068 1299 1068 
z
M 1466 -1236 
C 826 -1236 384 -883 384 -517 
C 384 -311 493 -118 634 -11 
C 794 102 858 102 1293 102 
C 1818 102 2547 102 2547 -517 
C 2547 -883 2106 -1236 1466 -1236 
z
" transform="scale(0.015625)"/>
     </defs>
     <use xlink:href="#CMR17-4c" transform="scale(0.996264)"/>
     <use xlink:href="#CMR17-61" transform="translate(57.381408 0) scale(0.996264)"/>
     <use xlink:href="#CMR17-72" transform="translate(103.071885 0) scale(0.996264)"/>
     <use xlink:href="#CMR17-67" transform="translate(138.352653 0) scale(0.996264)"/>
     <use xlink:href="#CMR17-65" transform="translate(184.04313 0) scale(0.996264)"/>
     <use xlink:href="#CMR17-53" transform="translate(254.604757 0) scale(0.996264)"/>
     <use xlink:href="#CMR17-71" transform="translate(305.500126 0) scale(0.996264)"/>
     <use xlink:href="#CMR17-75" transform="translate(353.793042 0) scale(0.996264)"/>
     <use xlink:href="#CMR17-61" transform="translate(404.688412 0) scale(0.996264)"/>
     <use xlink:href="#CMR17-72" transform="translate(450.378889 0) scale(0.996264)"/>
     <use xlink:href="#CMR17-65" transform="translate(485.659657 0) scale(0.996264)"/>
    </g>
   </g>
  </g>
  <g id="axes_4">
   <g id="patch_8">
    <path d="M 68.85 104.055652 
C 68.85 101.307806 68.308734 98.58668 67.257179 96.048001 
C 66.205624 93.509323 64.66423 91.202463 62.721209 89.259443 
C 60.778189 87.316422 58.471329 85.775028 55.932651 84.723473 
C 53.393972 83.671918 50.672846 83.130652 47.925 83.130652 
C 45.177154 83.130652 42.456028 83.671918 39.917349 84.723473 
C 37.378671 85.775028 35.071811 87.316422 33.128791 89.259443 
C 31.18577 91.202463 29.644376 93.509323 28.592821 96.048001 
C 27.541266 98.58668 27 101.307806 27 104.055652 
C 27 106.803498 27.541266 109.524624 28.592821 112.063303 
C 29.644376 114.601982 31.18577 116.908841 33.128791 118.851862 
C 35.071811 120.794882 37.378671 122.336276 39.917349 123.387831 
C 42.456028 124.439386 45.177154 124.980652 47.925 124.980652 
C 50.672846 124.980652 53.393972 124.439386 55.932651 123.387831 
C 58.471329 122.336276 60.778189 120.794882 62.721209 118.851862 
C 64.66423 116.908841 66.205624 114.601982 67.257179 112.063303 
C 68.308734 109.524624 68.85 106.803498 68.85 104.055652 
M 47.925 104.055652 
C 47.925 104.055652 47.925 104.055652 47.925 104.055652 
C 47.925 104.055652 47.925 104.055652 47.925 104.055652 
C 47.925 104.055652 47.925 104.055652 47.925 104.055652 
C 47.925 104.055652 47.925 104.055652 47.925 104.055652 
C 47.925 104.055652 47.925 104.055652 47.925 104.055652 
C 47.925 104.055652 47.925 104.055652 47.925 104.055652 
C 47.925 104.055652 47.925 104.055652 47.925 104.055652 
C 47.925 104.055652 47.925 104.055652 47.925 104.055652 
C 47.925 104.055652 47.925 104.055652 47.925 104.055652 
C 47.925 104.055652 47.925 104.055652 47.925 104.055652 
C 47.925 104.055652 47.925 104.055652 47.925 104.055652 
C 47.925 104.055652 47.925 104.055652 47.925 104.055652 
C 47.925 104.055652 47.925 104.055652 47.925 104.055652 
C 47.925 104.055652 47.925 104.055652 47.925 104.055652 
C 47.925 104.055652 47.925 104.055652 47.925 104.055652 
C 47.925 104.055652 47.925 104.055652 47.925 104.055652 
M 68.85 104.055652 
L 68.85 104.055652 
z
" style="fill: none"/>
   </g>
   <g id="matplotlib.axis_7">
    <g id="xtick_25">
     <g id="line2d_34">
      <path d="M 47.925 104.055652 
L 68.85 104.055652 
" clip-path="url(#p4f80ca59f2)" style="fill: none; stroke: #b0b0b0; stroke-width: 0.8; stroke-linecap: square"/>
     </g>
    </g>
    <g id="xtick_26">
     <g id="line2d_35">
      <path d="M 47.925 104.055652 
L 62.721209 89.259443 
" clip-path="url(#p4f80ca59f2)" style="fill: none; stroke: #b0b0b0; stroke-width: 0.8; stroke-linecap: square"/>
     </g>
    </g>
    <g id="xtick_27">
     <g id="line2d_36">
      <path d="M 47.925 104.055652 
L 47.925 83.130652 
" clip-path="url(#p4f80ca59f2)" style="fill: none; stroke: #b0b0b0; stroke-width: 0.8; stroke-linecap: square"/>
     </g>
    </g>
    <g id="xtick_28">
     <g id="line2d_37">
      <path d="M 47.925 104.055652 
L 33.128791 89.259443 
" clip-path="url(#p4f80ca59f2)" style="fill: none; stroke: #b0b0b0; stroke-width: 0.8; stroke-linecap: square"/>
     </g>
    </g>
    <g id="xtick_29">
     <g id="line2d_38">
      <path d="M 47.925 104.055652 
L 27 104.055652 
" clip-path="url(#p4f80ca59f2)" style="fill: none; stroke: #b0b0b0; stroke-width: 0.8; stroke-linecap: square"/>
     </g>
    </g>
    <g id="xtick_30">
     <g id="line2d_39">
      <path d="M 47.925 104.055652 
L 33.128791 118.851862 
" clip-path="url(#p4f80ca59f2)" style="fill: none; stroke: #b0b0b0; stroke-width: 0.8; stroke-linecap: square"/>
     </g>
    </g>
    <g id="xtick_31">
     <g id="line2d_40">
      <path d="M 47.925 104.055652 
L 47.925 124.980652 
" clip-path="url(#p4f80ca59f2)" style="fill: none; stroke: #b0b0b0; stroke-width: 0.8; stroke-linecap: square"/>
     </g>
    </g>
    <g id="xtick_32">
     <g id="line2d_41">
      <path d="M 47.925 104.055652 
L 62.721209 118.851862 
" clip-path="url(#p4f80ca59f2)" style="fill: none; stroke: #b0b0b0; stroke-width: 0.8; stroke-linecap: square"/>
     </g>
    </g>
   </g>
   <g id="matplotlib.axis_8">
    <g id="ytick_7">
     <g id="line2d_42">
      <path d="M 52.11 104.055652 
C 52.11 103.506083 52.001747 102.961858 51.791436 102.454122 
C 51.581125 101.946386 51.272846 101.485014 50.884242 101.09641 
C 50.495638 100.707806 50.034266 100.399527 49.52653 100.189216 
C 49.018794 99.978905 48.474569 99.870652 47.925 99.870652 
C 47.375431 99.870652 46.831206 99.978905 46.32347 100.189216 
C 45.815734 100.399527 45.354362 100.707806 44.965758 101.09641 
C 44.577154 101.485014 44.268875 101.946386 44.058564 102.454122 
C 43.848253 102.961858 43.74 103.506083 43.74 104.055652 
C 43.74 104.605221 43.848253 105.149447 44.058564 105.657182 
C 44.268875 106.164918 44.577154 106.62629 44.965758 107.014894 
C 45.354362 107.403498 45.815734 107.711777 46.32347 107.922088 
C 46.831206 108.132399 47.375431 108.240652 47.925 108.240652 
C 48.474569 108.240652 49.018794 108.132399 49.52653 107.922088 
C 50.034266 107.711777 50.495638 107.403498 50.884242 107.014894 
C 51.272846 106.62629 51.581125 106.164918 51.791436 105.657182 
C 52.001747 105.149447 52.11 104.605221 52.11 104.055652 
" clip-path="url(#p4f80ca59f2)" style="fill: none; stroke: #b0b0b0; stroke-width: 0.8; stroke-linecap: square"/>
     </g>
     <g id="text_10">
      <!-- $\mathdefault{0.05}$ -->
      <g transform="translate(51.791436 100.840453) scale(0.0833 -0.0833)">
       <use xlink:href="#CMR17-30" transform="scale(0.996264)"/>
       <use xlink:href="#CMMI12-3a" transform="translate(45.690477 0) scale(0.996264)"/>
       <use xlink:href="#CMR17-30" transform="translate(72.787654 0) scale(0.996264)"/>
       <use xlink:href="#CMR17-35" transform="translate(118.478131 0) scale(0.996264)"/>
      </g>
     </g>
    </g>
    <g id="ytick_8">
     <g id="line2d_43">
      <path d="M 68.85 104.055652 
C 68.85 101.307806 68.308734 98.58668 67.257179 96.048001 
C 66.205624 93.509323 64.66423 91.202463 62.721209 89.259443 
C 60.778189 87.316422 58.471329 85.775028 55.932651 84.723473 
C 53.393972 83.671918 50.672846 83.130652 47.925 83.130652 
C 45.177154 83.130652 42.456028 83.671918 39.917349 84.723473 
C 37.378671 85.775028 35.071811 87.316422 33.128791 89.259443 
C 31.18577 91.202463 29.644376 93.509323 28.592821 96.048001 
C 27.541266 98.58668 27 101.307806 27 104.055652 
C 27 106.803498 27.541266 109.524624 28.592821 112.063303 
C 29.644376 114.601982 31.18577 116.908841 33.128791 118.851862 
C 35.071811 120.794882 37.378671 122.336276 39.917349 123.387831 
C 42.456028 124.439386 45.177154 124.980652 47.925 124.980652 
C 50.672846 124.980652 53.393972 124.439386 55.932651 123.387831 
C 58.471329 122.336276 60.778189 120.794882 62.721209 118.851862 
C 64.66423 116.908841 66.205624 114.601982 67.257179 112.063303 
C 68.308734 109.524624 68.85 106.803498 68.85 104.055652 
" clip-path="url(#p4f80ca59f2)" style="fill: none; stroke: #b0b0b0; stroke-width: 0.8; stroke-linecap: square"/>
     </g>
     <g id="text_11">
      <!-- $\mathdefault{0.25}$ -->
      <g transform="translate(67.257179 94.434332) scale(0.0833 -0.0833)">
       <use xlink:href="#CMR17-30" transform="scale(0.996264)"/>
       <use xlink:href="#CMMI12-3a" transform="translate(45.690477 0) scale(0.996264)"/>
       <use xlink:href="#CMR17-32" transform="translate(72.787654 0) scale(0.996264)"/>
       <use xlink:href="#CMR17-35" transform="translate(118.478131 0) scale(0.996264)"/>
      </g>
     </g>
    </g>
   </g>
   <g id="line2d_44">
    <path d="M 32.881279 104.533199 
L 33.148383 105.466648 
L 33.486839 106.365921 
L 33.971789 107.207124 
L 34.676498 107.945763 
L 35.055447 108.739786 
L 35.609666 109.4454 
L 36.067915 110.168404 
L 36.635944 110.814446 
L 37.201628 111.438154 
L 37.931391 111.914713 
L 38.419434 112.560038 
L 39.116071 113.00547 
L 39.558654 113.71093 
L 40.231889 114.164282 
L 41.035634 114.410718 
L 41.636227 114.948127 
L 42.274009 115.457665 
L 43.037647 115.723643 
L 43.744296 116.135004 
L 44.451576 116.619111 
L 45.248085 116.849038 
L 46.005454 117.406388 
L 46.8389 117.71729 
L 47.706072 117.852481 
L 48.597093 118.164616 
L 49.427898 117.531489 
L 50.22472 117.09801 
L 50.949462 116.522655 
L 51.791757 116.491225 
L 52.482608 115.985167 
L 53.239381 115.692522 
L 53.897464 115.202742 
L 54.609849 114.829574 
L 55.150174 114.201989 
L 55.645829 113.55921 
L 56.529817 113.371701 
L 57.065097 112.770718 
L 57.574132 112.152235 
L 58.354471 111.734709 
L 58.73491 111.00276 
L 59.270389 110.368057 
L 59.8758 109.744258 
L 60.244429 108.987608 
L 61.062239 108.370337 
L 61.338863 107.536069 
L 61.967283 106.76208 
L 62.391179 105.901814 
L 62.676963 104.993167 
L 63.289482 104.055652 
L 62.961821 103.100034 
L 62.385935 102.21016 
L 61.956903 101.351225 
L 61.428399 100.552004 
L 61.187786 99.699733 
L 60.482427 99.028417 
L 59.967674 98.323314 
L 59.425125 97.657155 
L 58.97392 96.954942 
L 58.205494 96.486285 
L 57.84745 95.729728 
L 57.271675 95.143616 
L 56.649066 94.610497 
L 55.834141 94.3203 
L 55.130244 93.937303 
L 54.636324 93.239061 
L 53.899336 92.905067 
L 53.194367 92.517349 
L 52.58306 91.863204 
L 51.729763 91.819453 
L 50.98342 91.448671 
L 50.232292 90.970349 
L 49.427458 90.583756 
L 48.584203 90.217278 
L 47.703389 90.0897 
L 46.849163 90.523109 
L 46.056607 91.060691 
L 45.235094 91.200182 
L 44.454041 91.501109 
L 43.713609 91.887638 
L 43.045305 92.405944 
L 42.322714 92.751912 
L 41.523243 92.967483 
L 40.996107 93.641176 
L 40.350331 94.102653 
L 39.569038 94.412358 
L 39.044695 95.033317 
L 38.408601 95.541574 
L 37.852448 96.13451 
L 37.080811 96.589974 
L 36.744787 97.362023 
L 36.114897 97.967121 
L 35.551558 98.640474 
L 34.974733 99.34214 
L 34.397556 100.083636 
L 33.830001 100.872156 
L 33.39289 101.73035 
L 32.889236 102.619911 
L 32.445421 103.56427 
" clip-path="url(#p4f80ca59f2)" style="fill: none; stroke: #348abd; stroke-opacity: 0.75; stroke-width: 2; stroke-linecap: square"/>
   </g>
   <g id="patch_9">
    <path d="M 68.85 104.055652 
C 68.85 101.307806 68.308734 98.58668 67.257179 96.048001 
C 66.205624 93.509323 64.66423 91.202463 62.721209 89.259443 
C 60.778189 87.316422 58.471329 85.775028 55.932651 84.723473 
C 53.393972 83.671918 50.672846 83.130652 47.925 83.130652 
C 45.177154 83.130652 42.456028 83.671918 39.917349 84.723473 
C 37.378671 85.775028 35.071811 87.316422 33.128791 89.259443 
C 31.18577 91.202463 29.644376 93.509323 28.592821 96.048001 
C 27.541266 98.58668 27 101.307806 27 104.055652 
C 27 106.803498 27.541266 109.524624 28.592821 112.063303 
C 29.644376 114.601982 31.18577 116.908841 33.128791 118.851862 
C 35.071811 120.794882 37.378671 122.336276 39.917349 123.387831 
C 42.456028 124.439386 45.177154 124.980652 47.925 124.980652 
C 50.672846 124.980652 53.393972 124.439386 55.932651 123.387831 
C 58.471329 122.336276 60.778189 120.794882 62.721209 118.851862 
C 64.66423 116.908841 66.205624 114.601982 67.257179 112.063303 
C 68.308734 109.524624 68.85 106.803498 68.85 104.055652 
" style="fill: none; stroke: #000000; stroke-width: 0.8; stroke-linejoin: miter; stroke-linecap: square"/>
   </g>
   <g id="text_12">
    <!-- Rectangle -->
    <g transform="translate(28.14723 81.38719) scale(0.09 -0.09)">
     <defs>
      <path id="CMR17-52" d="M 2509 2156 
C 3117 2278 3629 2689 3629 3203 
C 3629 3806 2950 4352 2054 4352 
L 333 4352 
L 333 4185 
C 774 4185 845 4185 845 3896 
L 845 428 
C 845 140 774 140 333 140 
L 333 -26 
C 518 -13 851 -13 1050 -13 
C 1248 -13 1581 -13 1766 -26 
L 1766 140 
C 1325 140 1254 140 1254 428 
L 1254 2112 
L 2003 2112 
C 2368 2112 2573 1964 2662 1881 
C 2918 1632 2918 1459 2918 1024 
C 2918 595 2918 377 3110 160 
C 3354 -103 3680 -128 3821 -128 
C 4294 -128 4365 403 4365 512 
C 4365 550 4365 595 4307 595 
C 4256 595 4250 556 4250 531 
C 4218 115 4032 -26 3834 -26 
C 3482 -26 3443 377 3405 768 
C 3386 902 3373 998 3360 1139 
C 3322 1459 3270 1926 2509 2156 
z
M 1984 2214 
L 1254 2214 
L 1254 3935 
C 1254 4153 1267 4185 1523 4185 
L 1990 4185 
C 2522 4185 3142 3999 3142 3203 
C 3142 2374 2464 2214 1984 2214 
z
" transform="scale(0.015625)"/>
      <path id="CMR17-74" d="M 966 2585 
L 1862 2585 
L 1862 2752 
L 966 2752 
L 966 3968 
L 851 3968 
C 838 3292 614 2700 70 2687 
L 70 2585 
L 627 2585 
L 627 778 
C 627 655 627 -64 1370 -64 
C 1747 -64 1965 308 1965 784 
L 1965 1151 
L 1850 1151 
L 1850 790 
C 1850 347 1677 51 1408 51 
C 1222 51 966 179 966 765 
L 966 2585 
z
" transform="scale(0.015625)"/>
      <path id="CMR17-6e" d="M 2656 1954 
C 2656 2282 2592 2816 1837 2816 
C 1331 2816 1069 2424 973 2166 
L 966 2166 
L 966 2816 
L 211 2745 
L 211 2578 
C 589 2578 646 2540 646 2231 
L 646 443 
C 646 198 621 166 211 166 
L 211 0 
C 365 12 646 12 813 12 
C 979 12 1267 12 1421 0 
L 1421 166 
C 1011 166 986 192 986 443 
L 986 1678 
C 986 2269 1344 2713 1792 2713 
C 2266 2713 2317 2289 2317 1980 
L 2317 443 
C 2317 198 2291 166 1882 166 
L 1882 0 
C 2035 12 2317 12 2483 12 
C 2650 12 2938 12 3091 0 
L 3091 166 
C 2682 166 2656 192 2656 443 
L 2656 1954 
z
" transform="scale(0.015625)"/>
     </defs>
     <use xlink:href="#CMR17-52" transform="scale(0.996264)"/>
     <use xlink:href="#CMR17-65" transform="translate(67.791102 0) scale(0.996264)"/>
     <use xlink:href="#CMR17-63" transform="translate(108.276762 0) scale(0.996264)"/>
     <use xlink:href="#CMR17-74" transform="translate(148.762423 0) scale(0.996264)"/>
     <use xlink:href="#CMR17-61" transform="translate(184.043191 0) scale(0.996264)"/>
     <use xlink:href="#CMR17-6e" transform="translate(229.733668 0) scale(0.996264)"/>
     <use xlink:href="#CMR17-67" transform="translate(280.629038 0) scale(0.996264)"/>
     <use xlink:href="#CMR17-6c" transform="translate(326.319515 0) scale(0.996264)"/>
     <use xlink:href="#CMR17-65" transform="translate(351.190573 0) scale(0.996264)"/>
    </g>
   </g>
  </g>
  <g id="axes_5">
   <g id="patch_10">
    <path d="M 131.625 104.055652 
C 131.625 101.307806 131.083734 98.58668 130.032179 96.048001 
C 128.980624 93.509323 127.43923 91.202463 125.496209 89.259443 
C 123.553189 87.316422 121.246329 85.775028 118.707651 84.723473 
C 116.168972 83.671918 113.447846 83.130652 110.7 83.130652 
C 107.952154 83.130652 105.231028 83.671918 102.692349 84.723473 
C 100.153671 85.775028 97.846811 87.316422 95.903791 89.259443 
C 93.96077 91.202463 92.419376 93.509323 91.367821 96.048001 
C 90.316266 98.58668 89.775 101.307806 89.775 104.055652 
C 89.775 106.803498 90.316266 109.524624 91.367821 112.063303 
C 92.419376 114.601982 93.96077 116.908841 95.903791 118.851862 
C 97.846811 120.794882 100.153671 122.336276 102.692349 123.387831 
C 105.231028 124.439386 107.952154 124.980652 110.7 124.980652 
C 113.447846 124.980652 116.168972 124.439386 118.707651 123.387831 
C 121.246329 122.336276 123.553189 120.794882 125.496209 118.851862 
C 127.43923 116.908841 128.980624 114.601982 130.032179 112.063303 
C 131.083734 109.524624 131.625 106.803498 131.625 104.055652 
M 110.7 104.055652 
C 110.7 104.055652 110.7 104.055652 110.7 104.055652 
C 110.7 104.055652 110.7 104.055652 110.7 104.055652 
C 110.7 104.055652 110.7 104.055652 110.7 104.055652 
C 110.7 104.055652 110.7 104.055652 110.7 104.055652 
C 110.7 104.055652 110.7 104.055652 110.7 104.055652 
C 110.7 104.055652 110.7 104.055652 110.7 104.055652 
C 110.7 104.055652 110.7 104.055652 110.7 104.055652 
C 110.7 104.055652 110.7 104.055652 110.7 104.055652 
C 110.7 104.055652 110.7 104.055652 110.7 104.055652 
C 110.7 104.055652 110.7 104.055652 110.7 104.055652 
C 110.7 104.055652 110.7 104.055652 110.7 104.055652 
C 110.7 104.055652 110.7 104.055652 110.7 104.055652 
C 110.7 104.055652 110.7 104.055652 110.7 104.055652 
C 110.7 104.055652 110.7 104.055652 110.7 104.055652 
C 110.7 104.055652 110.7 104.055652 110.7 104.055652 
C 110.7 104.055652 110.7 104.055652 110.7 104.055652 
M 131.625 104.055652 
L 131.625 104.055652 
z
" style="fill: none"/>
   </g>
   <g id="matplotlib.axis_9">
    <g id="xtick_33">
     <g id="line2d_45">
      <path d="M 110.7 104.055652 
L 131.625 104.055652 
" clip-path="url(#p111c0a41c3)" style="fill: none; stroke: #b0b0b0; stroke-width: 0.8; stroke-linecap: square"/>
     </g>
    </g>
    <g id="xtick_34">
     <g id="line2d_46">
      <path d="M 110.7 104.055652 
L 125.496209 89.259443 
" clip-path="url(#p111c0a41c3)" style="fill: none; stroke: #b0b0b0; stroke-width: 0.8; stroke-linecap: square"/>
     </g>
    </g>
    <g id="xtick_35">
     <g id="line2d_47">
      <path d="M 110.7 104.055652 
L 110.7 83.130652 
" clip-path="url(#p111c0a41c3)" style="fill: none; stroke: #b0b0b0; stroke-width: 0.8; stroke-linecap: square"/>
     </g>
    </g>
    <g id="xtick_36">
     <g id="line2d_48">
      <path d="M 110.7 104.055652 
L 95.903791 89.259443 
" clip-path="url(#p111c0a41c3)" style="fill: none; stroke: #b0b0b0; stroke-width: 0.8; stroke-linecap: square"/>
     </g>
    </g>
    <g id="xtick_37">
     <g id="line2d_49">
      <path d="M 110.7 104.055652 
L 89.775 104.055652 
" clip-path="url(#p111c0a41c3)" style="fill: none; stroke: #b0b0b0; stroke-width: 0.8; stroke-linecap: square"/>
     </g>
    </g>
    <g id="xtick_38">
     <g id="line2d_50">
      <path d="M 110.7 104.055652 
L 95.903791 118.851862 
" clip-path="url(#p111c0a41c3)" style="fill: none; stroke: #b0b0b0; stroke-width: 0.8; stroke-linecap: square"/>
     </g>
    </g>
    <g id="xtick_39">
     <g id="line2d_51">
      <path d="M 110.7 104.055652 
L 110.7 124.980652 
" clip-path="url(#p111c0a41c3)" style="fill: none; stroke: #b0b0b0; stroke-width: 0.8; stroke-linecap: square"/>
     </g>
    </g>
    <g id="xtick_40">
     <g id="line2d_52">
      <path d="M 110.7 104.055652 
L 125.496209 118.851862 
" clip-path="url(#p111c0a41c3)" style="fill: none; stroke: #b0b0b0; stroke-width: 0.8; stroke-linecap: square"/>
     </g>
    </g>
   </g>
   <g id="matplotlib.axis_10">
    <g id="ytick_9">
     <g id="line2d_53">
      <path d="M 114.885 104.055652 
C 114.885 103.506083 114.776747 102.961858 114.566436 102.454122 
C 114.356125 101.946386 114.047846 101.485014 113.659242 101.09641 
C 113.270638 100.707806 112.809266 100.399527 112.30153 100.189216 
C 111.793794 99.978905 111.249569 99.870652 110.7 99.870652 
C 110.150431 99.870652 109.606206 99.978905 109.09847 100.189216 
C 108.590734 100.399527 108.129362 100.707806 107.740758 101.09641 
C 107.352154 101.485014 107.043875 101.946386 106.833564 102.454122 
C 106.623253 102.961858 106.515 103.506083 106.515 104.055652 
C 106.515 104.605221 106.623253 105.149447 106.833564 105.657182 
C 107.043875 106.164918 107.352154 106.62629 107.740758 107.014894 
C 108.129362 107.403498 108.590734 107.711777 109.09847 107.922088 
C 109.606206 108.132399 110.150431 108.240652 110.7 108.240652 
C 111.249569 108.240652 111.793794 108.132399 112.30153 107.922088 
C 112.809266 107.711777 113.270638 107.403498 113.659242 107.014894 
C 114.047846 106.62629 114.356125 106.164918 114.566436 105.657182 
C 114.776747 105.149447 114.885 104.605221 114.885 104.055652 
" clip-path="url(#p111c0a41c3)" style="fill: none; stroke: #b0b0b0; stroke-width: 0.8; stroke-linecap: square"/>
     </g>
     <g id="text_13">
      <!-- $\mathdefault{0.05}$ -->
      <g transform="translate(114.566436 100.840453) scale(0.0833 -0.0833)">
       <use xlink:href="#CMR17-30" transform="scale(0.996264)"/>
       <use xlink:href="#CMMI12-3a" transform="translate(45.690477 0) scale(0.996264)"/>
       <use xlink:href="#CMR17-30" transform="translate(72.787654 0) scale(0.996264)"/>
       <use xlink:href="#CMR17-35" transform="translate(118.478131 0) scale(0.996264)"/>
      </g>
     </g>
    </g>
    <g id="ytick_10">
     <g id="line2d_54">
      <path d="M 131.625 104.055652 
C 131.625 101.307806 131.083734 98.58668 130.032179 96.048001 
C 128.980624 93.509323 127.43923 91.202463 125.496209 89.259443 
C 123.553189 87.316422 121.246329 85.775028 118.707651 84.723473 
C 116.168972 83.671918 113.447846 83.130652 110.7 83.130652 
C 107.952154 83.130652 105.231028 83.671918 102.692349 84.723473 
C 100.153671 85.775028 97.846811 87.316422 95.903791 89.259443 
C 93.96077 91.202463 92.419376 93.509323 91.367821 96.048001 
C 90.316266 98.58668 89.775 101.307806 89.775 104.055652 
C 89.775 106.803498 90.316266 109.524624 91.367821 112.063303 
C 92.419376 114.601982 93.96077 116.908841 95.903791 118.851862 
C 97.846811 120.794882 100.153671 122.336276 102.692349 123.387831 
C 105.231028 124.439386 107.952154 124.980652 110.7 124.980652 
C 113.447846 124.980652 116.168972 124.439386 118.707651 123.387831 
C 121.246329 122.336276 123.553189 120.794882 125.496209 118.851862 
C 127.43923 116.908841 128.980624 114.601982 130.032179 112.063303 
C 131.083734 109.524624 131.625 106.803498 131.625 104.055652 
" clip-path="url(#p111c0a41c3)" style="fill: none; stroke: #b0b0b0; stroke-width: 0.8; stroke-linecap: square"/>
     </g>
     <g id="text_14">
      <!-- $\mathdefault{0.25}$ -->
      <g transform="translate(130.032179 94.434332) scale(0.0833 -0.0833)">
       <use xlink:href="#CMR17-30" transform="scale(0.996264)"/>
       <use xlink:href="#CMMI12-3a" transform="translate(45.690477 0) scale(0.996264)"/>
       <use xlink:href="#CMR17-32" transform="translate(72.787654 0) scale(0.996264)"/>
       <use xlink:href="#CMR17-35" transform="translate(118.478131 0) scale(0.996264)"/>
      </g>
     </g>
    </g>
   </g>
   <g id="line2d_55">
    <path d="M 96.376106 104.510349 
L 96.942868 105.369299 
L 97.327901 106.195339 
L 97.890114 106.948892 
L 98.055028 107.768551 
L 98.56805 108.471321 
L 99.102546 109.131223 
L 99.562914 109.797219 
L 100.242005 110.316887 
L 100.470783 111.097953 
L 101.118767 111.590417 
L 101.493822 112.292183 
L 102.066267 112.827472 
L 102.462593 113.562127 
L 103.022094 114.144302 
L 103.678878 114.608753 
L 104.236135 115.251395 
L 104.862989 115.832996 
L 105.554826 116.339159 
L 106.231016 116.967933 
L 106.935011 117.673708 
L 107.744595 118.179985 
L 108.557225 118.958982 
L 109.486973 119.313848 
L 110.446458 120.033917 
L 111.451947 119.840955 
L 112.392133 119.22828 
L 113.235612 118.435821 
L 114.01669 117.727234 
L 114.833957 117.350547 
L 115.573584 116.812234 
L 116.248782 116.20579 
L 116.889644 115.608091 
L 117.396693 114.848663 
L 118.203419 114.592729 
L 118.491654 113.646389 
L 118.980242 113.020299 
L 119.747329 112.682263 
L 120.064679 111.913551 
L 120.689988 111.411125 
L 120.808445 110.551955 
L 121.740536 110.198441 
L 122.038703 109.452899 
L 122.406034 108.742041 
L 122.876804 108.0549 
L 123.360476 107.340592 
L 123.549818 106.532252 
L 123.914348 105.742056 
L 124.418033 104.927459 
L 125.035073 104.055652 
L 124.592113 103.172782 
L 124.47931 102.297148 
L 123.883293 101.514781 
L 123.150705 100.825141 
L 122.987285 100.020118 
L 122.36923 99.383997 
L 122.341769 98.514146 
L 121.687417 97.942417 
L 121.031891 97.415749 
L 120.783631 96.631232 
L 120.167932 96.111114 
L 119.666037 95.506553 
L 119.341578 94.699804 
L 118.6833 94.229018 
L 118.208018 93.512117 
L 117.650989 92.852794 
L 116.912111 92.46128 
L 116.3701 91.639865 
L 115.603767 91.220067 
L 114.824933 90.78978 
L 114.058125 90.213272 
L 113.248691 89.601305 
L 112.374118 89.044561 
L 111.43453 88.635976 
L 110.445577 88.021893 
L 109.47493 88.645967 
L 108.595965 89.42177 
L 107.748384 89.949428 
L 106.935715 90.440144 
L 106.202058 91.059704 
L 105.446082 91.512532 
L 104.78553 92.122019 
L 104.271814 92.921707 
L 103.62764 93.425537 
L 103.012491 93.954383 
L 102.594994 94.701976 
L 102.023627 95.24051 
L 101.367764 95.70634 
L 101.008661 96.434299 
L 100.609015 97.108517 
L 100.022052 97.662731 
L 99.57466 98.320141 
L 99.207868 99.026175 
L 98.807708 99.727212 
L 98.152658 100.37142 
L 97.504709 101.075364 
L 97.474044 101.93935 
L 96.794221 102.727811 
L 96.492335 103.604645 
" clip-path="url(#p111c0a41c3)" style="fill: none; stroke: #348abd; stroke-opacity: 0.75; stroke-width: 2; stroke-linecap: square"/>
   </g>
   <g id="patch_11">
    <path d="M 131.625 104.055652 
C 131.625 101.307806 131.083734 98.58668 130.032179 96.048001 
C 128.980624 93.509323 127.43923 91.202463 125.496209 89.259443 
C 123.553189 87.316422 121.246329 85.775028 118.707651 84.723473 
C 116.168972 83.671918 113.447846 83.130652 110.7 83.130652 
C 107.952154 83.130652 105.231028 83.671918 102.692349 84.723473 
C 100.153671 85.775028 97.846811 87.316422 95.903791 89.259443 
C 93.96077 91.202463 92.419376 93.509323 91.367821 96.048001 
C 90.316266 98.58668 89.775 101.307806 89.775 104.055652 
C 89.775 106.803498 90.316266 109.524624 91.367821 112.063303 
C 92.419376 114.601982 93.96077 116.908841 95.903791 118.851862 
C 97.846811 120.794882 100.153671 122.336276 102.692349 123.387831 
C 105.231028 124.439386 107.952154 124.980652 110.7 124.980652 
C 113.447846 124.980652 116.168972 124.439386 118.707651 123.387831 
C 121.246329 122.336276 123.553189 120.794882 125.496209 118.851862 
C 127.43923 116.908841 128.980624 114.601982 130.032179 112.063303 
C 131.083734 109.524624 131.625 106.803498 131.625 104.055652 
" style="fill: none; stroke: #000000; stroke-width: 0.8; stroke-linejoin: miter; stroke-linecap: square"/>
   </g>
   <g id="text_15">
    <!-- Walled Square -->
    <g transform="translate(81.632824 81.38719) scale(0.09 -0.09)">
     <defs>
      <path id="CMR17-57" d="M 5523 3775 
C 5581 3948 5677 4173 6048 4185 
L 6048 4352 
C 5939 4345 5715 4339 5600 4339 
C 5440 4339 5158 4339 5005 4352 
L 5005 4185 
C 5293 4179 5414 4019 5414 3865 
C 5414 3820 5408 3794 5382 3724 
L 4390 557 
L 3347 3890 
C 3328 3955 3322 3980 3322 4006 
C 3322 4185 3603 4185 3725 4185 
L 3725 4352 
C 3539 4339 3219 4339 3021 4339 
C 2861 4339 2573 4339 2426 4352 
L 2426 4185 
C 2720 4185 2797 4166 2861 4051 
C 2886 3993 2989 3660 2989 3640 
C 2989 3615 2976 3576 2970 3557 
L 2029 564 
L 986 3890 
C 954 3980 954 3993 954 4006 
C 954 4185 1235 4185 1363 4185 
L 1363 4352 
C 1178 4339 858 4339 659 4339 
C 493 4339 211 4339 58 4352 
L 58 4185 
C 442 4185 467 4147 531 3942 
L 1779 -20 
C 1811 -116 1811 -128 1869 -128 
C 1920 -128 1939 -116 1965 -26 
L 3053 3448 
L 4141 -26 
C 4166 -116 4186 -128 4237 -128 
C 4294 -128 4294 -116 4326 -20 
L 5523 3775 
z
" transform="scale(0.015625)"/>
      <path id="CMR17-64" d="M 1869 4345 
L 1869 4179 
C 2246 4179 2304 4141 2304 3843 
L 2304 2371 
C 2278 2403 2016 2816 1498 2816 
C 845 2816 211 2228 211 1376 
C 211 529 806 -64 1434 -64 
C 1978 -64 2259 361 2291 406 
L 2291 -64 
L 3066 -13 
L 3066 154 
C 2688 154 2630 193 2630 503 
L 2630 4416 
L 1869 4345 
z
M 2291 762 
C 2291 568 2176 393 2029 264 
C 1811 70 1594 38 1472 38 
C 1286 38 621 135 621 1369 
C 621 2636 1363 2713 1530 2713 
C 1824 2713 2061 2545 2208 2313 
C 2291 2177 2291 2157 2291 2041 
L 2291 762 
z
" transform="scale(0.015625)"/>
     </defs>
     <use xlink:href="#CMR17-57" transform="scale(0.996264)"/>
     <use xlink:href="#CMR17-61" transform="translate(87.289395 0) scale(0.996264)"/>
     <use xlink:href="#CMR17-6c" transform="translate(132.979872 0) scale(0.996264)"/>
     <use xlink:href="#CMR17-6c" transform="translate(157.85093 0) scale(0.996264)"/>
     <use xlink:href="#CMR17-65" transform="translate(182.721989 0) scale(0.996264)"/>
     <use xlink:href="#CMR17-64" transform="translate(223.207649 0) scale(0.996264)"/>
     <use xlink:href="#CMR17-53" transform="translate(304.178985 0) scale(0.996264)"/>
     <use xlink:href="#CMR17-71" transform="translate(355.074355 0) scale(0.996264)"/>
     <use xlink:href="#CMR17-75" transform="translate(403.367271 0) scale(0.996264)"/>
     <use xlink:href="#CMR17-61" transform="translate(454.262641 0) scale(0.996264)"/>
     <use xlink:href="#CMR17-72" transform="translate(499.953118 0) scale(0.996264)"/>
     <use xlink:href="#CMR17-65" transform="translate(535.233886 0) scale(0.996264)"/>
    </g>
   </g>
  </g>
  <g id="axes_6">
   <g id="patch_12">
    <path d="M 194.4 104.055652 
C 194.4 101.307806 193.858734 98.58668 192.807179 96.048001 
C 191.755624 93.509323 190.21423 91.202463 188.271209 89.259443 
C 186.328189 87.316422 184.021329 85.775028 181.482651 84.723473 
C 178.943972 83.671918 176.222846 83.130652 173.475 83.130652 
C 170.727154 83.130652 168.006028 83.671918 165.467349 84.723473 
C 162.928671 85.775028 160.621811 87.316422 158.678791 89.259443 
C 156.73577 91.202463 155.194376 93.509323 154.142821 96.048001 
C 153.091266 98.58668 152.55 101.307806 152.55 104.055652 
C 152.55 106.803498 153.091266 109.524624 154.142821 112.063303 
C 155.194376 114.601982 156.73577 116.908841 158.678791 118.851862 
C 160.621811 120.794882 162.928671 122.336276 165.467349 123.387831 
C 168.006028 124.439386 170.727154 124.980652 173.475 124.980652 
C 176.222846 124.980652 178.943972 124.439386 181.482651 123.387831 
C 184.021329 122.336276 186.328189 120.794882 188.271209 118.851862 
C 190.21423 116.908841 191.755624 114.601982 192.807179 112.063303 
C 193.858734 109.524624 194.4 106.803498 194.4 104.055652 
M 173.475 104.055652 
C 173.475 104.055652 173.475 104.055652 173.475 104.055652 
C 173.475 104.055652 173.475 104.055652 173.475 104.055652 
C 173.475 104.055652 173.475 104.055652 173.475 104.055652 
C 173.475 104.055652 173.475 104.055652 173.475 104.055652 
C 173.475 104.055652 173.475 104.055652 173.475 104.055652 
C 173.475 104.055652 173.475 104.055652 173.475 104.055652 
C 173.475 104.055652 173.475 104.055652 173.475 104.055652 
C 173.475 104.055652 173.475 104.055652 173.475 104.055652 
C 173.475 104.055652 173.475 104.055652 173.475 104.055652 
C 173.475 104.055652 173.475 104.055652 173.475 104.055652 
C 173.475 104.055652 173.475 104.055652 173.475 104.055652 
C 173.475 104.055652 173.475 104.055652 173.475 104.055652 
C 173.475 104.055652 173.475 104.055652 173.475 104.055652 
C 173.475 104.055652 173.475 104.055652 173.475 104.055652 
C 173.475 104.055652 173.475 104.055652 173.475 104.055652 
C 173.475 104.055652 173.475 104.055652 173.475 104.055652 
M 194.4 104.055652 
L 194.4 104.055652 
z
" style="fill: none"/>
   </g>
   <g id="matplotlib.axis_11">
    <g id="xtick_41">
     <g id="line2d_56">
      <path d="M 173.475 104.055652 
L 194.4 104.055652 
" clip-path="url(#p6063e5c2db)" style="fill: none; stroke: #b0b0b0; stroke-width: 0.8; stroke-linecap: square"/>
     </g>
    </g>
    <g id="xtick_42">
     <g id="line2d_57">
      <path d="M 173.475 104.055652 
L 188.271209 89.259443 
" clip-path="url(#p6063e5c2db)" style="fill: none; stroke: #b0b0b0; stroke-width: 0.8; stroke-linecap: square"/>
     </g>
    </g>
    <g id="xtick_43">
     <g id="line2d_58">
      <path d="M 173.475 104.055652 
L 173.475 83.130652 
" clip-path="url(#p6063e5c2db)" style="fill: none; stroke: #b0b0b0; stroke-width: 0.8; stroke-linecap: square"/>
     </g>
    </g>
    <g id="xtick_44">
     <g id="line2d_59">
      <path d="M 173.475 104.055652 
L 158.678791 89.259443 
" clip-path="url(#p6063e5c2db)" style="fill: none; stroke: #b0b0b0; stroke-width: 0.8; stroke-linecap: square"/>
     </g>
    </g>
    <g id="xtick_45">
     <g id="line2d_60">
      <path d="M 173.475 104.055652 
L 152.55 104.055652 
" clip-path="url(#p6063e5c2db)" style="fill: none; stroke: #b0b0b0; stroke-width: 0.8; stroke-linecap: square"/>
     </g>
    </g>
    <g id="xtick_46">
     <g id="line2d_61">
      <path d="M 173.475 104.055652 
L 158.678791 118.851862 
" clip-path="url(#p6063e5c2db)" style="fill: none; stroke: #b0b0b0; stroke-width: 0.8; stroke-linecap: square"/>
     </g>
    </g>
    <g id="xtick_47">
     <g id="line2d_62">
      <path d="M 173.475 104.055652 
L 173.475 124.980652 
" clip-path="url(#p6063e5c2db)" style="fill: none; stroke: #b0b0b0; stroke-width: 0.8; stroke-linecap: square"/>
     </g>
    </g>
    <g id="xtick_48">
     <g id="line2d_63">
      <path d="M 173.475 104.055652 
L 188.271209 118.851862 
" clip-path="url(#p6063e5c2db)" style="fill: none; stroke: #b0b0b0; stroke-width: 0.8; stroke-linecap: square"/>
     </g>
    </g>
   </g>
   <g id="matplotlib.axis_12">
    <g id="ytick_11">
     <g id="line2d_64">
      <path d="M 177.66 104.055652 
C 177.66 103.506083 177.551747 102.961858 177.341436 102.454122 
C 177.131125 101.946386 176.822846 101.485014 176.434242 101.09641 
C 176.045638 100.707806 175.584266 100.399527 175.07653 100.189216 
C 174.568794 99.978905 174.024569 99.870652 173.475 99.870652 
C 172.925431 99.870652 172.381206 99.978905 171.87347 100.189216 
C 171.365734 100.399527 170.904362 100.707806 170.515758 101.09641 
C 170.127154 101.485014 169.818875 101.946386 169.608564 102.454122 
C 169.398253 102.961858 169.29 103.506083 169.29 104.055652 
C 169.29 104.605221 169.398253 105.149447 169.608564 105.657182 
C 169.818875 106.164918 170.127154 106.62629 170.515758 107.014894 
C 170.904362 107.403498 171.365734 107.711777 171.87347 107.922088 
C 172.381206 108.132399 172.925431 108.240652 173.475 108.240652 
C 174.024569 108.240652 174.568794 108.132399 175.07653 107.922088 
C 175.584266 107.711777 176.045638 107.403498 176.434242 107.014894 
C 176.822846 106.62629 177.131125 106.164918 177.341436 105.657182 
C 177.551747 105.149447 177.66 104.605221 177.66 104.055652 
" clip-path="url(#p6063e5c2db)" style="fill: none; stroke: #b0b0b0; stroke-width: 0.8; stroke-linecap: square"/>
     </g>
     <g id="text_16">
      <!-- $\mathdefault{0.05}$ -->
      <g transform="translate(177.341436 100.840453) scale(0.0833 -0.0833)">
       <use xlink:href="#CMR17-30" transform="scale(0.996264)"/>
       <use xlink:href="#CMMI12-3a" transform="translate(45.690477 0) scale(0.996264)"/>
       <use xlink:href="#CMR17-30" transform="translate(72.787654 0) scale(0.996264)"/>
       <use xlink:href="#CMR17-35" transform="translate(118.478131 0) scale(0.996264)"/>
      </g>
     </g>
    </g>
    <g id="ytick_12">
     <g id="line2d_65">
      <path d="M 194.4 104.055652 
C 194.4 101.307806 193.858734 98.58668 192.807179 96.048001 
C 191.755624 93.509323 190.21423 91.202463 188.271209 89.259443 
C 186.328189 87.316422 184.021329 85.775028 181.482651 84.723473 
C 178.943972 83.671918 176.222846 83.130652 173.475 83.130652 
C 170.727154 83.130652 168.006028 83.671918 165.467349 84.723473 
C 162.928671 85.775028 160.621811 87.316422 158.678791 89.259443 
C 156.73577 91.202463 155.194376 93.509323 154.142821 96.048001 
C 153.091266 98.58668 152.55 101.307806 152.55 104.055652 
C 152.55 106.803498 153.091266 109.524624 154.142821 112.063303 
C 155.194376 114.601982 156.73577 116.908841 158.678791 118.851862 
C 160.621811 120.794882 162.928671 122.336276 165.467349 123.387831 
C 168.006028 124.439386 170.727154 124.980652 173.475 124.980652 
C 176.222846 124.980652 178.943972 124.439386 181.482651 123.387831 
C 184.021329 122.336276 186.328189 120.794882 188.271209 118.851862 
C 190.21423 116.908841 191.755624 114.601982 192.807179 112.063303 
C 193.858734 109.524624 194.4 106.803498 194.4 104.055652 
" clip-path="url(#p6063e5c2db)" style="fill: none; stroke: #b0b0b0; stroke-width: 0.8; stroke-linecap: square"/>
     </g>
     <g id="text_17">
      <!-- $\mathdefault{0.25}$ -->
      <g transform="translate(192.807179 94.434332) scale(0.0833 -0.0833)">
       <use xlink:href="#CMR17-30" transform="scale(0.996264)"/>
       <use xlink:href="#CMMI12-3a" transform="translate(45.690477 0) scale(0.996264)"/>
       <use xlink:href="#CMR17-32" transform="translate(72.787654 0) scale(0.996264)"/>
       <use xlink:href="#CMR17-35" transform="translate(118.478131 0) scale(0.996264)"/>
      </g>
     </g>
    </g>
   </g>
   <g id="line2d_66">
    <path d="M 157.675791 104.557181 
L 158.462915 105.489133 
L 159.309552 106.322284 
L 159.93813 107.113089 
L 160.396399 107.895876 
L 161.176654 108.531884 
L 161.833965 109.150296 
L 162.327343 109.802669 
L 162.849205 110.417349 
L 163.370954 111.011779 
L 163.753538 111.700694 
L 164.544574 112.045475 
L 165.082278 112.582607 
L 165.601912 113.141681 
L 166.115607 113.725782 
L 166.760576 114.14777 
L 167.305818 114.740989 
L 167.831637 115.442273 
L 168.430912 116.097828 
L 169.12055 116.637009 
L 169.90157 116.980833 
L 170.608907 117.75315 
L 171.402936 118.467175 
L 172.254433 119.408693 
L 173.225043 119.807978 
L 174.218521 119.664082 
L 175.136521 118.953799 
L 175.961276 118.156026 
L 176.655857 117.167323 
L 177.408067 116.704478 
L 178.148151 116.287602 
L 178.749856 115.605976 
L 179.410643 115.13402 
L 179.941085 114.476994 
L 180.536906 113.972711 
L 181.025847 113.34998 
L 181.748069 113.012533 
L 182.218201 112.392277 
L 182.602803 111.714789 
L 183.268126 111.266178 
L 183.85914 110.729133 
L 184.211837 110.029468 
L 185.053531 109.567057 
L 185.7061 108.952246 
L 186.056065 108.187673 
L 186.671417 107.479649 
L 187.521176 106.762831 
L 187.949044 105.902818 
L 189.126376 105.050326 
L 189.66803 104.055652 
L 188.812504 103.080925 
L 188.300343 102.163654 
L 187.41218 101.369481 
L 186.900374 100.572249 
L 186.332269 99.832918 
L 185.474237 99.251882 
L 184.928248 98.603882 
L 184.479738 97.93278 
L 183.870256 97.375027 
L 183.333037 96.797333 
L 182.631148 96.372732 
L 182.266976 95.67252 
L 181.633302 95.223024 
L 181.15 94.608504 
L 180.566033 94.097689 
L 179.960592 93.60287 
L 179.323896 93.139191 
L 178.725702 92.558218 
L 178.138719 91.848391 
L 177.54461 90.967701 
L 176.722216 90.670447 
L 175.97688 89.866785 
L 175.161274 88.935556 
L 174.20953 88.635976 
L 173.223973 88.235941 
L 172.269932 88.89757 
L 171.410834 89.699065 
L 170.556402 90.107227 
L 169.839243 90.905032 
L 169.139999 91.53049 
L 168.443676 92.043948 
L 167.823422 92.652455 
L 167.294585 93.35086 
L 166.672007 93.83041 
L 166.052384 94.302449 
L 165.661622 95.038533 
L 164.99607 95.441111 
L 164.246171 95.798856 
L 163.711989 96.377936 
L 163.292586 97.045573 
L 162.739229 97.628112 
L 162.110052 98.196614 
L 161.487736 98.809483 
L 161.148094 99.569025 
L 160.462331 100.234788 
L 159.819543 100.971431 
L 159.211689 101.773361 
L 158.564206 102.631844 
L 157.793341 103.557855 
" clip-path="url(#p6063e5c2db)" style="fill: none; stroke: #348abd; stroke-opacity: 0.75; stroke-width: 2; stroke-linecap: square"/>
   </g>
   <g id="patch_13">
    <path d="M 194.4 104.055652 
C 194.4 101.307806 193.858734 98.58668 192.807179 96.048001 
C 191.755624 93.509323 190.21423 91.202463 188.271209 89.259443 
C 186.328189 87.316422 184.021329 85.775028 181.482651 84.723473 
C 178.943972 83.671918 176.222846 83.130652 173.475 83.130652 
C 170.727154 83.130652 168.006028 83.671918 165.467349 84.723473 
C 162.928671 85.775028 160.621811 87.316422 158.678791 89.259443 
C 156.73577 91.202463 155.194376 93.509323 154.142821 96.048001 
C 153.091266 98.58668 152.55 101.307806 152.55 104.055652 
C 152.55 106.803498 153.091266 109.524624 154.142821 112.063303 
C 155.194376 114.601982 156.73577 116.908841 158.678791 118.851862 
C 160.621811 120.794882 162.928671 122.336276 165.467349 123.387831 
C 168.006028 124.439386 170.727154 124.980652 173.475 124.980652 
C 176.222846 124.980652 178.943972 124.439386 181.482651 123.387831 
C 184.021329 122.336276 186.328189 120.794882 188.271209 118.851862 
C 190.21423 116.908841 191.755624 114.601982 192.807179 112.063303 
C 193.858734 109.524624 194.4 106.803498 194.4 104.055652 
" style="fill: none; stroke: #000000; stroke-width: 0.8; stroke-linejoin: miter; stroke-linecap: square"/>
   </g>
   <g id="text_18">
    <!-- Square Toroid -->
    <g transform="translate(145.038432 81.38719) scale(0.09 -0.09)">
     <defs>
      <path id="CMR17-54" d="M 3981 4332 
L 288 4332 
L 179 2924 
L 294 2924 
C 378 3981 467 4166 1453 4166 
C 1568 4166 1754 4166 1805 4159 
C 1926 4140 1926 4064 1926 3917 
L 1926 465 
C 1926 236 1907 166 1376 166 
L 1197 166 
L 1197 0 
C 1504 6 1824 12 2138 12 
C 2451 12 2771 6 3078 0 
L 3078 166 
L 2899 166 
C 2368 166 2349 236 2349 465 
L 2349 3917 
C 2349 4057 2349 4134 2464 4159 
C 2515 4166 2701 4166 2816 4166 
C 3795 4166 3891 3981 3974 2924 
L 4090 2924 
L 3981 4332 
z
" transform="scale(0.015625)"/>
      <path id="CMR17-6f" d="M 2758 1356 
C 2758 2176 2163 2816 1466 2816 
C 768 2816 173 2176 173 1356 
C 173 550 768 -64 1466 -64 
C 2163 -64 2758 550 2758 1356 
z
M 1466 51 
C 1165 51 909 230 762 480 
C 602 768 582 1126 582 1408 
C 582 1676 595 2009 762 2297 
C 890 2508 1139 2713 1466 2713 
C 1754 2713 1997 2553 2150 2329 
C 2349 2028 2349 1606 2349 1408 
C 2349 1158 2336 774 2163 467 
C 1984 172 1709 51 1466 51 
z
" transform="scale(0.015625)"/>
     </defs>
     <use xlink:href="#CMR17-53" transform="scale(0.996264)"/>
     <use xlink:href="#CMR17-71" transform="translate(50.89537 0) scale(0.996264)"/>
     <use xlink:href="#CMR17-75" transform="translate(99.188286 0) scale(0.996264)"/>
     <use xlink:href="#CMR17-61" transform="translate(150.083655 0) scale(0.996264)"/>
     <use xlink:href="#CMR17-72" transform="translate(195.774133 0) scale(0.996264)"/>
     <use xlink:href="#CMR17-65" transform="translate(231.0549 0) scale(0.996264)"/>
     <use xlink:href="#CMR17-54" transform="translate(301.616527 0) scale(0.996264)"/>
     <use xlink:href="#CMR17-6f" transform="translate(360.319152 0) scale(0.996264)"/>
     <use xlink:href="#CMR17-72" transform="translate(406.009629 0) scale(0.996264)"/>
     <use xlink:href="#CMR17-6f" transform="translate(441.290397 0) scale(0.996264)"/>
     <use xlink:href="#CMR17-69" transform="translate(486.980874 0) scale(0.996264)"/>
     <use xlink:href="#CMR17-64" transform="translate(511.851933 0) scale(0.996264)"/>
    </g>
   </g>
  </g>
 </g>
 <defs>
  <clipPath id="pb00d6fe713">
   <path d="M 68.85 41.384348 
C 68.85 38.636502 68.308734 35.915376 67.257179 33.376697 
C 66.205624 30.838018 64.66423 28.531159 62.721209 26.588138 
C 60.778189 24.645118 58.471329 23.103724 55.932651 22.052169 
C 53.393972 21.000614 50.672846 20.459348 47.925 20.459348 
C 45.177154 20.459348 42.456028 21.000614 39.917349 22.052169 
C 37.378671 23.103724 35.071811 24.645118 33.128791 26.588138 
C 31.18577 28.531159 29.644376 30.838018 28.592821 33.376697 
C 27.541266 35.915376 27 38.636502 27 41.384348 
C 27 44.132194 27.541266 46.85332 28.592821 49.391999 
C 29.644376 51.930677 31.18577 54.237537 33.128791 56.180557 
C 35.071811 58.123578 37.378671 59.664972 39.917349 60.716527 
C 42.456028 61.768082 45.177154 62.309348 47.925 62.309348 
C 50.672846 62.309348 53.393972 61.768082 55.932651 60.716527 
C 58.471329 59.664972 60.778189 58.123578 62.721209 56.180557 
C 64.66423 54.237537 66.205624 51.930677 67.257179 49.391999 
C 68.308734 46.85332 68.85 44.132194 68.85 41.384348 
M 47.925 41.384348 
C 47.925 41.384348 47.925 41.384348 47.925 41.384348 
C 47.925 41.384348 47.925 41.384348 47.925 41.384348 
C 47.925 41.384348 47.925 41.384348 47.925 41.384348 
C 47.925 41.384348 47.925 41.384348 47.925 41.384348 
C 47.925 41.384348 47.925 41.384348 47.925 41.384348 
C 47.925 41.384348 47.925 41.384348 47.925 41.384348 
C 47.925 41.384348 47.925 41.384348 47.925 41.384348 
C 47.925 41.384348 47.925 41.384348 47.925 41.384348 
C 47.925 41.384348 47.925 41.384348 47.925 41.384348 
C 47.925 41.384348 47.925 41.384348 47.925 41.384348 
C 47.925 41.384348 47.925 41.384348 47.925 41.384348 
C 47.925 41.384348 47.925 41.384348 47.925 41.384348 
C 47.925 41.384348 47.925 41.384348 47.925 41.384348 
C 47.925 41.384348 47.925 41.384348 47.925 41.384348 
C 47.925 41.384348 47.925 41.384348 47.925 41.384348 
C 47.925 41.384348 47.925 41.384348 47.925 41.384348 
M 68.85 41.384348 
z
"/>
  </clipPath>
  <clipPath id="p42e998e866">
   <path d="M 131.625 41.384348 
C 131.625 38.636502 131.083734 35.915376 130.032179 33.376697 
C 128.980624 30.838018 127.43923 28.531159 125.496209 26.588138 
C 123.553189 24.645118 121.246329 23.103724 118.707651 22.052169 
C 116.168972 21.000614 113.447846 20.459348 110.7 20.459348 
C 107.952154 20.459348 105.231028 21.000614 102.692349 22.052169 
C 100.153671 23.103724 97.846811 24.645118 95.903791 26.588138 
C 93.96077 28.531159 92.419376 30.838018 91.367821 33.376697 
C 90.316266 35.915376 89.775 38.636502 89.775 41.384348 
C 89.775 44.132194 90.316266 46.85332 91.367821 49.391999 
C 92.419376 51.930677 93.96077 54.237537 95.903791 56.180557 
C 97.846811 58.123578 100.153671 59.664972 102.692349 60.716527 
C 105.231028 61.768082 107.952154 62.309348 110.7 62.309348 
C 113.447846 62.309348 116.168972 61.768082 118.707651 60.716527 
C 121.246329 59.664972 123.553189 58.123578 125.496209 56.180557 
C 127.43923 54.237537 128.980624 51.930677 130.032179 49.391999 
C 131.083734 46.85332 131.625 44.132194 131.625 41.384348 
M 110.7 41.384348 
C 110.7 41.384348 110.7 41.384348 110.7 41.384348 
C 110.7 41.384348 110.7 41.384348 110.7 41.384348 
C 110.7 41.384348 110.7 41.384348 110.7 41.384348 
C 110.7 41.384348 110.7 41.384348 110.7 41.384348 
C 110.7 41.384348 110.7 41.384348 110.7 41.384348 
C 110.7 41.384348 110.7 41.384348 110.7 41.384348 
C 110.7 41.384348 110.7 41.384348 110.7 41.384348 
C 110.7 41.384348 110.7 41.384348 110.7 41.384348 
C 110.7 41.384348 110.7 41.384348 110.7 41.384348 
C 110.7 41.384348 110.7 41.384348 110.7 41.384348 
C 110.7 41.384348 110.7 41.384348 110.7 41.384348 
C 110.7 41.384348 110.7 41.384348 110.7 41.384348 
C 110.7 41.384348 110.7 41.384348 110.7 41.384348 
C 110.7 41.384348 110.7 41.384348 110.7 41.384348 
C 110.7 41.384348 110.7 41.384348 110.7 41.384348 
C 110.7 41.384348 110.7 41.384348 110.7 41.384348 
M 131.625 41.384348 
z
"/>
  </clipPath>
  <clipPath id="pccbd14a41b">
   <path d="M 194.4 41.384348 
C 194.4 38.636502 193.858734 35.915376 192.807179 33.376697 
C 191.755624 30.838018 190.21423 28.531159 188.271209 26.588138 
C 186.328189 24.645118 184.021329 23.103724 181.482651 22.052169 
C 178.943972 21.000614 176.222846 20.459348 173.475 20.459348 
C 170.727154 20.459348 168.006028 21.000614 165.467349 22.052169 
C 162.928671 23.103724 160.621811 24.645118 158.678791 26.588138 
C 156.73577 28.531159 155.194376 30.838018 154.142821 33.376697 
C 153.091266 35.915376 152.55 38.636502 152.55 41.384348 
C 152.55 44.132194 153.091266 46.85332 154.142821 49.391999 
C 155.194376 51.930677 156.73577 54.237537 158.678791 56.180557 
C 160.621811 58.123578 162.928671 59.664972 165.467349 60.716527 
C 168.006028 61.768082 170.727154 62.309348 173.475 62.309348 
C 176.222846 62.309348 178.943972 61.768082 181.482651 60.716527 
C 184.021329 59.664972 186.328189 58.123578 188.271209 56.180557 
C 190.21423 54.237537 191.755624 51.930677 192.807179 49.391999 
C 193.858734 46.85332 194.4 44.132194 194.4 41.384348 
M 173.475 41.384348 
C 173.475 41.384348 173.475 41.384348 173.475 41.384348 
C 173.475 41.384348 173.475 41.384348 173.475 41.384348 
C 173.475 41.384348 173.475 41.384348 173.475 41.384348 
C 173.475 41.384348 173.475 41.384348 173.475 41.384348 
C 173.475 41.384348 173.475 41.384348 173.475 41.384348 
C 173.475 41.384348 173.475 41.384348 173.475 41.384348 
C 173.475 41.384348 173.475 41.384348 173.475 41.384348 
C 173.475 41.384348 173.475 41.384348 173.475 41.384348 
C 173.475 41.384348 173.475 41.384348 173.475 41.384348 
C 173.475 41.384348 173.475 41.384348 173.475 41.384348 
C 173.475 41.384348 173.475 41.384348 173.475 41.384348 
C 173.475 41.384348 173.475 41.384348 173.475 41.384348 
C 173.475 41.384348 173.475 41.384348 173.475 41.384348 
C 173.475 41.384348 173.475 41.384348 173.475 41.384348 
C 173.475 41.384348 173.475 41.384348 173.475 41.384348 
C 173.475 41.384348 173.475 41.384348 173.475 41.384348 
M 194.4 41.384348 
z
"/>
  </clipPath>
  <clipPath id="p4f80ca59f2">
   <path d="M 68.85 104.055652 
C 68.85 101.307806 68.308734 98.58668 67.257179 96.048001 
C 66.205624 93.509323 64.66423 91.202463 62.721209 89.259443 
C 60.778189 87.316422 58.471329 85.775028 55.932651 84.723473 
C 53.393972 83.671918 50.672846 83.130652 47.925 83.130652 
C 45.177154 83.130652 42.456028 83.671918 39.917349 84.723473 
C 37.378671 85.775028 35.071811 87.316422 33.128791 89.259443 
C 31.18577 91.202463 29.644376 93.509323 28.592821 96.048001 
C 27.541266 98.58668 27 101.307806 27 104.055652 
C 27 106.803498 27.541266 109.524624 28.592821 112.063303 
C 29.644376 114.601982 31.18577 116.908841 33.128791 118.851862 
C 35.071811 120.794882 37.378671 122.336276 39.917349 123.387831 
C 42.456028 124.439386 45.177154 124.980652 47.925 124.980652 
C 50.672846 124.980652 53.393972 124.439386 55.932651 123.387831 
C 58.471329 122.336276 60.778189 120.794882 62.721209 118.851862 
C 64.66423 116.908841 66.205624 114.601982 67.257179 112.063303 
C 68.308734 109.524624 68.85 106.803498 68.85 104.055652 
M 47.925 104.055652 
C 47.925 104.055652 47.925 104.055652 47.925 104.055652 
C 47.925 104.055652 47.925 104.055652 47.925 104.055652 
C 47.925 104.055652 47.925 104.055652 47.925 104.055652 
C 47.925 104.055652 47.925 104.055652 47.925 104.055652 
C 47.925 104.055652 47.925 104.055652 47.925 104.055652 
C 47.925 104.055652 47.925 104.055652 47.925 104.055652 
C 47.925 104.055652 47.925 104.055652 47.925 104.055652 
C 47.925 104.055652 47.925 104.055652 47.925 104.055652 
C 47.925 104.055652 47.925 104.055652 47.925 104.055652 
C 47.925 104.055652 47.925 104.055652 47.925 104.055652 
C 47.925 104.055652 47.925 104.055652 47.925 104.055652 
C 47.925 104.055652 47.925 104.055652 47.925 104.055652 
C 47.925 104.055652 47.925 104.055652 47.925 104.055652 
C 47.925 104.055652 47.925 104.055652 47.925 104.055652 
C 47.925 104.055652 47.925 104.055652 47.925 104.055652 
C 47.925 104.055652 47.925 104.055652 47.925 104.055652 
M 68.85 104.055652 
z
"/>
  </clipPath>
  <clipPath id="p111c0a41c3">
   <path d="M 131.625 104.055652 
C 131.625 101.307806 131.083734 98.58668 130.032179 96.048001 
C 128.980624 93.509323 127.43923 91.202463 125.496209 89.259443 
C 123.553189 87.316422 121.246329 85.775028 118.707651 84.723473 
C 116.168972 83.671918 113.447846 83.130652 110.7 83.130652 
C 107.952154 83.130652 105.231028 83.671918 102.692349 84.723473 
C 100.153671 85.775028 97.846811 87.316422 95.903791 89.259443 
C 93.96077 91.202463 92.419376 93.509323 91.367821 96.048001 
C 90.316266 98.58668 89.775 101.307806 89.775 104.055652 
C 89.775 106.803498 90.316266 109.524624 91.367821 112.063303 
C 92.419376 114.601982 93.96077 116.908841 95.903791 118.851862 
C 97.846811 120.794882 100.153671 122.336276 102.692349 123.387831 
C 105.231028 124.439386 107.952154 124.980652 110.7 124.980652 
C 113.447846 124.980652 116.168972 124.439386 118.707651 123.387831 
C 121.246329 122.336276 123.553189 120.794882 125.496209 118.851862 
C 127.43923 116.908841 128.980624 114.601982 130.032179 112.063303 
C 131.083734 109.524624 131.625 106.803498 131.625 104.055652 
M 110.7 104.055652 
C 110.7 104.055652 110.7 104.055652 110.7 104.055652 
C 110.7 104.055652 110.7 104.055652 110.7 104.055652 
C 110.7 104.055652 110.7 104.055652 110.7 104.055652 
C 110.7 104.055652 110.7 104.055652 110.7 104.055652 
C 110.7 104.055652 110.7 104.055652 110.7 104.055652 
C 110.7 104.055652 110.7 104.055652 110.7 104.055652 
C 110.7 104.055652 110.7 104.055652 110.7 104.055652 
C 110.7 104.055652 110.7 104.055652 110.7 104.055652 
C 110.7 104.055652 110.7 104.055652 110.7 104.055652 
C 110.7 104.055652 110.7 104.055652 110.7 104.055652 
C 110.7 104.055652 110.7 104.055652 110.7 104.055652 
C 110.7 104.055652 110.7 104.055652 110.7 104.055652 
C 110.7 104.055652 110.7 104.055652 110.7 104.055652 
C 110.7 104.055652 110.7 104.055652 110.7 104.055652 
C 110.7 104.055652 110.7 104.055652 110.7 104.055652 
C 110.7 104.055652 110.7 104.055652 110.7 104.055652 
M 131.625 104.055652 
z
"/>
  </clipPath>
  <clipPath id="p6063e5c2db">
   <path d="M 194.4 104.055652 
C 194.4 101.307806 193.858734 98.58668 192.807179 96.048001 
C 191.755624 93.509323 190.21423 91.202463 188.271209 89.259443 
C 186.328189 87.316422 184.021329 85.775028 181.482651 84.723473 
C 178.943972 83.671918 176.222846 83.130652 173.475 83.130652 
C 170.727154 83.130652 168.006028 83.671918 165.467349 84.723473 
C 162.928671 85.775028 160.621811 87.316422 158.678791 89.259443 
C 156.73577 91.202463 155.194376 93.509323 154.142821 96.048001 
C 153.091266 98.58668 152.55 101.307806 152.55 104.055652 
C 152.55 106.803498 153.091266 109.524624 154.142821 112.063303 
C 155.194376 114.601982 156.73577 116.908841 158.678791 118.851862 
C 160.621811 120.794882 162.928671 122.336276 165.467349 123.387831 
C 168.006028 124.439386 170.727154 124.980652 173.475 124.980652 
C 176.222846 124.980652 178.943972 124.439386 181.482651 123.387831 
C 184.021329 122.336276 186.328189 120.794882 188.271209 118.851862 
C 190.21423 116.908841 191.755624 114.601982 192.807179 112.063303 
C 193.858734 109.524624 194.4 106.803498 194.4 104.055652 
M 173.475 104.055652 
C 173.475 104.055652 173.475 104.055652 173.475 104.055652 
C 173.475 104.055652 173.475 104.055652 173.475 104.055652 
C 173.475 104.055652 173.475 104.055652 173.475 104.055652 
C 173.475 104.055652 173.475 104.055652 173.475 104.055652 
C 173.475 104.055652 173.475 104.055652 173.475 104.055652 
C 173.475 104.055652 173.475 104.055652 173.475 104.055652 
C 173.475 104.055652 173.475 104.055652 173.475 104.055652 
C 173.475 104.055652 173.475 104.055652 173.475 104.055652 
C 173.475 104.055652 173.475 104.055652 173.475 104.055652 
C 173.475 104.055652 173.475 104.055652 173.475 104.055652 
C 173.475 104.055652 173.475 104.055652 173.475 104.055652 
C 173.475 104.055652 173.475 104.055652 173.475 104.055652 
C 173.475 104.055652 173.475 104.055652 173.475 104.055652 
C 173.475 104.055652 173.475 104.055652 173.475 104.055652 
C 173.475 104.055652 173.475 104.055652 173.475 104.055652 
C 173.475 104.055652 173.475 104.055652 173.475 104.055652 
M 194.4 104.055652 
z
"/>
  </clipPath>
 </defs>
</svg>
