<?xml version="1.0" encoding="utf-8" standalone="no"?>
<!DOCTYPE svg PUBLIC "-//W3C//DTD SVG 1.1//EN"
  "http://www.w3.org/Graphics/SVG/1.1/DTD/svg11.dtd">
<svg xmlns:xlink="http://www.w3.org/1999/xlink" width="110.989338pt" height="59.620329pt" viewBox="0 0 110.989338 59.620329" xmlns="http://www.w3.org/2000/svg" version="1.1">
 <metadata>
  <rdf:RDF xmlns:dc="http://purl.org/dc/elements/1.1/" xmlns:cc="http://creativecommons.org/ns#" xmlns:rdf="http://www.w3.org/1999/02/22-rdf-syntax-ns#">
   <cc:Work>
    <dc:type rdf:resource="http://purl.org/dc/dcmitype/StillImage"/>
    <dc:date>2023-03-18T13:36:42.209677</dc:date>
    <dc:format>image/svg+xml</dc:format>
    <dc:creator>
     <cc:Agent>
      <dc:title>Matplotlib v3.7.0, https://matplotlib.org/</dc:title>
     </cc:Agent>
    </dc:creator>
   </cc:Work>
  </rdf:RDF>
 </metadata>
 <defs>
  <style type="text/css">*{stroke-linejoin: round; stroke-linecap: butt}</style>
 </defs>
 <g id="figure_1">
  <g id="patch_1">
   <path d="M 0 59.620329 
L 110.989338 59.620329 
L 110.989338 0 
L 0 0 
L 0 59.620329 
z
" style="fill: none"/>
  </g>
  <g id="axes_1">
   <g id="patch_2">
    <path d="M 30.24027 18.432612 
C 30.24027 17.058689 29.969637 15.698126 29.443859 14.428787 
C 28.918082 13.159447 28.147385 12.006018 27.175874 11.034507 
C 26.204364 10.062997 25.050934 9.2923 23.781595 8.766522 
C 22.512256 8.240745 21.151693 7.970112 19.77777 7.970112 
C 18.403847 7.970112 17.043284 8.240745 15.773944 8.766522 
C 14.504605 9.2923 13.351175 10.062997 12.379665 11.034507 
C 11.408155 12.006018 10.637458 13.159447 10.11168 14.428787 
C 9.585903 15.698126 9.31527 17.058689 9.31527 18.432612 
C 9.31527 19.806535 9.585903 21.167098 10.11168 22.436437 
C 10.637458 23.705777 11.408155 24.859207 12.379665 25.830717 
C 13.351175 26.802227 14.504605 27.572924 15.773944 28.098702 
C 17.043284 28.624479 18.403847 28.895112 19.77777 28.895112 
C 21.151693 28.895112 22.512256 28.624479 23.781595 28.098702 
C 25.050934 27.572924 26.204364 26.802227 27.175874 25.830717 
C 28.147385 24.859207 28.918082 23.705777 29.443859 22.436437 
C 29.969637 21.167098 30.24027 19.806535 30.24027 18.432612 
M 19.77777 18.432612 
C 19.77777 18.432612 19.77777 18.432612 19.77777 18.432612 
C 19.77777 18.432612 19.77777 18.432612 19.77777 18.432612 
C 19.77777 18.432612 19.77777 18.432612 19.77777 18.432612 
C 19.77777 18.432612 19.77777 18.432612 19.77777 18.432612 
C 19.77777 18.432612 19.77777 18.432612 19.77777 18.432612 
C 19.77777 18.432612 19.77777 18.432612 19.77777 18.432612 
C 19.77777 18.432612 19.77777 18.432612 19.77777 18.432612 
C 19.77777 18.432612 19.77777 18.432612 19.77777 18.432612 
C 19.77777 18.432612 19.77777 18.432612 19.77777 18.432612 
C 19.77777 18.432612 19.77777 18.432612 19.77777 18.432612 
C 19.77777 18.432612 19.77777 18.432612 19.77777 18.432612 
C 19.77777 18.432612 19.77777 18.432612 19.77777 18.432612 
C 19.77777 18.432612 19.77777 18.432612 19.77777 18.432612 
C 19.77777 18.432612 19.77777 18.432612 19.77777 18.432612 
C 19.77777 18.432612 19.77777 18.432612 19.77777 18.432612 
C 19.77777 18.432612 19.77777 18.432612 19.77777 18.432612 
L 19.77777 18.432612 
z
" style="fill: none"/>
   </g>
   <g id="matplotlib.axis_1">
    <g id="xtick_1">
     <g id="line2d_1">
      <path d="M 19.77777 18.432612 
L 30.24027 18.432612 
" clip-path="url(#p3e3ccc6519)" style="fill: none; stroke: #b0b0b0; stroke-width: 0.8; stroke-linecap: square"/>
     </g>
    </g>
    <g id="xtick_2">
     <g id="line2d_2">
      <path d="M 19.77777 18.432612 
L 27.175874 11.034507 
" clip-path="url(#p3e3ccc6519)" style="fill: none; stroke: #b0b0b0; stroke-width: 0.8; stroke-linecap: square"/>
     </g>
    </g>
    <g id="xtick_3">
     <g id="line2d_3">
      <path d="M 19.77777 18.432612 
L 19.77777 7.970112 
" clip-path="url(#p3e3ccc6519)" style="fill: none; stroke: #b0b0b0; stroke-width: 0.8; stroke-linecap: square"/>
     </g>
    </g>
    <g id="xtick_4">
     <g id="line2d_4">
      <path d="M 19.77777 18.432612 
L 12.379665 11.034507 
" clip-path="url(#p3e3ccc6519)" style="fill: none; stroke: #b0b0b0; stroke-width: 0.8; stroke-linecap: square"/>
     </g>
    </g>
    <g id="xtick_5">
     <g id="line2d_5">
      <path d="M 19.77777 18.432612 
L 9.31527 18.432612 
" clip-path="url(#p3e3ccc6519)" style="fill: none; stroke: #b0b0b0; stroke-width: 0.8; stroke-linecap: square"/>
     </g>
    </g>
    <g id="xtick_6">
     <g id="line2d_6">
      <path d="M 19.77777 18.432612 
L 12.379665 25.830717 
" clip-path="url(#p3e3ccc6519)" style="fill: none; stroke: #b0b0b0; stroke-width: 0.8; stroke-linecap: square"/>
     </g>
    </g>
    <g id="xtick_7">
     <g id="line2d_7">
      <path d="M 19.77777 18.432612 
L 19.77777 28.895112 
" clip-path="url(#p3e3ccc6519)" style="fill: none; stroke: #b0b0b0; stroke-width: 0.8; stroke-linecap: square"/>
     </g>
    </g>
    <g id="xtick_8">
     <g id="line2d_8">
      <path d="M 19.77777 18.432612 
L 27.175874 25.830717 
" clip-path="url(#p3e3ccc6519)" style="fill: none; stroke: #b0b0b0; stroke-width: 0.8; stroke-linecap: square"/>
     </g>
    </g>
   </g>
   <g id="matplotlib.axis_2">
    <g id="ytick_1">
     <g id="line2d_9">
      <path d="M 21.87027 18.432612 
C 21.87027 18.157827 21.816143 17.885715 21.710988 17.631847 
C 21.605832 17.377979 21.451693 17.147293 21.257391 16.952991 
C 21.063089 16.758689 20.832403 16.60455 20.578535 16.499394 
C 20.324667 16.394239 20.052554 16.340112 19.77777 16.340112 
C 19.502985 16.340112 19.230872 16.394239 18.977005 16.499394 
C 18.723137 16.60455 18.492451 16.758689 18.298149 16.952991 
C 18.103847 17.147293 17.949707 17.377979 17.844552 17.631847 
C 17.739396 17.885715 17.68527 18.157827 17.68527 18.432612 
C 17.68527 18.707397 17.739396 18.979509 17.844552 19.233377 
C 17.949707 19.487245 18.103847 19.717931 18.298149 19.912233 
C 18.492451 20.106535 18.723137 20.260674 18.977005 20.36583 
C 19.230872 20.470986 19.502985 20.525112 19.77777 20.525112 
C 20.052554 20.525112 20.324667 20.470986 20.578535 20.36583 
C 20.832403 20.260674 21.063089 20.106535 21.257391 19.912233 
C 21.451693 19.717931 21.605832 19.487245 21.710988 19.233377 
C 21.816143 18.979509 21.87027 18.707397 21.87027 18.432612 
" clip-path="url(#p3e3ccc6519)" style="fill: none; stroke: #b0b0b0; stroke-width: 0.8; stroke-linecap: square"/>
     </g>
     <g id="text_1">
      <!-- $\mathdefault{0.05}$ -->
      <g transform="translate(21.710988 16.018178) scale(0.0833 -0.0833)">
       <defs>
        <path id="CMR17-30" d="M 2688 2038 
C 2688 2430 2682 3099 2413 3613 
C 2176 4063 1798 4224 1466 4224 
C 1158 4224 768 4082 525 3620 
C 269 3137 243 2539 243 2038 
C 243 1671 250 1112 448 623 
C 723 -39 1216 -128 1466 -128 
C 1760 -128 2208 -7 2470 604 
C 2662 1048 2688 1568 2688 2038 
z
M 1466 -26 
C 1056 -26 813 328 723 816 
C 653 1196 653 1749 653 2109 
C 653 2604 653 3015 736 3407 
C 858 3954 1216 4121 1466 4121 
C 1728 4121 2067 3947 2189 3420 
C 2272 3054 2278 2623 2278 2109 
C 2278 1691 2278 1176 2202 797 
C 2067 96 1690 -26 1466 -26 
z
" transform="scale(0.015625)"/>
        <path id="CMMI12-3a" d="M 1178 307 
C 1178 492 1024 620 870 620 
C 685 620 557 467 557 313 
C 557 128 710 0 864 0 
C 1050 0 1178 153 1178 307 
z
" transform="scale(0.015625)"/>
        <path id="CMR17-35" d="M 730 3750 
C 794 3724 1056 3641 1325 3641 
C 1920 3641 2246 3961 2432 4140 
C 2432 4191 2432 4224 2394 4224 
C 2387 4224 2374 4224 2323 4198 
C 2099 4102 1837 4032 1517 4032 
C 1325 4032 1037 4055 723 4191 
C 653 4224 640 4224 634 4224 
C 602 4224 595 4217 595 4090 
L 595 2231 
C 595 2113 595 2080 659 2080 
C 691 2080 704 2093 736 2139 
C 941 2435 1222 2560 1542 2560 
C 1766 2560 2246 2415 2246 1293 
C 2246 1087 2246 716 2054 422 
C 1894 159 1645 25 1370 25 
C 947 25 518 319 403 812 
C 429 806 480 793 506 793 
C 589 793 749 838 749 1036 
C 749 1209 627 1280 506 1280 
C 358 1280 262 1190 262 1011 
C 262 454 704 -128 1382 -128 
C 2042 -128 2669 441 2669 1267 
C 2669 2054 2170 2662 1549 2662 
C 1222 2662 947 2540 730 2304 
L 730 3750 
z
" transform="scale(0.015625)"/>
       </defs>
       <use xlink:href="#CMR17-30" transform="scale(0.996264)"/>
       <use xlink:href="#CMMI12-3a" transform="translate(45.690477 0) scale(0.996264)"/>
       <use xlink:href="#CMR17-30" transform="translate(72.787654 0) scale(0.996264)"/>
       <use xlink:href="#CMR17-35" transform="translate(118.478131 0) scale(0.996264)"/>
      </g>
     </g>
    </g>
    <g id="ytick_2">
     <g id="line2d_10">
      <path d="M 30.24027 18.432612 
C 30.24027 17.058689 29.969637 15.698126 29.443859 14.428787 
C 28.918082 13.159447 28.147385 12.006018 27.175874 11.034507 
C 26.204364 10.062997 25.050934 9.2923 23.781595 8.766522 
C 22.512256 8.240745 21.151693 7.970112 19.77777 7.970112 
C 18.403847 7.970112 17.043284 8.240745 15.773944 8.766522 
C 14.504605 9.2923 13.351175 10.062997 12.379665 11.034507 
C 11.408155 12.006018 10.637458 13.159447 10.11168 14.428787 
C 9.585903 15.698126 9.31527 17.058689 9.31527 18.432612 
C 9.31527 19.806535 9.585903 21.167098 10.11168 22.436437 
C 10.637458 23.705777 11.408155 24.859207 12.379665 25.830717 
C 13.351175 26.802227 14.504605 27.572924 15.773944 28.098702 
C 17.043284 28.624479 18.403847 28.895112 19.77777 28.895112 
C 21.151693 28.895112 22.512256 28.624479 23.781595 28.098702 
C 25.050934 27.572924 26.204364 26.802227 27.175874 25.830717 
C 28.147385 24.859207 28.918082 23.705777 29.443859 22.436437 
C 29.969637 21.167098 30.24027 19.806535 30.24027 18.432612 
" clip-path="url(#p3e3ccc6519)" style="fill: none; stroke: #b0b0b0; stroke-width: 0.8; stroke-linecap: square"/>
     </g>
     <g id="text_2">
      <!-- $\mathdefault{0.25}$ -->
      <g transform="translate(29.443859 12.815117) scale(0.0833 -0.0833)">
       <defs>
        <path id="CMR17-32" d="M 2669 990 
L 2554 990 
C 2490 537 2438 460 2413 422 
C 2381 371 1920 371 1830 371 
L 602 371 
C 832 620 1280 1073 1824 1596 
C 2214 1966 2669 2400 2669 3033 
C 2669 3788 2067 4224 1395 4224 
C 691 4224 262 3603 262 3027 
C 262 2777 448 2745 525 2745 
C 589 2745 781 2783 781 3007 
C 781 3206 614 3264 525 3264 
C 486 3264 448 3257 422 3244 
C 544 3788 915 4057 1306 4057 
C 1862 4057 2227 3616 2227 3033 
C 2227 2477 1901 1998 1536 1583 
L 262 147 
L 262 0 
L 2515 0 
L 2669 990 
z
" transform="scale(0.015625)"/>
       </defs>
       <use xlink:href="#CMR17-30" transform="scale(0.996264)"/>
       <use xlink:href="#CMMI12-3a" transform="translate(45.690477 0) scale(0.996264)"/>
       <use xlink:href="#CMR17-32" transform="translate(72.787654 0) scale(0.996264)"/>
       <use xlink:href="#CMR17-35" transform="translate(118.478131 0) scale(0.996264)"/>
      </g>
     </g>
    </g>
   </g>
   <g id="line2d_11">
    <path d="M 12.314452 18.669527 
L 12.453469 19.131998 
L 12.896083 19.53376 
L 13.080759 19.945199 
L 13.25914 20.346654 
L 13.482268 20.723987 
L 13.755047 21.068428 
L 14.043362 21.388905 
L 14.262208 21.734796 
L 14.490897 22.072358 
L 14.802362 22.345316 
L 15.035475 22.675421 
L 15.369163 22.91173 
L 15.637076 23.211227 
L 15.899772 23.528242 
L 16.237704 23.753509 
L 16.594173 23.946763 
L 16.938013 24.162392 
L 17.239625 24.492139 
L 17.615251 24.680799 
L 17.982855 24.92486 
L 18.36258 25.196021 
L 18.78557 25.333514 
L 19.213648 25.528477 
L 19.660616 25.815675 
L 20.136362 25.960391 
L 20.54628 25.323511 
L 20.977315 25.235569 
L 21.361286 24.959956 
L 21.731951 24.717301 
L 22.134853 24.602265 
L 22.462243 24.310788 
L 22.783565 24.042671 
L 23.09717 23.782465 
L 23.513178 23.678259 
L 23.766842 23.342756 
L 24.031306 23.037725 
L 24.248959 22.695882 
L 24.522473 22.413891 
L 24.854636 22.17063 
L 25.134194 21.874977 
L 25.353262 21.534733 
L 25.566769 21.188188 
L 25.88415 20.877238 
L 26.09331 20.506836 
L 26.311082 20.127772 
L 26.674149 19.76178 
L 26.707936 19.317034 
L 27.027784 18.893364 
L 27.240891 18.432612 
L 27.127154 17.965545 
L 26.783811 17.538507 
L 26.652134 17.107687 
L 26.526178 16.681642 
L 26.058854 16.369705 
L 25.909861 15.977693 
L 25.614996 15.65408 
L 25.448338 15.277592 
L 25.186338 14.956736 
L 24.922073 14.644942 
L 24.704826 14.298321 
L 24.33152 14.09062 
L 24.012515 13.847843 
L 23.82921 13.4457 
L 23.42444 13.31158 
L 23.183388 12.943802 
L 22.819067 12.756292 
L 22.463338 12.552037 
L 22.106613 12.336877 
L 21.764844 12.04214 
L 21.387559 11.79697 
L 21.001475 11.492635 
L 20.568937 11.338558 
L 20.124125 11.161709 
L 19.659486 10.978342 
L 19.216209 11.368956 
L 18.79852 11.621781 
L 18.383648 11.769889 
L 17.994453 11.982311 
L 17.639622 12.25484 
L 17.23504 12.362138 
L 16.87945 12.584668 
L 16.594832 12.919603 
L 16.315139 13.228103 
L 15.986429 13.450848 
L 15.631895 13.648017 
L 15.423744 14.008949 
L 15.111155 14.257512 
L 14.835017 14.545588 
L 14.499044 14.798475 
L 14.365741 15.192414 
L 13.945483 15.425859 
L 13.74659 15.793095 
L 13.494661 16.145748 
L 13.379985 16.554053 
L 13.058247 16.914941 
L 12.860922 17.325838 
L 12.558496 17.743255 
L 12.381018 18.19781 
" clip-path="url(#p3e3ccc6519)" style="fill: none; stroke: #348abd; stroke-opacity: 0.75; stroke-width: 2; stroke-linecap: square"/>
   </g>
   <g id="patch_3">
    <path d="M 30.24027 18.432612 
C 30.24027 17.058689 29.969637 15.698126 29.443859 14.428787 
C 28.918082 13.159447 28.147385 12.006018 27.175874 11.034507 
C 26.204364 10.062997 25.050934 9.2923 23.781595 8.766522 
C 22.512256 8.240745 21.151693 7.970112 19.77777 7.970112 
C 18.403847 7.970112 17.043284 8.240745 15.773944 8.766522 
C 14.504605 9.2923 13.351175 10.062997 12.379665 11.034507 
C 11.408155 12.006018 10.637458 13.159447 10.11168 14.428787 
C 9.585903 15.698126 9.31527 17.058689 9.31527 18.432612 
C 9.31527 19.806535 9.585903 21.167098 10.11168 22.436437 
C 10.637458 23.705777 11.408155 24.859207 12.379665 25.830717 
C 13.351175 26.802227 14.504605 27.572924 15.773944 28.098702 
C 17.043284 28.624479 18.403847 28.895112 19.77777 28.895112 
C 21.151693 28.895112 22.512256 28.624479 23.781595 28.098702 
C 25.050934 27.572924 26.204364 26.802227 27.175874 25.830717 
C 28.147385 24.859207 28.918082 23.705777 29.443859 22.436437 
C 29.969637 21.167098 30.24027 19.806535 30.24027 18.432612 
" style="fill: none; stroke: #000000; stroke-width: 0.8; stroke-linejoin: miter; stroke-linecap: square"/>
   </g>
   <g id="text_3">
    <!-- Square -->
    <g transform="translate(6.070589 6.22665) scale(0.09 -0.09)">
     <defs>
      <path id="CMR17-53" d="M 2803 4351 
C 2803 4467 2797 4473 2758 4473 
C 2720 4473 2707 4447 2682 4390 
L 2490 3965 
C 2246 4320 1875 4480 1472 4480 
C 819 4480 294 3958 294 3301 
C 294 3101 339 2817 557 2546 
C 794 2250 1018 2198 1530 2063 
C 1722 2011 2042 1927 2106 1901 
C 2470 1747 2662 1360 2662 999 
C 2662 534 2336 38 1779 38 
C 1094 38 454 425 410 1328 
C 403 1431 397 1437 352 1437 
C 301 1437 294 1431 294 1302 
L 294 0 
C 294 -116 301 -122 339 -122 
C 384 -122 397 -90 486 109 
C 493 128 493 141 614 386 
C 934 -39 1472 -128 1779 -128 
C 2477 -128 2970 457 2970 1141 
C 2970 1476 2848 1734 2778 1850 
C 2509 2263 2221 2340 1914 2417 
C 1869 2437 1856 2437 1498 2527 
C 1152 2617 1005 2662 845 2836 
C 666 3036 602 3243 602 3449 
C 602 3868 934 4326 1478 4326 
C 2157 4326 2579 3842 2675 3036 
C 2694 2920 2701 2914 2746 2914 
C 2803 2914 2803 2933 2803 3043 
L 2803 4351 
z
" transform="scale(0.015625)"/>
      <path id="CMR17-71" d="M 2630 2816 
L 2528 2816 
L 2336 2177 
C 2189 2519 1920 2816 1491 2816 
C 838 2816 211 2228 211 1376 
C 211 529 800 -64 1440 -64 
C 1933 -64 2208 316 2291 458 
L 2291 -834 
C 2291 -1081 2266 -1114 1856 -1114 
L 1856 -1280 
C 2010 -1268 2291 -1268 2458 -1268 
C 2624 -1268 2912 -1268 3066 -1280 
L 3066 -1114 
C 2656 -1114 2630 -1088 2630 -834 
L 2630 2816 
z
M 2304 871 
C 2304 594 2074 335 2054 316 
C 1856 90 1626 38 1472 38 
C 992 38 621 652 621 1369 
C 621 2125 1043 2700 1536 2700 
C 2048 2700 2304 2112 2304 1776 
L 2304 871 
z
" transform="scale(0.015625)"/>
      <path id="CMR17-75" d="M 1882 2745 
L 1882 2579 
C 2259 2579 2317 2540 2317 2229 
L 2317 1053 
C 2317 510 2029 38 1555 38 
C 1030 38 986 355 986 691 
L 986 2816 
L 211 2745 
L 211 2579 
C 467 2579 640 2579 646 2320 
L 646 1079 
C 646 646 646 368 813 187 
C 896 103 1056 -64 1517 -64 
C 2061 -64 2272 400 2323 536 
L 2330 536 
L 2330 -64 
L 3091 -13 
L 3091 154 
C 2714 154 2656 193 2656 503 
L 2656 2816 
L 1882 2745 
z
" transform="scale(0.015625)"/>
      <path id="CMR17-61" d="M 2304 1656 
C 2304 2048 2304 2275 2035 2534 
C 1798 2751 1523 2816 1306 2816 
C 800 2816 435 2408 435 1977 
C 435 1740 627 1728 666 1728 
C 749 1728 896 1779 896 1958 
C 896 2118 774 2188 666 2188 
C 640 2188 608 2182 589 2176 
C 723 2594 1069 2713 1293 2713 
C 1613 2713 1965 2421 1965 1875 
L 1965 1632 
C 1587 1619 1133 1568 774 1373 
C 371 1147 256 822 256 576 
C 256 77 832 -64 1171 -64 
C 1523 -64 1850 135 1990 505 
C 2003 219 2182 -39 2464 -39 
C 2598 -39 2938 51 2938 563 
L 2938 926 
L 2822 926 
L 2822 557 
C 2822 161 2650 109 2566 109 
C 2304 109 2304 446 2304 732 
L 2304 1656 
z
M 1965 887 
C 1965 323 1568 38 1216 38 
C 896 38 646 278 646 576 
C 646 771 730 1114 1101 1322 
C 1408 1497 1760 1523 1965 1536 
L 1965 887 
z
" transform="scale(0.015625)"/>
      <path id="CMR17-72" d="M 960 1517 
C 960 2134 1222 2713 1702 2713 
C 1747 2713 1792 2707 1837 2687 
C 1837 2687 1696 2642 1696 2475 
C 1696 2321 1818 2257 1914 2257 
C 1990 2257 2131 2302 2131 2482 
C 2131 2687 1926 2816 1709 2816 
C 1222 2816 1011 2340 947 2115 
L 941 2115 
L 941 2816 
L 198 2745 
L 198 2578 
C 576 2578 634 2540 634 2231 
L 634 443 
C 634 198 608 166 198 166 
L 198 0 
C 352 12 646 12 813 12 
C 998 12 1325 12 1498 0 
L 1498 166 
C 1037 166 960 166 960 455 
L 960 1517 
z
" transform="scale(0.015625)"/>
      <path id="CMR17-65" d="M 2438 1503 
C 2464 1529 2464 1542 2464 1606 
C 2464 2251 2118 2816 1389 2816 
C 710 2816 173 2175 173 1394 
C 173 554 781 -64 1459 -64 
C 2176 -64 2458 619 2458 755 
C 2458 800 2419 800 2406 800 
C 2362 800 2355 787 2330 709 
C 2189 270 1837 51 1504 51 
C 1229 51 954 206 781 490 
C 582 819 582 1200 582 1503 
L 2438 1503 
z
M 589 1600 
C 634 2511 1126 2713 1382 2713 
C 1818 2713 2112 2308 2118 1600 
L 589 1600 
z
" transform="scale(0.015625)"/>
     </defs>
     <use xlink:href="#CMR17-53" transform="scale(0.996264)"/>
     <use xlink:href="#CMR17-71" transform="translate(50.89537 0) scale(0.996264)"/>
     <use xlink:href="#CMR17-75" transform="translate(99.188286 0) scale(0.996264)"/>
     <use xlink:href="#CMR17-61" transform="translate(150.083655 0) scale(0.996264)"/>
     <use xlink:href="#CMR17-72" transform="translate(195.774133 0) scale(0.996264)"/>
     <use xlink:href="#CMR17-65" transform="translate(231.0549 0) scale(0.996264)"/>
    </g>
   </g>
  </g>
  <g id="axes_2">
   <g id="patch_4">
    <path d="M 61.62777 18.432612 
C 61.62777 17.058689 61.357137 15.698126 60.831359 14.428787 
C 60.305582 13.159447 59.534885 12.006018 58.563374 11.034507 
C 57.591864 10.062997 56.438434 9.2923 55.169095 8.766522 
C 53.899756 8.240745 52.539193 7.970112 51.16527 7.970112 
C 49.791347 7.970112 48.430784 8.240745 47.161444 8.766522 
C 45.892105 9.2923 44.738675 10.062997 43.767165 11.034507 
C 42.795655 12.006018 42.024958 13.159447 41.49918 14.428787 
C 40.973403 15.698126 40.70277 17.058689 40.70277 18.432612 
C 40.70277 19.806535 40.973403 21.167098 41.49918 22.436437 
C 42.024958 23.705777 42.795655 24.859207 43.767165 25.830717 
C 44.738675 26.802227 45.892105 27.572924 47.161444 28.098702 
C 48.430784 28.624479 49.791347 28.895112 51.16527 28.895112 
C 52.539193 28.895112 53.899756 28.624479 55.169095 28.098702 
C 56.438434 27.572924 57.591864 26.802227 58.563374 25.830717 
C 59.534885 24.859207 60.305582 23.705777 60.831359 22.436437 
C 61.357137 21.167098 61.62777 19.806535 61.62777 18.432612 
M 51.16527 18.432612 
C 51.16527 18.432612 51.16527 18.432612 51.16527 18.432612 
C 51.16527 18.432612 51.16527 18.432612 51.16527 18.432612 
C 51.16527 18.432612 51.16527 18.432612 51.16527 18.432612 
C 51.16527 18.432612 51.16527 18.432612 51.16527 18.432612 
C 51.16527 18.432612 51.16527 18.432612 51.16527 18.432612 
C 51.16527 18.432612 51.16527 18.432612 51.16527 18.432612 
C 51.16527 18.432612 51.16527 18.432612 51.16527 18.432612 
C 51.16527 18.432612 51.16527 18.432612 51.16527 18.432612 
C 51.16527 18.432612 51.16527 18.432612 51.16527 18.432612 
C 51.16527 18.432612 51.16527 18.432612 51.16527 18.432612 
C 51.16527 18.432612 51.16527 18.432612 51.16527 18.432612 
C 51.16527 18.432612 51.16527 18.432612 51.16527 18.432612 
C 51.16527 18.432612 51.16527 18.432612 51.16527 18.432612 
C 51.16527 18.432612 51.16527 18.432612 51.16527 18.432612 
C 51.16527 18.432612 51.16527 18.432612 51.16527 18.432612 
C 51.16527 18.432612 51.16527 18.432612 51.16527 18.432612 
L 51.16527 18.432612 
z
" style="fill: none"/>
   </g>
   <g id="matplotlib.axis_3">
    <g id="xtick_9">
     <g id="line2d_12">
      <path d="M 51.16527 18.432612 
L 61.62777 18.432612 
" clip-path="url(#p229de1b1ed)" style="fill: none; stroke: #b0b0b0; stroke-width: 0.8; stroke-linecap: square"/>
     </g>
    </g>
    <g id="xtick_10">
     <g id="line2d_13">
      <path d="M 51.16527 18.432612 
L 58.563374 11.034507 
" clip-path="url(#p229de1b1ed)" style="fill: none; stroke: #b0b0b0; stroke-width: 0.8; stroke-linecap: square"/>
     </g>
    </g>
    <g id="xtick_11">
     <g id="line2d_14">
      <path d="M 51.16527 18.432612 
L 51.16527 7.970112 
" clip-path="url(#p229de1b1ed)" style="fill: none; stroke: #b0b0b0; stroke-width: 0.8; stroke-linecap: square"/>
     </g>
    </g>
    <g id="xtick_12">
     <g id="line2d_15">
      <path d="M 51.16527 18.432612 
L 43.767165 11.034507 
" clip-path="url(#p229de1b1ed)" style="fill: none; stroke: #b0b0b0; stroke-width: 0.8; stroke-linecap: square"/>
     </g>
    </g>
    <g id="xtick_13">
     <g id="line2d_16">
      <path d="M 51.16527 18.432612 
L 40.70277 18.432612 
" clip-path="url(#p229de1b1ed)" style="fill: none; stroke: #b0b0b0; stroke-width: 0.8; stroke-linecap: square"/>
     </g>
    </g>
    <g id="xtick_14">
     <g id="line2d_17">
      <path d="M 51.16527 18.432612 
L 43.767165 25.830717 
" clip-path="url(#p229de1b1ed)" style="fill: none; stroke: #b0b0b0; stroke-width: 0.8; stroke-linecap: square"/>
     </g>
    </g>
    <g id="xtick_15">
     <g id="line2d_18">
      <path d="M 51.16527 18.432612 
L 51.16527 28.895112 
" clip-path="url(#p229de1b1ed)" style="fill: none; stroke: #b0b0b0; stroke-width: 0.8; stroke-linecap: square"/>
     </g>
    </g>
    <g id="xtick_16">
     <g id="line2d_19">
      <path d="M 51.16527 18.432612 
L 58.563374 25.830717 
" clip-path="url(#p229de1b1ed)" style="fill: none; stroke: #b0b0b0; stroke-width: 0.8; stroke-linecap: square"/>
     </g>
    </g>
   </g>
   <g id="matplotlib.axis_4">
    <g id="ytick_3">
     <g id="line2d_20">
      <path d="M 53.25777 18.432612 
C 53.25777 18.157827 53.203643 17.885715 53.098488 17.631847 
C 52.993332 17.377979 52.839193 17.147293 52.644891 16.952991 
C 52.450589 16.758689 52.219903 16.60455 51.966035 16.499394 
C 51.712167 16.394239 51.440054 16.340112 51.16527 16.340112 
C 50.890485 16.340112 50.618372 16.394239 50.364505 16.499394 
C 50.110637 16.60455 49.879951 16.758689 49.685649 16.952991 
C 49.491347 17.147293 49.337207 17.377979 49.232052 17.631847 
C 49.126896 17.885715 49.07277 18.157827 49.07277 18.432612 
C 49.07277 18.707397 49.126896 18.979509 49.232052 19.233377 
C 49.337207 19.487245 49.491347 19.717931 49.685649 19.912233 
C 49.879951 20.106535 50.110637 20.260674 50.364505 20.36583 
C 50.618372 20.470986 50.890485 20.525112 51.16527 20.525112 
C 51.440054 20.525112 51.712167 20.470986 51.966035 20.36583 
C 52.219903 20.260674 52.450589 20.106535 52.644891 19.912233 
C 52.839193 19.717931 52.993332 19.487245 53.098488 19.233377 
C 53.203643 18.979509 53.25777 18.707397 53.25777 18.432612 
" clip-path="url(#p229de1b1ed)" style="fill: none; stroke: #b0b0b0; stroke-width: 0.8; stroke-linecap: square"/>
     </g>
     <g id="text_4">
      <!-- $\mathdefault{0.05}$ -->
      <g transform="translate(53.098488 16.018178) scale(0.0833 -0.0833)">
       <use xlink:href="#CMR17-30" transform="scale(0.996264)"/>
       <use xlink:href="#CMMI12-3a" transform="translate(45.690477 0) scale(0.996264)"/>
       <use xlink:href="#CMR17-30" transform="translate(72.787654 0) scale(0.996264)"/>
       <use xlink:href="#CMR17-35" transform="translate(118.478131 0) scale(0.996264)"/>
      </g>
     </g>
    </g>
    <g id="ytick_4">
     <g id="line2d_21">
      <path d="M 61.62777 18.432612 
C 61.62777 17.058689 61.357137 15.698126 60.831359 14.428787 
C 60.305582 13.159447 59.534885 12.006018 58.563374 11.034507 
C 57.591864 10.062997 56.438434 9.2923 55.169095 8.766522 
C 53.899756 8.240745 52.539193 7.970112 51.16527 7.970112 
C 49.791347 7.970112 48.430784 8.240745 47.161444 8.766522 
C 45.892105 9.2923 44.738675 10.062997 43.767165 11.034507 
C 42.795655 12.006018 42.024958 13.159447 41.49918 14.428787 
C 40.973403 15.698126 40.70277 17.058689 40.70277 18.432612 
C 40.70277 19.806535 40.973403 21.167098 41.49918 22.436437 
C 42.024958 23.705777 42.795655 24.859207 43.767165 25.830717 
C 44.738675 26.802227 45.892105 27.572924 47.161444 28.098702 
C 48.430784 28.624479 49.791347 28.895112 51.16527 28.895112 
C 52.539193 28.895112 53.899756 28.624479 55.169095 28.098702 
C 56.438434 27.572924 57.591864 26.802227 58.563374 25.830717 
C 59.534885 24.859207 60.305582 23.705777 60.831359 22.436437 
C 61.357137 21.167098 61.62777 19.806535 61.62777 18.432612 
" clip-path="url(#p229de1b1ed)" style="fill: none; stroke: #b0b0b0; stroke-width: 0.8; stroke-linecap: square"/>
     </g>
     <g id="text_5">
      <!-- $\mathdefault{0.25}$ -->
      <g transform="translate(60.831359 12.815117) scale(0.0833 -0.0833)">
       <use xlink:href="#CMR17-30" transform="scale(0.996264)"/>
       <use xlink:href="#CMMI12-3a" transform="translate(45.690477 0) scale(0.996264)"/>
       <use xlink:href="#CMR17-32" transform="translate(72.787654 0) scale(0.996264)"/>
       <use xlink:href="#CMR17-35" transform="translate(118.478131 0) scale(0.996264)"/>
      </g>
     </g>
    </g>
   </g>
   <g id="line2d_22">
    <path d="M 44.535017 18.643082 
L 44.497386 19.069318 
L 44.644303 19.476041 
L 44.685018 19.896241 
L 44.868715 20.281447 
L 44.888977 20.716996 
L 45.014481 21.124475 
L 45.138983 21.539379 
L 45.334016 21.923802 
L 45.648108 22.2309 
L 45.935364 22.545455 
L 46.180209 22.892618 
L 46.530936 23.141067 
L 46.717123 23.566047 
L 47.095988 23.779586 
L 47.526585 23.901739 
L 47.800337 24.260846 
L 48.163292 24.489707 
L 48.626361 24.493963 
L 49.002967 24.680176 
L 49.413405 24.769147 
L 49.815849 24.881699 
L 50.207322 25.095282 
L 50.637258 25.074263 
L 51.059279 25.112181 
L 51.479403 25.027075 
L 51.903668 25.053511 
L 52.308364 24.915422 
L 52.742257 24.933042 
L 53.12787 24.744376 
L 53.479287 24.489541 
L 53.961505 24.555512 
L 54.297812 24.279233 
L 54.685266 24.105764 
L 54.999361 23.81684 
L 55.340615 23.572039 
L 55.652355 23.290578 
L 55.895596 22.942969 
L 56.28175 22.725849 
L 56.575072 22.415765 
L 56.795728 22.051088 
L 57.072664 21.719398 
L 57.231126 21.319972 
L 57.396532 20.927233 
L 57.562879 20.53379 
L 57.727304 20.135225 
L 57.720423 19.696014 
L 57.765116 19.274879 
L 57.895405 18.860325 
L 57.892497 18.432612 
L 57.891456 18.00515 
L 57.747456 17.592599 
L 57.610998 17.1903 
L 57.623904 16.756828 
L 57.54659 16.336784 
L 57.30287 15.975487 
L 57.220409 15.550353 
L 56.991993 15.19071 
L 56.80183 14.810215 
L 56.511352 14.496375 
L 56.330748 14.098261 
L 55.897027 13.92089 
L 55.685463 13.538801 
L 55.373046 13.253265 
L 55.008541 13.035493 
L 54.676227 12.774028 
L 54.345459 12.497063 
L 53.963696 12.304913 
L 53.56636 12.147771 
L 53.145687 12.063548 
L 52.745366 11.919366 
L 52.318784 11.890708 
L 51.905714 11.793364 
L 51.479779 11.830245 
L 51.058431 11.699638 
L 50.63914 11.814625 
L 50.213047 11.809756 
L 49.794781 11.882838 
L 49.385818 11.996294 
L 49.005124 12.19128 
L 48.608783 12.329295 
L 48.247331 12.545083 
L 47.813525 12.62722 
L 47.495538 12.91682 
L 47.132328 13.133388 
L 46.821191 13.419278 
L 46.58228 13.776322 
L 46.162026 13.956338 
L 45.957134 14.336889 
L 45.686671 14.660872 
L 45.487902 15.033554 
L 45.389248 15.454866 
L 45.121404 15.787543 
L 44.954039 16.171909 
L 44.848469 16.577832 
L 44.591111 16.947773 
L 44.559658 17.375639 
L 44.5755 17.803365 
L 44.542926 18.222393 
" clip-path="url(#p229de1b1ed)" style="fill: none; stroke: #348abd; stroke-opacity: 0.75; stroke-width: 2; stroke-linecap: square"/>
   </g>
   <g id="patch_5">
    <path d="M 61.62777 18.432612 
C 61.62777 17.058689 61.357137 15.698126 60.831359 14.428787 
C 60.305582 13.159447 59.534885 12.006018 58.563374 11.034507 
C 57.591864 10.062997 56.438434 9.2923 55.169095 8.766522 
C 53.899756 8.240745 52.539193 7.970112 51.16527 7.970112 
C 49.791347 7.970112 48.430784 8.240745 47.161444 8.766522 
C 45.892105 9.2923 44.738675 10.062997 43.767165 11.034507 
C 42.795655 12.006018 42.024958 13.159447 41.49918 14.428787 
C 40.973403 15.698126 40.70277 17.058689 40.70277 18.432612 
C 40.70277 19.806535 40.973403 21.167098 41.49918 22.436437 
C 42.024958 23.705777 42.795655 24.859207 43.767165 25.830717 
C 44.738675 26.802227 45.892105 27.572924 47.161444 28.098702 
C 48.430784 28.624479 49.791347 28.895112 51.16527 28.895112 
C 52.539193 28.895112 53.899756 28.624479 55.169095 28.098702 
C 56.438434 27.572924 57.591864 26.802227 58.563374 25.830717 
C 59.534885 24.859207 60.305582 23.705777 60.831359 22.436437 
C 61.357137 21.167098 61.62777 19.806535 61.62777 18.432612 
" style="fill: none; stroke: #000000; stroke-width: 0.8; stroke-linejoin: miter; stroke-linecap: square"/>
   </g>
   <g id="text_6">
    <!-- Circle -->
    <g transform="translate(39.37796 6.22665) scale(0.09 -0.09)">
     <defs>
      <path id="CMR17-43" d="M 3974 4351 
C 3974 4467 3968 4473 3930 4473 
C 3904 4473 3898 4467 3853 4390 
L 3571 3849 
C 3258 4249 2874 4480 2381 4480 
C 1286 4480 294 3507 294 2179 
C 294 837 1286 -128 2387 -128 
C 3366 -128 3974 741 3974 1482 
C 3974 1547 3974 1573 3917 1573 
C 3866 1573 3866 1553 3859 1495 
C 3808 592 3168 38 2477 38 
C 1824 38 781 502 781 2179 
C 781 3862 1843 4313 2464 4313 
C 3187 4313 3712 3681 3834 2785 
C 3846 2707 3846 2695 3904 2695 
C 3974 2695 3974 2707 3974 2824 
L 3974 4351 
z
" transform="scale(0.015625)"/>
      <path id="CMR17-69" d="M 992 3961 
C 992 4102 877 4224 730 4224 
C 589 4224 467 4108 467 3961 
C 467 3820 582 3699 730 3699 
C 870 3699 992 3814 992 3961 
z
M 243 2745 
L 243 2579 
C 602 2579 653 2540 653 2231 
L 653 443 
C 653 198 627 166 218 166 
L 218 0 
C 371 12 646 12 806 12 
C 960 12 1222 12 1370 0 
L 1370 166 
C 992 166 979 205 979 436 
L 979 2816 
L 243 2745 
z
" transform="scale(0.015625)"/>
      <path id="CMR17-63" d="M 2234 2240 
C 2112 2240 1933 2240 1933 2015 
C 1933 1836 2080 1785 2163 1785 
C 2208 1785 2394 1804 2394 2028 
C 2394 2476 1958 2816 1466 2816 
C 787 2816 211 2201 211 1379 
C 211 521 813 -64 1466 -64 
C 2259 -64 2458 676 2458 747 
C 2458 773 2451 792 2406 792 
C 2362 792 2355 786 2330 702 
C 2163 180 1798 51 1523 51 
C 1114 51 621 431 621 1385 
C 621 2358 1094 2700 1472 2700 
C 1722 2700 2093 2582 2234 2240 
z
" transform="scale(0.015625)"/>
      <path id="CMR17-6c" d="M 979 4416 
L 218 4345 
L 218 4179 
C 595 4179 653 4141 653 3835 
L 653 439 
C 653 198 627 166 218 166 
L 218 0 
C 371 12 653 12 813 12 
C 979 12 1261 12 1414 0 
L 1414 166 
C 1005 166 979 191 979 439 
L 979 4416 
z
" transform="scale(0.015625)"/>
     </defs>
     <use xlink:href="#CMR17-43" transform="scale(0.996264)"/>
     <use xlink:href="#CMR17-69" transform="translate(66.509881 0) scale(0.996264)"/>
     <use xlink:href="#CMR17-72" transform="translate(91.380939 0) scale(0.996264)"/>
     <use xlink:href="#CMR17-63" transform="translate(126.661707 0) scale(0.996264)"/>
     <use xlink:href="#CMR17-6c" transform="translate(167.147367 0) scale(0.996264)"/>
     <use xlink:href="#CMR17-65" transform="translate(192.018426 0) scale(0.996264)"/>
    </g>
   </g>
  </g>
  <g id="axes_3">
   <g id="patch_6">
    <path d="M 93.01527 18.432612 
C 93.01527 17.058689 92.744637 15.698126 92.218859 14.428787 
C 91.693082 13.159447 90.922385 12.006018 89.950874 11.034507 
C 88.979364 10.062997 87.825934 9.2923 86.556595 8.766522 
C 85.287256 8.240745 83.926693 7.970112 82.55277 7.970112 
C 81.178847 7.970112 79.818284 8.240745 78.548944 8.766522 
C 77.279605 9.2923 76.126175 10.062997 75.154665 11.034507 
C 74.183155 12.006018 73.412458 13.159447 72.88668 14.428787 
C 72.360903 15.698126 72.09027 17.058689 72.09027 18.432612 
C 72.09027 19.806535 72.360903 21.167098 72.88668 22.436437 
C 73.412458 23.705777 74.183155 24.859207 75.154665 25.830717 
C 76.126175 26.802227 77.279605 27.572924 78.548944 28.098702 
C 79.818284 28.624479 81.178847 28.895112 82.55277 28.895112 
C 83.926693 28.895112 85.287256 28.624479 86.556595 28.098702 
C 87.825934 27.572924 88.979364 26.802227 89.950874 25.830717 
C 90.922385 24.859207 91.693082 23.705777 92.218859 22.436437 
C 92.744637 21.167098 93.01527 19.806535 93.01527 18.432612 
M 82.55277 18.432612 
C 82.55277 18.432612 82.55277 18.432612 82.55277 18.432612 
C 82.55277 18.432612 82.55277 18.432612 82.55277 18.432612 
C 82.55277 18.432612 82.55277 18.432612 82.55277 18.432612 
C 82.55277 18.432612 82.55277 18.432612 82.55277 18.432612 
C 82.55277 18.432612 82.55277 18.432612 82.55277 18.432612 
C 82.55277 18.432612 82.55277 18.432612 82.55277 18.432612 
C 82.55277 18.432612 82.55277 18.432612 82.55277 18.432612 
C 82.55277 18.432612 82.55277 18.432612 82.55277 18.432612 
C 82.55277 18.432612 82.55277 18.432612 82.55277 18.432612 
C 82.55277 18.432612 82.55277 18.432612 82.55277 18.432612 
C 82.55277 18.432612 82.55277 18.432612 82.55277 18.432612 
C 82.55277 18.432612 82.55277 18.432612 82.55277 18.432612 
C 82.55277 18.432612 82.55277 18.432612 82.55277 18.432612 
C 82.55277 18.432612 82.55277 18.432612 82.55277 18.432612 
C 82.55277 18.432612 82.55277 18.432612 82.55277 18.432612 
C 82.55277 18.432612 82.55277 18.432612 82.55277 18.432612 
L 82.55277 18.432612 
z
" style="fill: none"/>
   </g>
   <g id="matplotlib.axis_5">
    <g id="xtick_17">
     <g id="line2d_23">
      <path d="M 82.55277 18.432612 
L 93.01527 18.432612 
" clip-path="url(#p31be5869f8)" style="fill: none; stroke: #b0b0b0; stroke-width: 0.8; stroke-linecap: square"/>
     </g>
    </g>
    <g id="xtick_18">
     <g id="line2d_24">
      <path d="M 82.55277 18.432612 
L 89.950874 11.034507 
" clip-path="url(#p31be5869f8)" style="fill: none; stroke: #b0b0b0; stroke-width: 0.8; stroke-linecap: square"/>
     </g>
    </g>
    <g id="xtick_19">
     <g id="line2d_25">
      <path d="M 82.55277 18.432612 
L 82.55277 7.970112 
" clip-path="url(#p31be5869f8)" style="fill: none; stroke: #b0b0b0; stroke-width: 0.8; stroke-linecap: square"/>
     </g>
    </g>
    <g id="xtick_20">
     <g id="line2d_26">
      <path d="M 82.55277 18.432612 
L 75.154665 11.034507 
" clip-path="url(#p31be5869f8)" style="fill: none; stroke: #b0b0b0; stroke-width: 0.8; stroke-linecap: square"/>
     </g>
    </g>
    <g id="xtick_21">
     <g id="line2d_27">
      <path d="M 82.55277 18.432612 
L 72.09027 18.432612 
" clip-path="url(#p31be5869f8)" style="fill: none; stroke: #b0b0b0; stroke-width: 0.8; stroke-linecap: square"/>
     </g>
    </g>
    <g id="xtick_22">
     <g id="line2d_28">
      <path d="M 82.55277 18.432612 
L 75.154665 25.830717 
" clip-path="url(#p31be5869f8)" style="fill: none; stroke: #b0b0b0; stroke-width: 0.8; stroke-linecap: square"/>
     </g>
    </g>
    <g id="xtick_23">
     <g id="line2d_29">
      <path d="M 82.55277 18.432612 
L 82.55277 28.895112 
" clip-path="url(#p31be5869f8)" style="fill: none; stroke: #b0b0b0; stroke-width: 0.8; stroke-linecap: square"/>
     </g>
    </g>
    <g id="xtick_24">
     <g id="line2d_30">
      <path d="M 82.55277 18.432612 
L 89.950874 25.830717 
" clip-path="url(#p31be5869f8)" style="fill: none; stroke: #b0b0b0; stroke-width: 0.8; stroke-linecap: square"/>
     </g>
    </g>
   </g>
   <g id="matplotlib.axis_6">
    <g id="ytick_5">
     <g id="line2d_31">
      <path d="M 84.64527 18.432612 
C 84.64527 18.157827 84.591143 17.885715 84.485988 17.631847 
C 84.380832 17.377979 84.226693 17.147293 84.032391 16.952991 
C 83.838089 16.758689 83.607403 16.60455 83.353535 16.499394 
C 83.099667 16.394239 82.827554 16.340112 82.55277 16.340112 
C 82.277985 16.340112 82.005872 16.394239 81.752005 16.499394 
C 81.498137 16.60455 81.267451 16.758689 81.073149 16.952991 
C 80.878847 17.147293 80.724707 17.377979 80.619552 17.631847 
C 80.514396 17.885715 80.46027 18.157827 80.46027 18.432612 
C 80.46027 18.707397 80.514396 18.979509 80.619552 19.233377 
C 80.724707 19.487245 80.878847 19.717931 81.073149 19.912233 
C 81.267451 20.106535 81.498137 20.260674 81.752005 20.36583 
C 82.005872 20.470986 82.277985 20.525112 82.55277 20.525112 
C 82.827554 20.525112 83.099667 20.470986 83.353535 20.36583 
C 83.607403 20.260674 83.838089 20.106535 84.032391 19.912233 
C 84.226693 19.717931 84.380832 19.487245 84.485988 19.233377 
C 84.591143 18.979509 84.64527 18.707397 84.64527 18.432612 
" clip-path="url(#p31be5869f8)" style="fill: none; stroke: #b0b0b0; stroke-width: 0.8; stroke-linecap: square"/>
     </g>
     <g id="text_7">
      <!-- $\mathdefault{0.05}$ -->
      <g transform="translate(84.485988 16.018178) scale(0.0833 -0.0833)">
       <use xlink:href="#CMR17-30" transform="scale(0.996264)"/>
       <use xlink:href="#CMMI12-3a" transform="translate(45.690477 0) scale(0.996264)"/>
       <use xlink:href="#CMR17-30" transform="translate(72.787654 0) scale(0.996264)"/>
       <use xlink:href="#CMR17-35" transform="translate(118.478131 0) scale(0.996264)"/>
      </g>
     </g>
    </g>
    <g id="ytick_6">
     <g id="line2d_32">
      <path d="M 93.01527 18.432612 
C 93.01527 17.058689 92.744637 15.698126 92.218859 14.428787 
C 91.693082 13.159447 90.922385 12.006018 89.950874 11.034507 
C 88.979364 10.062997 87.825934 9.2923 86.556595 8.766522 
C 85.287256 8.240745 83.926693 7.970112 82.55277 7.970112 
C 81.178847 7.970112 79.818284 8.240745 78.548944 8.766522 
C 77.279605 9.2923 76.126175 10.062997 75.154665 11.034507 
C 74.183155 12.006018 73.412458 13.159447 72.88668 14.428787 
C 72.360903 15.698126 72.09027 17.058689 72.09027 18.432612 
C 72.09027 19.806535 72.360903 21.167098 72.88668 22.436437 
C 73.412458 23.705777 74.183155 24.859207 75.154665 25.830717 
C 76.126175 26.802227 77.279605 27.572924 78.548944 28.098702 
C 79.818284 28.624479 81.178847 28.895112 82.55277 28.895112 
C 83.926693 28.895112 85.287256 28.624479 86.556595 28.098702 
C 87.825934 27.572924 88.979364 26.802227 89.950874 25.830717 
C 90.922385 24.859207 91.693082 23.705777 92.218859 22.436437 
C 92.744637 21.167098 93.01527 19.806535 93.01527 18.432612 
" clip-path="url(#p31be5869f8)" style="fill: none; stroke: #b0b0b0; stroke-width: 0.8; stroke-linecap: square"/>
     </g>
     <g id="text_8">
      <!-- $\mathdefault{0.25}$ -->
      <g transform="translate(92.218859 12.815117) scale(0.0833 -0.0833)">
       <use xlink:href="#CMR17-30" transform="scale(0.996264)"/>
       <use xlink:href="#CMMI12-3a" transform="translate(45.690477 0) scale(0.996264)"/>
       <use xlink:href="#CMR17-32" transform="translate(72.787654 0) scale(0.996264)"/>
       <use xlink:href="#CMR17-35" transform="translate(118.478131 0) scale(0.996264)"/>
      </g>
     </g>
    </g>
   </g>
   <g id="line2d_33">
    <path d="M 75.308922 18.66256 
L 75.526482 19.103541 
L 75.82084 19.509797 
L 75.928441 19.928783 
L 76.134106 20.317302 
L 76.302502 20.707524 
L 76.535484 21.066049 
L 76.828325 21.383768 
L 77.048523 21.728022 
L 77.31315 22.039827 
L 77.543153 22.372218 
L 77.833573 22.654757 
L 78.057665 22.999611 
L 78.356804 23.275015 
L 78.711911 23.479442 
L 78.937827 23.866054 
L 79.312464 24.044986 
L 79.665869 24.257514 
L 80.071691 24.355901 
L 80.393271 24.672075 
L 80.79827 24.778681 
L 81.144737 25.161814 
L 81.572957 25.247359 
L 81.989276 25.520589 
L 82.438283 25.647549 
L 82.890654 25.525678 
L 83.332974 25.428365 
L 83.744872 25.193359 
L 84.141727 24.982385 
L 84.526726 24.780897 
L 84.903028 24.584402 
L 85.325447 24.503928 
L 85.662579 24.236803 
L 85.952825 23.912457 
L 86.300418 23.695448 
L 86.54891 23.351456 
L 86.928897 23.170449 
L 87.207693 22.871073 
L 87.51367 22.595301 
L 87.773537 22.276581 
L 87.990184 21.927026 
L 88.287875 21.623539 
L 88.505502 21.266125 
L 88.585689 20.847829 
L 88.947247 20.532761 
L 89.008213 20.107568 
L 89.234831 19.720474 
L 89.43257 19.310607 
L 89.681698 18.885669 
L 89.748832 18.432612 
L 89.532315 17.989049 
L 89.333801 17.567222 
L 89.201161 17.15124 
L 89.058636 16.744573 
L 88.981703 16.321147 
L 88.53794 16.036511 
L 88.492403 15.605334 
L 88.194527 15.293622 
L 87.951908 14.962797 
L 87.736898 14.615619 
L 87.435374 14.33562 
L 87.22726 13.975495 
L 86.839862 13.79117 
L 86.579263 13.476407 
L 86.248782 13.242289 
L 85.943439 12.967896 
L 85.589396 12.765011 
L 85.32709 12.357697 
L 84.924679 12.224153 
L 84.570583 11.943282 
L 84.156652 11.821321 
L 83.753574 11.622512 
L 83.333631 11.430961 
L 82.893666 11.276315 
L 82.436453 11.102295 
L 81.996853 11.439948 
L 81.549402 11.45404 
L 81.162294 11.787315 
L 80.758031 11.941 
L 80.349921 12.067899 
L 80.03093 12.412011 
L 79.667626 12.611255 
L 79.28378 12.770556 
L 78.929791 12.987092 
L 78.625254 13.271916 
L 78.339963 13.570774 
L 78.042401 13.850105 
L 77.736761 14.123852 
L 77.533823 14.485669 
L 77.228421 14.767066 
L 77.015709 15.117556 
L 76.719311 15.425255 
L 76.57475 15.81636 
L 76.342778 16.17236 
L 76.070837 16.529345 
L 75.999193 16.952422 
L 75.714708 17.338445 
L 75.557334 17.764629 
L 75.421623 18.206242 
" clip-path="url(#p31be5869f8)" style="fill: none; stroke: #348abd; stroke-opacity: 0.75; stroke-width: 2; stroke-linecap: square"/>
   </g>
   <g id="patch_7">
    <path d="M 93.01527 18.432612 
C 93.01527 17.058689 92.744637 15.698126 92.218859 14.428787 
C 91.693082 13.159447 90.922385 12.006018 89.950874 11.034507 
C 88.979364 10.062997 87.825934 9.2923 86.556595 8.766522 
C 85.287256 8.240745 83.926693 7.970112 82.55277 7.970112 
C 81.178847 7.970112 79.818284 8.240745 78.548944 8.766522 
C 77.279605 9.2923 76.126175 10.062997 75.154665 11.034507 
C 74.183155 12.006018 73.412458 13.159447 72.88668 14.428787 
C 72.360903 15.698126 72.09027 17.058689 72.09027 18.432612 
C 72.09027 19.806535 72.360903 21.167098 72.88668 22.436437 
C 73.412458 23.705777 74.183155 24.859207 75.154665 25.830717 
C 76.126175 26.802227 77.279605 27.572924 78.548944 28.098702 
C 79.818284 28.624479 81.178847 28.895112 82.55277 28.895112 
C 83.926693 28.895112 85.287256 28.624479 86.556595 28.098702 
C 87.825934 27.572924 88.979364 26.802227 89.950874 25.830717 
C 90.922385 24.859207 91.693082 23.705777 92.218859 22.436437 
C 92.744637 21.167098 93.01527 19.806535 93.01527 18.432612 
" style="fill: none; stroke: #000000; stroke-width: 0.8; stroke-linejoin: miter; stroke-linecap: square"/>
   </g>
   <g id="text_9">
    <!-- Large Square -->
    <g transform="translate(55.970705 6.22665) scale(0.09 -0.09)">
     <defs>
      <path id="CMR17-4c" d="M 3469 1612 
L 3354 1612 
C 3302 981 3219 166 2125 166 
L 1530 166 
C 1274 166 1261 198 1261 414 
L 1261 3892 
C 1261 4121 1274 4185 1760 4185 
L 1901 4185 
L 1901 4352 
C 1638 4339 1331 4339 1069 4339 
C 870 4339 512 4339 326 4352 
L 326 4185 
C 768 4185 838 4185 838 3898 
L 838 453 
C 838 166 768 166 326 166 
L 326 0 
L 3315 0 
L 3469 1612 
z
" transform="scale(0.015625)"/>
      <path id="CMR17-67" d="M 710 1165 
C 832 1068 1043 960 1299 960 
C 1805 960 2240 1359 2240 1895 
C 2240 2063 2189 2321 1997 2521 
C 2176 2713 2438 2777 2586 2777 
C 2611 2777 2650 2777 2682 2758 
C 2656 2751 2598 2726 2598 2623 
C 2598 2540 2656 2483 2739 2483 
C 2835 2483 2886 2547 2886 2630 
C 2886 2751 2790 2880 2586 2880 
C 2330 2880 2106 2758 1926 2591 
C 1734 2764 1504 2828 1299 2828 
C 794 2828 358 2431 358 1895 
C 358 1527 570 1294 634 1230 
C 442 1004 442 742 442 710 
C 442 544 506 300 723 166 
C 390 82 128 -184 128 -517 
C 128 -996 736 -1344 1466 -1344 
C 2170 -1344 2803 -1009 2803 -510 
C 2803 384 1856 384 1363 384 
C 1216 384 954 384 922 390 
C 723 422 589 601 589 825 
C 589 883 589 1024 710 1165 
z
M 1299 1068 
C 736 1068 736 1766 736 1895 
C 736 2024 736 2719 1299 2719 
C 1862 2719 1862 2024 1862 1895 
C 1862 1766 1862 1068 1299 1068 
z
M 1466 -1236 
C 826 -1236 384 -883 384 -517 
C 384 -311 493 -118 634 -11 
C 794 102 858 102 1293 102 
C 1818 102 2547 102 2547 -517 
C 2547 -883 2106 -1236 1466 -1236 
z
" transform="scale(0.015625)"/>
     </defs>
     <use xlink:href="#CMR17-4c" transform="scale(0.996264)"/>
     <use xlink:href="#CMR17-61" transform="translate(57.381408 0) scale(0.996264)"/>
     <use xlink:href="#CMR17-72" transform="translate(103.071885 0) scale(0.996264)"/>
     <use xlink:href="#CMR17-67" transform="translate(138.352653 0) scale(0.996264)"/>
     <use xlink:href="#CMR17-65" transform="translate(184.04313 0) scale(0.996264)"/>
     <use xlink:href="#CMR17-53" transform="translate(254.604757 0) scale(0.996264)"/>
     <use xlink:href="#CMR17-71" transform="translate(305.500126 0) scale(0.996264)"/>
     <use xlink:href="#CMR17-75" transform="translate(353.793042 0) scale(0.996264)"/>
     <use xlink:href="#CMR17-61" transform="translate(404.688412 0) scale(0.996264)"/>
     <use xlink:href="#CMR17-72" transform="translate(450.378889 0) scale(0.996264)"/>
     <use xlink:href="#CMR17-65" transform="translate(485.659657 0) scale(0.996264)"/>
    </g>
   </g>
  </g>
  <g id="axes_4">
   <g id="patch_8">
    <path d="M 30.24027 49.157829 
C 30.24027 47.783907 29.969637 46.423343 29.443859 45.154004 
C 28.918082 43.884665 28.147385 42.731235 27.175874 41.759725 
C 26.204364 40.788215 25.050934 40.017517 23.781595 39.49174 
C 22.512256 38.965962 21.151693 38.695329 19.77777 38.695329 
C 18.403847 38.695329 17.043284 38.965962 15.773944 39.49174 
C 14.504605 40.017517 13.351175 40.788215 12.379665 41.759725 
C 11.408155 42.731235 10.637458 43.884665 10.11168 45.154004 
C 9.585903 46.423343 9.31527 47.783907 9.31527 49.157829 
C 9.31527 50.531752 9.585903 51.892316 10.11168 53.161655 
C 10.637458 54.430994 11.408155 55.584424 12.379665 56.555934 
C 13.351175 57.527444 14.504605 58.298142 15.773944 58.823919 
C 17.043284 59.349697 18.403847 59.620329 19.77777 59.620329 
C 21.151693 59.620329 22.512256 59.349697 23.781595 58.823919 
C 25.050934 58.298142 26.204364 57.527444 27.175874 56.555934 
C 28.147385 55.584424 28.918082 54.430994 29.443859 53.161655 
C 29.969637 51.892316 30.24027 50.531752 30.24027 49.157829 
M 19.77777 49.157829 
C 19.77777 49.157829 19.77777 49.157829 19.77777 49.157829 
C 19.77777 49.157829 19.77777 49.157829 19.77777 49.157829 
C 19.77777 49.157829 19.77777 49.157829 19.77777 49.157829 
C 19.77777 49.157829 19.77777 49.157829 19.77777 49.157829 
C 19.77777 49.157829 19.77777 49.157829 19.77777 49.157829 
C 19.77777 49.157829 19.77777 49.157829 19.77777 49.157829 
C 19.77777 49.157829 19.77777 49.157829 19.77777 49.157829 
C 19.77777 49.157829 19.77777 49.157829 19.77777 49.157829 
C 19.77777 49.157829 19.77777 49.157829 19.77777 49.157829 
C 19.77777 49.157829 19.77777 49.157829 19.77777 49.157829 
C 19.77777 49.157829 19.77777 49.157829 19.77777 49.157829 
C 19.77777 49.157829 19.77777 49.157829 19.77777 49.157829 
C 19.77777 49.157829 19.77777 49.157829 19.77777 49.157829 
C 19.77777 49.157829 19.77777 49.157829 19.77777 49.157829 
C 19.77777 49.157829 19.77777 49.157829 19.77777 49.157829 
C 19.77777 49.157829 19.77777 49.157829 19.77777 49.157829 
L 19.77777 49.157829 
z
" style="fill: none"/>
   </g>
   <g id="matplotlib.axis_7">
    <g id="xtick_25">
     <g id="line2d_34">
      <path d="M 19.77777 49.157829 
L 30.24027 49.157829 
" clip-path="url(#pd86f312d5e)" style="fill: none; stroke: #b0b0b0; stroke-width: 0.8; stroke-linecap: square"/>
     </g>
    </g>
    <g id="xtick_26">
     <g id="line2d_35">
      <path d="M 19.77777 49.157829 
L 27.175874 41.759725 
" clip-path="url(#pd86f312d5e)" style="fill: none; stroke: #b0b0b0; stroke-width: 0.8; stroke-linecap: square"/>
     </g>
    </g>
    <g id="xtick_27">
     <g id="line2d_36">
      <path d="M 19.77777 49.157829 
L 19.77777 38.695329 
" clip-path="url(#pd86f312d5e)" style="fill: none; stroke: #b0b0b0; stroke-width: 0.8; stroke-linecap: square"/>
     </g>
    </g>
    <g id="xtick_28">
     <g id="line2d_37">
      <path d="M 19.77777 49.157829 
L 12.379665 41.759725 
" clip-path="url(#pd86f312d5e)" style="fill: none; stroke: #b0b0b0; stroke-width: 0.8; stroke-linecap: square"/>
     </g>
    </g>
    <g id="xtick_29">
     <g id="line2d_38">
      <path d="M 19.77777 49.157829 
L 9.31527 49.157829 
" clip-path="url(#pd86f312d5e)" style="fill: none; stroke: #b0b0b0; stroke-width: 0.8; stroke-linecap: square"/>
     </g>
    </g>
    <g id="xtick_30">
     <g id="line2d_39">
      <path d="M 19.77777 49.157829 
L 12.379665 56.555934 
" clip-path="url(#pd86f312d5e)" style="fill: none; stroke: #b0b0b0; stroke-width: 0.8; stroke-linecap: square"/>
     </g>
    </g>
    <g id="xtick_31">
     <g id="line2d_40">
      <path d="M 19.77777 49.157829 
L 19.77777 59.620329 
" clip-path="url(#pd86f312d5e)" style="fill: none; stroke: #b0b0b0; stroke-width: 0.8; stroke-linecap: square"/>
     </g>
    </g>
    <g id="xtick_32">
     <g id="line2d_41">
      <path d="M 19.77777 49.157829 
L 27.175874 56.555934 
" clip-path="url(#pd86f312d5e)" style="fill: none; stroke: #b0b0b0; stroke-width: 0.8; stroke-linecap: square"/>
     </g>
    </g>
   </g>
   <g id="matplotlib.axis_8">
    <g id="ytick_7">
     <g id="line2d_42">
      <path d="M 21.87027 49.157829 
C 21.87027 48.883045 21.816143 48.610932 21.710988 48.357064 
C 21.605832 48.103197 21.451693 47.872511 21.257391 47.678209 
C 21.063089 47.483906 20.832403 47.329767 20.578535 47.224612 
C 20.324667 47.119456 20.052554 47.065329 19.77777 47.065329 
C 19.502985 47.065329 19.230872 47.119456 18.977005 47.224612 
C 18.723137 47.329767 18.492451 47.483906 18.298149 47.678209 
C 18.103847 47.872511 17.949707 48.103197 17.844552 48.357064 
C 17.739396 48.610932 17.68527 48.883045 17.68527 49.157829 
C 17.68527 49.432614 17.739396 49.704727 17.844552 49.958595 
C 17.949707 50.212462 18.103847 50.443148 18.298149 50.63745 
C 18.492451 50.831752 18.723137 50.985892 18.977005 51.091047 
C 19.230872 51.196203 19.502985 51.250329 19.77777 51.250329 
C 20.052554 51.250329 20.324667 51.196203 20.578535 51.091047 
C 20.832403 50.985892 21.063089 50.831752 21.257391 50.63745 
C 21.451693 50.443148 21.605832 50.212462 21.710988 49.958595 
C 21.816143 49.704727 21.87027 49.432614 21.87027 49.157829 
" clip-path="url(#pd86f312d5e)" style="fill: none; stroke: #b0b0b0; stroke-width: 0.8; stroke-linecap: square"/>
     </g>
     <g id="text_10">
      <!-- $\mathdefault{0.05}$ -->
      <g transform="translate(21.710988 46.743395) scale(0.0833 -0.0833)">
       <use xlink:href="#CMR17-30" transform="scale(0.996264)"/>
       <use xlink:href="#CMMI12-3a" transform="translate(45.690477 0) scale(0.996264)"/>
       <use xlink:href="#CMR17-30" transform="translate(72.787654 0) scale(0.996264)"/>
       <use xlink:href="#CMR17-35" transform="translate(118.478131 0) scale(0.996264)"/>
      </g>
     </g>
    </g>
    <g id="ytick_8">
     <g id="line2d_43">
      <path d="M 30.24027 49.157829 
C 30.24027 47.783907 29.969637 46.423343 29.443859 45.154004 
C 28.918082 43.884665 28.147385 42.731235 27.175874 41.759725 
C 26.204364 40.788215 25.050934 40.017517 23.781595 39.49174 
C 22.512256 38.965962 21.151693 38.695329 19.77777 38.695329 
C 18.403847 38.695329 17.043284 38.965962 15.773944 39.49174 
C 14.504605 40.017517 13.351175 40.788215 12.379665 41.759725 
C 11.408155 42.731235 10.637458 43.884665 10.11168 45.154004 
C 9.585903 46.423343 9.31527 47.783907 9.31527 49.157829 
C 9.31527 50.531752 9.585903 51.892316 10.11168 53.161655 
C 10.637458 54.430994 11.408155 55.584424 12.379665 56.555934 
C 13.351175 57.527444 14.504605 58.298142 15.773944 58.823919 
C 17.043284 59.349697 18.403847 59.620329 19.77777 59.620329 
C 21.151693 59.620329 22.512256 59.349697 23.781595 58.823919 
C 25.050934 58.298142 26.204364 57.527444 27.175874 56.555934 
C 28.147385 55.584424 28.918082 54.430994 29.443859 53.161655 
C 29.969637 51.892316 30.24027 50.531752 30.24027 49.157829 
" clip-path="url(#pd86f312d5e)" style="fill: none; stroke: #b0b0b0; stroke-width: 0.8; stroke-linecap: square"/>
     </g>
     <g id="text_11">
      <!-- $\mathdefault{0.25}$ -->
      <g transform="translate(29.443859 43.540335) scale(0.0833 -0.0833)">
       <use xlink:href="#CMR17-30" transform="scale(0.996264)"/>
       <use xlink:href="#CMMI12-3a" transform="translate(45.690477 0) scale(0.996264)"/>
       <use xlink:href="#CMR17-32" transform="translate(72.787654 0) scale(0.996264)"/>
       <use xlink:href="#CMR17-35" transform="translate(118.478131 0) scale(0.996264)"/>
      </g>
     </g>
    </g>
   </g>
   <g id="line2d_44">
    <path d="M 12.110799 49.401209 
L 12.414084 49.860976 
L 12.599172 50.306486 
L 12.939898 50.702231 
L 13.1345 51.108469 
L 13.361439 51.493183 
L 13.522475 51.89543 
L 13.922625 52.176366 
L 14.231657 52.478305 
L 14.464283 52.815897 
L 14.702844 53.148795 
L 15.026138 53.408992 
L 15.28544 53.722008 
L 15.675508 53.892092 
L 15.932119 54.210956 
L 16.264003 54.439199 
L 16.605383 54.652565 
L 16.936256 54.891155 
L 17.284462 55.110312 
L 17.680599 55.217206 
L 18.045761 55.422547 
L 18.414034 55.675332 
L 18.806309 55.914487 
L 19.234708 55.988791 
L 19.667876 56.083325 
L 20.105582 56.039467 
L 20.518872 55.802976 
L 20.948574 55.797791 
L 21.332526 55.566623 
L 21.668319 55.237877 
L 22.072255 55.163632 
L 22.412388 54.926839 
L 22.770797 54.744058 
L 23.162181 54.61246 
L 23.390399 54.231057 
L 23.774326 54.077185 
L 24.11005 53.848196 
L 24.392606 53.558067 
L 24.696239 53.284915 
L 25.002785 53.004927 
L 25.319472 52.719265 
L 25.50596 52.344909 
L 25.823978 52.035837 
L 26.176766 51.719601 
L 26.280628 51.293574 
L 26.630216 50.935794 
L 26.801704 50.511582 
L 27.144219 50.09793 
L 27.439081 49.64472 
L 27.449921 49.157829 
L 27.252188 48.682816 
L 27.062457 48.228164 
L 26.916956 47.781864 
L 26.445756 47.427726 
L 26.446645 46.96756 
L 26.034131 46.65316 
L 25.627499 46.373346 
L 25.533042 45.955682 
L 25.179681 45.686232 
L 24.917825 45.373287 
L 24.58511 45.123992 
L 24.401196 44.749402 
L 24.03578 44.547872 
L 23.760605 44.255363 
L 23.42291 44.038946 
L 23.057885 43.871292 
L 22.712562 43.680291 
L 22.417045 43.378623 
L 22.04778 43.216089 
L 21.681829 43.034335 
L 21.305632 42.859897 
L 20.92865 42.630861 
L 20.525523 42.453047 
L 20.102602 42.338765 
L 19.667102 42.183545 
L 19.240248 42.396545 
L 18.827987 42.551944 
L 18.412008 42.630646 
L 18.040314 42.87341 
L 17.653209 43.019315 
L 17.283953 43.20413 
L 16.975201 43.503084 
L 16.639672 43.722484 
L 16.308199 43.942889 
L 15.950488 44.12884 
L 15.693213 44.443999 
L 15.371475 44.681062 
L 15.054641 44.932167 
L 14.714765 45.176239 
L 14.445817 45.487048 
L 14.129821 45.776385 
L 13.942552 46.149566 
L 13.654165 46.477863 
L 13.305053 46.801953 
L 13.104131 47.198272 
L 12.991998 47.625195 
L 12.612194 48.011256 
L 12.399643 48.453304 
L 12.221523 48.917965 
" clip-path="url(#pd86f312d5e)" style="fill: none; stroke: #348abd; stroke-opacity: 0.75; stroke-width: 2; stroke-linecap: square"/>
   </g>
   <g id="patch_9">
    <path d="M 30.24027 49.157829 
C 30.24027 47.783907 29.969637 46.423343 29.443859 45.154004 
C 28.918082 43.884665 28.147385 42.731235 27.175874 41.759725 
C 26.204364 40.788215 25.050934 40.017517 23.781595 39.49174 
C 22.512256 38.965962 21.151693 38.695329 19.77777 38.695329 
C 18.403847 38.695329 17.043284 38.965962 15.773944 39.49174 
C 14.504605 40.017517 13.351175 40.788215 12.379665 41.759725 
C 11.408155 42.731235 10.637458 43.884665 10.11168 45.154004 
C 9.585903 46.423343 9.31527 47.783907 9.31527 49.157829 
C 9.31527 50.531752 9.585903 51.892316 10.11168 53.161655 
C 10.637458 54.430994 11.408155 55.584424 12.379665 56.555934 
C 13.351175 57.527444 14.504605 58.298142 15.773944 58.823919 
C 17.043284 59.349697 18.403847 59.620329 19.77777 59.620329 
C 21.151693 59.620329 22.512256 59.349697 23.781595 58.823919 
C 25.050934 58.298142 26.204364 57.527444 27.175874 56.555934 
C 28.147385 55.584424 28.918082 54.430994 29.443859 53.161655 
C 29.969637 51.892316 30.24027 50.531752 30.24027 49.157829 
" style="fill: none; stroke: #000000; stroke-width: 0.8; stroke-linejoin: miter; stroke-linecap: square"/>
   </g>
   <g id="text_12">
    <!-- Rectangle -->
    <g transform="translate(0 36.951867) scale(0.09 -0.09)">
     <defs>
      <path id="CMR17-52" d="M 2509 2156 
C 3117 2278 3629 2689 3629 3203 
C 3629 3806 2950 4352 2054 4352 
L 333 4352 
L 333 4185 
C 774 4185 845 4185 845 3896 
L 845 428 
C 845 140 774 140 333 140 
L 333 -26 
C 518 -13 851 -13 1050 -13 
C 1248 -13 1581 -13 1766 -26 
L 1766 140 
C 1325 140 1254 140 1254 428 
L 1254 2112 
L 2003 2112 
C 2368 2112 2573 1964 2662 1881 
C 2918 1632 2918 1459 2918 1024 
C 2918 595 2918 377 3110 160 
C 3354 -103 3680 -128 3821 -128 
C 4294 -128 4365 403 4365 512 
C 4365 550 4365 595 4307 595 
C 4256 595 4250 556 4250 531 
C 4218 115 4032 -26 3834 -26 
C 3482 -26 3443 377 3405 768 
C 3386 902 3373 998 3360 1139 
C 3322 1459 3270 1926 2509 2156 
z
M 1984 2214 
L 1254 2214 
L 1254 3935 
C 1254 4153 1267 4185 1523 4185 
L 1990 4185 
C 2522 4185 3142 3999 3142 3203 
C 3142 2374 2464 2214 1984 2214 
z
" transform="scale(0.015625)"/>
      <path id="CMR17-74" d="M 966 2585 
L 1862 2585 
L 1862 2752 
L 966 2752 
L 966 3968 
L 851 3968 
C 838 3292 614 2700 70 2687 
L 70 2585 
L 627 2585 
L 627 778 
C 627 655 627 -64 1370 -64 
C 1747 -64 1965 308 1965 784 
L 1965 1151 
L 1850 1151 
L 1850 790 
C 1850 347 1677 51 1408 51 
C 1222 51 966 179 966 765 
L 966 2585 
z
" transform="scale(0.015625)"/>
      <path id="CMR17-6e" d="M 2656 1954 
C 2656 2282 2592 2816 1837 2816 
C 1331 2816 1069 2424 973 2166 
L 966 2166 
L 966 2816 
L 211 2745 
L 211 2578 
C 589 2578 646 2540 646 2231 
L 646 443 
C 646 198 621 166 211 166 
L 211 0 
C 365 12 646 12 813 12 
C 979 12 1267 12 1421 0 
L 1421 166 
C 1011 166 986 192 986 443 
L 986 1678 
C 986 2269 1344 2713 1792 2713 
C 2266 2713 2317 2289 2317 1980 
L 2317 443 
C 2317 198 2291 166 1882 166 
L 1882 0 
C 2035 12 2317 12 2483 12 
C 2650 12 2938 12 3091 0 
L 3091 166 
C 2682 166 2656 192 2656 443 
L 2656 1954 
z
" transform="scale(0.015625)"/>
     </defs>
     <use xlink:href="#CMR17-52" transform="scale(0.996264)"/>
     <use xlink:href="#CMR17-65" transform="translate(67.791102 0) scale(0.996264)"/>
     <use xlink:href="#CMR17-63" transform="translate(108.276762 0) scale(0.996264)"/>
     <use xlink:href="#CMR17-74" transform="translate(148.762423 0) scale(0.996264)"/>
     <use xlink:href="#CMR17-61" transform="translate(184.043191 0) scale(0.996264)"/>
     <use xlink:href="#CMR17-6e" transform="translate(229.733668 0) scale(0.996264)"/>
     <use xlink:href="#CMR17-67" transform="translate(280.629038 0) scale(0.996264)"/>
     <use xlink:href="#CMR17-6c" transform="translate(326.319515 0) scale(0.996264)"/>
     <use xlink:href="#CMR17-65" transform="translate(351.190573 0) scale(0.996264)"/>
    </g>
   </g>
  </g>
  <g id="axes_5">
   <g id="patch_10">
    <path d="M 61.62777 49.157829 
C 61.62777 47.783907 61.357137 46.423343 60.831359 45.154004 
C 60.305582 43.884665 59.534885 42.731235 58.563374 41.759725 
C 57.591864 40.788215 56.438434 40.017517 55.169095 39.49174 
C 53.899756 38.965962 52.539193 38.695329 51.16527 38.695329 
C 49.791347 38.695329 48.430784 38.965962 47.161444 39.49174 
C 45.892105 40.017517 44.738675 40.788215 43.767165 41.759725 
C 42.795655 42.731235 42.024958 43.884665 41.49918 45.154004 
C 40.973403 46.423343 40.70277 47.783907 40.70277 49.157829 
C 40.70277 50.531752 40.973403 51.892316 41.49918 53.161655 
C 42.024958 54.430994 42.795655 55.584424 43.767165 56.555934 
C 44.738675 57.527444 45.892105 58.298142 47.161444 58.823919 
C 48.430784 59.349697 49.791347 59.620329 51.16527 59.620329 
C 52.539193 59.620329 53.899756 59.349697 55.169095 58.823919 
C 56.438434 58.298142 57.591864 57.527444 58.563374 56.555934 
C 59.534885 55.584424 60.305582 54.430994 60.831359 53.161655 
C 61.357137 51.892316 61.62777 50.531752 61.62777 49.157829 
M 51.16527 49.157829 
C 51.16527 49.157829 51.16527 49.157829 51.16527 49.157829 
C 51.16527 49.157829 51.16527 49.157829 51.16527 49.157829 
C 51.16527 49.157829 51.16527 49.157829 51.16527 49.157829 
C 51.16527 49.157829 51.16527 49.157829 51.16527 49.157829 
C 51.16527 49.157829 51.16527 49.157829 51.16527 49.157829 
C 51.16527 49.157829 51.16527 49.157829 51.16527 49.157829 
C 51.16527 49.157829 51.16527 49.157829 51.16527 49.157829 
C 51.16527 49.157829 51.16527 49.157829 51.16527 49.157829 
C 51.16527 49.157829 51.16527 49.157829 51.16527 49.157829 
C 51.16527 49.157829 51.16527 49.157829 51.16527 49.157829 
C 51.16527 49.157829 51.16527 49.157829 51.16527 49.157829 
C 51.16527 49.157829 51.16527 49.157829 51.16527 49.157829 
C 51.16527 49.157829 51.16527 49.157829 51.16527 49.157829 
C 51.16527 49.157829 51.16527 49.157829 51.16527 49.157829 
C 51.16527 49.157829 51.16527 49.157829 51.16527 49.157829 
C 51.16527 49.157829 51.16527 49.157829 51.16527 49.157829 
L 51.16527 49.157829 
z
" style="fill: none"/>
   </g>
   <g id="matplotlib.axis_9">
    <g id="xtick_33">
     <g id="line2d_45">
      <path d="M 51.16527 49.157829 
L 61.62777 49.157829 
" clip-path="url(#pff8fcd51f8)" style="fill: none; stroke: #b0b0b0; stroke-width: 0.8; stroke-linecap: square"/>
     </g>
    </g>
    <g id="xtick_34">
     <g id="line2d_46">
      <path d="M 51.16527 49.157829 
L 58.563374 41.759725 
" clip-path="url(#pff8fcd51f8)" style="fill: none; stroke: #b0b0b0; stroke-width: 0.8; stroke-linecap: square"/>
     </g>
    </g>
    <g id="xtick_35">
     <g id="line2d_47">
      <path d="M 51.16527 49.157829 
L 51.16527 38.695329 
" clip-path="url(#pff8fcd51f8)" style="fill: none; stroke: #b0b0b0; stroke-width: 0.8; stroke-linecap: square"/>
     </g>
    </g>
    <g id="xtick_36">
     <g id="line2d_48">
      <path d="M 51.16527 49.157829 
L 43.767165 41.759725 
" clip-path="url(#pff8fcd51f8)" style="fill: none; stroke: #b0b0b0; stroke-width: 0.8; stroke-linecap: square"/>
     </g>
    </g>
    <g id="xtick_37">
     <g id="line2d_49">
      <path d="M 51.16527 49.157829 
L 40.70277 49.157829 
" clip-path="url(#pff8fcd51f8)" style="fill: none; stroke: #b0b0b0; stroke-width: 0.8; stroke-linecap: square"/>
     </g>
    </g>
    <g id="xtick_38">
     <g id="line2d_50">
      <path d="M 51.16527 49.157829 
L 43.767165 56.555934 
" clip-path="url(#pff8fcd51f8)" style="fill: none; stroke: #b0b0b0; stroke-width: 0.8; stroke-linecap: square"/>
     </g>
    </g>
    <g id="xtick_39">
     <g id="line2d_51">
      <path d="M 51.16527 49.157829 
L 51.16527 59.620329 
" clip-path="url(#pff8fcd51f8)" style="fill: none; stroke: #b0b0b0; stroke-width: 0.8; stroke-linecap: square"/>
     </g>
    </g>
    <g id="xtick_40">
     <g id="line2d_52">
      <path d="M 51.16527 49.157829 
L 58.563374 56.555934 
" clip-path="url(#pff8fcd51f8)" style="fill: none; stroke: #b0b0b0; stroke-width: 0.8; stroke-linecap: square"/>
     </g>
    </g>
   </g>
   <g id="matplotlib.axis_10">
    <g id="ytick_9">
     <g id="line2d_53">
      <path d="M 53.25777 49.157829 
C 53.25777 48.883045 53.203643 48.610932 53.098488 48.357064 
C 52.993332 48.103197 52.839193 47.872511 52.644891 47.678209 
C 52.450589 47.483906 52.219903 47.329767 51.966035 47.224612 
C 51.712167 47.119456 51.440054 47.065329 51.16527 47.065329 
C 50.890485 47.065329 50.618372 47.119456 50.364505 47.224612 
C 50.110637 47.329767 49.879951 47.483906 49.685649 47.678209 
C 49.491347 47.872511 49.337207 48.103197 49.232052 48.357064 
C 49.126896 48.610932 49.07277 48.883045 49.07277 49.157829 
C 49.07277 49.432614 49.126896 49.704727 49.232052 49.958595 
C 49.337207 50.212462 49.491347 50.443148 49.685649 50.63745 
C 49.879951 50.831752 50.110637 50.985892 50.364505 51.091047 
C 50.618372 51.196203 50.890485 51.250329 51.16527 51.250329 
C 51.440054 51.250329 51.712167 51.196203 51.966035 51.091047 
C 52.219903 50.985892 52.450589 50.831752 52.644891 50.63745 
C 52.839193 50.443148 52.993332 50.212462 53.098488 49.958595 
C 53.203643 49.704727 53.25777 49.432614 53.25777 49.157829 
" clip-path="url(#pff8fcd51f8)" style="fill: none; stroke: #b0b0b0; stroke-width: 0.8; stroke-linecap: square"/>
     </g>
     <g id="text_13">
      <!-- $\mathdefault{0.05}$ -->
      <g transform="translate(53.098488 46.743395) scale(0.0833 -0.0833)">
       <use xlink:href="#CMR17-30" transform="scale(0.996264)"/>
       <use xlink:href="#CMMI12-3a" transform="translate(45.690477 0) scale(0.996264)"/>
       <use xlink:href="#CMR17-30" transform="translate(72.787654 0) scale(0.996264)"/>
       <use xlink:href="#CMR17-35" transform="translate(118.478131 0) scale(0.996264)"/>
      </g>
     </g>
    </g>
    <g id="ytick_10">
     <g id="line2d_54">
      <path d="M 61.62777 49.157829 
C 61.62777 47.783907 61.357137 46.423343 60.831359 45.154004 
C 60.305582 43.884665 59.534885 42.731235 58.563374 41.759725 
C 57.591864 40.788215 56.438434 40.017517 55.169095 39.49174 
C 53.899756 38.965962 52.539193 38.695329 51.16527 38.695329 
C 49.791347 38.695329 48.430784 38.965962 47.161444 39.49174 
C 45.892105 40.017517 44.738675 40.788215 43.767165 41.759725 
C 42.795655 42.731235 42.024958 43.884665 41.49918 45.154004 
C 40.973403 46.423343 40.70277 47.783907 40.70277 49.157829 
C 40.70277 50.531752 40.973403 51.892316 41.49918 53.161655 
C 42.024958 54.430994 42.795655 55.584424 43.767165 56.555934 
C 44.738675 57.527444 45.892105 58.298142 47.161444 58.823919 
C 48.430784 59.349697 49.791347 59.620329 51.16527 59.620329 
C 52.539193 59.620329 53.899756 59.349697 55.169095 58.823919 
C 56.438434 58.298142 57.591864 57.527444 58.563374 56.555934 
C 59.534885 55.584424 60.305582 54.430994 60.831359 53.161655 
C 61.357137 51.892316 61.62777 50.531752 61.62777 49.157829 
" clip-path="url(#pff8fcd51f8)" style="fill: none; stroke: #b0b0b0; stroke-width: 0.8; stroke-linecap: square"/>
     </g>
     <g id="text_14">
      <!-- $\mathdefault{0.25}$ -->
      <g transform="translate(60.831359 43.540335) scale(0.0833 -0.0833)">
       <use xlink:href="#CMR17-30" transform="scale(0.996264)"/>
       <use xlink:href="#CMMI12-3a" transform="translate(45.690477 0) scale(0.996264)"/>
       <use xlink:href="#CMR17-32" transform="translate(72.787654 0) scale(0.996264)"/>
       <use xlink:href="#CMR17-35" transform="translate(118.478131 0) scale(0.996264)"/>
      </g>
     </g>
    </g>
   </g>
   <g id="line2d_55">
    <path d="M 44.028192 49.384388 
L 44.274861 49.815784 
L 44.49715 50.224804 
L 44.763489 50.603735 
L 44.888329 51.000906 
L 45.066193 51.377712 
L 45.50379 51.635549 
L 45.492402 52.082396 
L 45.75607 52.396334 
L 46.064692 52.66932 
L 46.297156 52.986157 
L 46.498655 53.33293 
L 46.880627 53.511 
L 47.087622 53.863686 
L 47.294859 54.243489 
L 47.623743 54.480923 
L 47.920019 54.778769 
L 48.186424 55.16825 
L 48.502294 55.515375 
L 48.947756 55.564916 
L 49.263346 56.037133 
L 49.66851 56.311076 
L 50.099591 56.569789 
L 50.549309 56.905764 
L 51.038564 57.142852 
L 51.530231 56.819315 
L 52.004163 56.67982 
L 52.429738 56.328988 
L 52.829936 56.019679 
L 53.241232 55.83417 
L 53.617191 55.575722 
L 53.938495 55.230345 
L 54.245805 54.907385 
L 54.559763 54.628709 
L 54.82418 54.29605 
L 55.050395 53.940025 
L 55.379881 53.720801 
L 55.576327 53.363765 
L 55.847337 53.08655 
L 56.158239 52.834075 
L 56.298694 52.456881 
L 56.626095 52.196151 
L 56.884608 51.880246 
L 57.207984 51.576967 
L 57.230218 51.149751 
L 57.428594 50.782938 
L 57.688049 50.414992 
L 58.065347 50.038412 
L 58.222468 49.606328 
L 58.379136 49.157829 
L 58.058608 48.719745 
L 57.890049 48.299619 
L 57.649847 47.90803 
L 57.37115 47.547626 
L 57.282216 47.148831 
L 57.009642 46.818096 
L 56.784582 46.483025 
L 56.559829 46.156377 
L 56.396881 45.795677 
L 56.149743 45.48784 
L 55.903406 45.182061 
L 55.667479 44.864982 
L 55.393304 44.580327 
L 55.115258 44.295795 
L 54.894176 43.921313 
L 54.607044 43.610747 
L 54.243003 43.413506 
L 53.902884 43.163289 
L 53.616485 42.741785 
L 53.249651 42.454414 
L 52.826516 42.310077 
L 52.43157 41.976281 
L 52.009059 41.591931 
L 51.544413 41.198631 
L 51.039673 41.242695 
L 50.553751 41.465767 
L 50.113292 41.841163 
L 49.667159 41.998129 
L 49.291284 42.37958 
L 48.878957 42.551963 
L 48.565983 42.952334 
L 48.213071 43.201174 
L 47.916722 43.531179 
L 47.67634 43.913792 
L 47.345975 44.139335 
L 47.097985 44.463933 
L 46.855649 44.779282 
L 46.556644 45.03461 
L 46.31115 45.340508 
L 46.144533 45.701305 
L 45.804725 45.948455 
L 45.684057 46.332068 
L 45.503186 46.679845 
L 45.226679 46.996359 
L 44.837081 47.299706 
L 44.645783 47.685338 
L 44.440503 48.081791 
L 44.337877 48.505892 
L 44.001829 48.930434 
" clip-path="url(#pff8fcd51f8)" style="fill: none; stroke: #348abd; stroke-opacity: 0.75; stroke-width: 2; stroke-linecap: square"/>
   </g>
   <g id="patch_11">
    <path d="M 61.62777 49.157829 
C 61.62777 47.783907 61.357137 46.423343 60.831359 45.154004 
C 60.305582 43.884665 59.534885 42.731235 58.563374 41.759725 
C 57.591864 40.788215 56.438434 40.017517 55.169095 39.49174 
C 53.899756 38.965962 52.539193 38.695329 51.16527 38.695329 
C 49.791347 38.695329 48.430784 38.965962 47.161444 39.49174 
C 45.892105 40.017517 44.738675 40.788215 43.767165 41.759725 
C 42.795655 42.731235 42.024958 43.884665 41.49918 45.154004 
C 40.973403 46.423343 40.70277 47.783907 40.70277 49.157829 
C 40.70277 50.531752 40.973403 51.892316 41.49918 53.161655 
C 42.024958 54.430994 42.795655 55.584424 43.767165 56.555934 
C 44.738675 57.527444 45.892105 58.298142 47.161444 58.823919 
C 48.430784 59.349697 49.791347 59.620329 51.16527 59.620329 
C 52.539193 59.620329 53.899756 59.349697 55.169095 58.823919 
C 56.438434 58.298142 57.591864 57.527444 58.563374 56.555934 
C 59.534885 55.584424 60.305582 54.430994 60.831359 53.161655 
C 61.357137 51.892316 61.62777 50.531752 61.62777 49.157829 
" style="fill: none; stroke: #000000; stroke-width: 0.8; stroke-linejoin: miter; stroke-linecap: square"/>
   </g>
   <g id="text_15">
    <!-- Walled Square -->
    <g transform="translate(22.098094 36.951867) scale(0.09 -0.09)">
     <defs>
      <path id="CMR17-57" d="M 5523 3775 
C 5581 3948 5677 4173 6048 4185 
L 6048 4352 
C 5939 4345 5715 4339 5600 4339 
C 5440 4339 5158 4339 5005 4352 
L 5005 4185 
C 5293 4179 5414 4019 5414 3865 
C 5414 3820 5408 3794 5382 3724 
L 4390 557 
L 3347 3890 
C 3328 3955 3322 3980 3322 4006 
C 3322 4185 3603 4185 3725 4185 
L 3725 4352 
C 3539 4339 3219 4339 3021 4339 
C 2861 4339 2573 4339 2426 4352 
L 2426 4185 
C 2720 4185 2797 4166 2861 4051 
C 2886 3993 2989 3660 2989 3640 
C 2989 3615 2976 3576 2970 3557 
L 2029 564 
L 986 3890 
C 954 3980 954 3993 954 4006 
C 954 4185 1235 4185 1363 4185 
L 1363 4352 
C 1178 4339 858 4339 659 4339 
C 493 4339 211 4339 58 4352 
L 58 4185 
C 442 4185 467 4147 531 3942 
L 1779 -20 
C 1811 -116 1811 -128 1869 -128 
C 1920 -128 1939 -116 1965 -26 
L 3053 3448 
L 4141 -26 
C 4166 -116 4186 -128 4237 -128 
C 4294 -128 4294 -116 4326 -20 
L 5523 3775 
z
" transform="scale(0.015625)"/>
      <path id="CMR17-64" d="M 1869 4345 
L 1869 4179 
C 2246 4179 2304 4141 2304 3843 
L 2304 2371 
C 2278 2403 2016 2816 1498 2816 
C 845 2816 211 2228 211 1376 
C 211 529 806 -64 1434 -64 
C 1978 -64 2259 361 2291 406 
L 2291 -64 
L 3066 -13 
L 3066 154 
C 2688 154 2630 193 2630 503 
L 2630 4416 
L 1869 4345 
z
M 2291 762 
C 2291 568 2176 393 2029 264 
C 1811 70 1594 38 1472 38 
C 1286 38 621 135 621 1369 
C 621 2636 1363 2713 1530 2713 
C 1824 2713 2061 2545 2208 2313 
C 2291 2177 2291 2157 2291 2041 
L 2291 762 
z
" transform="scale(0.015625)"/>
     </defs>
     <use xlink:href="#CMR17-57" transform="scale(0.996264)"/>
     <use xlink:href="#CMR17-61" transform="translate(87.289395 0) scale(0.996264)"/>
     <use xlink:href="#CMR17-6c" transform="translate(132.979872 0) scale(0.996264)"/>
     <use xlink:href="#CMR17-6c" transform="translate(157.85093 0) scale(0.996264)"/>
     <use xlink:href="#CMR17-65" transform="translate(182.721989 0) scale(0.996264)"/>
     <use xlink:href="#CMR17-64" transform="translate(223.207649 0) scale(0.996264)"/>
     <use xlink:href="#CMR17-53" transform="translate(304.178985 0) scale(0.996264)"/>
     <use xlink:href="#CMR17-71" transform="translate(355.074355 0) scale(0.996264)"/>
     <use xlink:href="#CMR17-75" transform="translate(403.367271 0) scale(0.996264)"/>
     <use xlink:href="#CMR17-61" transform="translate(454.262641 0) scale(0.996264)"/>
     <use xlink:href="#CMR17-72" transform="translate(499.953118 0) scale(0.996264)"/>
     <use xlink:href="#CMR17-65" transform="translate(535.233886 0) scale(0.996264)"/>
    </g>
   </g>
  </g>
  <g id="axes_6">
   <g id="patch_12">
    <path d="M 93.01527 49.157829 
C 93.01527 47.783907 92.744637 46.423343 92.218859 45.154004 
C 91.693082 43.884665 90.922385 42.731235 89.950874 41.759725 
C 88.979364 40.788215 87.825934 40.017517 86.556595 39.49174 
C 85.287256 38.965962 83.926693 38.695329 82.55277 38.695329 
C 81.178847 38.695329 79.818284 38.965962 78.548944 39.49174 
C 77.279605 40.017517 76.126175 40.788215 75.154665 41.759725 
C 74.183155 42.731235 73.412458 43.884665 72.88668 45.154004 
C 72.360903 46.423343 72.09027 47.783907 72.09027 49.157829 
C 72.09027 50.531752 72.360903 51.892316 72.88668 53.161655 
C 73.412458 54.430994 74.183155 55.584424 75.154665 56.555934 
C 76.126175 57.527444 77.279605 58.298142 78.548944 58.823919 
C 79.818284 59.349697 81.178847 59.620329 82.55277 59.620329 
C 83.926693 59.620329 85.287256 59.349697 86.556595 58.823919 
C 87.825934 58.298142 88.979364 57.527444 89.950874 56.555934 
C 90.922385 55.584424 91.693082 54.430994 92.218859 53.161655 
C 92.744637 51.892316 93.01527 50.531752 93.01527 49.157829 
M 82.55277 49.157829 
C 82.55277 49.157829 82.55277 49.157829 82.55277 49.157829 
C 82.55277 49.157829 82.55277 49.157829 82.55277 49.157829 
C 82.55277 49.157829 82.55277 49.157829 82.55277 49.157829 
C 82.55277 49.157829 82.55277 49.157829 82.55277 49.157829 
C 82.55277 49.157829 82.55277 49.157829 82.55277 49.157829 
C 82.55277 49.157829 82.55277 49.157829 82.55277 49.157829 
C 82.55277 49.157829 82.55277 49.157829 82.55277 49.157829 
C 82.55277 49.157829 82.55277 49.157829 82.55277 49.157829 
C 82.55277 49.157829 82.55277 49.157829 82.55277 49.157829 
C 82.55277 49.157829 82.55277 49.157829 82.55277 49.157829 
C 82.55277 49.157829 82.55277 49.157829 82.55277 49.157829 
C 82.55277 49.157829 82.55277 49.157829 82.55277 49.157829 
C 82.55277 49.157829 82.55277 49.157829 82.55277 49.157829 
C 82.55277 49.157829 82.55277 49.157829 82.55277 49.157829 
C 82.55277 49.157829 82.55277 49.157829 82.55277 49.157829 
C 82.55277 49.157829 82.55277 49.157829 82.55277 49.157829 
L 82.55277 49.157829 
z
" style="fill: none"/>
   </g>
   <g id="matplotlib.axis_11">
    <g id="xtick_41">
     <g id="line2d_56">
      <path d="M 82.55277 49.157829 
L 93.01527 49.157829 
" clip-path="url(#p552571a37b)" style="fill: none; stroke: #b0b0b0; stroke-width: 0.8; stroke-linecap: square"/>
     </g>
    </g>
    <g id="xtick_42">
     <g id="line2d_57">
      <path d="M 82.55277 49.157829 
L 89.950874 41.759725 
" clip-path="url(#p552571a37b)" style="fill: none; stroke: #b0b0b0; stroke-width: 0.8; stroke-linecap: square"/>
     </g>
    </g>
    <g id="xtick_43">
     <g id="line2d_58">
      <path d="M 82.55277 49.157829 
L 82.55277 38.695329 
" clip-path="url(#p552571a37b)" style="fill: none; stroke: #b0b0b0; stroke-width: 0.8; stroke-linecap: square"/>
     </g>
    </g>
    <g id="xtick_44">
     <g id="line2d_59">
      <path d="M 82.55277 49.157829 
L 75.154665 41.759725 
" clip-path="url(#p552571a37b)" style="fill: none; stroke: #b0b0b0; stroke-width: 0.8; stroke-linecap: square"/>
     </g>
    </g>
    <g id="xtick_45">
     <g id="line2d_60">
      <path d="M 82.55277 49.157829 
L 72.09027 49.157829 
" clip-path="url(#p552571a37b)" style="fill: none; stroke: #b0b0b0; stroke-width: 0.8; stroke-linecap: square"/>
     </g>
    </g>
    <g id="xtick_46">
     <g id="line2d_61">
      <path d="M 82.55277 49.157829 
L 75.154665 56.555934 
" clip-path="url(#p552571a37b)" style="fill: none; stroke: #b0b0b0; stroke-width: 0.8; stroke-linecap: square"/>
     </g>
    </g>
    <g id="xtick_47">
     <g id="line2d_62">
      <path d="M 82.55277 49.157829 
L 82.55277 59.620329 
" clip-path="url(#p552571a37b)" style="fill: none; stroke: #b0b0b0; stroke-width: 0.8; stroke-linecap: square"/>
     </g>
    </g>
    <g id="xtick_48">
     <g id="line2d_63">
      <path d="M 82.55277 49.157829 
L 89.950874 56.555934 
" clip-path="url(#p552571a37b)" style="fill: none; stroke: #b0b0b0; stroke-width: 0.8; stroke-linecap: square"/>
     </g>
    </g>
   </g>
   <g id="matplotlib.axis_12">
    <g id="ytick_11">
     <g id="line2d_64">
      <path d="M 84.64527 49.157829 
C 84.64527 48.883045 84.591143 48.610932 84.485988 48.357064 
C 84.380832 48.103197 84.226693 47.872511 84.032391 47.678209 
C 83.838089 47.483906 83.607403 47.329767 83.353535 47.224612 
C 83.099667 47.119456 82.827554 47.065329 82.55277 47.065329 
C 82.277985 47.065329 82.005872 47.119456 81.752005 47.224612 
C 81.498137 47.329767 81.267451 47.483906 81.073149 47.678209 
C 80.878847 47.872511 80.724707 48.103197 80.619552 48.357064 
C 80.514396 48.610932 80.46027 48.883045 80.46027 49.157829 
C 80.46027 49.432614 80.514396 49.704727 80.619552 49.958595 
C 80.724707 50.212462 80.878847 50.443148 81.073149 50.63745 
C 81.267451 50.831752 81.498137 50.985892 81.752005 51.091047 
C 82.005872 51.196203 82.277985 51.250329 82.55277 51.250329 
C 82.827554 51.250329 83.099667 51.196203 83.353535 51.091047 
C 83.607403 50.985892 83.838089 50.831752 84.032391 50.63745 
C 84.226693 50.443148 84.380832 50.212462 84.485988 49.958595 
C 84.591143 49.704727 84.64527 49.432614 84.64527 49.157829 
" clip-path="url(#p552571a37b)" style="fill: none; stroke: #b0b0b0; stroke-width: 0.8; stroke-linecap: square"/>
     </g>
     <g id="text_16">
      <!-- $\mathdefault{0.05}$ -->
      <g transform="translate(84.485988 46.743395) scale(0.0833 -0.0833)">
       <use xlink:href="#CMR17-30" transform="scale(0.996264)"/>
       <use xlink:href="#CMMI12-3a" transform="translate(45.690477 0) scale(0.996264)"/>
       <use xlink:href="#CMR17-30" transform="translate(72.787654 0) scale(0.996264)"/>
       <use xlink:href="#CMR17-35" transform="translate(118.478131 0) scale(0.996264)"/>
      </g>
     </g>
    </g>
    <g id="ytick_12">
     <g id="line2d_65">
      <path d="M 93.01527 49.157829 
C 93.01527 47.783907 92.744637 46.423343 92.218859 45.154004 
C 91.693082 43.884665 90.922385 42.731235 89.950874 41.759725 
C 88.979364 40.788215 87.825934 40.017517 86.556595 39.49174 
C 85.287256 38.965962 83.926693 38.695329 82.55277 38.695329 
C 81.178847 38.695329 79.818284 38.965962 78.548944 39.49174 
C 77.279605 40.017517 76.126175 40.788215 75.154665 41.759725 
C 74.183155 42.731235 73.412458 43.884665 72.88668 45.154004 
C 72.360903 46.423343 72.09027 47.783907 72.09027 49.157829 
C 72.09027 50.531752 72.360903 51.892316 72.88668 53.161655 
C 73.412458 54.430994 74.183155 55.584424 75.154665 56.555934 
C 76.126175 57.527444 77.279605 58.298142 78.548944 58.823919 
C 79.818284 59.349697 81.178847 59.620329 82.55277 59.620329 
C 83.926693 59.620329 85.287256 59.349697 86.556595 58.823919 
C 87.825934 58.298142 88.979364 57.527444 89.950874 56.555934 
C 90.922385 55.584424 91.693082 54.430994 92.218859 53.161655 
C 92.744637 51.892316 93.01527 50.531752 93.01527 49.157829 
" clip-path="url(#p552571a37b)" style="fill: none; stroke: #b0b0b0; stroke-width: 0.8; stroke-linecap: square"/>
     </g>
     <g id="text_17">
      <!-- $\mathdefault{0.25}$ -->
      <g transform="translate(92.218859 43.540335) scale(0.0833 -0.0833)">
       <use xlink:href="#CMR17-30" transform="scale(0.996264)"/>
       <use xlink:href="#CMMI12-3a" transform="translate(45.690477 0) scale(0.996264)"/>
       <use xlink:href="#CMR17-32" transform="translate(72.787654 0) scale(0.996264)"/>
       <use xlink:href="#CMR17-35" transform="translate(118.478131 0) scale(0.996264)"/>
      </g>
     </g>
    </g>
   </g>
   <g id="line2d_66">
    <path d="M 74.598444 49.410331 
L 75.007257 49.878339 
L 75.355941 50.309404 
L 75.822956 50.677825 
L 75.977198 51.088592 
L 76.201501 51.469502 
L 76.70342 51.71777 
L 77.032874 52.003533 
L 77.218816 52.351285 
L 77.516282 52.625198 
L 77.721457 52.957216 
L 78.126464 53.117931 
L 78.341211 53.436747 
L 78.592576 53.728137 
L 78.921165 53.929702 
L 79.206655 54.187208 
L 79.418628 54.586322 
L 79.766013 54.780671 
L 80.036534 55.165051 
L 80.356607 55.503225 
L 80.752584 55.669144 
L 81.105573 56.074205 
L 81.496006 56.507783 
L 81.955047 56.676357 
L 82.425781 57.160653 
L 82.928117 57.03733 
L 83.378507 56.561859 
L 83.778422 56.108846 
L 84.197538 55.937655 
L 84.565101 55.629529 
L 84.872906 55.230774 
L 85.208481 54.973025 
L 85.482268 54.625487 
L 85.784908 54.367044 
L 86.061361 54.084957 
L 86.371368 53.858138 
L 86.645238 53.588562 
L 86.879835 53.283677 
L 87.196952 53.054761 
L 87.442725 52.758228 
L 87.743886 52.493957 
L 87.986512 52.181083 
L 88.277467 51.882797 
L 88.739344 51.63456 
L 88.993606 51.273204 
L 89.322241 50.914265 
L 89.428429 50.483004 
L 89.865583 50.091085 
L 90.271992 49.6484 
L 90.646939 49.157829 
L 90.31016 48.664833 
L 89.862312 48.224992 
L 89.575409 47.804327 
L 89.241181 47.422427 
L 88.920308 47.066528 
L 88.475499 46.786726 
L 88.203043 46.468288 
L 88.00668 46.123355 
L 87.763856 45.808868 
L 87.29617 45.665338 
L 87.099462 45.342702 
L 86.873631 45.037897 
L 86.618394 44.756161 
L 86.400058 44.422207 
L 86.073983 44.212977 
L 85.731717 44.034343 
L 85.549846 43.564045 
L 85.247378 43.25746 
L 84.864198 43.107677 
L 84.54885 42.738393 
L 84.184479 42.431832 
L 83.790559 42.137978 
L 83.384354 41.701372 
L 82.916382 41.524666 
L 82.426702 41.213026 
L 81.945379 41.517696 
L 81.503232 41.858133 
L 81.103952 42.233709 
L 80.722186 42.536563 
L 80.350999 42.796232 
L 80.033732 43.143918 
L 79.689881 43.381374 
L 79.487206 43.848118 
L 79.125203 44.006024 
L 78.941532 44.412718 
L 78.589985 44.584532 
L 78.245 44.781162 
L 78.030144 45.111552 
L 77.764478 45.392275 
L 77.577113 45.73234 
L 77.25955 45.988762 
L 76.835945 46.210601 
L 76.754767 46.620361 
L 76.379956 46.911109 
L 76.010098 47.236728 
L 75.809449 47.634783 
L 75.425611 48.017403 
L 75.082088 48.444466 
L 74.605035 48.905537 
" clip-path="url(#p552571a37b)" style="fill: none; stroke: #348abd; stroke-opacity: 0.75; stroke-width: 2; stroke-linecap: square"/>
   </g>
   <g id="patch_13">
    <path d="M 93.01527 49.157829 
C 93.01527 47.783907 92.744637 46.423343 92.218859 45.154004 
C 91.693082 43.884665 90.922385 42.731235 89.950874 41.759725 
C 88.979364 40.788215 87.825934 40.017517 86.556595 39.49174 
C 85.287256 38.965962 83.926693 38.695329 82.55277 38.695329 
C 81.178847 38.695329 79.818284 38.965962 78.548944 39.49174 
C 77.279605 40.017517 76.126175 40.788215 75.154665 41.759725 
C 74.183155 42.731235 73.412458 43.884665 72.88668 45.154004 
C 72.360903 46.423343 72.09027 47.783907 72.09027 49.157829 
C 72.09027 50.531752 72.360903 51.892316 72.88668 53.161655 
C 73.412458 54.430994 74.183155 55.584424 75.154665 56.555934 
C 76.126175 57.527444 77.279605 58.298142 78.548944 58.823919 
C 79.818284 59.349697 81.178847 59.620329 82.55277 59.620329 
C 83.926693 59.620329 85.287256 59.349697 86.556595 58.823919 
C 87.825934 58.298142 88.979364 57.527444 89.950874 56.555934 
C 90.922385 55.584424 91.693082 54.430994 92.218859 53.161655 
C 92.744637 51.892316 93.01527 50.531752 93.01527 49.157829 
" style="fill: none; stroke: #000000; stroke-width: 0.8; stroke-linejoin: miter; stroke-linecap: square"/>
   </g>
   <g id="text_18">
    <!-- Square Toroid -->
    <g transform="translate(54.116202 36.951867) scale(0.09 -0.09)">
     <defs>
      <path id="CMR17-54" d="M 3981 4332 
L 288 4332 
L 179 2924 
L 294 2924 
C 378 3981 467 4166 1453 4166 
C 1568 4166 1754 4166 1805 4159 
C 1926 4140 1926 4064 1926 3917 
L 1926 465 
C 1926 236 1907 166 1376 166 
L 1197 166 
L 1197 0 
C 1504 6 1824 12 2138 12 
C 2451 12 2771 6 3078 0 
L 3078 166 
L 2899 166 
C 2368 166 2349 236 2349 465 
L 2349 3917 
C 2349 4057 2349 4134 2464 4159 
C 2515 4166 2701 4166 2816 4166 
C 3795 4166 3891 3981 3974 2924 
L 4090 2924 
L 3981 4332 
z
" transform="scale(0.015625)"/>
      <path id="CMR17-6f" d="M 2758 1356 
C 2758 2176 2163 2816 1466 2816 
C 768 2816 173 2176 173 1356 
C 173 550 768 -64 1466 -64 
C 2163 -64 2758 550 2758 1356 
z
M 1466 51 
C 1165 51 909 230 762 480 
C 602 768 582 1126 582 1408 
C 582 1676 595 2009 762 2297 
C 890 2508 1139 2713 1466 2713 
C 1754 2713 1997 2553 2150 2329 
C 2349 2028 2349 1606 2349 1408 
C 2349 1158 2336 774 2163 467 
C 1984 172 1709 51 1466 51 
z
" transform="scale(0.015625)"/>
     </defs>
     <use xlink:href="#CMR17-53" transform="scale(0.996264)"/>
     <use xlink:href="#CMR17-71" transform="translate(50.89537 0) scale(0.996264)"/>
     <use xlink:href="#CMR17-75" transform="translate(99.188286 0) scale(0.996264)"/>
     <use xlink:href="#CMR17-61" transform="translate(150.083655 0) scale(0.996264)"/>
     <use xlink:href="#CMR17-72" transform="translate(195.774133 0) scale(0.996264)"/>
     <use xlink:href="#CMR17-65" transform="translate(231.0549 0) scale(0.996264)"/>
     <use xlink:href="#CMR17-54" transform="translate(301.616527 0) scale(0.996264)"/>
     <use xlink:href="#CMR17-6f" transform="translate(360.319152 0) scale(0.996264)"/>
     <use xlink:href="#CMR17-72" transform="translate(406.009629 0) scale(0.996264)"/>
     <use xlink:href="#CMR17-6f" transform="translate(441.290397 0) scale(0.996264)"/>
     <use xlink:href="#CMR17-69" transform="translate(486.980874 0) scale(0.996264)"/>
     <use xlink:href="#CMR17-64" transform="translate(511.851933 0) scale(0.996264)"/>
    </g>
   </g>
  </g>
 </g>
 <defs>
  <clipPath id="p3e3ccc6519">
   <path d="M 30.24027 18.432612 
C 30.24027 17.058689 29.969637 15.698126 29.443859 14.428787 
C 28.918082 13.159447 28.147385 12.006018 27.175874 11.034507 
C 26.204364 10.062997 25.050934 9.2923 23.781595 8.766522 
C 22.512256 8.240745 21.151693 7.970112 19.77777 7.970112 
C 18.403847 7.970112 17.043284 8.240745 15.773944 8.766522 
C 14.504605 9.2923 13.351175 10.062997 12.379665 11.034507 
C 11.408155 12.006018 10.637458 13.159447 10.11168 14.428787 
C 9.585903 15.698126 9.31527 17.058689 9.31527 18.432612 
C 9.31527 19.806535 9.585903 21.167098 10.11168 22.436437 
C 10.637458 23.705777 11.408155 24.859207 12.379665 25.830717 
C 13.351175 26.802227 14.504605 27.572924 15.773944 28.098702 
C 17.043284 28.624479 18.403847 28.895112 19.77777 28.895112 
C 21.151693 28.895112 22.512256 28.624479 23.781595 28.098702 
C 25.050934 27.572924 26.204364 26.802227 27.175874 25.830717 
C 28.147385 24.859207 28.918082 23.705777 29.443859 22.436437 
C 29.969637 21.167098 30.24027 19.806535 30.24027 18.432612 
M 19.77777 18.432612 
C 19.77777 18.432612 19.77777 18.432612 19.77777 18.432612 
C 19.77777 18.432612 19.77777 18.432612 19.77777 18.432612 
C 19.77777 18.432612 19.77777 18.432612 19.77777 18.432612 
C 19.77777 18.432612 19.77777 18.432612 19.77777 18.432612 
C 19.77777 18.432612 19.77777 18.432612 19.77777 18.432612 
C 19.77777 18.432612 19.77777 18.432612 19.77777 18.432612 
C 19.77777 18.432612 19.77777 18.432612 19.77777 18.432612 
C 19.77777 18.432612 19.77777 18.432612 19.77777 18.432612 
C 19.77777 18.432612 19.77777 18.432612 19.77777 18.432612 
C 19.77777 18.432612 19.77777 18.432612 19.77777 18.432612 
C 19.77777 18.432612 19.77777 18.432612 19.77777 18.432612 
C 19.77777 18.432612 19.77777 18.432612 19.77777 18.432612 
C 19.77777 18.432612 19.77777 18.432612 19.77777 18.432612 
C 19.77777 18.432612 19.77777 18.432612 19.77777 18.432612 
C 19.77777 18.432612 19.77777 18.432612 19.77777 18.432612 
C 19.77777 18.432612 19.77777 18.432612 19.77777 18.432612 
z
"/>
  </clipPath>
  <clipPath id="p229de1b1ed">
   <path d="M 61.62777 18.432612 
C 61.62777 17.058689 61.357137 15.698126 60.831359 14.428787 
C 60.305582 13.159447 59.534885 12.006018 58.563374 11.034507 
C 57.591864 10.062997 56.438434 9.2923 55.169095 8.766522 
C 53.899756 8.240745 52.539193 7.970112 51.16527 7.970112 
C 49.791347 7.970112 48.430784 8.240745 47.161444 8.766522 
C 45.892105 9.2923 44.738675 10.062997 43.767165 11.034507 
C 42.795655 12.006018 42.024958 13.159447 41.49918 14.428787 
C 40.973403 15.698126 40.70277 17.058689 40.70277 18.432612 
C 40.70277 19.806535 40.973403 21.167098 41.49918 22.436437 
C 42.024958 23.705777 42.795655 24.859207 43.767165 25.830717 
C 44.738675 26.802227 45.892105 27.572924 47.161444 28.098702 
C 48.430784 28.624479 49.791347 28.895112 51.16527 28.895112 
C 52.539193 28.895112 53.899756 28.624479 55.169095 28.098702 
C 56.438434 27.572924 57.591864 26.802227 58.563374 25.830717 
C 59.534885 24.859207 60.305582 23.705777 60.831359 22.436437 
C 61.357137 21.167098 61.62777 19.806535 61.62777 18.432612 
M 51.16527 18.432612 
C 51.16527 18.432612 51.16527 18.432612 51.16527 18.432612 
C 51.16527 18.432612 51.16527 18.432612 51.16527 18.432612 
C 51.16527 18.432612 51.16527 18.432612 51.16527 18.432612 
C 51.16527 18.432612 51.16527 18.432612 51.16527 18.432612 
C 51.16527 18.432612 51.16527 18.432612 51.16527 18.432612 
C 51.16527 18.432612 51.16527 18.432612 51.16527 18.432612 
C 51.16527 18.432612 51.16527 18.432612 51.16527 18.432612 
C 51.16527 18.432612 51.16527 18.432612 51.16527 18.432612 
C 51.16527 18.432612 51.16527 18.432612 51.16527 18.432612 
C 51.16527 18.432612 51.16527 18.432612 51.16527 18.432612 
C 51.16527 18.432612 51.16527 18.432612 51.16527 18.432612 
C 51.16527 18.432612 51.16527 18.432612 51.16527 18.432612 
C 51.16527 18.432612 51.16527 18.432612 51.16527 18.432612 
C 51.16527 18.432612 51.16527 18.432612 51.16527 18.432612 
C 51.16527 18.432612 51.16527 18.432612 51.16527 18.432612 
C 51.16527 18.432612 51.16527 18.432612 51.16527 18.432612 
z
"/>
  </clipPath>
  <clipPath id="p31be5869f8">
   <path d="M 93.01527 18.432612 
C 93.01527 17.058689 92.744637 15.698126 92.218859 14.428787 
C 91.693082 13.159447 90.922385 12.006018 89.950874 11.034507 
C 88.979364 10.062997 87.825934 9.2923 86.556595 8.766522 
C 85.287256 8.240745 83.926693 7.970112 82.55277 7.970112 
C 81.178847 7.970112 79.818284 8.240745 78.548944 8.766522 
C 77.279605 9.2923 76.126175 10.062997 75.154665 11.034507 
C 74.183155 12.006018 73.412458 13.159447 72.88668 14.428787 
C 72.360903 15.698126 72.09027 17.058689 72.09027 18.432612 
C 72.09027 19.806535 72.360903 21.167098 72.88668 22.436437 
C 73.412458 23.705777 74.183155 24.859207 75.154665 25.830717 
C 76.126175 26.802227 77.279605 27.572924 78.548944 28.098702 
C 79.818284 28.624479 81.178847 28.895112 82.55277 28.895112 
C 83.926693 28.895112 85.287256 28.624479 86.556595 28.098702 
C 87.825934 27.572924 88.979364 26.802227 89.950874 25.830717 
C 90.922385 24.859207 91.693082 23.705777 92.218859 22.436437 
C 92.744637 21.167098 93.01527 19.806535 93.01527 18.432612 
M 82.55277 18.432612 
C 82.55277 18.432612 82.55277 18.432612 82.55277 18.432612 
C 82.55277 18.432612 82.55277 18.432612 82.55277 18.432612 
C 82.55277 18.432612 82.55277 18.432612 82.55277 18.432612 
C 82.55277 18.432612 82.55277 18.432612 82.55277 18.432612 
C 82.55277 18.432612 82.55277 18.432612 82.55277 18.432612 
C 82.55277 18.432612 82.55277 18.432612 82.55277 18.432612 
C 82.55277 18.432612 82.55277 18.432612 82.55277 18.432612 
C 82.55277 18.432612 82.55277 18.432612 82.55277 18.432612 
C 82.55277 18.432612 82.55277 18.432612 82.55277 18.432612 
C 82.55277 18.432612 82.55277 18.432612 82.55277 18.432612 
C 82.55277 18.432612 82.55277 18.432612 82.55277 18.432612 
C 82.55277 18.432612 82.55277 18.432612 82.55277 18.432612 
C 82.55277 18.432612 82.55277 18.432612 82.55277 18.432612 
C 82.55277 18.432612 82.55277 18.432612 82.55277 18.432612 
C 82.55277 18.432612 82.55277 18.432612 82.55277 18.432612 
C 82.55277 18.432612 82.55277 18.432612 82.55277 18.432612 
z
"/>
  </clipPath>
  <clipPath id="pd86f312d5e">
   <path d="M 30.24027 49.157829 
C 30.24027 47.783907 29.969637 46.423343 29.443859 45.154004 
C 28.918082 43.884665 28.147385 42.731235 27.175874 41.759725 
C 26.204364 40.788215 25.050934 40.017517 23.781595 39.49174 
C 22.512256 38.965962 21.151693 38.695329 19.77777 38.695329 
C 18.403847 38.695329 17.043284 38.965962 15.773944 39.49174 
C 14.504605 40.017517 13.351175 40.788215 12.379665 41.759725 
C 11.408155 42.731235 10.637458 43.884665 10.11168 45.154004 
C 9.585903 46.423343 9.31527 47.783907 9.31527 49.157829 
C 9.31527 50.531752 9.585903 51.892316 10.11168 53.161655 
C 10.637458 54.430994 11.408155 55.584424 12.379665 56.555934 
C 13.351175 57.527444 14.504605 58.298142 15.773944 58.823919 
C 17.043284 59.349697 18.403847 59.620329 19.77777 59.620329 
C 21.151693 59.620329 22.512256 59.349697 23.781595 58.823919 
C 25.050934 58.298142 26.204364 57.527444 27.175874 56.555934 
C 28.147385 55.584424 28.918082 54.430994 29.443859 53.161655 
C 29.969637 51.892316 30.24027 50.531752 30.24027 49.157829 
M 19.77777 49.157829 
C 19.77777 49.157829 19.77777 49.157829 19.77777 49.157829 
C 19.77777 49.157829 19.77777 49.157829 19.77777 49.157829 
C 19.77777 49.157829 19.77777 49.157829 19.77777 49.157829 
C 19.77777 49.157829 19.77777 49.157829 19.77777 49.157829 
C 19.77777 49.157829 19.77777 49.157829 19.77777 49.157829 
C 19.77777 49.157829 19.77777 49.157829 19.77777 49.157829 
C 19.77777 49.157829 19.77777 49.157829 19.77777 49.157829 
C 19.77777 49.157829 19.77777 49.157829 19.77777 49.157829 
C 19.77777 49.157829 19.77777 49.157829 19.77777 49.157829 
C 19.77777 49.157829 19.77777 49.157829 19.77777 49.157829 
C 19.77777 49.157829 19.77777 49.157829 19.77777 49.157829 
C 19.77777 49.157829 19.77777 49.157829 19.77777 49.157829 
C 19.77777 49.157829 19.77777 49.157829 19.77777 49.157829 
C 19.77777 49.157829 19.77777 49.157829 19.77777 49.157829 
C 19.77777 49.157829 19.77777 49.157829 19.77777 49.157829 
C 19.77777 49.157829 19.77777 49.157829 19.77777 49.157829 
z
"/>
  </clipPath>
  <clipPath id="pff8fcd51f8">
   <path d="M 61.62777 49.157829 
C 61.62777 47.783907 61.357137 46.423343 60.831359 45.154004 
C 60.305582 43.884665 59.534885 42.731235 58.563374 41.759725 
C 57.591864 40.788215 56.438434 40.017517 55.169095 39.49174 
C 53.899756 38.965962 52.539193 38.695329 51.16527 38.695329 
C 49.791347 38.695329 48.430784 38.965962 47.161444 39.49174 
C 45.892105 40.017517 44.738675 40.788215 43.767165 41.759725 
C 42.795655 42.731235 42.024958 43.884665 41.49918 45.154004 
C 40.973403 46.423343 40.70277 47.783907 40.70277 49.157829 
C 40.70277 50.531752 40.973403 51.892316 41.49918 53.161655 
C 42.024958 54.430994 42.795655 55.584424 43.767165 56.555934 
C 44.738675 57.527444 45.892105 58.298142 47.161444 58.823919 
C 48.430784 59.349697 49.791347 59.620329 51.16527 59.620329 
C 52.539193 59.620329 53.899756 59.349697 55.169095 58.823919 
C 56.438434 58.298142 57.591864 57.527444 58.563374 56.555934 
C 59.534885 55.584424 60.305582 54.430994 60.831359 53.161655 
C 61.357137 51.892316 61.62777 50.531752 61.62777 49.157829 
M 51.16527 49.157829 
C 51.16527 49.157829 51.16527 49.157829 51.16527 49.157829 
C 51.16527 49.157829 51.16527 49.157829 51.16527 49.157829 
C 51.16527 49.157829 51.16527 49.157829 51.16527 49.157829 
C 51.16527 49.157829 51.16527 49.157829 51.16527 49.157829 
C 51.16527 49.157829 51.16527 49.157829 51.16527 49.157829 
C 51.16527 49.157829 51.16527 49.157829 51.16527 49.157829 
C 51.16527 49.157829 51.16527 49.157829 51.16527 49.157829 
C 51.16527 49.157829 51.16527 49.157829 51.16527 49.157829 
C 51.16527 49.157829 51.16527 49.157829 51.16527 49.157829 
C 51.16527 49.157829 51.16527 49.157829 51.16527 49.157829 
C 51.16527 49.157829 51.16527 49.157829 51.16527 49.157829 
C 51.16527 49.157829 51.16527 49.157829 51.16527 49.157829 
C 51.16527 49.157829 51.16527 49.157829 51.16527 49.157829 
C 51.16527 49.157829 51.16527 49.157829 51.16527 49.157829 
C 51.16527 49.157829 51.16527 49.157829 51.16527 49.157829 
C 51.16527 49.157829 51.16527 49.157829 51.16527 49.157829 
z
"/>
  </clipPath>
  <clipPath id="p552571a37b">
   <path d="M 93.01527 49.157829 
C 93.01527 47.783907 92.744637 46.423343 92.218859 45.154004 
C 91.693082 43.884665 90.922385 42.731235 89.950874 41.759725 
C 88.979364 40.788215 87.825934 40.017517 86.556595 39.49174 
C 85.287256 38.965962 83.926693 38.695329 82.55277 38.695329 
C 81.178847 38.695329 79.818284 38.965962 78.548944 39.49174 
C 77.279605 40.017517 76.126175 40.788215 75.154665 41.759725 
C 74.183155 42.731235 73.412458 43.884665 72.88668 45.154004 
C 72.360903 46.423343 72.09027 47.783907 72.09027 49.157829 
C 72.09027 50.531752 72.360903 51.892316 72.88668 53.161655 
C 73.412458 54.430994 74.183155 55.584424 75.154665 56.555934 
C 76.126175 57.527444 77.279605 58.298142 78.548944 58.823919 
C 79.818284 59.349697 81.178847 59.620329 82.55277 59.620329 
C 83.926693 59.620329 85.287256 59.349697 86.556595 58.823919 
C 87.825934 58.298142 88.979364 57.527444 89.950874 56.555934 
C 90.922385 55.584424 91.693082 54.430994 92.218859 53.161655 
C 92.744637 51.892316 93.01527 50.531752 93.01527 49.157829 
M 82.55277 49.157829 
C 82.55277 49.157829 82.55277 49.157829 82.55277 49.157829 
C 82.55277 49.157829 82.55277 49.157829 82.55277 49.157829 
C 82.55277 49.157829 82.55277 49.157829 82.55277 49.157829 
C 82.55277 49.157829 82.55277 49.157829 82.55277 49.157829 
C 82.55277 49.157829 82.55277 49.157829 82.55277 49.157829 
C 82.55277 49.157829 82.55277 49.157829 82.55277 49.157829 
C 82.55277 49.157829 82.55277 49.157829 82.55277 49.157829 
C 82.55277 49.157829 82.55277 49.157829 82.55277 49.157829 
C 82.55277 49.157829 82.55277 49.157829 82.55277 49.157829 
C 82.55277 49.157829 82.55277 49.157829 82.55277 49.157829 
C 82.55277 49.157829 82.55277 49.157829 82.55277 49.157829 
C 82.55277 49.157829 82.55277 49.157829 82.55277 49.157829 
C 82.55277 49.157829 82.55277 49.157829 82.55277 49.157829 
C 82.55277 49.157829 82.55277 49.157829 82.55277 49.157829 
C 82.55277 49.157829 82.55277 49.157829 82.55277 49.157829 
C 82.55277 49.157829 82.55277 49.157829 82.55277 49.157829 
z
"/>
  </clipPath>
 </defs>
</svg>
