<?xml version="1.0" encoding="utf-8" standalone="no"?>
<!DOCTYPE svg PUBLIC "-//W3C//DTD SVG 1.1//EN"
  "http://www.w3.org/Graphics/SVG/1.1/DTD/svg11.dtd">
<svg xmlns:xlink="http://www.w3.org/1999/xlink" width="120.214338pt" height="58.874589pt" viewBox="0 0 120.214338 58.874589" xmlns="http://www.w3.org/2000/svg" version="1.1">
 <metadata>
  <rdf:RDF xmlns:dc="http://purl.org/dc/elements/1.1/" xmlns:cc="http://creativecommons.org/ns#" xmlns:rdf="http://www.w3.org/1999/02/22-rdf-syntax-ns#">
   <cc:Work>
    <dc:type rdf:resource="http://purl.org/dc/dcmitype/StillImage"/>
    <dc:date>2023-10-06T11:45:03.086029</dc:date>
    <dc:format>image/svg+xml</dc:format>
    <dc:creator>
     <cc:Agent>
      <dc:title>Matplotlib v3.7.1, https://matplotlib.org/</dc:title>
     </cc:Agent>
    </dc:creator>
   </cc:Work>
  </rdf:RDF>
 </metadata>
 <defs>
  <style type="text/css">*{stroke-linejoin: round; stroke-linecap: butt}</style>
 </defs>
 <g id="figure_1">
  <g id="patch_1">
   <path d="M 0 58.874589 
L 120.214338 58.874589 
L 120.214338 0 
L 0 0 
L 0 58.874589 
z
" style="fill: none"/>
  </g>
  <g id="axes_1">
   <g id="patch_2">
    <path d="M 27.230008 15.422351 
C 27.230008 14.443732 27.037242 13.474628 26.66274 12.570502 
C 26.288239 11.666376 25.739286 10.84481 25.047298 10.152822 
C 24.35531 9.460834 23.533744 8.911881 22.629618 8.53738 
C 21.725492 8.162879 20.756389 7.970112 19.77777 7.970112 
C 18.799151 7.970112 17.830048 8.162879 16.925921 8.53738 
C 16.021795 8.911881 15.200229 9.460834 14.508241 10.152822 
C 13.816253 10.84481 13.2673 11.666376 12.892799 12.570502 
C 12.518298 13.474628 12.325531 14.443732 12.325531 15.422351 
C 12.325531 16.40097 12.518298 17.370073 12.892799 18.274199 
C 13.2673 19.178325 13.816253 19.999891 14.508241 20.691879 
C 15.200229 21.383867 16.021795 21.93282 16.925921 22.307321 
C 17.830048 22.681823 18.799151 22.874589 19.77777 22.874589 
C 20.756389 22.874589 21.725492 22.681823 22.629618 22.307321 
C 23.533744 21.93282 24.35531 21.383867 25.047298 20.691879 
C 25.739286 19.999891 26.288239 19.178325 26.66274 18.274199 
C 27.037242 17.370073 27.230008 16.40097 27.230008 15.422351 
M 19.77777 15.422351 
C 19.77777 15.422351 19.77777 15.422351 19.77777 15.422351 
C 19.77777 15.422351 19.77777 15.422351 19.77777 15.422351 
C 19.77777 15.422351 19.77777 15.422351 19.77777 15.422351 
C 19.77777 15.422351 19.77777 15.422351 19.77777 15.422351 
C 19.77777 15.422351 19.77777 15.422351 19.77777 15.422351 
C 19.77777 15.422351 19.77777 15.422351 19.77777 15.422351 
C 19.77777 15.422351 19.77777 15.422351 19.77777 15.422351 
C 19.77777 15.422351 19.77777 15.422351 19.77777 15.422351 
C 19.77777 15.422351 19.77777 15.422351 19.77777 15.422351 
C 19.77777 15.422351 19.77777 15.422351 19.77777 15.422351 
C 19.77777 15.422351 19.77777 15.422351 19.77777 15.422351 
C 19.77777 15.422351 19.77777 15.422351 19.77777 15.422351 
C 19.77777 15.422351 19.77777 15.422351 19.77777 15.422351 
C 19.77777 15.422351 19.77777 15.422351 19.77777 15.422351 
C 19.77777 15.422351 19.77777 15.422351 19.77777 15.422351 
C 19.77777 15.422351 19.77777 15.422351 19.77777 15.422351 
L 19.77777 15.422351 
z
" style="fill: none"/>
   </g>
   <g id="matplotlib.axis_1">
    <g id="xtick_1">
     <g id="line2d_1">
      <path d="M 19.77777 15.422351 
L 27.230008 15.422351 
" clip-path="url(#pf719d26f3e)" style="fill: none; stroke: #b0b0b0; stroke-width: 0.8; stroke-linecap: square"/>
     </g>
    </g>
    <g id="xtick_2">
     <g id="line2d_2">
      <path d="M 19.77777 15.422351 
L 25.047298 10.152822 
" clip-path="url(#pf719d26f3e)" style="fill: none; stroke: #b0b0b0; stroke-width: 0.8; stroke-linecap: square"/>
     </g>
    </g>
    <g id="xtick_3">
     <g id="line2d_3">
      <path d="M 19.77777 15.422351 
L 19.77777 7.970112 
" clip-path="url(#pf719d26f3e)" style="fill: none; stroke: #b0b0b0; stroke-width: 0.8; stroke-linecap: square"/>
     </g>
    </g>
    <g id="xtick_4">
     <g id="line2d_4">
      <path d="M 19.77777 15.422351 
L 14.508241 10.152822 
" clip-path="url(#pf719d26f3e)" style="fill: none; stroke: #b0b0b0; stroke-width: 0.8; stroke-linecap: square"/>
     </g>
    </g>
    <g id="xtick_5">
     <g id="line2d_5">
      <path d="M 19.77777 15.422351 
L 12.325531 15.422351 
" clip-path="url(#pf719d26f3e)" style="fill: none; stroke: #b0b0b0; stroke-width: 0.8; stroke-linecap: square"/>
     </g>
    </g>
    <g id="xtick_6">
     <g id="line2d_6">
      <path d="M 19.77777 15.422351 
L 14.508241 20.691879 
" clip-path="url(#pf719d26f3e)" style="fill: none; stroke: #b0b0b0; stroke-width: 0.8; stroke-linecap: square"/>
     </g>
    </g>
    <g id="xtick_7">
     <g id="line2d_7">
      <path d="M 19.77777 15.422351 
L 19.77777 22.874589 
" clip-path="url(#pf719d26f3e)" style="fill: none; stroke: #b0b0b0; stroke-width: 0.8; stroke-linecap: square"/>
     </g>
    </g>
    <g id="xtick_8">
     <g id="line2d_8">
      <path d="M 19.77777 15.422351 
L 25.047298 20.691879 
" clip-path="url(#pf719d26f3e)" style="fill: none; stroke: #b0b0b0; stroke-width: 0.8; stroke-linecap: square"/>
     </g>
    </g>
   </g>
   <g id="matplotlib.axis_2">
    <g id="ytick_1">
     <g id="line2d_9">
      <path d="M 21.268217 15.422351 
C 21.268217 15.226627 21.229664 15.032806 21.154764 14.851981 
C 21.079864 14.671156 20.970073 14.506843 20.831675 14.368445 
C 20.693278 14.230047 20.528965 14.120257 20.348139 14.045357 
C 20.167314 13.970456 19.973494 13.931903 19.77777 13.931903 
C 19.582046 13.931903 19.388225 13.970456 19.2074 14.045357 
C 19.026575 14.120257 18.862262 14.230047 18.723864 14.368445 
C 18.585466 14.506843 18.475676 14.671156 18.400776 14.851981 
C 18.325875 15.032806 18.287322 15.226627 18.287322 15.422351 
C 18.287322 15.618074 18.325875 15.811895 18.400776 15.99272 
C 18.475676 16.173546 18.585466 16.337859 18.723864 16.476256 
C 18.862262 16.614654 19.026575 16.724445 19.2074 16.799345 
C 19.388225 16.874245 19.582046 16.912798 19.77777 16.912798 
C 19.973494 16.912798 20.167314 16.874245 20.348139 16.799345 
C 20.528965 16.724445 20.693278 16.614654 20.831675 16.476256 
C 20.970073 16.337859 21.079864 16.173546 21.154764 15.99272 
C 21.229664 15.811895 21.268217 15.618074 21.268217 15.422351 
" clip-path="url(#pf719d26f3e)" style="fill: none; stroke: #b0b0b0; stroke-width: 0.8; stroke-linecap: square"/>
     </g>
     <g id="text_1">
      <!-- $\mathdefault{0.05}$ -->
      <g transform="translate(21.154764 13.238312) scale(0.0833 -0.0833)">
       <defs>
        <path id="CMR17-30" d="M 2688 2038 
C 2688 2430 2682 3099 2413 3613 
C 2176 4063 1798 4224 1466 4224 
C 1158 4224 768 4082 525 3620 
C 269 3137 243 2539 243 2038 
C 243 1671 250 1112 448 623 
C 723 -39 1216 -128 1466 -128 
C 1760 -128 2208 -7 2470 604 
C 2662 1048 2688 1568 2688 2038 
z
M 1466 -26 
C 1056 -26 813 328 723 816 
C 653 1196 653 1749 653 2109 
C 653 2604 653 3015 736 3407 
C 858 3954 1216 4121 1466 4121 
C 1728 4121 2067 3947 2189 3420 
C 2272 3054 2278 2623 2278 2109 
C 2278 1691 2278 1176 2202 797 
C 2067 96 1690 -26 1466 -26 
z
" transform="scale(0.015625)"/>
        <path id="CMMI12-3a" d="M 1178 307 
C 1178 492 1024 620 870 620 
C 685 620 557 467 557 313 
C 557 128 710 0 864 0 
C 1050 0 1178 153 1178 307 
z
" transform="scale(0.015625)"/>
        <path id="CMR17-35" d="M 730 3750 
C 794 3724 1056 3641 1325 3641 
C 1920 3641 2246 3961 2432 4140 
C 2432 4191 2432 4224 2394 4224 
C 2387 4224 2374 4224 2323 4198 
C 2099 4102 1837 4032 1517 4032 
C 1325 4032 1037 4055 723 4191 
C 653 4224 640 4224 634 4224 
C 602 4224 595 4217 595 4090 
L 595 2231 
C 595 2113 595 2080 659 2080 
C 691 2080 704 2093 736 2139 
C 941 2435 1222 2560 1542 2560 
C 1766 2560 2246 2415 2246 1293 
C 2246 1087 2246 716 2054 422 
C 1894 159 1645 25 1370 25 
C 947 25 518 319 403 812 
C 429 806 480 793 506 793 
C 589 793 749 838 749 1036 
C 749 1209 627 1280 506 1280 
C 358 1280 262 1190 262 1011 
C 262 454 704 -128 1382 -128 
C 2042 -128 2669 441 2669 1267 
C 2669 2054 2170 2662 1549 2662 
C 1222 2662 947 2540 730 2304 
L 730 3750 
z
" transform="scale(0.015625)"/>
       </defs>
       <use xlink:href="#CMR17-30" transform="scale(0.996264)"/>
       <use xlink:href="#CMMI12-3a" transform="translate(45.690477 0) scale(0.996264)"/>
       <use xlink:href="#CMR17-30" transform="translate(72.787654 0) scale(0.996264)"/>
       <use xlink:href="#CMR17-35" transform="translate(118.478131 0) scale(0.996264)"/>
      </g>
     </g>
    </g>
    <g id="ytick_2">
     <g id="line2d_10">
      <path d="M 27.230008 15.422351 
C 27.230008 14.443732 27.037242 13.474628 26.66274 12.570502 
C 26.288239 11.666376 25.739286 10.84481 25.047298 10.152822 
C 24.35531 9.460834 23.533744 8.911881 22.629618 8.53738 
C 21.725492 8.162879 20.756389 7.970112 19.77777 7.970112 
C 18.799151 7.970112 17.830048 8.162879 16.925921 8.53738 
C 16.021795 8.911881 15.200229 9.460834 14.508241 10.152822 
C 13.816253 10.84481 13.2673 11.666376 12.892799 12.570502 
C 12.518298 13.474628 12.325531 14.443732 12.325531 15.422351 
C 12.325531 16.40097 12.518298 17.370073 12.892799 18.274199 
C 13.2673 19.178325 13.816253 19.999891 14.508241 20.691879 
C 15.200229 21.383867 16.021795 21.93282 16.925921 22.307321 
C 17.830048 22.681823 18.799151 22.874589 19.77777 22.874589 
C 20.756389 22.874589 21.725492 22.681823 22.629618 22.307321 
C 23.533744 21.93282 24.35531 21.383867 25.047298 20.691879 
C 25.739286 19.999891 26.288239 19.178325 26.66274 18.274199 
C 27.037242 17.370073 27.230008 16.40097 27.230008 15.422351 
" clip-path="url(#pf719d26f3e)" style="fill: none; stroke: #b0b0b0; stroke-width: 0.8; stroke-linecap: square"/>
     </g>
     <g id="text_2">
      <!-- $\mathdefault{0.25}$ -->
      <g transform="translate(26.66274 10.956833) scale(0.0833 -0.0833)">
       <defs>
        <path id="CMR17-32" d="M 2669 990 
L 2554 990 
C 2490 537 2438 460 2413 422 
C 2381 371 1920 371 1830 371 
L 602 371 
C 832 620 1280 1073 1824 1596 
C 2214 1966 2669 2400 2669 3033 
C 2669 3788 2067 4224 1395 4224 
C 691 4224 262 3603 262 3027 
C 262 2777 448 2745 525 2745 
C 589 2745 781 2783 781 3007 
C 781 3206 614 3264 525 3264 
C 486 3264 448 3257 422 3244 
C 544 3788 915 4057 1306 4057 
C 1862 4057 2227 3616 2227 3033 
C 2227 2477 1901 1998 1536 1583 
L 262 147 
L 262 0 
L 2515 0 
L 2669 990 
z
" transform="scale(0.015625)"/>
       </defs>
       <use xlink:href="#CMR17-30" transform="scale(0.996264)"/>
       <use xlink:href="#CMMI12-3a" transform="translate(45.690477 0) scale(0.996264)"/>
       <use xlink:href="#CMR17-32" transform="translate(72.787654 0) scale(0.996264)"/>
       <use xlink:href="#CMR17-35" transform="translate(118.478131 0) scale(0.996264)"/>
      </g>
     </g>
    </g>
   </g>
   <g id="line2d_11">
    <path d="M 14.517185 15.589342 
L 14.624398 15.914438 
L 14.73555 16.229163 
L 14.943478 16.514224 
L 15.22751 16.758428 
L 15.286984 17.056863 
L 15.497796 17.295461 
L 15.709542 17.519668 
L 15.851155 17.773227 
L 16.149755 17.920056 
L 16.312889 18.147163 
L 16.467481 18.383981 
L 16.665608 18.584288 
L 16.841044 18.811513 
L 17.06959 18.980857 
L 17.254948 19.214279 
L 17.496534 19.373567 
L 17.725866 19.56248 
L 17.987499 19.696414 
L 18.219476 19.924745 
L 18.49378 20.066573 
L 18.777645 20.2021 
L 19.059481 20.418159 
L 19.368252 20.573517 
L 19.693421 20.737989 
L 20.026327 20.640215 
L 20.342813 20.488846 
L 20.636587 20.292944 
L 20.922288 20.140119 
L 21.189638 19.962949 
L 21.413428 19.703679 
L 21.714648 19.663522 
L 21.941809 19.461345 
L 22.155487 19.2545 
L 22.392387 19.094067 
L 22.624736 18.926678 
L 22.782306 18.675228 
L 23.01588 18.509883 
L 23.205544 18.298595 
L 23.375392 18.071224 
L 23.530224 17.833907 
L 23.848821 17.687423 
L 23.979619 17.42244 
L 24.152081 17.173561 
L 24.335111 16.919126 
L 24.534523 16.656558 
L 24.604147 16.352559 
L 24.836061 16.067886 
L 24.856507 15.745114 
L 25.164999 15.422351 
L 24.974159 15.09211 
L 24.842117 14.776043 
L 24.629512 14.487254 
L 24.543161 14.185902 
L 24.311014 13.93349 
L 24.085368 13.697848 
L 23.913886 13.453551 
L 23.76222 13.205462 
L 23.623867 12.950614 
L 23.364424 12.781553 
L 23.216698 12.536748 
L 22.998204 12.351673 
L 22.822142 12.126346 
L 22.645171 11.89287 
L 22.401378 11.738009 
L 22.200555 11.517566 
L 21.941588 11.383771 
L 21.705477 11.201259 
L 21.446282 11.055028 
L 21.182805 10.903728 
L 20.9286 10.678565 
L 20.632264 10.576272 
L 20.338804 10.391797 
L 20.02483 10.235919 
L 19.6929 10.073838 
L 19.368364 10.272589 
L 19.053799 10.387026 
L 18.773316 10.621913 
L 18.511051 10.8406 
L 18.258802 11.033582 
L 17.978608 11.12706 
L 17.731706 11.294005 
L 17.468353 11.422324 
L 17.291891 11.68595 
L 17.026355 11.807034 
L 16.924704 12.129737 
L 16.662643 12.257401 
L 16.444379 12.440051 
L 16.199178 12.608115 
L 16.019769 12.835156 
L 15.881782 13.08981 
L 15.733337 13.337301 
L 15.572665 13.582006 
L 15.454699 13.848882 
L 15.218046 14.083495 
L 14.966843 14.335755 
L 14.798161 14.625557 
L 14.649178 14.93263 
L 14.630791 15.258965 
" clip-path="url(#pf719d26f3e)" style="fill: none; stroke: #348abd; stroke-opacity: 0.75; stroke-width: 2; stroke-linecap: square"/>
   </g>
   <g id="patch_3">
    <path d="M 27.230008 15.422351 
C 27.230008 14.443732 27.037242 13.474628 26.66274 12.570502 
C 26.288239 11.666376 25.739286 10.84481 25.047298 10.152822 
C 24.35531 9.460834 23.533744 8.911881 22.629618 8.53738 
C 21.725492 8.162879 20.756389 7.970112 19.77777 7.970112 
C 18.799151 7.970112 17.830048 8.162879 16.925921 8.53738 
C 16.021795 8.911881 15.200229 9.460834 14.508241 10.152822 
C 13.816253 10.84481 13.2673 11.666376 12.892799 12.570502 
C 12.518298 13.474628 12.325531 14.443732 12.325531 15.422351 
C 12.325531 16.40097 12.518298 17.370073 12.892799 18.274199 
C 13.2673 19.178325 13.816253 19.999891 14.508241 20.691879 
C 15.200229 21.383867 16.021795 21.93282 16.925921 22.307321 
C 17.830048 22.681823 18.799151 22.874589 19.77777 22.874589 
C 20.756389 22.874589 21.725492 22.681823 22.629618 22.307321 
C 23.533744 21.93282 24.35531 21.383867 25.047298 20.691879 
C 25.739286 19.999891 26.288239 19.178325 26.66274 18.274199 
C 27.037242 17.370073 27.230008 16.40097 27.230008 15.422351 
" style="fill: none; stroke: #000000; stroke-width: 0.8; stroke-linejoin: miter; stroke-linecap: square"/>
   </g>
   <g id="text_3">
    <!-- Square -->
    <g transform="translate(6.070589 6.22665) scale(0.09 -0.09)">
     <defs>
      <path id="CMR17-53" d="M 2803 4351 
C 2803 4467 2797 4473 2758 4473 
C 2720 4473 2707 4447 2682 4390 
L 2490 3965 
C 2246 4320 1875 4480 1472 4480 
C 819 4480 294 3958 294 3301 
C 294 3101 339 2817 557 2546 
C 794 2250 1018 2198 1530 2063 
C 1722 2011 2042 1927 2106 1901 
C 2470 1747 2662 1360 2662 999 
C 2662 534 2336 38 1779 38 
C 1094 38 454 425 410 1328 
C 403 1431 397 1437 352 1437 
C 301 1437 294 1431 294 1302 
L 294 0 
C 294 -116 301 -122 339 -122 
C 384 -122 397 -90 486 109 
C 493 128 493 141 614 386 
C 934 -39 1472 -128 1779 -128 
C 2477 -128 2970 457 2970 1141 
C 2970 1476 2848 1734 2778 1850 
C 2509 2263 2221 2340 1914 2417 
C 1869 2437 1856 2437 1498 2527 
C 1152 2617 1005 2662 845 2836 
C 666 3036 602 3243 602 3449 
C 602 3868 934 4326 1478 4326 
C 2157 4326 2579 3842 2675 3036 
C 2694 2920 2701 2914 2746 2914 
C 2803 2914 2803 2933 2803 3043 
L 2803 4351 
z
" transform="scale(0.015625)"/>
      <path id="CMR17-71" d="M 2630 2816 
L 2528 2816 
L 2336 2177 
C 2189 2519 1920 2816 1491 2816 
C 838 2816 211 2228 211 1376 
C 211 529 800 -64 1440 -64 
C 1933 -64 2208 316 2291 458 
L 2291 -834 
C 2291 -1081 2266 -1114 1856 -1114 
L 1856 -1280 
C 2010 -1268 2291 -1268 2458 -1268 
C 2624 -1268 2912 -1268 3066 -1280 
L 3066 -1114 
C 2656 -1114 2630 -1088 2630 -834 
L 2630 2816 
z
M 2304 871 
C 2304 594 2074 335 2054 316 
C 1856 90 1626 38 1472 38 
C 992 38 621 652 621 1369 
C 621 2125 1043 2700 1536 2700 
C 2048 2700 2304 2112 2304 1776 
L 2304 871 
z
" transform="scale(0.015625)"/>
      <path id="CMR17-75" d="M 1882 2745 
L 1882 2579 
C 2259 2579 2317 2540 2317 2229 
L 2317 1053 
C 2317 510 2029 38 1555 38 
C 1030 38 986 355 986 691 
L 986 2816 
L 211 2745 
L 211 2579 
C 467 2579 640 2579 646 2320 
L 646 1079 
C 646 646 646 368 813 187 
C 896 103 1056 -64 1517 -64 
C 2061 -64 2272 400 2323 536 
L 2330 536 
L 2330 -64 
L 3091 -13 
L 3091 154 
C 2714 154 2656 193 2656 503 
L 2656 2816 
L 1882 2745 
z
" transform="scale(0.015625)"/>
      <path id="CMR17-61" d="M 2304 1656 
C 2304 2048 2304 2275 2035 2534 
C 1798 2751 1523 2816 1306 2816 
C 800 2816 435 2408 435 1977 
C 435 1740 627 1728 666 1728 
C 749 1728 896 1779 896 1958 
C 896 2118 774 2188 666 2188 
C 640 2188 608 2182 589 2176 
C 723 2594 1069 2713 1293 2713 
C 1613 2713 1965 2421 1965 1875 
L 1965 1632 
C 1587 1619 1133 1568 774 1373 
C 371 1147 256 822 256 576 
C 256 77 832 -64 1171 -64 
C 1523 -64 1850 135 1990 505 
C 2003 219 2182 -39 2464 -39 
C 2598 -39 2938 51 2938 563 
L 2938 926 
L 2822 926 
L 2822 557 
C 2822 161 2650 109 2566 109 
C 2304 109 2304 446 2304 732 
L 2304 1656 
z
M 1965 887 
C 1965 323 1568 38 1216 38 
C 896 38 646 278 646 576 
C 646 771 730 1114 1101 1322 
C 1408 1497 1760 1523 1965 1536 
L 1965 887 
z
" transform="scale(0.015625)"/>
      <path id="CMR17-72" d="M 960 1517 
C 960 2134 1222 2713 1702 2713 
C 1747 2713 1792 2707 1837 2687 
C 1837 2687 1696 2642 1696 2475 
C 1696 2321 1818 2257 1914 2257 
C 1990 2257 2131 2302 2131 2482 
C 2131 2687 1926 2816 1709 2816 
C 1222 2816 1011 2340 947 2115 
L 941 2115 
L 941 2816 
L 198 2745 
L 198 2578 
C 576 2578 634 2540 634 2231 
L 634 443 
C 634 198 608 166 198 166 
L 198 0 
C 352 12 646 12 813 12 
C 998 12 1325 12 1498 0 
L 1498 166 
C 1037 166 960 166 960 455 
L 960 1517 
z
" transform="scale(0.015625)"/>
      <path id="CMR17-65" d="M 2438 1503 
C 2464 1529 2464 1542 2464 1606 
C 2464 2251 2118 2816 1389 2816 
C 710 2816 173 2175 173 1394 
C 173 554 781 -64 1459 -64 
C 2176 -64 2458 619 2458 755 
C 2458 800 2419 800 2406 800 
C 2362 800 2355 787 2330 709 
C 2189 270 1837 51 1504 51 
C 1229 51 954 206 781 490 
C 582 819 582 1200 582 1503 
L 2438 1503 
z
M 589 1600 
C 634 2511 1126 2713 1382 2713 
C 1818 2713 2112 2308 2118 1600 
L 589 1600 
z
" transform="scale(0.015625)"/>
     </defs>
     <use xlink:href="#CMR17-53" transform="scale(0.996264)"/>
     <use xlink:href="#CMR17-71" transform="translate(50.89537 0) scale(0.996264)"/>
     <use xlink:href="#CMR17-75" transform="translate(99.188286 0) scale(0.996264)"/>
     <use xlink:href="#CMR17-61" transform="translate(150.083655 0) scale(0.996264)"/>
     <use xlink:href="#CMR17-72" transform="translate(195.774133 0) scale(0.996264)"/>
     <use xlink:href="#CMR17-65" transform="translate(231.0549 0) scale(0.996264)"/>
    </g>
   </g>
  </g>
  <g id="axes_2">
   <g id="patch_4">
    <path d="M 63.230008 15.422351 
C 63.230008 14.443732 63.037242 13.474628 62.66274 12.570502 
C 62.288239 11.666376 61.739286 10.84481 61.047298 10.152822 
C 60.35531 9.460834 59.533744 8.911881 58.629618 8.53738 
C 57.725492 8.162879 56.756389 7.970112 55.77777 7.970112 
C 54.799151 7.970112 53.830048 8.162879 52.925921 8.53738 
C 52.021795 8.911881 51.200229 9.460834 50.508241 10.152822 
C 49.816253 10.84481 49.2673 11.666376 48.892799 12.570502 
C 48.518298 13.474628 48.325531 14.443732 48.325531 15.422351 
C 48.325531 16.40097 48.518298 17.370073 48.892799 18.274199 
C 49.2673 19.178325 49.816253 19.999891 50.508241 20.691879 
C 51.200229 21.383867 52.021795 21.93282 52.925921 22.307321 
C 53.830048 22.681823 54.799151 22.874589 55.77777 22.874589 
C 56.756389 22.874589 57.725492 22.681823 58.629618 22.307321 
C 59.533744 21.93282 60.35531 21.383867 61.047298 20.691879 
C 61.739286 19.999891 62.288239 19.178325 62.66274 18.274199 
C 63.037242 17.370073 63.230008 16.40097 63.230008 15.422351 
M 55.77777 15.422351 
C 55.77777 15.422351 55.77777 15.422351 55.77777 15.422351 
C 55.77777 15.422351 55.77777 15.422351 55.77777 15.422351 
C 55.77777 15.422351 55.77777 15.422351 55.77777 15.422351 
C 55.77777 15.422351 55.77777 15.422351 55.77777 15.422351 
C 55.77777 15.422351 55.77777 15.422351 55.77777 15.422351 
C 55.77777 15.422351 55.77777 15.422351 55.77777 15.422351 
C 55.77777 15.422351 55.77777 15.422351 55.77777 15.422351 
C 55.77777 15.422351 55.77777 15.422351 55.77777 15.422351 
C 55.77777 15.422351 55.77777 15.422351 55.77777 15.422351 
C 55.77777 15.422351 55.77777 15.422351 55.77777 15.422351 
C 55.77777 15.422351 55.77777 15.422351 55.77777 15.422351 
C 55.77777 15.422351 55.77777 15.422351 55.77777 15.422351 
C 55.77777 15.422351 55.77777 15.422351 55.77777 15.422351 
C 55.77777 15.422351 55.77777 15.422351 55.77777 15.422351 
C 55.77777 15.422351 55.77777 15.422351 55.77777 15.422351 
C 55.77777 15.422351 55.77777 15.422351 55.77777 15.422351 
L 55.77777 15.422351 
z
" style="fill: none"/>
   </g>
   <g id="matplotlib.axis_3">
    <g id="xtick_9">
     <g id="line2d_12">
      <path d="M 55.77777 15.422351 
L 63.230008 15.422351 
" clip-path="url(#p5f48f7c2ff)" style="fill: none; stroke: #b0b0b0; stroke-width: 0.8; stroke-linecap: square"/>
     </g>
    </g>
    <g id="xtick_10">
     <g id="line2d_13">
      <path d="M 55.77777 15.422351 
L 61.047298 10.152822 
" clip-path="url(#p5f48f7c2ff)" style="fill: none; stroke: #b0b0b0; stroke-width: 0.8; stroke-linecap: square"/>
     </g>
    </g>
    <g id="xtick_11">
     <g id="line2d_14">
      <path d="M 55.77777 15.422351 
L 55.77777 7.970112 
" clip-path="url(#p5f48f7c2ff)" style="fill: none; stroke: #b0b0b0; stroke-width: 0.8; stroke-linecap: square"/>
     </g>
    </g>
    <g id="xtick_12">
     <g id="line2d_15">
      <path d="M 55.77777 15.422351 
L 50.508241 10.152822 
" clip-path="url(#p5f48f7c2ff)" style="fill: none; stroke: #b0b0b0; stroke-width: 0.8; stroke-linecap: square"/>
     </g>
    </g>
    <g id="xtick_13">
     <g id="line2d_16">
      <path d="M 55.77777 15.422351 
L 48.325531 15.422351 
" clip-path="url(#p5f48f7c2ff)" style="fill: none; stroke: #b0b0b0; stroke-width: 0.8; stroke-linecap: square"/>
     </g>
    </g>
    <g id="xtick_14">
     <g id="line2d_17">
      <path d="M 55.77777 15.422351 
L 50.508241 20.691879 
" clip-path="url(#p5f48f7c2ff)" style="fill: none; stroke: #b0b0b0; stroke-width: 0.8; stroke-linecap: square"/>
     </g>
    </g>
    <g id="xtick_15">
     <g id="line2d_18">
      <path d="M 55.77777 15.422351 
L 55.77777 22.874589 
" clip-path="url(#p5f48f7c2ff)" style="fill: none; stroke: #b0b0b0; stroke-width: 0.8; stroke-linecap: square"/>
     </g>
    </g>
    <g id="xtick_16">
     <g id="line2d_19">
      <path d="M 55.77777 15.422351 
L 61.047298 20.691879 
" clip-path="url(#p5f48f7c2ff)" style="fill: none; stroke: #b0b0b0; stroke-width: 0.8; stroke-linecap: square"/>
     </g>
    </g>
   </g>
   <g id="matplotlib.axis_4">
    <g id="ytick_3">
     <g id="line2d_20">
      <path d="M 57.268217 15.422351 
C 57.268217 15.226627 57.229664 15.032806 57.154764 14.851981 
C 57.079864 14.671156 56.970073 14.506843 56.831675 14.368445 
C 56.693278 14.230047 56.528965 14.120257 56.348139 14.045357 
C 56.167314 13.970456 55.973494 13.931903 55.77777 13.931903 
C 55.582046 13.931903 55.388225 13.970456 55.2074 14.045357 
C 55.026575 14.120257 54.862262 14.230047 54.723864 14.368445 
C 54.585466 14.506843 54.475676 14.671156 54.400776 14.851981 
C 54.325875 15.032806 54.287322 15.226627 54.287322 15.422351 
C 54.287322 15.618074 54.325875 15.811895 54.400776 15.99272 
C 54.475676 16.173546 54.585466 16.337859 54.723864 16.476256 
C 54.862262 16.614654 55.026575 16.724445 55.2074 16.799345 
C 55.388225 16.874245 55.582046 16.912798 55.77777 16.912798 
C 55.973494 16.912798 56.167314 16.874245 56.348139 16.799345 
C 56.528965 16.724445 56.693278 16.614654 56.831675 16.476256 
C 56.970073 16.337859 57.079864 16.173546 57.154764 15.99272 
C 57.229664 15.811895 57.268217 15.618074 57.268217 15.422351 
" clip-path="url(#p5f48f7c2ff)" style="fill: none; stroke: #b0b0b0; stroke-width: 0.8; stroke-linecap: square"/>
     </g>
     <g id="text_4">
      <!-- $\mathdefault{0.05}$ -->
      <g transform="translate(57.154764 13.238312) scale(0.0833 -0.0833)">
       <use xlink:href="#CMR17-30" transform="scale(0.996264)"/>
       <use xlink:href="#CMMI12-3a" transform="translate(45.690477 0) scale(0.996264)"/>
       <use xlink:href="#CMR17-30" transform="translate(72.787654 0) scale(0.996264)"/>
       <use xlink:href="#CMR17-35" transform="translate(118.478131 0) scale(0.996264)"/>
      </g>
     </g>
    </g>
    <g id="ytick_4">
     <g id="line2d_21">
      <path d="M 63.230008 15.422351 
C 63.230008 14.443732 63.037242 13.474628 62.66274 12.570502 
C 62.288239 11.666376 61.739286 10.84481 61.047298 10.152822 
C 60.35531 9.460834 59.533744 8.911881 58.629618 8.53738 
C 57.725492 8.162879 56.756389 7.970112 55.77777 7.970112 
C 54.799151 7.970112 53.830048 8.162879 52.925921 8.53738 
C 52.021795 8.911881 51.200229 9.460834 50.508241 10.152822 
C 49.816253 10.84481 49.2673 11.666376 48.892799 12.570502 
C 48.518298 13.474628 48.325531 14.443732 48.325531 15.422351 
C 48.325531 16.40097 48.518298 17.370073 48.892799 18.274199 
C 49.2673 19.178325 49.816253 19.999891 50.508241 20.691879 
C 51.200229 21.383867 52.021795 21.93282 52.925921 22.307321 
C 53.830048 22.681823 54.799151 22.874589 55.77777 22.874589 
C 56.756389 22.874589 57.725492 22.681823 58.629618 22.307321 
C 59.533744 21.93282 60.35531 21.383867 61.047298 20.691879 
C 61.739286 19.999891 62.288239 19.178325 62.66274 18.274199 
C 63.037242 17.370073 63.230008 16.40097 63.230008 15.422351 
" clip-path="url(#p5f48f7c2ff)" style="fill: none; stroke: #b0b0b0; stroke-width: 0.8; stroke-linecap: square"/>
     </g>
     <g id="text_5">
      <!-- $\mathdefault{0.25}$ -->
      <g transform="translate(62.66274 10.956833) scale(0.0833 -0.0833)">
       <use xlink:href="#CMR17-30" transform="scale(0.996264)"/>
       <use xlink:href="#CMMI12-3a" transform="translate(45.690477 0) scale(0.996264)"/>
       <use xlink:href="#CMR17-32" transform="translate(72.787654 0) scale(0.996264)"/>
       <use xlink:href="#CMR17-35" transform="translate(118.478131 0) scale(0.996264)"/>
      </g>
     </g>
    </g>
   </g>
   <g id="line2d_22">
    <path d="M 51.071598 15.571743 
L 51.088678 15.870105 
L 51.08153 16.173802 
L 51.273339 16.439721 
L 51.348285 16.722965 
L 51.356277 17.031642 
L 51.423358 17.328038 
L 51.550486 17.601667 
L 51.69883 17.864425 
L 51.90487 18.088647 
L 52.069591 18.338495 
L 52.222106 18.603512 
L 52.480776 18.772076 
L 52.648502 19.033718 
L 52.899493 19.204362 
L 53.130329 19.401588 
L 53.404477 19.533015 
L 53.685195 19.644542 
L 53.905117 19.893092 
L 54.213946 19.940723 
L 54.492653 20.070647 
L 54.792747 20.129924 
L 55.10734 20.085291 
L 55.40499 20.111401 
L 55.701857 20.206379 
L 56.004761 20.187487 
L 56.298719 20.093479 
L 56.612445 20.156031 
L 56.892169 20.015967 
L 57.187825 19.957119 
L 57.477795 19.872159 
L 57.733183 19.704109 
L 58.031645 19.629015 
L 58.240918 19.392189 
L 58.535146 19.294544 
L 58.784069 19.122801 
L 58.978296 18.887417 
L 59.136213 18.62462 
L 59.447327 18.501474 
L 59.63712 18.26393 
L 59.743984 17.971282 
L 59.935011 17.735378 
L 60.102604 17.480981 
L 60.165162 17.178798 
L 60.258359 16.893918 
L 60.335851 16.605009 
L 60.4003 16.31327 
L 60.572826 16.034292 
L 60.464176 15.720181 
L 60.564279 15.422351 
L 60.4923 15.122733 
L 60.505736 14.818971 
L 60.412752 14.529031 
L 60.289934 14.251606 
L 60.314584 13.932317 
L 60.296409 13.61336 
L 60.057651 13.385118 
L 59.916542 13.1196 
L 59.758998 12.86377 
L 59.548238 12.646213 
L 59.378606 12.400891 
L 59.253147 12.108586 
L 58.999329 11.934513 
L 58.741126 11.774759 
L 58.517165 11.575408 
L 58.298863 11.359123 
L 58.053605 11.1747 
L 57.741963 11.121366 
L 57.461704 11.014662 
L 57.177366 10.92122 
L 56.910993 10.751139 
L 56.60853 10.710872 
L 56.297574 10.761492 
L 56.007912 10.591064 
L 55.701894 10.640671 
L 55.400859 10.68133 
L 55.091432 10.648764 
L 54.812275 10.808102 
L 54.504418 10.816607 
L 54.243287 10.988753 
L 53.9552 11.071176 
L 53.655369 11.139981 
L 53.422559 11.343007 
L 53.113158 11.417305 
L 52.874462 11.607449 
L 52.692485 11.861742 
L 52.445194 12.036474 
L 52.218606 12.238058 
L 51.997229 12.449301 
L 51.801577 12.684942 
L 51.695606 12.978346 
L 51.552991 13.244326 
L 51.438848 13.523442 
L 51.344802 13.808882 
L 51.255901 14.09461 
L 51.207825 14.390183 
L 51.089415 14.672161 
L 51.148057 14.980267 
L 51.114787 15.274329 
" clip-path="url(#p5f48f7c2ff)" style="fill: none; stroke: #348abd; stroke-opacity: 0.75; stroke-width: 2; stroke-linecap: square"/>
   </g>
   <g id="patch_5">
    <path d="M 63.230008 15.422351 
C 63.230008 14.443732 63.037242 13.474628 62.66274 12.570502 
C 62.288239 11.666376 61.739286 10.84481 61.047298 10.152822 
C 60.35531 9.460834 59.533744 8.911881 58.629618 8.53738 
C 57.725492 8.162879 56.756389 7.970112 55.77777 7.970112 
C 54.799151 7.970112 53.830048 8.162879 52.925921 8.53738 
C 52.021795 8.911881 51.200229 9.460834 50.508241 10.152822 
C 49.816253 10.84481 49.2673 11.666376 48.892799 12.570502 
C 48.518298 13.474628 48.325531 14.443732 48.325531 15.422351 
C 48.325531 16.40097 48.518298 17.370073 48.892799 18.274199 
C 49.2673 19.178325 49.816253 19.999891 50.508241 20.691879 
C 51.200229 21.383867 52.021795 21.93282 52.925921 22.307321 
C 53.830048 22.681823 54.799151 22.874589 55.77777 22.874589 
C 56.756389 22.874589 57.725492 22.681823 58.629618 22.307321 
C 59.533744 21.93282 60.35531 21.383867 61.047298 20.691879 
C 61.739286 19.999891 62.288239 19.178325 62.66274 18.274199 
C 63.037242 17.370073 63.230008 16.40097 63.230008 15.422351 
" style="fill: none; stroke: #000000; stroke-width: 0.8; stroke-linejoin: miter; stroke-linecap: square"/>
   </g>
   <g id="text_6">
    <!-- Circle -->
    <g transform="translate(43.99046 6.22665) scale(0.09 -0.09)">
     <defs>
      <path id="CMR17-43" d="M 3974 4351 
C 3974 4467 3968 4473 3930 4473 
C 3904 4473 3898 4467 3853 4390 
L 3571 3849 
C 3258 4249 2874 4480 2381 4480 
C 1286 4480 294 3507 294 2179 
C 294 837 1286 -128 2387 -128 
C 3366 -128 3974 741 3974 1482 
C 3974 1547 3974 1573 3917 1573 
C 3866 1573 3866 1553 3859 1495 
C 3808 592 3168 38 2477 38 
C 1824 38 781 502 781 2179 
C 781 3862 1843 4313 2464 4313 
C 3187 4313 3712 3681 3834 2785 
C 3846 2707 3846 2695 3904 2695 
C 3974 2695 3974 2707 3974 2824 
L 3974 4351 
z
" transform="scale(0.015625)"/>
      <path id="CMR17-69" d="M 992 3961 
C 992 4102 877 4224 730 4224 
C 589 4224 467 4108 467 3961 
C 467 3820 582 3699 730 3699 
C 870 3699 992 3814 992 3961 
z
M 243 2745 
L 243 2579 
C 602 2579 653 2540 653 2231 
L 653 443 
C 653 198 627 166 218 166 
L 218 0 
C 371 12 646 12 806 12 
C 960 12 1222 12 1370 0 
L 1370 166 
C 992 166 979 205 979 436 
L 979 2816 
L 243 2745 
z
" transform="scale(0.015625)"/>
      <path id="CMR17-63" d="M 2234 2240 
C 2112 2240 1933 2240 1933 2015 
C 1933 1836 2080 1785 2163 1785 
C 2208 1785 2394 1804 2394 2028 
C 2394 2476 1958 2816 1466 2816 
C 787 2816 211 2201 211 1379 
C 211 521 813 -64 1466 -64 
C 2259 -64 2458 676 2458 747 
C 2458 773 2451 792 2406 792 
C 2362 792 2355 786 2330 702 
C 2163 180 1798 51 1523 51 
C 1114 51 621 431 621 1385 
C 621 2358 1094 2700 1472 2700 
C 1722 2700 2093 2582 2234 2240 
z
" transform="scale(0.015625)"/>
      <path id="CMR17-6c" d="M 979 4416 
L 218 4345 
L 218 4179 
C 595 4179 653 4141 653 3835 
L 653 439 
C 653 198 627 166 218 166 
L 218 0 
C 371 12 653 12 813 12 
C 979 12 1261 12 1414 0 
L 1414 166 
C 1005 166 979 191 979 439 
L 979 4416 
z
" transform="scale(0.015625)"/>
     </defs>
     <use xlink:href="#CMR17-43" transform="scale(0.996264)"/>
     <use xlink:href="#CMR17-69" transform="translate(66.509881 0) scale(0.996264)"/>
     <use xlink:href="#CMR17-72" transform="translate(91.380939 0) scale(0.996264)"/>
     <use xlink:href="#CMR17-63" transform="translate(126.661707 0) scale(0.996264)"/>
     <use xlink:href="#CMR17-6c" transform="translate(167.147367 0) scale(0.996264)"/>
     <use xlink:href="#CMR17-65" transform="translate(192.018426 0) scale(0.996264)"/>
    </g>
   </g>
  </g>
  <g id="axes_3">
   <g id="patch_6">
    <path d="M 99.230008 15.422351 
C 99.230008 14.443732 99.037242 13.474628 98.66274 12.570502 
C 98.288239 11.666376 97.739286 10.84481 97.047298 10.152822 
C 96.35531 9.460834 95.533744 8.911881 94.629618 8.53738 
C 93.725492 8.162879 92.756389 7.970112 91.77777 7.970112 
C 90.799151 7.970112 89.830048 8.162879 88.925921 8.53738 
C 88.021795 8.911881 87.200229 9.460834 86.508241 10.152822 
C 85.816253 10.84481 85.2673 11.666376 84.892799 12.570502 
C 84.518298 13.474628 84.325531 14.443732 84.325531 15.422351 
C 84.325531 16.40097 84.518298 17.370073 84.892799 18.274199 
C 85.2673 19.178325 85.816253 19.999891 86.508241 20.691879 
C 87.200229 21.383867 88.021795 21.93282 88.925921 22.307321 
C 89.830048 22.681823 90.799151 22.874589 91.77777 22.874589 
C 92.756389 22.874589 93.725492 22.681823 94.629618 22.307321 
C 95.533744 21.93282 96.35531 21.383867 97.047298 20.691879 
C 97.739286 19.999891 98.288239 19.178325 98.66274 18.274199 
C 99.037242 17.370073 99.230008 16.40097 99.230008 15.422351 
M 91.77777 15.422351 
C 91.77777 15.422351 91.77777 15.422351 91.77777 15.422351 
C 91.77777 15.422351 91.77777 15.422351 91.77777 15.422351 
C 91.77777 15.422351 91.77777 15.422351 91.77777 15.422351 
C 91.77777 15.422351 91.77777 15.422351 91.77777 15.422351 
C 91.77777 15.422351 91.77777 15.422351 91.77777 15.422351 
C 91.77777 15.422351 91.77777 15.422351 91.77777 15.422351 
C 91.77777 15.422351 91.77777 15.422351 91.77777 15.422351 
C 91.77777 15.422351 91.77777 15.422351 91.77777 15.422351 
C 91.77777 15.422351 91.77777 15.422351 91.77777 15.422351 
C 91.77777 15.422351 91.77777 15.422351 91.77777 15.422351 
C 91.77777 15.422351 91.77777 15.422351 91.77777 15.422351 
C 91.77777 15.422351 91.77777 15.422351 91.77777 15.422351 
C 91.77777 15.422351 91.77777 15.422351 91.77777 15.422351 
C 91.77777 15.422351 91.77777 15.422351 91.77777 15.422351 
C 91.77777 15.422351 91.77777 15.422351 91.77777 15.422351 
C 91.77777 15.422351 91.77777 15.422351 91.77777 15.422351 
L 91.77777 15.422351 
z
" style="fill: none"/>
   </g>
   <g id="matplotlib.axis_5">
    <g id="xtick_17">
     <g id="line2d_23">
      <path d="M 91.77777 15.422351 
L 99.230008 15.422351 
" clip-path="url(#pee90f65b9d)" style="fill: none; stroke: #b0b0b0; stroke-width: 0.8; stroke-linecap: square"/>
     </g>
    </g>
    <g id="xtick_18">
     <g id="line2d_24">
      <path d="M 91.77777 15.422351 
L 97.047298 10.152822 
" clip-path="url(#pee90f65b9d)" style="fill: none; stroke: #b0b0b0; stroke-width: 0.8; stroke-linecap: square"/>
     </g>
    </g>
    <g id="xtick_19">
     <g id="line2d_25">
      <path d="M 91.77777 15.422351 
L 91.77777 7.970112 
" clip-path="url(#pee90f65b9d)" style="fill: none; stroke: #b0b0b0; stroke-width: 0.8; stroke-linecap: square"/>
     </g>
    </g>
    <g id="xtick_20">
     <g id="line2d_26">
      <path d="M 91.77777 15.422351 
L 86.508241 10.152822 
" clip-path="url(#pee90f65b9d)" style="fill: none; stroke: #b0b0b0; stroke-width: 0.8; stroke-linecap: square"/>
     </g>
    </g>
    <g id="xtick_21">
     <g id="line2d_27">
      <path d="M 91.77777 15.422351 
L 84.325531 15.422351 
" clip-path="url(#pee90f65b9d)" style="fill: none; stroke: #b0b0b0; stroke-width: 0.8; stroke-linecap: square"/>
     </g>
    </g>
    <g id="xtick_22">
     <g id="line2d_28">
      <path d="M 91.77777 15.422351 
L 86.508241 20.691879 
" clip-path="url(#pee90f65b9d)" style="fill: none; stroke: #b0b0b0; stroke-width: 0.8; stroke-linecap: square"/>
     </g>
    </g>
    <g id="xtick_23">
     <g id="line2d_29">
      <path d="M 91.77777 15.422351 
L 91.77777 22.874589 
" clip-path="url(#pee90f65b9d)" style="fill: none; stroke: #b0b0b0; stroke-width: 0.8; stroke-linecap: square"/>
     </g>
    </g>
    <g id="xtick_24">
     <g id="line2d_30">
      <path d="M 91.77777 15.422351 
L 97.047298 20.691879 
" clip-path="url(#pee90f65b9d)" style="fill: none; stroke: #b0b0b0; stroke-width: 0.8; stroke-linecap: square"/>
     </g>
    </g>
   </g>
   <g id="matplotlib.axis_6">
    <g id="ytick_5">
     <g id="line2d_31">
      <path d="M 93.268217 15.422351 
C 93.268217 15.226627 93.229664 15.032806 93.154764 14.851981 
C 93.079864 14.671156 92.970073 14.506843 92.831675 14.368445 
C 92.693278 14.230047 92.528965 14.120257 92.348139 14.045357 
C 92.167314 13.970456 91.973494 13.931903 91.77777 13.931903 
C 91.582046 13.931903 91.388225 13.970456 91.2074 14.045357 
C 91.026575 14.120257 90.862262 14.230047 90.723864 14.368445 
C 90.585466 14.506843 90.475676 14.671156 90.400776 14.851981 
C 90.325875 15.032806 90.287322 15.226627 90.287322 15.422351 
C 90.287322 15.618074 90.325875 15.811895 90.400776 15.99272 
C 90.475676 16.173546 90.585466 16.337859 90.723864 16.476256 
C 90.862262 16.614654 91.026575 16.724445 91.2074 16.799345 
C 91.388225 16.874245 91.582046 16.912798 91.77777 16.912798 
C 91.973494 16.912798 92.167314 16.874245 92.348139 16.799345 
C 92.528965 16.724445 92.693278 16.614654 92.831675 16.476256 
C 92.970073 16.337859 93.079864 16.173546 93.154764 15.99272 
C 93.229664 15.811895 93.268217 15.618074 93.268217 15.422351 
" clip-path="url(#pee90f65b9d)" style="fill: none; stroke: #b0b0b0; stroke-width: 0.8; stroke-linecap: square"/>
     </g>
     <g id="text_7">
      <!-- $\mathdefault{0.05}$ -->
      <g transform="translate(93.154764 13.238312) scale(0.0833 -0.0833)">
       <use xlink:href="#CMR17-30" transform="scale(0.996264)"/>
       <use xlink:href="#CMMI12-3a" transform="translate(45.690477 0) scale(0.996264)"/>
       <use xlink:href="#CMR17-30" transform="translate(72.787654 0) scale(0.996264)"/>
       <use xlink:href="#CMR17-35" transform="translate(118.478131 0) scale(0.996264)"/>
      </g>
     </g>
    </g>
    <g id="ytick_6">
     <g id="line2d_32">
      <path d="M 99.230008 15.422351 
C 99.230008 14.443732 99.037242 13.474628 98.66274 12.570502 
C 98.288239 11.666376 97.739286 10.84481 97.047298 10.152822 
C 96.35531 9.460834 95.533744 8.911881 94.629618 8.53738 
C 93.725492 8.162879 92.756389 7.970112 91.77777 7.970112 
C 90.799151 7.970112 89.830048 8.162879 88.925921 8.53738 
C 88.021795 8.911881 87.200229 9.460834 86.508241 10.152822 
C 85.816253 10.84481 85.2673 11.666376 84.892799 12.570502 
C 84.518298 13.474628 84.325531 14.443732 84.325531 15.422351 
C 84.325531 16.40097 84.518298 17.370073 84.892799 18.274199 
C 85.2673 19.178325 85.816253 19.999891 86.508241 20.691879 
C 87.200229 21.383867 88.021795 21.93282 88.925921 22.307321 
C 89.830048 22.681823 90.799151 22.874589 91.77777 22.874589 
C 92.756389 22.874589 93.725492 22.681823 94.629618 22.307321 
C 95.533744 21.93282 96.35531 21.383867 97.047298 20.691879 
C 97.739286 19.999891 98.288239 19.178325 98.66274 18.274199 
C 99.037242 17.370073 99.230008 16.40097 99.230008 15.422351 
" clip-path="url(#pee90f65b9d)" style="fill: none; stroke: #b0b0b0; stroke-width: 0.8; stroke-linecap: square"/>
     </g>
     <g id="text_8">
      <!-- $\mathdefault{0.25}$ -->
      <g transform="translate(98.66274 10.956833) scale(0.0833 -0.0833)">
       <use xlink:href="#CMR17-30" transform="scale(0.996264)"/>
       <use xlink:href="#CMMI12-3a" transform="translate(45.690477 0) scale(0.996264)"/>
       <use xlink:href="#CMR17-32" transform="translate(72.787654 0) scale(0.996264)"/>
       <use xlink:href="#CMR17-35" transform="translate(118.478131 0) scale(0.996264)"/>
      </g>
     </g>
    </g>
   </g>
   <g id="line2d_33">
    <path d="M 86.68243 15.584097 
L 86.902592 15.887874 
L 86.956774 16.193765 
L 87.200494 16.456174 
L 87.197766 16.767161 
L 87.347009 17.035016 
L 87.539103 17.277383 
L 87.646504 17.552166 
L 87.869289 17.76237 
L 88.063871 17.979183 
L 88.176657 18.254297 
L 88.439478 18.409034 
L 88.62706 18.623452 
L 88.829356 18.825002 
L 89.052808 19.002908 
L 89.237257 19.24087 
L 89.45896 19.438648 
L 89.698335 19.618029 
L 89.964636 19.750999 
L 90.205804 19.964247 
L 90.478886 20.120444 
L 90.773797 20.220489 
L 91.073317 20.321925 
L 91.379232 20.435398 
L 91.696887 20.519616 
L 92.019936 20.506039 
L 92.330943 20.382419 
L 92.62892 20.249465 
L 92.926274 20.156551 
L 93.224781 20.075971 
L 93.45701 19.817754 
L 93.718355 19.671639 
L 93.991274 19.553667 
L 94.199812 19.325938 
L 94.452052 19.177854 
L 94.631844 18.935427 
L 94.871856 18.772179 
L 95.123976 18.612952 
L 95.286858 18.366825 
L 95.472216 18.142514 
L 95.651921 17.912116 
L 95.831993 17.67806 
L 95.976651 17.421027 
L 96.079699 17.144584 
L 96.292719 16.905203 
L 96.441779 16.632494 
L 96.462561 16.32527 
L 96.626405 16.041129 
L 96.82557 15.743148 
L 96.838102 15.422351 
L 96.764635 15.105426 
L 96.689767 14.795486 
L 96.480086 14.516053 
L 96.419503 14.217987 
L 96.268176 13.947559 
L 96.16211 13.667126 
L 96.018635 13.40369 
L 95.79054 13.189705 
L 95.677209 12.916333 
L 95.425695 12.73644 
L 95.264191 12.496896 
L 95.151509 12.205496 
L 94.888746 12.054236 
L 94.657018 11.878288 
L 94.460225 11.655369 
L 94.227051 11.474862 
L 93.932715 11.400331 
L 93.702356 11.208095 
L 93.455166 11.031774 
L 93.203444 10.837351 
L 92.917416 10.724665 
L 92.634874 10.56147 
L 92.328132 10.487489 
L 92.020204 10.333033 
L 91.696261 10.285637 
L 91.381764 10.441142 
L 91.071579 10.510689 
L 90.788419 10.69409 
L 90.500538 10.802574 
L 90.196126 10.852492 
L 89.976249 11.121428 
L 89.70042 11.23088 
L 89.452854 11.395478 
L 89.255728 11.631595 
L 88.969466 11.732283 
L 88.757076 11.936284 
L 88.521301 12.113798 
L 88.426877 12.424393 
L 88.186995 12.598534 
L 88.001973 12.822905 
L 87.829395 13.058446 
L 87.669047 13.304157 
L 87.495215 13.548111 
L 87.237553 13.769847 
L 87.134224 14.058883 
L 87.019529 14.347655 
L 86.934512 14.647375 
L 86.701076 14.937585 
L 86.753316 15.262855 
" clip-path="url(#pee90f65b9d)" style="fill: none; stroke: #348abd; stroke-opacity: 0.75; stroke-width: 2; stroke-linecap: square"/>
   </g>
   <g id="patch_7">
    <path d="M 99.230008 15.422351 
C 99.230008 14.443732 99.037242 13.474628 98.66274 12.570502 
C 98.288239 11.666376 97.739286 10.84481 97.047298 10.152822 
C 96.35531 9.460834 95.533744 8.911881 94.629618 8.53738 
C 93.725492 8.162879 92.756389 7.970112 91.77777 7.970112 
C 90.799151 7.970112 89.830048 8.162879 88.925921 8.53738 
C 88.021795 8.911881 87.200229 9.460834 86.508241 10.152822 
C 85.816253 10.84481 85.2673 11.666376 84.892799 12.570502 
C 84.518298 13.474628 84.325531 14.443732 84.325531 15.422351 
C 84.325531 16.40097 84.518298 17.370073 84.892799 18.274199 
C 85.2673 19.178325 85.816253 19.999891 86.508241 20.691879 
C 87.200229 21.383867 88.021795 21.93282 88.925921 22.307321 
C 89.830048 22.681823 90.799151 22.874589 91.77777 22.874589 
C 92.756389 22.874589 93.725492 22.681823 94.629618 22.307321 
C 95.533744 21.93282 96.35531 21.383867 97.047298 20.691879 
C 97.739286 19.999891 98.288239 19.178325 98.66274 18.274199 
C 99.037242 17.370073 99.230008 16.40097 99.230008 15.422351 
" style="fill: none; stroke: #000000; stroke-width: 0.8; stroke-linejoin: miter; stroke-linecap: square"/>
   </g>
   <g id="text_9">
    <!-- Large Square -->
    <g transform="translate(65.195705 6.22665) scale(0.09 -0.09)">
     <defs>
      <path id="CMR17-4c" d="M 3469 1612 
L 3354 1612 
C 3302 981 3219 166 2125 166 
L 1530 166 
C 1274 166 1261 198 1261 414 
L 1261 3892 
C 1261 4121 1274 4185 1760 4185 
L 1901 4185 
L 1901 4352 
C 1638 4339 1331 4339 1069 4339 
C 870 4339 512 4339 326 4352 
L 326 4185 
C 768 4185 838 4185 838 3898 
L 838 453 
C 838 166 768 166 326 166 
L 326 0 
L 3315 0 
L 3469 1612 
z
" transform="scale(0.015625)"/>
      <path id="CMR17-67" d="M 710 1165 
C 832 1068 1043 960 1299 960 
C 1805 960 2240 1359 2240 1895 
C 2240 2063 2189 2321 1997 2521 
C 2176 2713 2438 2777 2586 2777 
C 2611 2777 2650 2777 2682 2758 
C 2656 2751 2598 2726 2598 2623 
C 2598 2540 2656 2483 2739 2483 
C 2835 2483 2886 2547 2886 2630 
C 2886 2751 2790 2880 2586 2880 
C 2330 2880 2106 2758 1926 2591 
C 1734 2764 1504 2828 1299 2828 
C 794 2828 358 2431 358 1895 
C 358 1527 570 1294 634 1230 
C 442 1004 442 742 442 710 
C 442 544 506 300 723 166 
C 390 82 128 -184 128 -517 
C 128 -996 736 -1344 1466 -1344 
C 2170 -1344 2803 -1009 2803 -510 
C 2803 384 1856 384 1363 384 
C 1216 384 954 384 922 390 
C 723 422 589 601 589 825 
C 589 883 589 1024 710 1165 
z
M 1299 1068 
C 736 1068 736 1766 736 1895 
C 736 2024 736 2719 1299 2719 
C 1862 2719 1862 2024 1862 1895 
C 1862 1766 1862 1068 1299 1068 
z
M 1466 -1236 
C 826 -1236 384 -883 384 -517 
C 384 -311 493 -118 634 -11 
C 794 102 858 102 1293 102 
C 1818 102 2547 102 2547 -517 
C 2547 -883 2106 -1236 1466 -1236 
z
" transform="scale(0.015625)"/>
     </defs>
     <use xlink:href="#CMR17-4c" transform="scale(0.996264)"/>
     <use xlink:href="#CMR17-61" transform="translate(57.381408 0) scale(0.996264)"/>
     <use xlink:href="#CMR17-72" transform="translate(103.071885 0) scale(0.996264)"/>
     <use xlink:href="#CMR17-67" transform="translate(138.352653 0) scale(0.996264)"/>
     <use xlink:href="#CMR17-65" transform="translate(184.04313 0) scale(0.996264)"/>
     <use xlink:href="#CMR17-53" transform="translate(254.604757 0) scale(0.996264)"/>
     <use xlink:href="#CMR17-71" transform="translate(305.500126 0) scale(0.996264)"/>
     <use xlink:href="#CMR17-75" transform="translate(353.793042 0) scale(0.996264)"/>
     <use xlink:href="#CMR17-61" transform="translate(404.688412 0) scale(0.996264)"/>
     <use xlink:href="#CMR17-72" transform="translate(450.378889 0) scale(0.996264)"/>
     <use xlink:href="#CMR17-65" transform="translate(485.659657 0) scale(0.996264)"/>
    </g>
   </g>
  </g>
  <g id="axes_4">
   <g id="patch_8">
    <path d="M 27.230008 51.422351 
C 27.230008 50.443732 27.037242 49.474628 26.66274 48.570502 
C 26.288239 47.666376 25.739286 46.84481 25.047298 46.152822 
C 24.35531 45.460834 23.533744 44.911881 22.629618 44.53738 
C 21.725492 44.162879 20.756389 43.970112 19.77777 43.970112 
C 18.799151 43.970112 17.830048 44.162879 16.925921 44.53738 
C 16.021795 44.911881 15.200229 45.460834 14.508241 46.152822 
C 13.816253 46.84481 13.2673 47.666376 12.892799 48.570502 
C 12.518298 49.474628 12.325531 50.443732 12.325531 51.422351 
C 12.325531 52.40097 12.518298 53.370073 12.892799 54.274199 
C 13.2673 55.178325 13.816253 55.999891 14.508241 56.691879 
C 15.200229 57.383867 16.021795 57.93282 16.925921 58.307321 
C 17.830048 58.681823 18.799151 58.874589 19.77777 58.874589 
C 20.756389 58.874589 21.725492 58.681823 22.629618 58.307321 
C 23.533744 57.93282 24.35531 57.383867 25.047298 56.691879 
C 25.739286 55.999891 26.288239 55.178325 26.66274 54.274199 
C 27.037242 53.370073 27.230008 52.40097 27.230008 51.422351 
M 19.77777 51.422351 
C 19.77777 51.422351 19.77777 51.422351 19.77777 51.422351 
C 19.77777 51.422351 19.77777 51.422351 19.77777 51.422351 
C 19.77777 51.422351 19.77777 51.422351 19.77777 51.422351 
C 19.77777 51.422351 19.77777 51.422351 19.77777 51.422351 
C 19.77777 51.422351 19.77777 51.422351 19.77777 51.422351 
C 19.77777 51.422351 19.77777 51.422351 19.77777 51.422351 
C 19.77777 51.422351 19.77777 51.422351 19.77777 51.422351 
C 19.77777 51.422351 19.77777 51.422351 19.77777 51.422351 
C 19.77777 51.422351 19.77777 51.422351 19.77777 51.422351 
C 19.77777 51.422351 19.77777 51.422351 19.77777 51.422351 
C 19.77777 51.422351 19.77777 51.422351 19.77777 51.422351 
C 19.77777 51.422351 19.77777 51.422351 19.77777 51.422351 
C 19.77777 51.422351 19.77777 51.422351 19.77777 51.422351 
C 19.77777 51.422351 19.77777 51.422351 19.77777 51.422351 
C 19.77777 51.422351 19.77777 51.422351 19.77777 51.422351 
C 19.77777 51.422351 19.77777 51.422351 19.77777 51.422351 
L 19.77777 51.422351 
z
" style="fill: none"/>
   </g>
   <g id="matplotlib.axis_7">
    <g id="xtick_25">
     <g id="line2d_34">
      <path d="M 19.77777 51.422351 
L 27.230008 51.422351 
" clip-path="url(#p81c340fddd)" style="fill: none; stroke: #b0b0b0; stroke-width: 0.8; stroke-linecap: square"/>
     </g>
    </g>
    <g id="xtick_26">
     <g id="line2d_35">
      <path d="M 19.77777 51.422351 
L 25.047298 46.152822 
" clip-path="url(#p81c340fddd)" style="fill: none; stroke: #b0b0b0; stroke-width: 0.8; stroke-linecap: square"/>
     </g>
    </g>
    <g id="xtick_27">
     <g id="line2d_36">
      <path d="M 19.77777 51.422351 
L 19.77777 43.970112 
" clip-path="url(#p81c340fddd)" style="fill: none; stroke: #b0b0b0; stroke-width: 0.8; stroke-linecap: square"/>
     </g>
    </g>
    <g id="xtick_28">
     <g id="line2d_37">
      <path d="M 19.77777 51.422351 
L 14.508241 46.152822 
" clip-path="url(#p81c340fddd)" style="fill: none; stroke: #b0b0b0; stroke-width: 0.8; stroke-linecap: square"/>
     </g>
    </g>
    <g id="xtick_29">
     <g id="line2d_38">
      <path d="M 19.77777 51.422351 
L 12.325531 51.422351 
" clip-path="url(#p81c340fddd)" style="fill: none; stroke: #b0b0b0; stroke-width: 0.8; stroke-linecap: square"/>
     </g>
    </g>
    <g id="xtick_30">
     <g id="line2d_39">
      <path d="M 19.77777 51.422351 
L 14.508241 56.691879 
" clip-path="url(#p81c340fddd)" style="fill: none; stroke: #b0b0b0; stroke-width: 0.8; stroke-linecap: square"/>
     </g>
    </g>
    <g id="xtick_31">
     <g id="line2d_40">
      <path d="M 19.77777 51.422351 
L 19.77777 58.874589 
" clip-path="url(#p81c340fddd)" style="fill: none; stroke: #b0b0b0; stroke-width: 0.8; stroke-linecap: square"/>
     </g>
    </g>
    <g id="xtick_32">
     <g id="line2d_41">
      <path d="M 19.77777 51.422351 
L 25.047298 56.691879 
" clip-path="url(#p81c340fddd)" style="fill: none; stroke: #b0b0b0; stroke-width: 0.8; stroke-linecap: square"/>
     </g>
    </g>
   </g>
   <g id="matplotlib.axis_8">
    <g id="ytick_7">
     <g id="line2d_42">
      <path d="M 21.268217 51.422351 
C 21.268217 51.226627 21.229664 51.032806 21.154764 50.851981 
C 21.079864 50.671156 20.970073 50.506843 20.831675 50.368445 
C 20.693278 50.230047 20.528965 50.120257 20.348139 50.045357 
C 20.167314 49.970456 19.973494 49.931903 19.77777 49.931903 
C 19.582046 49.931903 19.388225 49.970456 19.2074 50.045357 
C 19.026575 50.120257 18.862262 50.230047 18.723864 50.368445 
C 18.585466 50.506843 18.475676 50.671156 18.400776 50.851981 
C 18.325875 51.032806 18.287322 51.226627 18.287322 51.422351 
C 18.287322 51.618074 18.325875 51.811895 18.400776 51.99272 
C 18.475676 52.173546 18.585466 52.337859 18.723864 52.476256 
C 18.862262 52.614654 19.026575 52.724445 19.2074 52.799345 
C 19.388225 52.874245 19.582046 52.912798 19.77777 52.912798 
C 19.973494 52.912798 20.167314 52.874245 20.348139 52.799345 
C 20.528965 52.724445 20.693278 52.614654 20.831675 52.476256 
C 20.970073 52.337859 21.079864 52.173546 21.154764 51.99272 
C 21.229664 51.811895 21.268217 51.618074 21.268217 51.422351 
" clip-path="url(#p81c340fddd)" style="fill: none; stroke: #b0b0b0; stroke-width: 0.8; stroke-linecap: square"/>
     </g>
     <g id="text_10">
      <!-- $\mathdefault{0.05}$ -->
      <g transform="translate(21.154764 49.238312) scale(0.0833 -0.0833)">
       <use xlink:href="#CMR17-30" transform="scale(0.996264)"/>
       <use xlink:href="#CMMI12-3a" transform="translate(45.690477 0) scale(0.996264)"/>
       <use xlink:href="#CMR17-30" transform="translate(72.787654 0) scale(0.996264)"/>
       <use xlink:href="#CMR17-35" transform="translate(118.478131 0) scale(0.996264)"/>
      </g>
     </g>
    </g>
    <g id="ytick_8">
     <g id="line2d_43">
      <path d="M 27.230008 51.422351 
C 27.230008 50.443732 27.037242 49.474628 26.66274 48.570502 
C 26.288239 47.666376 25.739286 46.84481 25.047298 46.152822 
C 24.35531 45.460834 23.533744 44.911881 22.629618 44.53738 
C 21.725492 44.162879 20.756389 43.970112 19.77777 43.970112 
C 18.799151 43.970112 17.830048 44.162879 16.925921 44.53738 
C 16.021795 44.911881 15.200229 45.460834 14.508241 46.152822 
C 13.816253 46.84481 13.2673 47.666376 12.892799 48.570502 
C 12.518298 49.474628 12.325531 50.443732 12.325531 51.422351 
C 12.325531 52.40097 12.518298 53.370073 12.892799 54.274199 
C 13.2673 55.178325 13.816253 55.999891 14.508241 56.691879 
C 15.200229 57.383867 16.021795 57.93282 16.925921 58.307321 
C 17.830048 58.681823 18.799151 58.874589 19.77777 58.874589 
C 20.756389 58.874589 21.725492 58.681823 22.629618 58.307321 
C 23.533744 57.93282 24.35531 57.383867 25.047298 56.691879 
C 25.739286 55.999891 26.288239 55.178325 26.66274 54.274199 
C 27.037242 53.370073 27.230008 52.40097 27.230008 51.422351 
" clip-path="url(#p81c340fddd)" style="fill: none; stroke: #b0b0b0; stroke-width: 0.8; stroke-linecap: square"/>
     </g>
     <g id="text_11">
      <!-- $\mathdefault{0.25}$ -->
      <g transform="translate(26.66274 46.956833) scale(0.0833 -0.0833)">
       <use xlink:href="#CMR17-30" transform="scale(0.996264)"/>
       <use xlink:href="#CMMI12-3a" transform="translate(45.690477 0) scale(0.996264)"/>
       <use xlink:href="#CMR17-32" transform="translate(72.787654 0) scale(0.996264)"/>
       <use xlink:href="#CMR17-35" transform="translate(118.478131 0) scale(0.996264)"/>
      </g>
     </g>
    </g>
   </g>
   <g id="line2d_44">
    <path d="M 14.367902 51.594081 
L 14.604293 51.916358 
L 14.74529 52.227604 
L 14.94531 52.51381 
L 15.060767 52.807388 
L 15.147075 53.107786 
L 15.465956 53.309396 
L 15.552156 53.600806 
L 15.7895 53.81014 
L 15.991141 54.029254 
L 16.154136 54.272007 
L 16.410075 54.435341 
L 16.538763 54.713162 
L 16.912401 54.729162 
L 17.085803 54.959553 
L 17.300737 55.145456 
L 17.50898 55.352009 
L 17.778217 55.456851 
L 18.040485 55.569916 
L 18.295824 55.704152 
L 18.556984 55.837961 
L 18.830167 55.951091 
L 19.10988 56.067625 
L 19.392186 56.272463 
L 19.698459 56.420526 
L 20.010616 56.310404 
L 20.301634 56.119619 
L 20.590832 56.033457 
L 20.856957 55.870819 
L 21.132182 55.778168 
L 21.410914 55.697097 
L 21.629774 55.477674 
L 21.920293 55.421186 
L 22.165144 55.270065 
L 22.452324 55.178237 
L 22.637767 54.942718 
L 22.848592 54.746993 
L 23.139612 54.627861 
L 23.313842 54.389468 
L 23.488101 54.15421 
L 23.691828 53.937763 
L 23.859081 53.693132 
L 24.024572 53.443838 
L 24.244521 53.210568 
L 24.351175 52.924402 
L 24.662728 52.689822 
L 24.797848 52.389891 
L 24.950206 52.082453 
L 25.095093 51.760276 
L 25.233103 51.422351 
L 25.200089 51.077752 
L 24.984683 50.757849 
L 24.742504 50.465476 
L 24.64136 50.160423 
L 24.374825 49.912532 
L 24.217923 49.644782 
L 24.108117 49.361096 
L 23.869342 49.145861 
L 23.583565 48.976514 
L 23.452927 48.71639 
L 23.298011 48.468517 
L 23.098821 48.255734 
L 22.877274 48.066657 
L 22.584459 47.967601 
L 22.41282 47.72194 
L 22.115619 47.654457 
L 21.901439 47.458705 
L 21.655724 47.310205 
L 21.415105 47.136635 
L 21.144872 47.02572 
L 20.900031 46.796327 
L 20.591566 46.807082 
L 20.309651 46.653198 
L 20.010013 46.546965 
L 19.698749 46.442491 
L 19.392409 46.575048 
L 19.082207 46.584608 
L 18.806792 46.781897 
L 18.552729 46.991349 
L 18.253733 47.018935 
L 18.000746 47.179912 
L 17.781554 47.394583 
L 17.542093 47.550045 
L 17.271338 47.655058 
L 17.030622 47.81264 
L 16.758306 47.937704 
L 16.616847 48.210872 
L 16.419876 48.418129 
L 16.178134 48.591566 
L 15.931177 48.774165 
L 15.746784 49.008987 
L 15.584301 49.260467 
L 15.41045 49.511014 
L 15.325382 49.801814 
L 15.076991 50.042077 
L 14.751059 50.287018 
L 14.720709 50.613164 
L 14.38314 50.907226 
L 14.282464 51.247908 
" clip-path="url(#p81c340fddd)" style="fill: none; stroke: #348abd; stroke-opacity: 0.75; stroke-width: 2; stroke-linecap: square"/>
   </g>
   <g id="patch_9">
    <path d="M 27.230008 51.422351 
C 27.230008 50.443732 27.037242 49.474628 26.66274 48.570502 
C 26.288239 47.666376 25.739286 46.84481 25.047298 46.152822 
C 24.35531 45.460834 23.533744 44.911881 22.629618 44.53738 
C 21.725492 44.162879 20.756389 43.970112 19.77777 43.970112 
C 18.799151 43.970112 17.830048 44.162879 16.925921 44.53738 
C 16.021795 44.911881 15.200229 45.460834 14.508241 46.152822 
C 13.816253 46.84481 13.2673 47.666376 12.892799 48.570502 
C 12.518298 49.474628 12.325531 50.443732 12.325531 51.422351 
C 12.325531 52.40097 12.518298 53.370073 12.892799 54.274199 
C 13.2673 55.178325 13.816253 55.999891 14.508241 56.691879 
C 15.200229 57.383867 16.021795 57.93282 16.925921 58.307321 
C 17.830048 58.681823 18.799151 58.874589 19.77777 58.874589 
C 20.756389 58.874589 21.725492 58.681823 22.629618 58.307321 
C 23.533744 57.93282 24.35531 57.383867 25.047298 56.691879 
C 25.739286 55.999891 26.288239 55.178325 26.66274 54.274199 
C 27.037242 53.370073 27.230008 52.40097 27.230008 51.422351 
" style="fill: none; stroke: #000000; stroke-width: 0.8; stroke-linejoin: miter; stroke-linecap: square"/>
   </g>
   <g id="text_12">
    <!-- Rectangle -->
    <g transform="translate(-0 42.22665) scale(0.09 -0.09)">
     <defs>
      <path id="CMR17-52" d="M 2509 2156 
C 3117 2278 3629 2689 3629 3203 
C 3629 3806 2950 4352 2054 4352 
L 333 4352 
L 333 4185 
C 774 4185 845 4185 845 3896 
L 845 428 
C 845 140 774 140 333 140 
L 333 -26 
C 518 -13 851 -13 1050 -13 
C 1248 -13 1581 -13 1766 -26 
L 1766 140 
C 1325 140 1254 140 1254 428 
L 1254 2112 
L 2003 2112 
C 2368 2112 2573 1964 2662 1881 
C 2918 1632 2918 1459 2918 1024 
C 2918 595 2918 377 3110 160 
C 3354 -103 3680 -128 3821 -128 
C 4294 -128 4365 403 4365 512 
C 4365 550 4365 595 4307 595 
C 4256 595 4250 556 4250 531 
C 4218 115 4032 -26 3834 -26 
C 3482 -26 3443 377 3405 768 
C 3386 902 3373 998 3360 1139 
C 3322 1459 3270 1926 2509 2156 
z
M 1984 2214 
L 1254 2214 
L 1254 3935 
C 1254 4153 1267 4185 1523 4185 
L 1990 4185 
C 2522 4185 3142 3999 3142 3203 
C 3142 2374 2464 2214 1984 2214 
z
" transform="scale(0.015625)"/>
      <path id="CMR17-74" d="M 966 2585 
L 1862 2585 
L 1862 2752 
L 966 2752 
L 966 3968 
L 851 3968 
C 838 3292 614 2700 70 2687 
L 70 2585 
L 627 2585 
L 627 778 
C 627 655 627 -64 1370 -64 
C 1747 -64 1965 308 1965 784 
L 1965 1151 
L 1850 1151 
L 1850 790 
C 1850 347 1677 51 1408 51 
C 1222 51 966 179 966 765 
L 966 2585 
z
" transform="scale(0.015625)"/>
      <path id="CMR17-6e" d="M 2656 1954 
C 2656 2282 2592 2816 1837 2816 
C 1331 2816 1069 2424 973 2166 
L 966 2166 
L 966 2816 
L 211 2745 
L 211 2578 
C 589 2578 646 2540 646 2231 
L 646 443 
C 646 198 621 166 211 166 
L 211 0 
C 365 12 646 12 813 12 
C 979 12 1267 12 1421 0 
L 1421 166 
C 1011 166 986 192 986 443 
L 986 1678 
C 986 2269 1344 2713 1792 2713 
C 2266 2713 2317 2289 2317 1980 
L 2317 443 
C 2317 198 2291 166 1882 166 
L 1882 0 
C 2035 12 2317 12 2483 12 
C 2650 12 2938 12 3091 0 
L 3091 166 
C 2682 166 2656 192 2656 443 
L 2656 1954 
z
" transform="scale(0.015625)"/>
     </defs>
     <use xlink:href="#CMR17-52" transform="scale(0.996264)"/>
     <use xlink:href="#CMR17-65" transform="translate(67.791102 0) scale(0.996264)"/>
     <use xlink:href="#CMR17-63" transform="translate(108.276762 0) scale(0.996264)"/>
     <use xlink:href="#CMR17-74" transform="translate(148.762423 0) scale(0.996264)"/>
     <use xlink:href="#CMR17-61" transform="translate(184.043191 0) scale(0.996264)"/>
     <use xlink:href="#CMR17-6e" transform="translate(229.733668 0) scale(0.996264)"/>
     <use xlink:href="#CMR17-67" transform="translate(280.629038 0) scale(0.996264)"/>
     <use xlink:href="#CMR17-6c" transform="translate(326.319515 0) scale(0.996264)"/>
     <use xlink:href="#CMR17-65" transform="translate(351.190573 0) scale(0.996264)"/>
    </g>
   </g>
  </g>
  <g id="axes_5">
   <g id="patch_10">
    <path d="M 63.230008 51.422351 
C 63.230008 50.443732 63.037242 49.474628 62.66274 48.570502 
C 62.288239 47.666376 61.739286 46.84481 61.047298 46.152822 
C 60.35531 45.460834 59.533744 44.911881 58.629618 44.53738 
C 57.725492 44.162879 56.756389 43.970112 55.77777 43.970112 
C 54.799151 43.970112 53.830048 44.162879 52.925921 44.53738 
C 52.021795 44.911881 51.200229 45.460834 50.508241 46.152822 
C 49.816253 46.84481 49.2673 47.666376 48.892799 48.570502 
C 48.518298 49.474628 48.325531 50.443732 48.325531 51.422351 
C 48.325531 52.40097 48.518298 53.370073 48.892799 54.274199 
C 49.2673 55.178325 49.816253 55.999891 50.508241 56.691879 
C 51.200229 57.383867 52.021795 57.93282 52.925921 58.307321 
C 53.830048 58.681823 54.799151 58.874589 55.77777 58.874589 
C 56.756389 58.874589 57.725492 58.681823 58.629618 58.307321 
C 59.533744 57.93282 60.35531 57.383867 61.047298 56.691879 
C 61.739286 55.999891 62.288239 55.178325 62.66274 54.274199 
C 63.037242 53.370073 63.230008 52.40097 63.230008 51.422351 
M 55.77777 51.422351 
C 55.77777 51.422351 55.77777 51.422351 55.77777 51.422351 
C 55.77777 51.422351 55.77777 51.422351 55.77777 51.422351 
C 55.77777 51.422351 55.77777 51.422351 55.77777 51.422351 
C 55.77777 51.422351 55.77777 51.422351 55.77777 51.422351 
C 55.77777 51.422351 55.77777 51.422351 55.77777 51.422351 
C 55.77777 51.422351 55.77777 51.422351 55.77777 51.422351 
C 55.77777 51.422351 55.77777 51.422351 55.77777 51.422351 
C 55.77777 51.422351 55.77777 51.422351 55.77777 51.422351 
C 55.77777 51.422351 55.77777 51.422351 55.77777 51.422351 
C 55.77777 51.422351 55.77777 51.422351 55.77777 51.422351 
C 55.77777 51.422351 55.77777 51.422351 55.77777 51.422351 
C 55.77777 51.422351 55.77777 51.422351 55.77777 51.422351 
C 55.77777 51.422351 55.77777 51.422351 55.77777 51.422351 
C 55.77777 51.422351 55.77777 51.422351 55.77777 51.422351 
C 55.77777 51.422351 55.77777 51.422351 55.77777 51.422351 
C 55.77777 51.422351 55.77777 51.422351 55.77777 51.422351 
L 55.77777 51.422351 
z
" style="fill: none"/>
   </g>
   <g id="matplotlib.axis_9">
    <g id="xtick_33">
     <g id="line2d_45">
      <path d="M 55.77777 51.422351 
L 63.230008 51.422351 
" clip-path="url(#p5405833f4f)" style="fill: none; stroke: #b0b0b0; stroke-width: 0.8; stroke-linecap: square"/>
     </g>
    </g>
    <g id="xtick_34">
     <g id="line2d_46">
      <path d="M 55.77777 51.422351 
L 61.047298 46.152822 
" clip-path="url(#p5405833f4f)" style="fill: none; stroke: #b0b0b0; stroke-width: 0.8; stroke-linecap: square"/>
     </g>
    </g>
    <g id="xtick_35">
     <g id="line2d_47">
      <path d="M 55.77777 51.422351 
L 55.77777 43.970112 
" clip-path="url(#p5405833f4f)" style="fill: none; stroke: #b0b0b0; stroke-width: 0.8; stroke-linecap: square"/>
     </g>
    </g>
    <g id="xtick_36">
     <g id="line2d_48">
      <path d="M 55.77777 51.422351 
L 50.508241 46.152822 
" clip-path="url(#p5405833f4f)" style="fill: none; stroke: #b0b0b0; stroke-width: 0.8; stroke-linecap: square"/>
     </g>
    </g>
    <g id="xtick_37">
     <g id="line2d_49">
      <path d="M 55.77777 51.422351 
L 48.325531 51.422351 
" clip-path="url(#p5405833f4f)" style="fill: none; stroke: #b0b0b0; stroke-width: 0.8; stroke-linecap: square"/>
     </g>
    </g>
    <g id="xtick_38">
     <g id="line2d_50">
      <path d="M 55.77777 51.422351 
L 50.508241 56.691879 
" clip-path="url(#p5405833f4f)" style="fill: none; stroke: #b0b0b0; stroke-width: 0.8; stroke-linecap: square"/>
     </g>
    </g>
    <g id="xtick_39">
     <g id="line2d_51">
      <path d="M 55.77777 51.422351 
L 55.77777 58.874589 
" clip-path="url(#p5405833f4f)" style="fill: none; stroke: #b0b0b0; stroke-width: 0.8; stroke-linecap: square"/>
     </g>
    </g>
    <g id="xtick_40">
     <g id="line2d_52">
      <path d="M 55.77777 51.422351 
L 61.047298 56.691879 
" clip-path="url(#p5405833f4f)" style="fill: none; stroke: #b0b0b0; stroke-width: 0.8; stroke-linecap: square"/>
     </g>
    </g>
   </g>
   <g id="matplotlib.axis_10">
    <g id="ytick_9">
     <g id="line2d_53">
      <path d="M 57.268217 51.422351 
C 57.268217 51.226627 57.229664 51.032806 57.154764 50.851981 
C 57.079864 50.671156 56.970073 50.506843 56.831675 50.368445 
C 56.693278 50.230047 56.528965 50.120257 56.348139 50.045357 
C 56.167314 49.970456 55.973494 49.931903 55.77777 49.931903 
C 55.582046 49.931903 55.388225 49.970456 55.2074 50.045357 
C 55.026575 50.120257 54.862262 50.230047 54.723864 50.368445 
C 54.585466 50.506843 54.475676 50.671156 54.400776 50.851981 
C 54.325875 51.032806 54.287322 51.226627 54.287322 51.422351 
C 54.287322 51.618074 54.325875 51.811895 54.400776 51.99272 
C 54.475676 52.173546 54.585466 52.337859 54.723864 52.476256 
C 54.862262 52.614654 55.026575 52.724445 55.2074 52.799345 
C 55.388225 52.874245 55.582046 52.912798 55.77777 52.912798 
C 55.973494 52.912798 56.167314 52.874245 56.348139 52.799345 
C 56.528965 52.724445 56.693278 52.614654 56.831675 52.476256 
C 56.970073 52.337859 57.079864 52.173546 57.154764 51.99272 
C 57.229664 51.811895 57.268217 51.618074 57.268217 51.422351 
" clip-path="url(#p5405833f4f)" style="fill: none; stroke: #b0b0b0; stroke-width: 0.8; stroke-linecap: square"/>
     </g>
     <g id="text_13">
      <!-- $\mathdefault{0.05}$ -->
      <g transform="translate(57.154764 49.238312) scale(0.0833 -0.0833)">
       <use xlink:href="#CMR17-30" transform="scale(0.996264)"/>
       <use xlink:href="#CMMI12-3a" transform="translate(45.690477 0) scale(0.996264)"/>
       <use xlink:href="#CMR17-30" transform="translate(72.787654 0) scale(0.996264)"/>
       <use xlink:href="#CMR17-35" transform="translate(118.478131 0) scale(0.996264)"/>
      </g>
     </g>
    </g>
    <g id="ytick_10">
     <g id="line2d_54">
      <path d="M 63.230008 51.422351 
C 63.230008 50.443732 63.037242 49.474628 62.66274 48.570502 
C 62.288239 47.666376 61.739286 46.84481 61.047298 46.152822 
C 60.35531 45.460834 59.533744 44.911881 58.629618 44.53738 
C 57.725492 44.162879 56.756389 43.970112 55.77777 43.970112 
C 54.799151 43.970112 53.830048 44.162879 52.925921 44.53738 
C 52.021795 44.911881 51.200229 45.460834 50.508241 46.152822 
C 49.816253 46.84481 49.2673 47.666376 48.892799 48.570502 
C 48.518298 49.474628 48.325531 50.443732 48.325531 51.422351 
C 48.325531 52.40097 48.518298 53.370073 48.892799 54.274199 
C 49.2673 55.178325 49.816253 55.999891 50.508241 56.691879 
C 51.200229 57.383867 52.021795 57.93282 52.925921 58.307321 
C 53.830048 58.681823 54.799151 58.874589 55.77777 58.874589 
C 56.756389 58.874589 57.725492 58.681823 58.629618 58.307321 
C 59.533744 57.93282 60.35531 57.383867 61.047298 56.691879 
C 61.739286 55.999891 62.288239 55.178325 62.66274 54.274199 
C 63.037242 53.370073 63.230008 52.40097 63.230008 51.422351 
" clip-path="url(#p5405833f4f)" style="fill: none; stroke: #b0b0b0; stroke-width: 0.8; stroke-linecap: square"/>
     </g>
     <g id="text_14">
      <!-- $\mathdefault{0.25}$ -->
      <g transform="translate(62.66274 46.956833) scale(0.0833 -0.0833)">
       <use xlink:href="#CMR17-30" transform="scale(0.996264)"/>
       <use xlink:href="#CMMI12-3a" transform="translate(45.690477 0) scale(0.996264)"/>
       <use xlink:href="#CMR17-32" transform="translate(72.787654 0) scale(0.996264)"/>
       <use xlink:href="#CMR17-35" transform="translate(118.478131 0) scale(0.996264)"/>
      </g>
     </g>
    </g>
   </g>
   <g id="line2d_55">
    <path d="M 50.668346 51.584544 
L 50.853031 51.892606 
L 51.004543 52.186121 
L 51.117571 52.474903 
L 51.337469 52.72614 
L 51.4419 53.000478 
L 51.637206 53.234449 
L 51.749201 53.499222 
L 52.046197 53.656455 
L 52.162522 53.911267 
L 52.346117 54.121032 
L 52.498984 54.355796 
L 52.703497 54.545793 
L 52.817668 54.83849 
L 53.07471 54.974129 
L 53.250265 55.221318 
L 53.484087 55.395125 
L 53.725032 55.564163 
L 53.916368 55.866233 
L 54.163406 56.086749 
L 54.421314 56.328685 
L 54.722141 56.467361 
L 55.029736 56.625039 
L 55.34469 56.86989 
L 55.688429 57.052635 
L 56.04253 56.980347 
L 56.384095 56.859008 
L 56.678997 56.533467 
L 56.975993 56.361493 
L 57.256299 56.177332 
L 57.498748 55.927003 
L 57.729476 55.695992 
L 57.94802 55.472937 
L 58.20006 55.326337 
L 58.408189 55.116257 
L 58.553066 54.838459 
L 58.7839 54.676953 
L 59.05837 54.550397 
L 59.184676 54.281084 
L 59.361776 54.061199 
L 59.469375 53.794802 
L 59.715841 53.613435 
L 59.778178 53.326553 
L 59.975487 53.102863 
L 60.126721 52.850684 
L 60.291753 52.593567 
L 60.351413 52.303848 
L 60.612428 52.039346 
L 60.778697 51.740169 
L 60.847026 51.422351 
L 60.761822 51.105605 
L 60.599849 50.806961 
L 60.408601 50.529831 
L 60.290843 50.25137 
L 60.194548 49.971741 
L 59.924471 49.762262 
L 59.826524 49.495135 
L 59.670284 49.256614 
L 59.461078 49.055232 
L 59.297857 48.830565 
L 59.137183 48.603468 
L 59.001263 48.348756 
L 58.82246 48.126001 
L 58.60134 47.946822 
L 58.41391 47.720409 
L 58.148801 47.600977 
L 57.977965 47.315875 
L 57.754256 47.09445 
L 57.507129 46.895761 
L 57.255323 46.670509 
L 56.967245 46.519267 
L 56.671168 46.355638 
L 56.374828 46.068781 
L 56.040429 45.908454 
L 55.687542 45.736181 
L 55.345993 45.991199 
L 55.022851 46.171778 
L 54.719544 46.364928 
L 54.426195 46.533672 
L 54.148505 46.714899 
L 53.939413 47.033486 
L 53.697918 47.22583 
L 53.485027 47.451203 
L 53.212281 47.566291 
L 53.075848 47.872067 
L 52.882874 48.081463 
L 52.682082 48.277151 
L 52.507385 48.496421 
L 52.306613 48.692603 
L 52.159427 48.931304 
L 51.911199 49.107423 
L 51.853151 49.399069 
L 51.666035 49.622869 
L 51.506779 49.867837 
L 51.312233 50.111151 
L 51.21149 50.391011 
L 51.057414 50.66704 
L 50.832927 50.950175 
L 50.621871 51.258682 
" clip-path="url(#p5405833f4f)" style="fill: none; stroke: #348abd; stroke-opacity: 0.75; stroke-width: 2; stroke-linecap: square"/>
   </g>
   <g id="patch_11">
    <path d="M 63.230008 51.422351 
C 63.230008 50.443732 63.037242 49.474628 62.66274 48.570502 
C 62.288239 47.666376 61.739286 46.84481 61.047298 46.152822 
C 60.35531 45.460834 59.533744 44.911881 58.629618 44.53738 
C 57.725492 44.162879 56.756389 43.970112 55.77777 43.970112 
C 54.799151 43.970112 53.830048 44.162879 52.925921 44.53738 
C 52.021795 44.911881 51.200229 45.460834 50.508241 46.152822 
C 49.816253 46.84481 49.2673 47.666376 48.892799 48.570502 
C 48.518298 49.474628 48.325531 50.443732 48.325531 51.422351 
C 48.325531 52.40097 48.518298 53.370073 48.892799 54.274199 
C 49.2673 55.178325 49.816253 55.999891 50.508241 56.691879 
C 51.200229 57.383867 52.021795 57.93282 52.925921 58.307321 
C 53.830048 58.681823 54.799151 58.874589 55.77777 58.874589 
C 56.756389 58.874589 57.725492 58.681823 58.629618 58.307321 
C 59.533744 57.93282 60.35531 57.383867 61.047298 56.691879 
C 61.739286 55.999891 62.288239 55.178325 62.66274 54.274199 
C 63.037242 53.370073 63.230008 52.40097 63.230008 51.422351 
" style="fill: none; stroke: #000000; stroke-width: 0.8; stroke-linejoin: miter; stroke-linecap: square"/>
   </g>
   <g id="text_15">
    <!-- Walled Square -->
    <g transform="translate(26.710594 42.22665) scale(0.09 -0.09)">
     <defs>
      <path id="CMR17-57" d="M 5523 3775 
C 5581 3948 5677 4173 6048 4185 
L 6048 4352 
C 5939 4345 5715 4339 5600 4339 
C 5440 4339 5158 4339 5005 4352 
L 5005 4185 
C 5293 4179 5414 4019 5414 3865 
C 5414 3820 5408 3794 5382 3724 
L 4390 557 
L 3347 3890 
C 3328 3955 3322 3980 3322 4006 
C 3322 4185 3603 4185 3725 4185 
L 3725 4352 
C 3539 4339 3219 4339 3021 4339 
C 2861 4339 2573 4339 2426 4352 
L 2426 4185 
C 2720 4185 2797 4166 2861 4051 
C 2886 3993 2989 3660 2989 3640 
C 2989 3615 2976 3576 2970 3557 
L 2029 564 
L 986 3890 
C 954 3980 954 3993 954 4006 
C 954 4185 1235 4185 1363 4185 
L 1363 4352 
C 1178 4339 858 4339 659 4339 
C 493 4339 211 4339 58 4352 
L 58 4185 
C 442 4185 467 4147 531 3942 
L 1779 -20 
C 1811 -116 1811 -128 1869 -128 
C 1920 -128 1939 -116 1965 -26 
L 3053 3448 
L 4141 -26 
C 4166 -116 4186 -128 4237 -128 
C 4294 -128 4294 -116 4326 -20 
L 5523 3775 
z
" transform="scale(0.015625)"/>
      <path id="CMR17-64" d="M 1869 4345 
L 1869 4179 
C 2246 4179 2304 4141 2304 3843 
L 2304 2371 
C 2278 2403 2016 2816 1498 2816 
C 845 2816 211 2228 211 1376 
C 211 529 806 -64 1434 -64 
C 1978 -64 2259 361 2291 406 
L 2291 -64 
L 3066 -13 
L 3066 154 
C 2688 154 2630 193 2630 503 
L 2630 4416 
L 1869 4345 
z
M 2291 762 
C 2291 568 2176 393 2029 264 
C 1811 70 1594 38 1472 38 
C 1286 38 621 135 621 1369 
C 621 2636 1363 2713 1530 2713 
C 1824 2713 2061 2545 2208 2313 
C 2291 2177 2291 2157 2291 2041 
L 2291 762 
z
" transform="scale(0.015625)"/>
     </defs>
     <use xlink:href="#CMR17-57" transform="scale(0.996264)"/>
     <use xlink:href="#CMR17-61" transform="translate(87.289395 0) scale(0.996264)"/>
     <use xlink:href="#CMR17-6c" transform="translate(132.979872 0) scale(0.996264)"/>
     <use xlink:href="#CMR17-6c" transform="translate(157.85093 0) scale(0.996264)"/>
     <use xlink:href="#CMR17-65" transform="translate(182.721989 0) scale(0.996264)"/>
     <use xlink:href="#CMR17-64" transform="translate(223.207649 0) scale(0.996264)"/>
     <use xlink:href="#CMR17-53" transform="translate(304.178985 0) scale(0.996264)"/>
     <use xlink:href="#CMR17-71" transform="translate(355.074355 0) scale(0.996264)"/>
     <use xlink:href="#CMR17-75" transform="translate(403.367271 0) scale(0.996264)"/>
     <use xlink:href="#CMR17-61" transform="translate(454.262641 0) scale(0.996264)"/>
     <use xlink:href="#CMR17-72" transform="translate(499.953118 0) scale(0.996264)"/>
     <use xlink:href="#CMR17-65" transform="translate(535.233886 0) scale(0.996264)"/>
    </g>
   </g>
  </g>
  <g id="axes_6">
   <g id="patch_12">
    <path d="M 99.230008 51.422351 
C 99.230008 50.443732 99.037242 49.474628 98.66274 48.570502 
C 98.288239 47.666376 97.739286 46.84481 97.047298 46.152822 
C 96.35531 45.460834 95.533744 44.911881 94.629618 44.53738 
C 93.725492 44.162879 92.756389 43.970112 91.77777 43.970112 
C 90.799151 43.970112 89.830048 44.162879 88.925921 44.53738 
C 88.021795 44.911881 87.200229 45.460834 86.508241 46.152822 
C 85.816253 46.84481 85.2673 47.666376 84.892799 48.570502 
C 84.518298 49.474628 84.325531 50.443732 84.325531 51.422351 
C 84.325531 52.40097 84.518298 53.370073 84.892799 54.274199 
C 85.2673 55.178325 85.816253 55.999891 86.508241 56.691879 
C 87.200229 57.383867 88.021795 57.93282 88.925921 58.307321 
C 89.830048 58.681823 90.799151 58.874589 91.77777 58.874589 
C 92.756389 58.874589 93.725492 58.681823 94.629618 58.307321 
C 95.533744 57.93282 96.35531 57.383867 97.047298 56.691879 
C 97.739286 55.999891 98.288239 55.178325 98.66274 54.274199 
C 99.037242 53.370073 99.230008 52.40097 99.230008 51.422351 
M 91.77777 51.422351 
C 91.77777 51.422351 91.77777 51.422351 91.77777 51.422351 
C 91.77777 51.422351 91.77777 51.422351 91.77777 51.422351 
C 91.77777 51.422351 91.77777 51.422351 91.77777 51.422351 
C 91.77777 51.422351 91.77777 51.422351 91.77777 51.422351 
C 91.77777 51.422351 91.77777 51.422351 91.77777 51.422351 
C 91.77777 51.422351 91.77777 51.422351 91.77777 51.422351 
C 91.77777 51.422351 91.77777 51.422351 91.77777 51.422351 
C 91.77777 51.422351 91.77777 51.422351 91.77777 51.422351 
C 91.77777 51.422351 91.77777 51.422351 91.77777 51.422351 
C 91.77777 51.422351 91.77777 51.422351 91.77777 51.422351 
C 91.77777 51.422351 91.77777 51.422351 91.77777 51.422351 
C 91.77777 51.422351 91.77777 51.422351 91.77777 51.422351 
C 91.77777 51.422351 91.77777 51.422351 91.77777 51.422351 
C 91.77777 51.422351 91.77777 51.422351 91.77777 51.422351 
C 91.77777 51.422351 91.77777 51.422351 91.77777 51.422351 
C 91.77777 51.422351 91.77777 51.422351 91.77777 51.422351 
L 91.77777 51.422351 
z
" style="fill: none"/>
   </g>
   <g id="matplotlib.axis_11">
    <g id="xtick_41">
     <g id="line2d_56">
      <path d="M 91.77777 51.422351 
L 99.230008 51.422351 
" clip-path="url(#p65af6c4f86)" style="fill: none; stroke: #b0b0b0; stroke-width: 0.8; stroke-linecap: square"/>
     </g>
    </g>
    <g id="xtick_42">
     <g id="line2d_57">
      <path d="M 91.77777 51.422351 
L 97.047298 46.152822 
" clip-path="url(#p65af6c4f86)" style="fill: none; stroke: #b0b0b0; stroke-width: 0.8; stroke-linecap: square"/>
     </g>
    </g>
    <g id="xtick_43">
     <g id="line2d_58">
      <path d="M 91.77777 51.422351 
L 91.77777 43.970112 
" clip-path="url(#p65af6c4f86)" style="fill: none; stroke: #b0b0b0; stroke-width: 0.8; stroke-linecap: square"/>
     </g>
    </g>
    <g id="xtick_44">
     <g id="line2d_59">
      <path d="M 91.77777 51.422351 
L 86.508241 46.152822 
" clip-path="url(#p65af6c4f86)" style="fill: none; stroke: #b0b0b0; stroke-width: 0.8; stroke-linecap: square"/>
     </g>
    </g>
    <g id="xtick_45">
     <g id="line2d_60">
      <path d="M 91.77777 51.422351 
L 84.325531 51.422351 
" clip-path="url(#p65af6c4f86)" style="fill: none; stroke: #b0b0b0; stroke-width: 0.8; stroke-linecap: square"/>
     </g>
    </g>
    <g id="xtick_46">
     <g id="line2d_61">
      <path d="M 91.77777 51.422351 
L 86.508241 56.691879 
" clip-path="url(#p65af6c4f86)" style="fill: none; stroke: #b0b0b0; stroke-width: 0.8; stroke-linecap: square"/>
     </g>
    </g>
    <g id="xtick_47">
     <g id="line2d_62">
      <path d="M 91.77777 51.422351 
L 91.77777 58.874589 
" clip-path="url(#p65af6c4f86)" style="fill: none; stroke: #b0b0b0; stroke-width: 0.8; stroke-linecap: square"/>
     </g>
    </g>
    <g id="xtick_48">
     <g id="line2d_63">
      <path d="M 91.77777 51.422351 
L 97.047298 56.691879 
" clip-path="url(#p65af6c4f86)" style="fill: none; stroke: #b0b0b0; stroke-width: 0.8; stroke-linecap: square"/>
     </g>
    </g>
   </g>
   <g id="matplotlib.axis_12">
    <g id="ytick_11">
     <g id="line2d_64">
      <path d="M 93.268217 51.422351 
C 93.268217 51.226627 93.229664 51.032806 93.154764 50.851981 
C 93.079864 50.671156 92.970073 50.506843 92.831675 50.368445 
C 92.693278 50.230047 92.528965 50.120257 92.348139 50.045357 
C 92.167314 49.970456 91.973494 49.931903 91.77777 49.931903 
C 91.582046 49.931903 91.388225 49.970456 91.2074 50.045357 
C 91.026575 50.120257 90.862262 50.230047 90.723864 50.368445 
C 90.585466 50.506843 90.475676 50.671156 90.400776 50.851981 
C 90.325875 51.032806 90.287322 51.226627 90.287322 51.422351 
C 90.287322 51.618074 90.325875 51.811895 90.400776 51.99272 
C 90.475676 52.173546 90.585466 52.337859 90.723864 52.476256 
C 90.862262 52.614654 91.026575 52.724445 91.2074 52.799345 
C 91.388225 52.874245 91.582046 52.912798 91.77777 52.912798 
C 91.973494 52.912798 92.167314 52.874245 92.348139 52.799345 
C 92.528965 52.724445 92.693278 52.614654 92.831675 52.476256 
C 92.970073 52.337859 93.079864 52.173546 93.154764 51.99272 
C 93.229664 51.811895 93.268217 51.618074 93.268217 51.422351 
" clip-path="url(#p65af6c4f86)" style="fill: none; stroke: #b0b0b0; stroke-width: 0.8; stroke-linecap: square"/>
     </g>
     <g id="text_16">
      <!-- $\mathdefault{0.05}$ -->
      <g transform="translate(93.154764 49.238312) scale(0.0833 -0.0833)">
       <use xlink:href="#CMR17-30" transform="scale(0.996264)"/>
       <use xlink:href="#CMMI12-3a" transform="translate(45.690477 0) scale(0.996264)"/>
       <use xlink:href="#CMR17-30" transform="translate(72.787654 0) scale(0.996264)"/>
       <use xlink:href="#CMR17-35" transform="translate(118.478131 0) scale(0.996264)"/>
      </g>
     </g>
    </g>
    <g id="ytick_12">
     <g id="line2d_65">
      <path d="M 99.230008 51.422351 
C 99.230008 50.443732 99.037242 49.474628 98.66274 48.570502 
C 98.288239 47.666376 97.739286 46.84481 97.047298 46.152822 
C 96.35531 45.460834 95.533744 44.911881 94.629618 44.53738 
C 93.725492 44.162879 92.756389 43.970112 91.77777 43.970112 
C 90.799151 43.970112 89.830048 44.162879 88.925921 44.53738 
C 88.021795 44.911881 87.200229 45.460834 86.508241 46.152822 
C 85.816253 46.84481 85.2673 47.666376 84.892799 48.570502 
C 84.518298 49.474628 84.325531 50.443732 84.325531 51.422351 
C 84.325531 52.40097 84.518298 53.370073 84.892799 54.274199 
C 85.2673 55.178325 85.816253 55.999891 86.508241 56.691879 
C 87.200229 57.383867 88.021795 57.93282 88.925921 58.307321 
C 89.830048 58.681823 90.799151 58.874589 91.77777 58.874589 
C 92.756389 58.874589 93.725492 58.681823 94.629618 58.307321 
C 95.533744 57.93282 96.35531 57.383867 97.047298 56.691879 
C 97.739286 55.999891 98.288239 55.178325 98.66274 54.274199 
C 99.037242 53.370073 99.230008 52.40097 99.230008 51.422351 
" clip-path="url(#p65af6c4f86)" style="fill: none; stroke: #b0b0b0; stroke-width: 0.8; stroke-linecap: square"/>
     </g>
     <g id="text_17">
      <!-- $\mathdefault{0.25}$ -->
      <g transform="translate(98.66274 46.956833) scale(0.0833 -0.0833)">
       <use xlink:href="#CMR17-30" transform="scale(0.996264)"/>
       <use xlink:href="#CMMI12-3a" transform="translate(45.690477 0) scale(0.996264)"/>
       <use xlink:href="#CMR17-32" transform="translate(72.787654 0) scale(0.996264)"/>
       <use xlink:href="#CMR17-35" transform="translate(118.478131 0) scale(0.996264)"/>
      </g>
     </g>
    </g>
   </g>
   <g id="line2d_66">
    <path d="M 86.1252 51.601785 
L 86.414466 51.934484 
L 86.608475 52.249496 
L 86.825736 52.540817 
L 87.163967 52.777085 
L 87.397764 53.016542 
L 87.537812 53.277948 
L 87.749201 53.499222 
L 87.966407 53.704226 
L 88.177223 53.901146 
L 88.439154 54.047867 
L 88.601545 54.264038 
L 88.830342 54.416919 
L 88.998522 54.629773 
L 89.173696 54.844063 
L 89.361616 55.053952 
L 89.596106 55.201103 
L 89.801576 55.409718 
L 90.002016 55.661757 
L 90.226542 55.904328 
L 90.494406 56.06431 
L 90.750903 56.329904 
L 91.032142 56.608303 
L 91.346998 56.840861 
L 91.687557 57.107581 
L 92.046664 57.06714 
L 92.377848 56.802993 
L 92.681444 56.547344 
L 92.975218 56.358298 
L 93.175832 55.918548 
L 93.420804 55.722984 
L 93.646554 55.514417 
L 93.877261 55.34087 
L 94.061884 55.10364 
L 94.316376 54.987325 
L 94.4965 54.768832 
L 94.714427 54.601738 
L 94.913903 54.412648 
L 95.043276 54.162436 
L 95.21654 53.954264 
L 95.494663 53.811053 
L 95.69532 53.602017 
L 95.827796 53.350172 
L 96.108914 53.156279 
L 96.259252 52.894211 
L 96.500426 52.647711 
L 96.787701 52.387936 
L 96.991206 52.087685 
L 97.220713 51.76826 
L 97.495184 51.422351 
L 97.250244 51.074565 
L 97.071341 50.74679 
L 96.747578 50.464499 
L 96.519975 50.191918 
L 96.341358 49.923524 
L 96.049613 49.712163 
L 95.8842 49.467681 
L 95.65715 49.263921 
L 95.481229 49.042282 
L 95.266465 48.853679 
L 95.034641 48.689511 
L 94.862915 48.480671 
L 94.689251 48.27022 
L 94.513973 48.054361 
L 94.299212 47.88148 
L 94.105218 47.671219 
L 93.890792 47.478577 
L 93.681674 47.253382 
L 93.469079 46.995357 
L 93.187128 46.889825 
L 92.940226 46.630639 
L 92.669863 46.363039 
L 92.363584 46.169607 
L 92.043133 45.851687 
L 91.687408 45.727728 
L 91.344132 45.967789 
L 91.043038 46.312177 
L 90.755328 46.535945 
L 90.507422 46.827472 
L 90.224853 46.935491 
L 90.027057 47.242727 
L 89.789897 47.411417 
L 89.572622 47.602923 
L 89.316087 47.722317 
L 89.158621 47.980829 
L 88.956077 48.165943 
L 88.817823 48.415063 
L 88.632348 48.608222 
L 88.334672 48.714669 
L 88.129638 48.910796 
L 87.984541 49.151333 
L 87.861083 49.403158 
L 87.541254 49.56826 
L 87.39644 49.827677 
L 87.149997 50.063514 
L 86.885752 50.31744 
L 86.689636 50.608192 
L 86.439714 50.912628 
L 86.194678 51.245121 
" clip-path="url(#p65af6c4f86)" style="fill: none; stroke: #348abd; stroke-opacity: 0.75; stroke-width: 2; stroke-linecap: square"/>
   </g>
   <g id="patch_13">
    <path d="M 99.230008 51.422351 
C 99.230008 50.443732 99.037242 49.474628 98.66274 48.570502 
C 98.288239 47.666376 97.739286 46.84481 97.047298 46.152822 
C 96.35531 45.460834 95.533744 44.911881 94.629618 44.53738 
C 93.725492 44.162879 92.756389 43.970112 91.77777 43.970112 
C 90.799151 43.970112 89.830048 44.162879 88.925921 44.53738 
C 88.021795 44.911881 87.200229 45.460834 86.508241 46.152822 
C 85.816253 46.84481 85.2673 47.666376 84.892799 48.570502 
C 84.518298 49.474628 84.325531 50.443732 84.325531 51.422351 
C 84.325531 52.40097 84.518298 53.370073 84.892799 54.274199 
C 85.2673 55.178325 85.816253 55.999891 86.508241 56.691879 
C 87.200229 57.383867 88.021795 57.93282 88.925921 58.307321 
C 89.830048 58.681823 90.799151 58.874589 91.77777 58.874589 
C 92.756389 58.874589 93.725492 58.681823 94.629618 58.307321 
C 95.533744 57.93282 96.35531 57.383867 97.047298 56.691879 
C 97.739286 55.999891 98.288239 55.178325 98.66274 54.274199 
C 99.037242 53.370073 99.230008 52.40097 99.230008 51.422351 
" style="fill: none; stroke: #000000; stroke-width: 0.8; stroke-linejoin: miter; stroke-linecap: square"/>
   </g>
   <g id="text_18">
    <!-- Square Toroid -->
    <g transform="translate(63.341202 42.22665) scale(0.09 -0.09)">
     <defs>
      <path id="CMR17-54" d="M 3981 4332 
L 288 4332 
L 179 2924 
L 294 2924 
C 378 3981 467 4166 1453 4166 
C 1568 4166 1754 4166 1805 4159 
C 1926 4140 1926 4064 1926 3917 
L 1926 465 
C 1926 236 1907 166 1376 166 
L 1197 166 
L 1197 0 
C 1504 6 1824 12 2138 12 
C 2451 12 2771 6 3078 0 
L 3078 166 
L 2899 166 
C 2368 166 2349 236 2349 465 
L 2349 3917 
C 2349 4057 2349 4134 2464 4159 
C 2515 4166 2701 4166 2816 4166 
C 3795 4166 3891 3981 3974 2924 
L 4090 2924 
L 3981 4332 
z
" transform="scale(0.015625)"/>
      <path id="CMR17-6f" d="M 2758 1356 
C 2758 2176 2163 2816 1466 2816 
C 768 2816 173 2176 173 1356 
C 173 550 768 -64 1466 -64 
C 2163 -64 2758 550 2758 1356 
z
M 1466 51 
C 1165 51 909 230 762 480 
C 602 768 582 1126 582 1408 
C 582 1676 595 2009 762 2297 
C 890 2508 1139 2713 1466 2713 
C 1754 2713 1997 2553 2150 2329 
C 2349 2028 2349 1606 2349 1408 
C 2349 1158 2336 774 2163 467 
C 1984 172 1709 51 1466 51 
z
" transform="scale(0.015625)"/>
     </defs>
     <use xlink:href="#CMR17-53" transform="scale(0.996264)"/>
     <use xlink:href="#CMR17-71" transform="translate(50.89537 0) scale(0.996264)"/>
     <use xlink:href="#CMR17-75" transform="translate(99.188286 0) scale(0.996264)"/>
     <use xlink:href="#CMR17-61" transform="translate(150.083655 0) scale(0.996264)"/>
     <use xlink:href="#CMR17-72" transform="translate(195.774133 0) scale(0.996264)"/>
     <use xlink:href="#CMR17-65" transform="translate(231.0549 0) scale(0.996264)"/>
     <use xlink:href="#CMR17-54" transform="translate(301.616527 0) scale(0.996264)"/>
     <use xlink:href="#CMR17-6f" transform="translate(360.319152 0) scale(0.996264)"/>
     <use xlink:href="#CMR17-72" transform="translate(406.009629 0) scale(0.996264)"/>
     <use xlink:href="#CMR17-6f" transform="translate(441.290397 0) scale(0.996264)"/>
     <use xlink:href="#CMR17-69" transform="translate(486.980874 0) scale(0.996264)"/>
     <use xlink:href="#CMR17-64" transform="translate(511.851933 0) scale(0.996264)"/>
    </g>
   </g>
  </g>
 </g>
 <defs>
  <clipPath id="pf719d26f3e">
   <path d="M 27.230008 15.422351 
C 27.230008 14.443732 27.037242 13.474628 26.66274 12.570502 
C 26.288239 11.666376 25.739286 10.84481 25.047298 10.152822 
C 24.35531 9.460834 23.533744 8.911881 22.629618 8.53738 
C 21.725492 8.162879 20.756389 7.970112 19.77777 7.970112 
C 18.799151 7.970112 17.830048 8.162879 16.925921 8.53738 
C 16.021795 8.911881 15.200229 9.460834 14.508241 10.152822 
C 13.816253 10.84481 13.2673 11.666376 12.892799 12.570502 
C 12.518298 13.474628 12.325531 14.443732 12.325531 15.422351 
C 12.325531 16.40097 12.518298 17.370073 12.892799 18.274199 
C 13.2673 19.178325 13.816253 19.999891 14.508241 20.691879 
C 15.200229 21.383867 16.021795 21.93282 16.925921 22.307321 
C 17.830048 22.681823 18.799151 22.874589 19.77777 22.874589 
C 20.756389 22.874589 21.725492 22.681823 22.629618 22.307321 
C 23.533744 21.93282 24.35531 21.383867 25.047298 20.691879 
C 25.739286 19.999891 26.288239 19.178325 26.66274 18.274199 
C 27.037242 17.370073 27.230008 16.40097 27.230008 15.422351 
M 19.77777 15.422351 
C 19.77777 15.422351 19.77777 15.422351 19.77777 15.422351 
C 19.77777 15.422351 19.77777 15.422351 19.77777 15.422351 
C 19.77777 15.422351 19.77777 15.422351 19.77777 15.422351 
C 19.77777 15.422351 19.77777 15.422351 19.77777 15.422351 
C 19.77777 15.422351 19.77777 15.422351 19.77777 15.422351 
C 19.77777 15.422351 19.77777 15.422351 19.77777 15.422351 
C 19.77777 15.422351 19.77777 15.422351 19.77777 15.422351 
C 19.77777 15.422351 19.77777 15.422351 19.77777 15.422351 
C 19.77777 15.422351 19.77777 15.422351 19.77777 15.422351 
C 19.77777 15.422351 19.77777 15.422351 19.77777 15.422351 
C 19.77777 15.422351 19.77777 15.422351 19.77777 15.422351 
C 19.77777 15.422351 19.77777 15.422351 19.77777 15.422351 
C 19.77777 15.422351 19.77777 15.422351 19.77777 15.422351 
C 19.77777 15.422351 19.77777 15.422351 19.77777 15.422351 
C 19.77777 15.422351 19.77777 15.422351 19.77777 15.422351 
C 19.77777 15.422351 19.77777 15.422351 19.77777 15.422351 
z
"/>
  </clipPath>
  <clipPath id="p5f48f7c2ff">
   <path d="M 63.230008 15.422351 
C 63.230008 14.443732 63.037242 13.474628 62.66274 12.570502 
C 62.288239 11.666376 61.739286 10.84481 61.047298 10.152822 
C 60.35531 9.460834 59.533744 8.911881 58.629618 8.53738 
C 57.725492 8.162879 56.756389 7.970112 55.77777 7.970112 
C 54.799151 7.970112 53.830048 8.162879 52.925921 8.53738 
C 52.021795 8.911881 51.200229 9.460834 50.508241 10.152822 
C 49.816253 10.84481 49.2673 11.666376 48.892799 12.570502 
C 48.518298 13.474628 48.325531 14.443732 48.325531 15.422351 
C 48.325531 16.40097 48.518298 17.370073 48.892799 18.274199 
C 49.2673 19.178325 49.816253 19.999891 50.508241 20.691879 
C 51.200229 21.383867 52.021795 21.93282 52.925921 22.307321 
C 53.830048 22.681823 54.799151 22.874589 55.77777 22.874589 
C 56.756389 22.874589 57.725492 22.681823 58.629618 22.307321 
C 59.533744 21.93282 60.35531 21.383867 61.047298 20.691879 
C 61.739286 19.999891 62.288239 19.178325 62.66274 18.274199 
C 63.037242 17.370073 63.230008 16.40097 63.230008 15.422351 
M 55.77777 15.422351 
C 55.77777 15.422351 55.77777 15.422351 55.77777 15.422351 
C 55.77777 15.422351 55.77777 15.422351 55.77777 15.422351 
C 55.77777 15.422351 55.77777 15.422351 55.77777 15.422351 
C 55.77777 15.422351 55.77777 15.422351 55.77777 15.422351 
C 55.77777 15.422351 55.77777 15.422351 55.77777 15.422351 
C 55.77777 15.422351 55.77777 15.422351 55.77777 15.422351 
C 55.77777 15.422351 55.77777 15.422351 55.77777 15.422351 
C 55.77777 15.422351 55.77777 15.422351 55.77777 15.422351 
C 55.77777 15.422351 55.77777 15.422351 55.77777 15.422351 
C 55.77777 15.422351 55.77777 15.422351 55.77777 15.422351 
C 55.77777 15.422351 55.77777 15.422351 55.77777 15.422351 
C 55.77777 15.422351 55.77777 15.422351 55.77777 15.422351 
C 55.77777 15.422351 55.77777 15.422351 55.77777 15.422351 
C 55.77777 15.422351 55.77777 15.422351 55.77777 15.422351 
C 55.77777 15.422351 55.77777 15.422351 55.77777 15.422351 
C 55.77777 15.422351 55.77777 15.422351 55.77777 15.422351 
z
"/>
  </clipPath>
  <clipPath id="pee90f65b9d">
   <path d="M 99.230008 15.422351 
C 99.230008 14.443732 99.037242 13.474628 98.66274 12.570502 
C 98.288239 11.666376 97.739286 10.84481 97.047298 10.152822 
C 96.35531 9.460834 95.533744 8.911881 94.629618 8.53738 
C 93.725492 8.162879 92.756389 7.970112 91.77777 7.970112 
C 90.799151 7.970112 89.830048 8.162879 88.925921 8.53738 
C 88.021795 8.911881 87.200229 9.460834 86.508241 10.152822 
C 85.816253 10.84481 85.2673 11.666376 84.892799 12.570502 
C 84.518298 13.474628 84.325531 14.443732 84.325531 15.422351 
C 84.325531 16.40097 84.518298 17.370073 84.892799 18.274199 
C 85.2673 19.178325 85.816253 19.999891 86.508241 20.691879 
C 87.200229 21.383867 88.021795 21.93282 88.925921 22.307321 
C 89.830048 22.681823 90.799151 22.874589 91.77777 22.874589 
C 92.756389 22.874589 93.725492 22.681823 94.629618 22.307321 
C 95.533744 21.93282 96.35531 21.383867 97.047298 20.691879 
C 97.739286 19.999891 98.288239 19.178325 98.66274 18.274199 
C 99.037242 17.370073 99.230008 16.40097 99.230008 15.422351 
M 91.77777 15.422351 
C 91.77777 15.422351 91.77777 15.422351 91.77777 15.422351 
C 91.77777 15.422351 91.77777 15.422351 91.77777 15.422351 
C 91.77777 15.422351 91.77777 15.422351 91.77777 15.422351 
C 91.77777 15.422351 91.77777 15.422351 91.77777 15.422351 
C 91.77777 15.422351 91.77777 15.422351 91.77777 15.422351 
C 91.77777 15.422351 91.77777 15.422351 91.77777 15.422351 
C 91.77777 15.422351 91.77777 15.422351 91.77777 15.422351 
C 91.77777 15.422351 91.77777 15.422351 91.77777 15.422351 
C 91.77777 15.422351 91.77777 15.422351 91.77777 15.422351 
C 91.77777 15.422351 91.77777 15.422351 91.77777 15.422351 
C 91.77777 15.422351 91.77777 15.422351 91.77777 15.422351 
C 91.77777 15.422351 91.77777 15.422351 91.77777 15.422351 
C 91.77777 15.422351 91.77777 15.422351 91.77777 15.422351 
C 91.77777 15.422351 91.77777 15.422351 91.77777 15.422351 
C 91.77777 15.422351 91.77777 15.422351 91.77777 15.422351 
C 91.77777 15.422351 91.77777 15.422351 91.77777 15.422351 
z
"/>
  </clipPath>
  <clipPath id="p81c340fddd">
   <path d="M 27.230008 51.422351 
C 27.230008 50.443732 27.037242 49.474628 26.66274 48.570502 
C 26.288239 47.666376 25.739286 46.84481 25.047298 46.152822 
C 24.35531 45.460834 23.533744 44.911881 22.629618 44.53738 
C 21.725492 44.162879 20.756389 43.970112 19.77777 43.970112 
C 18.799151 43.970112 17.830048 44.162879 16.925921 44.53738 
C 16.021795 44.911881 15.200229 45.460834 14.508241 46.152822 
C 13.816253 46.84481 13.2673 47.666376 12.892799 48.570502 
C 12.518298 49.474628 12.325531 50.443732 12.325531 51.422351 
C 12.325531 52.40097 12.518298 53.370073 12.892799 54.274199 
C 13.2673 55.178325 13.816253 55.999891 14.508241 56.691879 
C 15.200229 57.383867 16.021795 57.93282 16.925921 58.307321 
C 17.830048 58.681823 18.799151 58.874589 19.77777 58.874589 
C 20.756389 58.874589 21.725492 58.681823 22.629618 58.307321 
C 23.533744 57.93282 24.35531 57.383867 25.047298 56.691879 
C 25.739286 55.999891 26.288239 55.178325 26.66274 54.274199 
C 27.037242 53.370073 27.230008 52.40097 27.230008 51.422351 
M 19.77777 51.422351 
C 19.77777 51.422351 19.77777 51.422351 19.77777 51.422351 
C 19.77777 51.422351 19.77777 51.422351 19.77777 51.422351 
C 19.77777 51.422351 19.77777 51.422351 19.77777 51.422351 
C 19.77777 51.422351 19.77777 51.422351 19.77777 51.422351 
C 19.77777 51.422351 19.77777 51.422351 19.77777 51.422351 
C 19.77777 51.422351 19.77777 51.422351 19.77777 51.422351 
C 19.77777 51.422351 19.77777 51.422351 19.77777 51.422351 
C 19.77777 51.422351 19.77777 51.422351 19.77777 51.422351 
C 19.77777 51.422351 19.77777 51.422351 19.77777 51.422351 
C 19.77777 51.422351 19.77777 51.422351 19.77777 51.422351 
C 19.77777 51.422351 19.77777 51.422351 19.77777 51.422351 
C 19.77777 51.422351 19.77777 51.422351 19.77777 51.422351 
C 19.77777 51.422351 19.77777 51.422351 19.77777 51.422351 
C 19.77777 51.422351 19.77777 51.422351 19.77777 51.422351 
C 19.77777 51.422351 19.77777 51.422351 19.77777 51.422351 
C 19.77777 51.422351 19.77777 51.422351 19.77777 51.422351 
z
"/>
  </clipPath>
  <clipPath id="p5405833f4f">
   <path d="M 63.230008 51.422351 
C 63.230008 50.443732 63.037242 49.474628 62.66274 48.570502 
C 62.288239 47.666376 61.739286 46.84481 61.047298 46.152822 
C 60.35531 45.460834 59.533744 44.911881 58.629618 44.53738 
C 57.725492 44.162879 56.756389 43.970112 55.77777 43.970112 
C 54.799151 43.970112 53.830048 44.162879 52.925921 44.53738 
C 52.021795 44.911881 51.200229 45.460834 50.508241 46.152822 
C 49.816253 46.84481 49.2673 47.666376 48.892799 48.570502 
C 48.518298 49.474628 48.325531 50.443732 48.325531 51.422351 
C 48.325531 52.40097 48.518298 53.370073 48.892799 54.274199 
C 49.2673 55.178325 49.816253 55.999891 50.508241 56.691879 
C 51.200229 57.383867 52.021795 57.93282 52.925921 58.307321 
C 53.830048 58.681823 54.799151 58.874589 55.77777 58.874589 
C 56.756389 58.874589 57.725492 58.681823 58.629618 58.307321 
C 59.533744 57.93282 60.35531 57.383867 61.047298 56.691879 
C 61.739286 55.999891 62.288239 55.178325 62.66274 54.274199 
C 63.037242 53.370073 63.230008 52.40097 63.230008 51.422351 
M 55.77777 51.422351 
C 55.77777 51.422351 55.77777 51.422351 55.77777 51.422351 
C 55.77777 51.422351 55.77777 51.422351 55.77777 51.422351 
C 55.77777 51.422351 55.77777 51.422351 55.77777 51.422351 
C 55.77777 51.422351 55.77777 51.422351 55.77777 51.422351 
C 55.77777 51.422351 55.77777 51.422351 55.77777 51.422351 
C 55.77777 51.422351 55.77777 51.422351 55.77777 51.422351 
C 55.77777 51.422351 55.77777 51.422351 55.77777 51.422351 
C 55.77777 51.422351 55.77777 51.422351 55.77777 51.422351 
C 55.77777 51.422351 55.77777 51.422351 55.77777 51.422351 
C 55.77777 51.422351 55.77777 51.422351 55.77777 51.422351 
C 55.77777 51.422351 55.77777 51.422351 55.77777 51.422351 
C 55.77777 51.422351 55.77777 51.422351 55.77777 51.422351 
C 55.77777 51.422351 55.77777 51.422351 55.77777 51.422351 
C 55.77777 51.422351 55.77777 51.422351 55.77777 51.422351 
C 55.77777 51.422351 55.77777 51.422351 55.77777 51.422351 
C 55.77777 51.422351 55.77777 51.422351 55.77777 51.422351 
z
"/>
  </clipPath>
  <clipPath id="p65af6c4f86">
   <path d="M 99.230008 51.422351 
C 99.230008 50.443732 99.037242 49.474628 98.66274 48.570502 
C 98.288239 47.666376 97.739286 46.84481 97.047298 46.152822 
C 96.35531 45.460834 95.533744 44.911881 94.629618 44.53738 
C 93.725492 44.162879 92.756389 43.970112 91.77777 43.970112 
C 90.799151 43.970112 89.830048 44.162879 88.925921 44.53738 
C 88.021795 44.911881 87.200229 45.460834 86.508241 46.152822 
C 85.816253 46.84481 85.2673 47.666376 84.892799 48.570502 
C 84.518298 49.474628 84.325531 50.443732 84.325531 51.422351 
C 84.325531 52.40097 84.518298 53.370073 84.892799 54.274199 
C 85.2673 55.178325 85.816253 55.999891 86.508241 56.691879 
C 87.200229 57.383867 88.021795 57.93282 88.925921 58.307321 
C 89.830048 58.681823 90.799151 58.874589 91.77777 58.874589 
C 92.756389 58.874589 93.725492 58.681823 94.629618 58.307321 
C 95.533744 57.93282 96.35531 57.383867 97.047298 56.691879 
C 97.739286 55.999891 98.288239 55.178325 98.66274 54.274199 
C 99.037242 53.370073 99.230008 52.40097 99.230008 51.422351 
M 91.77777 51.422351 
C 91.77777 51.422351 91.77777 51.422351 91.77777 51.422351 
C 91.77777 51.422351 91.77777 51.422351 91.77777 51.422351 
C 91.77777 51.422351 91.77777 51.422351 91.77777 51.422351 
C 91.77777 51.422351 91.77777 51.422351 91.77777 51.422351 
C 91.77777 51.422351 91.77777 51.422351 91.77777 51.422351 
C 91.77777 51.422351 91.77777 51.422351 91.77777 51.422351 
C 91.77777 51.422351 91.77777 51.422351 91.77777 51.422351 
C 91.77777 51.422351 91.77777 51.422351 91.77777 51.422351 
C 91.77777 51.422351 91.77777 51.422351 91.77777 51.422351 
C 91.77777 51.422351 91.77777 51.422351 91.77777 51.422351 
C 91.77777 51.422351 91.77777 51.422351 91.77777 51.422351 
C 91.77777 51.422351 91.77777 51.422351 91.77777 51.422351 
C 91.77777 51.422351 91.77777 51.422351 91.77777 51.422351 
C 91.77777 51.422351 91.77777 51.422351 91.77777 51.422351 
C 91.77777 51.422351 91.77777 51.422351 91.77777 51.422351 
C 91.77777 51.422351 91.77777 51.422351 91.77777 51.422351 
z
"/>
  </clipPath>
 </defs>
</svg>
