<?xml version="1.0" encoding="utf-8" standalone="no"?>
<!DOCTYPE svg PUBLIC "-//W3C//DTD SVG 1.1//EN"
  "http://www.w3.org/Graphics/SVG/1.1/DTD/svg11.dtd">
<svg xmlns:xlink="http://www.w3.org/1999/xlink" width="43.541807pt" height="47.518449pt" viewBox="0 0 43.541807 47.518449" xmlns="http://www.w3.org/2000/svg" version="1.1">
 <metadata>
  <rdf:RDF xmlns:dc="http://purl.org/dc/elements/1.1/" xmlns:cc="http://creativecommons.org/ns#" xmlns:rdf="http://www.w3.org/1999/02/22-rdf-syntax-ns#">
   <cc:Work>
    <dc:type rdf:resource="http://purl.org/dc/dcmitype/StillImage"/>
    <dc:date>2023-03-10T11:29:54.347059</dc:date>
    <dc:format>image/svg+xml</dc:format>
    <dc:creator>
     <cc:Agent>
      <dc:title>Matplotlib v3.7.0, https://matplotlib.org/</dc:title>
     </cc:Agent>
    </dc:creator>
   </cc:Work>
  </rdf:RDF>
 </metadata>
 <defs>
  <style type="text/css">*{stroke-linejoin: round; stroke-linecap: butt}</style>
 </defs>
 <g id="figure_1">
  <g id="patch_1">
   <path d="M 0 47.518449 
L 43.541807 47.518449 
L 43.541807 0 
L 0 0 
L 0 47.518449 
z
" style="fill: none"/>
  </g>
  <g id="axes_1">
   <g id="patch_2">
    <path d="M 18.764513 25.786001 
L 41.337389 25.786001 
L 41.337389 -0 
L 18.764513 -0 
L 18.764513 25.786001 
z
" style="fill: none"/>
   </g>
   <g id="matplotlib.axis_1">
    <g id="xtick_1">
     <g id="line2d_1">
      <defs>
       <path id="m8e99c55ebc" d="M 0 0 
L 0 3.5 
" style="stroke: #000000; stroke-width: 0.8"/>
      </defs>
      <g>
       <use xlink:href="#m8e99c55ebc" x="18.764513" y="25.786001" style="stroke: #000000; stroke-width: 0.8"/>
      </g>
     </g>
     <g id="text_1">
      <!-- $\mathdefault{0}$ -->
      <g transform="translate(16.560095 36.049103) scale(0.0833 -0.0833)">
       <defs>
        <path id="CMR17-30" d="M 2688 2038 
C 2688 2430 2682 3099 2413 3613 
C 2176 4063 1798 4224 1466 4224 
C 1158 4224 768 4082 525 3620 
C 269 3137 243 2539 243 2038 
C 243 1671 250 1112 448 623 
C 723 -39 1216 -128 1466 -128 
C 1760 -128 2208 -7 2470 604 
C 2662 1048 2688 1568 2688 2038 
z
M 1466 -26 
C 1056 -26 813 328 723 816 
C 653 1196 653 1749 653 2109 
C 653 2604 653 3015 736 3407 
C 858 3954 1216 4121 1466 4121 
C 1728 4121 2067 3947 2189 3420 
C 2272 3054 2278 2623 2278 2109 
C 2278 1691 2278 1176 2202 797 
C 2067 96 1690 -26 1466 -26 
z
" transform="scale(0.015625)"/>
       </defs>
       <use xlink:href="#CMR17-30" transform="scale(0.996264)"/>
      </g>
     </g>
    </g>
    <g id="xtick_2">
     <g id="line2d_2">
      <g>
       <use xlink:href="#m8e99c55ebc" x="41.337389" y="25.786001" style="stroke: #000000; stroke-width: 0.8"/>
      </g>
     </g>
     <g id="text_2">
      <!-- $\mathdefault{2}$ -->
      <g transform="translate(39.132971 36.049103) scale(0.0833 -0.0833)">
       <defs>
        <path id="CMR17-32" d="M 2669 990 
L 2554 990 
C 2490 537 2438 460 2413 422 
C 2381 371 1920 371 1830 371 
L 602 371 
C 832 620 1280 1073 1824 1596 
C 2214 1966 2669 2400 2669 3033 
C 2669 3788 2067 4224 1395 4224 
C 691 4224 262 3603 262 3027 
C 262 2777 448 2745 525 2745 
C 589 2745 781 2783 781 3007 
C 781 3206 614 3264 525 3264 
C 486 3264 448 3257 422 3244 
C 544 3788 915 4057 1306 4057 
C 1862 4057 2227 3616 2227 3033 
C 2227 2477 1901 1998 1536 1583 
L 262 147 
L 262 0 
L 2515 0 
L 2669 990 
z
" transform="scale(0.015625)"/>
       </defs>
       <use xlink:href="#CMR17-32" transform="scale(0.996264)"/>
      </g>
     </g>
    </g>
    <g id="text_3">
     <!-- Speed -->
     <g transform="translate(17.182513 45.581271) scale(0.1 -0.1)">
      <defs>
       <path id="CMR17-53" d="M 2803 4351 
C 2803 4467 2797 4473 2758 4473 
C 2720 4473 2707 4447 2682 4390 
L 2490 3965 
C 2246 4320 1875 4480 1472 4480 
C 819 4480 294 3958 294 3301 
C 294 3101 339 2817 557 2546 
C 794 2250 1018 2198 1530 2063 
C 1722 2011 2042 1927 2106 1901 
C 2470 1747 2662 1360 2662 999 
C 2662 534 2336 38 1779 38 
C 1094 38 454 425 410 1328 
C 403 1431 397 1437 352 1437 
C 301 1437 294 1431 294 1302 
L 294 0 
C 294 -116 301 -122 339 -122 
C 384 -122 397 -90 486 109 
C 493 128 493 141 614 386 
C 934 -39 1472 -128 1779 -128 
C 2477 -128 2970 457 2970 1141 
C 2970 1476 2848 1734 2778 1850 
C 2509 2263 2221 2340 1914 2417 
C 1869 2437 1856 2437 1498 2527 
C 1152 2617 1005 2662 845 2836 
C 666 3036 602 3243 602 3449 
C 602 3868 934 4326 1478 4326 
C 2157 4326 2579 3842 2675 3036 
C 2694 2920 2701 2914 2746 2914 
C 2803 2914 2803 2933 2803 3043 
L 2803 4351 
z
" transform="scale(0.015625)"/>
       <path id="CMR17-70" d="M 1408 -1114 
C 998 -1114 973 -1088 973 -834 
L 973 380 
C 1158 109 1427 -64 1766 -64 
C 2406 -64 3053 503 3053 1382 
C 3053 2196 2496 2816 1837 2816 
C 1453 2816 1139 2603 960 2345 
L 960 2816 
L 198 2745 
L 198 2577 
C 576 2577 634 2539 634 2228 
L 634 -834 
C 634 -1081 608 -1114 198 -1114 
L 198 -1280 
C 352 -1268 634 -1268 800 -1268 
C 966 -1268 1254 -1268 1408 -1280 
L 1408 -1114 
z
M 973 2015 
C 973 2106 973 2241 1222 2481 
C 1254 2506 1472 2700 1792 2700 
C 2259 2700 2643 2112 2643 1376 
C 2643 639 2234 38 1728 38 
C 1498 38 1248 148 1056 451 
C 973 594 973 632 973 736 
L 973 2015 
z
" transform="scale(0.015625)"/>
       <path id="CMR17-65" d="M 2438 1503 
C 2464 1529 2464 1542 2464 1606 
C 2464 2251 2118 2816 1389 2816 
C 710 2816 173 2175 173 1394 
C 173 554 781 -64 1459 -64 
C 2176 -64 2458 619 2458 755 
C 2458 800 2419 800 2406 800 
C 2362 800 2355 787 2330 709 
C 2189 270 1837 51 1504 51 
C 1229 51 954 206 781 490 
C 582 819 582 1200 582 1503 
L 2438 1503 
z
M 589 1600 
C 634 2511 1126 2713 1382 2713 
C 1818 2713 2112 2308 2118 1600 
L 589 1600 
z
" transform="scale(0.015625)"/>
       <path id="CMR17-64" d="M 1869 4345 
L 1869 4179 
C 2246 4179 2304 4141 2304 3843 
L 2304 2371 
C 2278 2403 2016 2816 1498 2816 
C 845 2816 211 2228 211 1376 
C 211 529 806 -64 1434 -64 
C 1978 -64 2259 361 2291 406 
L 2291 -64 
L 3066 -13 
L 3066 154 
C 2688 154 2630 193 2630 503 
L 2630 4416 
L 1869 4345 
z
M 2291 762 
C 2291 568 2176 393 2029 264 
C 1811 70 1594 38 1472 38 
C 1286 38 621 135 621 1369 
C 621 2636 1363 2713 1530 2713 
C 1824 2713 2061 2545 2208 2313 
C 2291 2177 2291 2157 2291 2041 
L 2291 762 
z
" transform="scale(0.015625)"/>
      </defs>
      <use xlink:href="#CMR17-53" transform="scale(0.996264)"/>
      <use xlink:href="#CMR17-70" transform="translate(50.89537 0) scale(0.996264)"/>
      <use xlink:href="#CMR17-65" transform="translate(104.393178 0) scale(0.996264)"/>
      <use xlink:href="#CMR17-65" transform="translate(144.878839 0) scale(0.996264)"/>
      <use xlink:href="#CMR17-64" transform="translate(185.364499 0) scale(0.996264)"/>
     </g>
    </g>
   </g>
   <g id="matplotlib.axis_2">
    <g id="ytick_1">
     <g id="line2d_3">
      <defs>
       <path id="m4ee564fb0d" d="M 0 0 
L -3.5 0 
" style="stroke: #000000; stroke-width: 0.8"/>
      </defs>
      <g>
       <use xlink:href="#m4ee564fb0d" x="18.764513" y="25.786001" style="stroke: #000000; stroke-width: 0.8"/>
      </g>
     </g>
     <g id="text_4">
      <!-- $\mathdefault{0}$ -->
      <g transform="translate(9.855677 28.667552) scale(0.0833 -0.0833)">
       <use xlink:href="#CMR17-30" transform="scale(0.996264)"/>
      </g>
     </g>
    </g>
    <g id="ytick_2">
     <g id="line2d_4">
      <g>
       <use xlink:href="#m4ee564fb0d" x="18.764513" y="8.595334" style="stroke: #000000; stroke-width: 0.8"/>
      </g>
     </g>
     <g id="text_5">
      <!-- $\mathdefault{1}$ -->
      <g transform="translate(9.855677 11.476885) scale(0.0833 -0.0833)">
       <defs>
        <path id="CMR17-31" d="M 1702 4083 
C 1702 4217 1696 4224 1606 4224 
C 1357 3927 979 3833 621 3820 
C 602 3820 570 3820 563 3808 
C 557 3795 557 3782 557 3648 
C 755 3648 1088 3686 1344 3839 
L 1344 467 
C 1344 243 1331 166 781 166 
L 589 166 
L 589 0 
C 896 6 1216 12 1523 12 
C 1830 12 2150 6 2458 0 
L 2458 166 
L 2266 166 
C 1715 166 1702 236 1702 467 
L 1702 4083 
z
" transform="scale(0.015625)"/>
       </defs>
       <use xlink:href="#CMR17-31" transform="scale(0.996264)"/>
      </g>
     </g>
    </g>
    <g id="text_6">
     <!-- Density -->
     <g transform="translate(6.918498 29.45592) rotate(-90) scale(0.1 -0.1)">
      <defs>
       <path id="CMR17-44" d="M 333 4352 
L 333 4185 
C 774 4185 845 4185 845 3898 
L 845 453 
C 845 166 774 166 333 166 
L 333 0 
L 2368 0 
C 3398 0 4224 943 4224 2140 
C 4224 3344 3411 4352 2368 4352 
L 333 4352 
z
M 1523 166 
C 1267 166 1254 198 1254 414 
L 1254 3936 
C 1254 4153 1267 4185 1523 4185 
L 2240 4185 
C 2771 4185 3750 3873 3750 2140 
C 3750 1242 3488 879 3366 707 
C 3213 510 2848 166 2240 166 
L 1523 166 
z
" transform="scale(0.015625)"/>
       <path id="CMR17-6e" d="M 2656 1954 
C 2656 2282 2592 2816 1837 2816 
C 1331 2816 1069 2424 973 2166 
L 966 2166 
L 966 2816 
L 211 2745 
L 211 2578 
C 589 2578 646 2540 646 2231 
L 646 443 
C 646 198 621 166 211 166 
L 211 0 
C 365 12 646 12 813 12 
C 979 12 1267 12 1421 0 
L 1421 166 
C 1011 166 986 192 986 443 
L 986 1678 
C 986 2269 1344 2713 1792 2713 
C 2266 2713 2317 2289 2317 1980 
L 2317 443 
C 2317 198 2291 166 1882 166 
L 1882 0 
C 2035 12 2317 12 2483 12 
C 2650 12 2938 12 3091 0 
L 3091 166 
C 2682 166 2656 192 2656 443 
L 2656 1954 
z
" transform="scale(0.015625)"/>
       <path id="CMR17-73" d="M 1978 2688 
C 1978 2803 1971 2809 1933 2809 
C 1907 2809 1901 2803 1824 2707 
C 1805 2681 1747 2617 1728 2592 
C 1523 2809 1235 2816 1126 2816 
C 416 2816 160 2444 160 2073 
C 160 1497 813 1363 998 1324 
C 1402 1241 1542 1216 1677 1100 
C 1760 1024 1901 883 1901 652 
C 1901 384 1747 38 1158 38 
C 602 38 403 460 288 1024 
C 269 1113 269 1120 218 1120 
C 166 1120 160 1113 160 985 
L 160 64 
C 160 -52 166 -58 205 -58 
C 237 -58 243 -52 275 0 
C 314 57 410 211 448 275 
C 576 102 800 -64 1158 -64 
C 1792 -64 2131 281 2131 780 
C 2131 1107 1958 1280 1875 1356 
C 1683 1555 1459 1600 1190 1651 
C 838 1728 390 1817 390 2208 
C 390 2374 480 2726 1126 2726 
C 1811 2726 1850 2086 1862 1881 
C 1869 1849 1901 1843 1920 1843 
C 1978 1843 1978 1862 1978 1971 
L 1978 2688 
z
" transform="scale(0.015625)"/>
       <path id="CMR17-69" d="M 992 3961 
C 992 4102 877 4224 730 4224 
C 589 4224 467 4108 467 3961 
C 467 3820 582 3699 730 3699 
C 870 3699 992 3814 992 3961 
z
M 243 2745 
L 243 2579 
C 602 2579 653 2540 653 2231 
L 653 443 
C 653 198 627 166 218 166 
L 218 0 
C 371 12 646 12 806 12 
C 960 12 1222 12 1370 0 
L 1370 166 
C 992 166 979 205 979 436 
L 979 2816 
L 243 2745 
z
" transform="scale(0.015625)"/>
       <path id="CMR17-74" d="M 966 2585 
L 1862 2585 
L 1862 2752 
L 966 2752 
L 966 3968 
L 851 3968 
C 838 3292 614 2700 70 2687 
L 70 2585 
L 627 2585 
L 627 778 
C 627 655 627 -64 1370 -64 
C 1747 -64 1965 308 1965 784 
L 1965 1151 
L 1850 1151 
L 1850 790 
C 1850 347 1677 51 1408 51 
C 1222 51 966 179 966 765 
L 966 2585 
z
" transform="scale(0.015625)"/>
       <path id="CMR17-79" d="M 2496 2183 
C 2656 2579 2944 2585 3034 2585 
L 3034 2752 
C 2912 2745 2752 2739 2630 2739 
C 2496 2739 2285 2739 2157 2752 
L 2157 2585 
C 2400 2566 2406 2384 2406 2332 
C 2406 2268 2394 2235 2362 2158 
L 1664 409 
L 902 2300 
C 870 2378 870 2423 870 2430 
C 870 2572 1018 2585 1171 2585 
L 1171 2752 
C 1018 2739 742 2739 582 2739 
C 410 2739 205 2739 64 2752 
L 64 2585 
C 410 2585 448 2553 531 2345 
L 1485 -31 
C 1197 -795 1030 -1242 627 -1242 
C 557 -1242 397 -1223 282 -1106 
C 429 -1093 493 -1002 493 -892 
C 493 -782 416 -685 288 -685 
C 147 -685 77 -782 77 -899 
C 77 -1158 339 -1344 627 -1344 
C 998 -1344 1229 -983 1357 -659 
L 2496 2183 
z
" transform="scale(0.015625)"/>
      </defs>
      <use xlink:href="#CMR17-44" transform="scale(0.996264)"/>
      <use xlink:href="#CMR17-65" transform="translate(70.393556 0) scale(0.996264)"/>
      <use xlink:href="#CMR17-6e" transform="translate(110.879216 0) scale(0.996264)"/>
      <use xlink:href="#CMR17-73" transform="translate(161.774586 0) scale(0.996264)"/>
      <use xlink:href="#CMR17-69" transform="translate(197.575924 0) scale(0.996264)"/>
      <use xlink:href="#CMR17-74" transform="translate(222.446982 0) scale(0.996264)"/>
      <use xlink:href="#CMR17-79" transform="translate(255.125296 0) scale(0.996264)"/>
     </g>
    </g>
   </g>
   <g id="patch_3">
    <path d="M 18.766802 25.786001 
L 19.587166 25.786001 
L 19.587166 23.285576 
L 18.766802 23.285576 
z
" clip-path="url(#pd008789bc1)" style="fill: #348abd; opacity: 0.75"/>
   </g>
   <g id="patch_4">
    <path d="M 19.587166 25.786001 
L 20.40753 25.786001 
L 20.40753 18.482406 
L 19.587166 18.482406 
z
" clip-path="url(#pd008789bc1)" style="fill: #348abd; opacity: 0.75"/>
   </g>
   <g id="patch_5">
    <path d="M 20.40753 25.786001 
L 21.227894 25.786001 
L 21.227894 14.077118 
L 20.40753 14.077118 
z
" clip-path="url(#pd008789bc1)" style="fill: #348abd; opacity: 0.75"/>
   </g>
   <g id="patch_6">
    <path d="M 21.227894 25.786001 
L 22.048259 25.786001 
L 22.048259 10.475206 
L 21.227894 10.475206 
z
" clip-path="url(#pd008789bc1)" style="fill: #348abd; opacity: 0.75"/>
   </g>
   <g id="patch_7">
    <path d="M 22.048259 25.786001 
L 22.868622 25.786001 
L 22.868622 7.698061 
L 22.048259 7.698061 
z
" clip-path="url(#pd008789bc1)" style="fill: #348abd; opacity: 0.75"/>
   </g>
   <g id="patch_8">
    <path d="M 22.868622 25.786001 
L 23.688987 25.786001 
L 23.688987 5.833294 
L 22.868622 5.833294 
z
" clip-path="url(#pd008789bc1)" style="fill: #348abd; opacity: 0.75"/>
   </g>
   <g id="patch_9">
    <path d="M 23.688987 25.786001 
L 24.509351 25.786001 
L 24.509351 5.022787 
L 23.688987 5.022787 
z
" clip-path="url(#pd008789bc1)" style="fill: #348abd; opacity: 0.75"/>
   </g>
   <g id="patch_10">
    <path d="M 24.509351 25.786001 
L 25.329715 25.786001 
L 25.329715 5.12886 
L 24.509351 5.12886 
z
" clip-path="url(#pd008789bc1)" style="fill: #348abd; opacity: 0.75"/>
   </g>
   <g id="patch_11">
    <path d="M 25.329715 25.786001 
L 26.150079 25.786001 
L 26.150079 6.035136 
L 25.329715 6.035136 
z
" clip-path="url(#pd008789bc1)" style="fill: #348abd; opacity: 0.75"/>
   </g>
   <g id="patch_12">
    <path d="M 26.150079 25.786001 
L 26.970443 25.786001 
L 26.970443 7.463809 
L 26.150079 7.463809 
z
" clip-path="url(#pd008789bc1)" style="fill: #348abd; opacity: 0.75"/>
   </g>
   <g id="patch_13">
    <path d="M 26.970443 25.786001 
L 27.790807 25.786001 
L 27.790807 9.417865 
L 26.970443 9.417865 
z
" clip-path="url(#pd008789bc1)" style="fill: #348abd; opacity: 0.75"/>
   </g>
   <g id="patch_14">
    <path d="M 27.790807 25.786001 
L 28.611171 25.786001 
L 28.611171 11.588718 
L 27.790807 11.588718 
z
" clip-path="url(#pd008789bc1)" style="fill: #348abd; opacity: 0.75"/>
   </g>
   <g id="patch_15">
    <path d="M 28.611171 25.786001 
L 29.431535 25.786001 
L 29.431535 13.827251 
L 28.611171 13.827251 
z
" clip-path="url(#pd008789bc1)" style="fill: #348abd; opacity: 0.75"/>
   </g>
   <g id="patch_16">
    <path d="M 29.431535 25.786001 
L 30.251899 25.786001 
L 30.251899 15.964433 
L 29.431535 15.964433 
z
" clip-path="url(#pd008789bc1)" style="fill: #348abd; opacity: 0.75"/>
   </g>
   <g id="patch_17">
    <path d="M 30.251899 25.786001 
L 31.072263 25.786001 
L 31.072263 17.913293 
L 30.251899 17.913293 
z
" clip-path="url(#pd008789bc1)" style="fill: #348abd; opacity: 0.75"/>
   </g>
   <g id="patch_18">
    <path d="M 31.072263 25.786001 
L 31.892627 25.786001 
L 31.892627 19.651261 
L 31.072263 19.651261 
z
" clip-path="url(#pd008789bc1)" style="fill: #348abd; opacity: 0.75"/>
   </g>
   <g id="patch_19">
    <path d="M 31.892627 25.786001 
L 32.712992 25.786001 
L 32.712992 21.14405 
L 31.892627 21.14405 
z
" clip-path="url(#pd008789bc1)" style="fill: #348abd; opacity: 0.75"/>
   </g>
   <g id="patch_20">
    <path d="M 32.712992 25.786001 
L 33.533356 25.786001 
L 33.533356 22.328316 
L 32.712992 22.328316 
z
" clip-path="url(#pd008789bc1)" style="fill: #348abd; opacity: 0.75"/>
   </g>
   <g id="patch_21">
    <path d="M 33.533356 25.786001 
L 34.35372 25.786001 
L 34.35372 23.297165 
L 33.533356 23.297165 
z
" clip-path="url(#pd008789bc1)" style="fill: #348abd; opacity: 0.75"/>
   </g>
   <g id="patch_22">
    <path d="M 34.35372 25.786001 
L 35.174084 25.786001 
L 35.174084 24.028679 
L 34.35372 24.028679 
z
" clip-path="url(#pd008789bc1)" style="fill: #348abd; opacity: 0.75"/>
   </g>
   <g id="patch_23">
    <path d="M 35.174084 25.786001 
L 35.994448 25.786001 
L 35.994448 24.566889 
L 35.174084 24.566889 
z
" clip-path="url(#pd008789bc1)" style="fill: #348abd; opacity: 0.75"/>
   </g>
   <g id="patch_24">
    <path d="M 35.994448 25.786001 
L 36.814813 25.786001 
L 36.814813 24.964299 
L 35.994448 24.964299 
z
" clip-path="url(#pd008789bc1)" style="fill: #348abd; opacity: 0.75"/>
   </g>
   <g id="patch_25">
    <path d="M 36.814813 25.786001 
L 37.635177 25.786001 
L 37.635177 25.25666 
L 36.814813 25.25666 
z
" clip-path="url(#pd008789bc1)" style="fill: #348abd; opacity: 0.75"/>
   </g>
   <g id="patch_26">
    <path d="M 37.635177 25.786001 
L 38.45554 25.786001 
L 38.45554 25.440859 
L 37.635177 25.440859 
z
" clip-path="url(#pd008789bc1)" style="fill: #348abd; opacity: 0.75"/>
   </g>
   <g id="patch_27">
    <path d="M 38.45554 25.786001 
L 39.275904 25.786001 
L 39.275904 25.567981 
L 38.45554 25.567981 
z
" clip-path="url(#pd008789bc1)" style="fill: #348abd; opacity: 0.75"/>
   </g>
   <g id="patch_28">
    <path d="M 39.275904 25.786001 
L 40.096268 25.786001 
L 40.096268 25.657144 
L 39.275904 25.657144 
z
" clip-path="url(#pd008789bc1)" style="fill: #348abd; opacity: 0.75"/>
   </g>
   <g id="patch_29">
    <path d="M 40.096268 25.786001 
L 40.916632 25.786001 
L 40.916632 25.704564 
L 40.096268 25.704564 
z
" clip-path="url(#pd008789bc1)" style="fill: #348abd; opacity: 0.75"/>
   </g>
   <g id="patch_30">
    <path d="M 40.916632 25.786001 
L 41.736998 25.786001 
L 41.736998 25.73933 
L 40.916632 25.73933 
z
" clip-path="url(#pd008789bc1)" style="fill: #348abd; opacity: 0.75"/>
   </g>
   <g id="patch_31">
    <path d="M 41.736998 25.786001 
L 42.557361 25.786001 
L 42.557361 25.759512 
L 41.736998 25.759512 
z
" clip-path="url(#pd008789bc1)" style="fill: #348abd; opacity: 0.75"/>
   </g>
   <g id="patch_32">
    <path d="M 42.557361 25.786001 
L 43.377724 25.786001 
L 43.377724 25.77118 
L 42.557361 25.77118 
z
" clip-path="url(#pd008789bc1)" style="fill: #348abd; opacity: 0.75"/>
   </g>
   <g id="patch_33">
    <path d="M 43.377724 25.786001 
L 44.198089 25.786001 
L 44.198089 25.777053 
L 43.377724 25.777053 
z
" clip-path="url(#pd008789bc1)" style="fill: #348abd; opacity: 0.75"/>
   </g>
   <g id="patch_34">
    <path d="M 44.198089 25.786001 
L 45.018452 25.786001 
L 45.018452 25.781744 
L 44.198089 25.781744 
z
" clip-path="url(#pd008789bc1)" style="fill: #348abd; opacity: 0.75"/>
   </g>
   <g id="patch_35">
    <path d="M 45.018452 25.786001 
L 45.838818 25.786001 
L 45.838818 25.783478 
L 45.018452 25.783478 
z
" clip-path="url(#pd008789bc1)" style="fill: #348abd; opacity: 0.75"/>
   </g>
   <g id="patch_36">
    <path d="M 45.838818 25.786001 
L 46.65918 25.786001 
L 46.65918 25.784818 
L 45.838818 25.784818 
z
" clip-path="url(#pd008789bc1)" style="fill: #348abd; opacity: 0.75"/>
   </g>
   <g id="patch_37">
    <path d="M 46.65918 25.786001 
L 47.479546 25.786001 
L 47.479546 25.785488 
L 46.65918 25.785488 
z
" clip-path="url(#pd008789bc1)" style="fill: #348abd; opacity: 0.75"/>
   </g>
   <g id="patch_38">
    <path d="M 47.479546 25.786001 
L 48.299909 25.786001 
L 48.299909 25.785764 
L 47.479546 25.785764 
z
" clip-path="url(#pd008789bc1)" style="fill: #348abd; opacity: 0.75"/>
   </g>
   <g id="patch_39">
    <path d="M 48.299909 25.786001 
L 49.120274 25.786001 
L 49.120274 25.785804 
L 48.299909 25.785804 
z
" clip-path="url(#pd008789bc1)" style="fill: #348abd; opacity: 0.75"/>
   </g>
   <g id="patch_40">
    <path d="M 49.120274 25.786001 
L 49.940637 25.786001 
L 49.940637 25.785883 
L 49.120274 25.785883 
z
" clip-path="url(#pd008789bc1)" style="fill: #348abd; opacity: 0.75"/>
   </g>
   <g id="patch_41">
    <path d="M 49.940637 25.786001 
L 50.761003 25.786001 
L 50.761003 25.785883 
L 49.940637 25.785883 
z
" clip-path="url(#pd008789bc1)" style="fill: #348abd; opacity: 0.75"/>
   </g>
   <g id="patch_42">
    <path d="M 50.761003 25.786001 
L 51.581366 25.786001 
L 51.581366 25.785962 
L 50.761003 25.785962 
z
" clip-path="url(#pd008789bc1)" style="fill: #348abd; opacity: 0.75"/>
   </g>
   <g id="patch_43">
    <path d="M 18.764513 25.786001 
L 18.764513 -0 
" style="fill: none; stroke: #000000; stroke-width: 0.8; stroke-linejoin: miter; stroke-linecap: square"/>
   </g>
   <g id="patch_44">
    <path d="M 18.764513 25.786001 
L 41.337389 25.786001 
" style="fill: none; stroke: #000000; stroke-width: 0.8; stroke-linejoin: miter; stroke-linecap: square"/>
   </g>
  </g>
 </g>
 <defs>
  <clipPath id="pd008789bc1">
   <rect x="18.764513" y="-0" width="22.572876" height="25.786001"/>
  </clipPath>
 </defs>
</svg>
