<?xml version="1.0" encoding="utf-8" standalone="no"?>
<!DOCTYPE svg PUBLIC "-//W3C//DTD SVG 1.1//EN"
  "http://www.w3.org/Graphics/SVG/1.1/DTD/svg11.dtd">
<svg xmlns:xlink="http://www.w3.org/1999/xlink" width="69.117672pt" height="76.286883pt" viewBox="0 0 69.117672 76.286883" xmlns="http://www.w3.org/2000/svg" version="1.1">
 <metadata>
  <rdf:RDF xmlns:dc="http://purl.org/dc/elements/1.1/" xmlns:cc="http://creativecommons.org/ns#" xmlns:rdf="http://www.w3.org/1999/02/22-rdf-syntax-ns#">
   <cc:Work>
    <dc:type rdf:resource="http://purl.org/dc/dcmitype/StillImage"/>
    <dc:date>2023-02-23T15:33:45.582989</dc:date>
    <dc:format>image/svg+xml</dc:format>
    <dc:creator>
     <cc:Agent>
      <dc:title>Matplotlib v3.6.2, https://matplotlib.org/</dc:title>
     </cc:Agent>
    </dc:creator>
   </cc:Work>
  </rdf:RDF>
 </metadata>
 <defs>
  <style type="text/css">*{stroke-linejoin: round; stroke-linecap: butt}</style>
 </defs>
 <g id="figure_1">
  <g id="patch_1">
   <path d="M 0 76.286883 
L 69.117672 76.286883 
L 69.117672 0 
L 0 0 
L 0 76.286883 
z
" style="fill: none"/>
  </g>
  <g id="axes_1">
   <g id="patch_2">
    <path d="M 13.317672 55.44 
L 69.117672 55.44 
L 69.117672 0 
L 13.317672 0 
L 13.317672 55.44 
z
" style="fill: none"/>
   </g>
   <g id="matplotlib.axis_1">
    <g id="xtick_1">
     <g id="line2d_1">
      <defs>
       <path id="m6e7a9214ce" d="M 0 0 
L 0 3.5 
" style="stroke: #000000; stroke-width: 0.8"/>
      </defs>
      <g>
       <use xlink:href="#m6e7a9214ce" x="24.308581" y="55.44" style="stroke: #000000; stroke-width: 0.8"/>
      </g>
     </g>
     <g id="text_1">
      <!-- $\mathdefault{0}$ -->
      <g transform="translate(22.104163 65.703102) scale(0.0833 -0.0833)">
       <defs>
        <path id="CMR17-30" d="M 2688 2038 
C 2688 2430 2682 3099 2413 3613 
C 2176 4063 1798 4224 1466 4224 
C 1158 4224 768 4082 525 3620 
C 269 3137 243 2539 243 2038 
C 243 1671 250 1112 448 623 
C 723 -39 1216 -128 1466 -128 
C 1760 -128 2208 -7 2470 604 
C 2662 1048 2688 1568 2688 2038 
z
M 1466 -26 
C 1056 -26 813 328 723 816 
C 653 1196 653 1749 653 2109 
C 653 2604 653 3015 736 3407 
C 858 3954 1216 4121 1466 4121 
C 1728 4121 2067 3947 2189 3420 
C 2272 3054 2278 2623 2278 2109 
C 2278 1691 2278 1176 2202 797 
C 2067 96 1690 -26 1466 -26 
z
" transform="scale(0.015625)"/>
       </defs>
       <use xlink:href="#CMR17-30" transform="scale(0.996264)"/>
      </g>
     </g>
    </g>
    <g id="xtick_2">
     <g id="line2d_2">
      <g>
       <use xlink:href="#m6e7a9214ce" x="66.581309" y="55.44" style="stroke: #000000; stroke-width: 0.8"/>
      </g>
     </g>
     <g id="text_2">
      <!-- $\mathdefault{1}$ -->
      <g transform="translate(64.376891 65.703102) scale(0.0833 -0.0833)">
       <defs>
        <path id="CMR17-31" d="M 1702 4083 
C 1702 4217 1696 4224 1606 4224 
C 1357 3927 979 3833 621 3820 
C 602 3820 570 3820 563 3808 
C 557 3795 557 3782 557 3648 
C 755 3648 1088 3686 1344 3839 
L 1344 467 
C 1344 243 1331 166 781 166 
L 589 166 
L 589 0 
C 896 6 1216 12 1523 12 
C 1830 12 2150 6 2458 0 
L 2458 166 
L 2266 166 
C 1715 166 1702 236 1702 467 
L 1702 4083 
z
" transform="scale(0.015625)"/>
       </defs>
       <use xlink:href="#CMR17-31" transform="scale(0.996264)"/>
      </g>
     </g>
    </g>
    <g id="text_3">
     <!-- A $\cdot$ B -->
     <g transform="translate(30.147468 74.543421) scale(0.09 -0.09)">
      <defs>
       <path id="CMR17-41" d="M 2323 4441 
C 2291 4524 2278 4544 2214 4544 
C 2150 4544 2138 4524 2106 4441 
L 749 580 
C 627 236 371 166 147 166 
L 147 0 
C 262 12 518 12 640 12 
C 800 12 1056 12 1210 0 
L 1210 166 
C 909 179 864 382 864 459 
C 864 516 877 548 890 586 
L 1229 1536 
L 2906 1536 
L 3290 453 
C 3322 376 3322 363 3322 338 
C 3322 166 3046 166 2925 166 
L 2925 0 
C 3110 12 3443 12 3642 12 
C 3808 12 4128 12 4282 0 
L 4282 166 
C 3942 166 3827 166 3744 402 
L 2323 4441 
z
M 2067 3924 
L 2848 1702 
L 1286 1702 
L 2067 3924 
z
" transform="scale(0.015625)"/>
       <path id="CMSY10-1" d="M 1229 1619 
C 1229 1804 1075 1958 890 1958 
C 704 1958 550 1804 550 1619 
C 550 1433 704 1280 890 1280 
C 1075 1280 1229 1433 1229 1619 
z
" transform="scale(0.015625)"/>
       <path id="CMR17-42" d="M 333 4352 
L 333 4185 
C 774 4185 845 4185 845 3897 
L 845 451 
C 845 166 774 166 333 166 
L 333 0 
L 2534 0 
C 3354 0 3885 578 3885 1155 
C 3885 1726 3360 2214 2675 2259 
C 3290 2380 3718 2790 3718 3276 
C 3718 3808 3194 4352 2368 4352 
L 333 4352 
z
M 1248 2304 
L 1248 3936 
C 1248 4153 1261 4185 1517 4185 
L 2336 4185 
C 2970 4185 3251 3673 3251 3276 
C 3251 2790 2861 2304 2170 2304 
L 1248 2304 
z
M 1517 166 
C 1261 166 1248 198 1248 413 
L 1248 2201 
L 2432 2201 
C 3091 2201 3411 1624 3411 1161 
C 3411 698 3046 166 2349 166 
L 1517 166 
z
" transform="scale(0.015625)"/>
      </defs>
      <use xlink:href="#CMR17-41" transform="scale(0.996264)"/>
      <use xlink:href="#CMSY10-1" transform="translate(99.148396 0) scale(0.996264)"/>
      <use xlink:href="#CMR17-42" transform="translate(156.898447 0) scale(0.996264)"/>
     </g>
    </g>
   </g>
   <g id="matplotlib.axis_2">
    <g id="ytick_1">
     <g id="line2d_3">
      <defs>
       <path id="m9e5f61c1a4" d="M 0 0 
L -3.5 0 
" style="stroke: #000000; stroke-width: 0.8"/>
      </defs>
      <g>
       <use xlink:href="#m9e5f61c1a4" x="13.317672" y="55.44" style="stroke: #000000; stroke-width: 0.8"/>
      </g>
     </g>
     <g id="text_4">
      <!-- $\mathdefault{0}$ -->
      <g transform="translate(4.408836 58.321551) scale(0.0833 -0.0833)">
       <use xlink:href="#CMR17-30" transform="scale(0.996264)"/>
      </g>
     </g>
    </g>
    <g id="ytick_2">
     <g id="line2d_4">
      <g>
       <use xlink:href="#m9e5f61c1a4" x="13.317672" y="34.957241" style="stroke: #000000; stroke-width: 0.8"/>
      </g>
     </g>
     <g id="text_5">
      <!-- $\mathdefault{5}$ -->
      <g transform="translate(4.408836 37.838792) scale(0.0833 -0.0833)">
       <defs>
        <path id="CMR17-35" d="M 730 3750 
C 794 3724 1056 3641 1325 3641 
C 1920 3641 2246 3961 2432 4140 
C 2432 4191 2432 4224 2394 4224 
C 2387 4224 2374 4224 2323 4198 
C 2099 4102 1837 4032 1517 4032 
C 1325 4032 1037 4055 723 4191 
C 653 4224 640 4224 634 4224 
C 602 4224 595 4217 595 4090 
L 595 2231 
C 595 2113 595 2080 659 2080 
C 691 2080 704 2093 736 2139 
C 941 2435 1222 2560 1542 2560 
C 1766 2560 2246 2415 2246 1293 
C 2246 1087 2246 716 2054 422 
C 1894 159 1645 25 1370 25 
C 947 25 518 319 403 812 
C 429 806 480 793 506 793 
C 589 793 749 838 749 1036 
C 749 1209 627 1280 506 1280 
C 358 1280 262 1190 262 1011 
C 262 454 704 -128 1382 -128 
C 2042 -128 2669 441 2669 1267 
C 2669 2054 2170 2662 1549 2662 
C 1222 2662 947 2540 730 2304 
L 730 3750 
z
" transform="scale(0.015625)"/>
       </defs>
       <use xlink:href="#CMR17-35" transform="scale(0.996264)"/>
      </g>
     </g>
    </g>
    <g id="ytick_3">
     <g id="line2d_5">
      <g>
       <use xlink:href="#m9e5f61c1a4" x="13.317672" y="14.474483" style="stroke: #000000; stroke-width: 0.8"/>
      </g>
     </g>
     <g id="text_6">
      <!-- $\mathdefault{10}$ -->
      <g transform="translate(0 17.356034) scale(0.0833 -0.0833)">
       <use xlink:href="#CMR17-31" transform="scale(0.996264)"/>
       <use xlink:href="#CMR17-30" transform="translate(45.690477 0) scale(0.996264)"/>
      </g>
     </g>
    </g>
   </g>
   <g id="patch_3">
    <path d="M 15.854036 55.44 
L 17.603252 55.44 
L 17.603252 55.44 
L 15.854036 55.44 
z
" clip-path="url(#pe8a3d1cd88)" style="fill: #348abd; opacity: 0.5"/>
   </g>
   <g id="patch_4">
    <path d="M 17.603252 55.44 
L 19.352468 55.44 
L 19.352468 55.44 
L 17.603252 55.44 
z
" clip-path="url(#pe8a3d1cd88)" style="fill: #348abd; opacity: 0.5"/>
   </g>
   <g id="patch_5">
    <path d="M 19.352468 55.44 
L 21.101685 55.44 
L 21.101685 2.64 
L 19.352468 2.64 
z
" clip-path="url(#pe8a3d1cd88)" style="fill: #348abd; opacity: 0.5"/>
   </g>
   <g id="patch_6">
    <path d="M 21.101685 55.44 
L 22.850901 55.44 
L 22.850901 35.64 
L 21.101685 35.64 
z
" clip-path="url(#pe8a3d1cd88)" style="fill: #348abd; opacity: 0.5"/>
   </g>
   <g id="patch_7">
    <path d="M 22.850901 55.44 
L 24.600117 55.44 
L 24.600117 55.44 
L 22.850901 55.44 
z
" clip-path="url(#pe8a3d1cd88)" style="fill: #348abd; opacity: 0.5"/>
   </g>
   <g id="patch_8">
    <path d="M 24.600117 55.44 
L 26.349334 55.44 
L 26.349334 55.44 
L 24.600117 55.44 
z
" clip-path="url(#pe8a3d1cd88)" style="fill: #348abd; opacity: 0.5"/>
   </g>
   <g id="patch_9">
    <path d="M 26.349334 55.44 
L 28.09855 55.44 
L 28.09855 55.44 
L 26.349334 55.44 
z
" clip-path="url(#pe8a3d1cd88)" style="fill: #348abd; opacity: 0.5"/>
   </g>
   <g id="patch_10">
    <path d="M 28.09855 55.44 
L 29.847766 55.44 
L 29.847766 48.84 
L 28.09855 48.84 
z
" clip-path="url(#pe8a3d1cd88)" style="fill: #348abd; opacity: 0.5"/>
   </g>
   <g id="patch_11">
    <path d="M 29.847766 55.44 
L 31.596983 55.44 
L 31.596983 55.44 
L 29.847766 55.44 
z
" clip-path="url(#pe8a3d1cd88)" style="fill: #348abd; opacity: 0.5"/>
   </g>
   <g id="patch_12">
    <path d="M 31.596983 55.44 
L 33.346199 55.44 
L 33.346199 55.44 
L 31.596983 55.44 
z
" clip-path="url(#pe8a3d1cd88)" style="fill: #348abd; opacity: 0.5"/>
   </g>
   <g id="patch_13">
    <path d="M 33.346199 55.44 
L 35.095415 55.44 
L 35.095415 55.44 
L 33.346199 55.44 
z
" clip-path="url(#pe8a3d1cd88)" style="fill: #348abd; opacity: 0.5"/>
   </g>
   <g id="patch_14">
    <path d="M 35.095415 55.44 
L 36.844632 55.44 
L 36.844632 55.44 
L 35.095415 55.44 
z
" clip-path="url(#pe8a3d1cd88)" style="fill: #348abd; opacity: 0.5"/>
   </g>
   <g id="patch_15">
    <path d="M 36.844632 55.44 
L 38.593848 55.44 
L 38.593848 55.44 
L 36.844632 55.44 
z
" clip-path="url(#pe8a3d1cd88)" style="fill: #348abd; opacity: 0.5"/>
   </g>
   <g id="patch_16">
    <path d="M 38.593848 55.44 
L 40.343064 55.44 
L 40.343064 55.44 
L 38.593848 55.44 
z
" clip-path="url(#pe8a3d1cd88)" style="fill: #348abd; opacity: 0.5"/>
   </g>
   <g id="patch_17">
    <path d="M 40.343064 55.44 
L 42.09228 55.44 
L 42.09228 55.44 
L 40.343064 55.44 
z
" clip-path="url(#pe8a3d1cd88)" style="fill: #348abd; opacity: 0.5"/>
   </g>
   <g id="patch_18">
    <path d="M 42.09228 55.44 
L 43.841497 55.44 
L 43.841497 48.84 
L 42.09228 48.84 
z
" clip-path="url(#pe8a3d1cd88)" style="fill: #348abd; opacity: 0.5"/>
   </g>
   <g id="patch_19">
    <path d="M 43.841497 55.44 
L 45.590713 55.44 
L 45.590713 55.44 
L 43.841497 55.44 
z
" clip-path="url(#pe8a3d1cd88)" style="fill: #348abd; opacity: 0.5"/>
   </g>
   <g id="patch_20">
    <path d="M 45.590713 55.44 
L 47.339929 55.44 
L 47.339929 48.84 
L 45.590713 48.84 
z
" clip-path="url(#pe8a3d1cd88)" style="fill: #348abd; opacity: 0.5"/>
   </g>
   <g id="patch_21">
    <path d="M 47.339929 55.44 
L 49.089146 55.44 
L 49.089146 55.44 
L 47.339929 55.44 
z
" clip-path="url(#pe8a3d1cd88)" style="fill: #348abd; opacity: 0.5"/>
   </g>
   <g id="patch_22">
    <path d="M 49.089146 55.44 
L 50.838362 55.44 
L 50.838362 55.44 
L 49.089146 55.44 
z
" clip-path="url(#pe8a3d1cd88)" style="fill: #348abd; opacity: 0.5"/>
   </g>
   <g id="patch_23">
    <path d="M 50.838362 55.44 
L 52.587578 55.44 
L 52.587578 55.44 
L 50.838362 55.44 
z
" clip-path="url(#pe8a3d1cd88)" style="fill: #348abd; opacity: 0.5"/>
   </g>
   <g id="patch_24">
    <path d="M 52.587578 55.44 
L 54.336795 55.44 
L 54.336795 55.44 
L 52.587578 55.44 
z
" clip-path="url(#pe8a3d1cd88)" style="fill: #348abd; opacity: 0.5"/>
   </g>
   <g id="patch_25">
    <path d="M 54.336795 55.44 
L 56.086011 55.44 
L 56.086011 48.84 
L 54.336795 48.84 
z
" clip-path="url(#pe8a3d1cd88)" style="fill: #348abd; opacity: 0.5"/>
   </g>
   <g id="patch_26">
    <path d="M 56.086011 55.44 
L 57.835227 55.44 
L 57.835227 55.44 
L 56.086011 55.44 
z
" clip-path="url(#pe8a3d1cd88)" style="fill: #348abd; opacity: 0.5"/>
   </g>
   <g id="patch_27">
    <path d="M 57.835227 55.44 
L 59.584443 55.44 
L 59.584443 55.44 
L 57.835227 55.44 
z
" clip-path="url(#pe8a3d1cd88)" style="fill: #348abd; opacity: 0.5"/>
   </g>
   <g id="patch_28">
    <path d="M 59.584443 55.44 
L 61.33366 55.44 
L 61.33366 55.44 
L 59.584443 55.44 
z
" clip-path="url(#pe8a3d1cd88)" style="fill: #348abd; opacity: 0.5"/>
   </g>
   <g id="patch_29">
    <path d="M 61.33366 55.44 
L 63.082876 55.44 
L 63.082876 55.44 
L 61.33366 55.44 
z
" clip-path="url(#pe8a3d1cd88)" style="fill: #348abd; opacity: 0.5"/>
   </g>
   <g id="patch_30">
    <path d="M 63.082876 55.44 
L 64.832092 55.44 
L 64.832092 55.44 
L 63.082876 55.44 
z
" clip-path="url(#pe8a3d1cd88)" style="fill: #348abd; opacity: 0.5"/>
   </g>
   <g id="patch_31">
    <path d="M 64.832092 55.44 
L 66.581309 55.44 
L 66.581309 55.44 
L 64.832092 55.44 
z
" clip-path="url(#pe8a3d1cd88)" style="fill: #348abd; opacity: 0.5"/>
   </g>
   <g id="patch_32">
    <path d="M 15.854036 55.44 
L 17.603252 55.44 
L 17.603252 55.44 
L 15.854036 55.44 
z
" clip-path="url(#pe8a3d1cd88)" style="fill: #7a68a6; opacity: 0.5"/>
   </g>
   <g id="patch_33">
    <path d="M 17.603252 55.44 
L 19.352468 55.44 
L 19.352468 46.954286 
L 17.603252 46.954286 
z
" clip-path="url(#pe8a3d1cd88)" style="fill: #7a68a6; opacity: 0.5"/>
   </g>
   <g id="patch_34">
    <path d="M 19.352468 55.44 
L 21.101685 55.44 
L 21.101685 19.611429 
L 19.352468 19.611429 
z
" clip-path="url(#pe8a3d1cd88)" style="fill: #7a68a6; opacity: 0.5"/>
   </g>
   <g id="patch_35">
    <path d="M 21.101685 55.44 
L 22.850901 55.44 
L 22.850901 25.268571 
L 21.101685 25.268571 
z
" clip-path="url(#pe8a3d1cd88)" style="fill: #7a68a6; opacity: 0.5"/>
   </g>
   <g id="patch_36">
    <path d="M 22.850901 55.44 
L 24.600117 55.44 
L 24.600117 46.954286 
L 22.850901 46.954286 
z
" clip-path="url(#pe8a3d1cd88)" style="fill: #7a68a6; opacity: 0.5"/>
   </g>
   <g id="patch_37">
    <path d="M 24.600117 55.44 
L 26.349334 55.44 
L 26.349334 54.497143 
L 24.600117 54.497143 
z
" clip-path="url(#pe8a3d1cd88)" style="fill: #7a68a6; opacity: 0.5"/>
   </g>
   <g id="patch_38">
    <path d="M 26.349334 55.44 
L 28.09855 55.44 
L 28.09855 52.611429 
L 26.349334 52.611429 
z
" clip-path="url(#pe8a3d1cd88)" style="fill: #7a68a6; opacity: 0.5"/>
   </g>
   <g id="patch_39">
    <path d="M 28.09855 55.44 
L 29.847766 55.44 
L 29.847766 54.497143 
L 28.09855 54.497143 
z
" clip-path="url(#pe8a3d1cd88)" style="fill: #7a68a6; opacity: 0.5"/>
   </g>
   <g id="patch_40">
    <path d="M 29.847766 55.44 
L 31.596983 55.44 
L 31.596983 52.611429 
L 29.847766 52.611429 
z
" clip-path="url(#pe8a3d1cd88)" style="fill: #7a68a6; opacity: 0.5"/>
   </g>
   <g id="patch_41">
    <path d="M 31.596983 55.44 
L 33.346199 55.44 
L 33.346199 53.554286 
L 31.596983 53.554286 
z
" clip-path="url(#pe8a3d1cd88)" style="fill: #7a68a6; opacity: 0.5"/>
   </g>
   <g id="patch_42">
    <path d="M 33.346199 55.44 
L 35.095415 55.44 
L 35.095415 55.44 
L 33.346199 55.44 
z
" clip-path="url(#pe8a3d1cd88)" style="fill: #7a68a6; opacity: 0.5"/>
   </g>
   <g id="patch_43">
    <path d="M 35.095415 55.44 
L 36.844632 55.44 
L 36.844632 55.44 
L 35.095415 55.44 
z
" clip-path="url(#pe8a3d1cd88)" style="fill: #7a68a6; opacity: 0.5"/>
   </g>
   <g id="patch_44">
    <path d="M 36.844632 55.44 
L 38.593848 55.44 
L 38.593848 55.44 
L 36.844632 55.44 
z
" clip-path="url(#pe8a3d1cd88)" style="fill: #7a68a6; opacity: 0.5"/>
   </g>
   <g id="patch_45">
    <path d="M 38.593848 55.44 
L 40.343064 55.44 
L 40.343064 55.44 
L 38.593848 55.44 
z
" clip-path="url(#pe8a3d1cd88)" style="fill: #7a68a6; opacity: 0.5"/>
   </g>
   <g id="patch_46">
    <path d="M 40.343064 55.44 
L 42.09228 55.44 
L 42.09228 55.44 
L 40.343064 55.44 
z
" clip-path="url(#pe8a3d1cd88)" style="fill: #7a68a6; opacity: 0.5"/>
   </g>
   <g id="patch_47">
    <path d="M 42.09228 55.44 
L 43.841497 55.44 
L 43.841497 54.497143 
L 42.09228 54.497143 
z
" clip-path="url(#pe8a3d1cd88)" style="fill: #7a68a6; opacity: 0.5"/>
   </g>
   <g id="patch_48">
    <path d="M 43.841497 55.44 
L 45.590713 55.44 
L 45.590713 54.497143 
L 43.841497 54.497143 
z
" clip-path="url(#pe8a3d1cd88)" style="fill: #7a68a6; opacity: 0.5"/>
   </g>
   <g id="patch_49">
    <path d="M 45.590713 55.44 
L 47.339929 55.44 
L 47.339929 54.497143 
L 45.590713 54.497143 
z
" clip-path="url(#pe8a3d1cd88)" style="fill: #7a68a6; opacity: 0.5"/>
   </g>
   <g id="patch_50">
    <path d="M 47.339929 55.44 
L 49.089146 55.44 
L 49.089146 55.44 
L 47.339929 55.44 
z
" clip-path="url(#pe8a3d1cd88)" style="fill: #7a68a6; opacity: 0.5"/>
   </g>
   <g id="patch_51">
    <path d="M 49.089146 55.44 
L 50.838362 55.44 
L 50.838362 55.44 
L 49.089146 55.44 
z
" clip-path="url(#pe8a3d1cd88)" style="fill: #7a68a6; opacity: 0.5"/>
   </g>
   <g id="patch_52">
    <path d="M 50.838362 55.44 
L 52.587578 55.44 
L 52.587578 55.44 
L 50.838362 55.44 
z
" clip-path="url(#pe8a3d1cd88)" style="fill: #7a68a6; opacity: 0.5"/>
   </g>
   <g id="patch_53">
    <path d="M 52.587578 55.44 
L 54.336795 55.44 
L 54.336795 55.44 
L 52.587578 55.44 
z
" clip-path="url(#pe8a3d1cd88)" style="fill: #7a68a6; opacity: 0.5"/>
   </g>
   <g id="patch_54">
    <path d="M 54.336795 55.44 
L 56.086011 55.44 
L 56.086011 55.44 
L 54.336795 55.44 
z
" clip-path="url(#pe8a3d1cd88)" style="fill: #7a68a6; opacity: 0.5"/>
   </g>
   <g id="patch_55">
    <path d="M 56.086011 55.44 
L 57.835227 55.44 
L 57.835227 54.497143 
L 56.086011 54.497143 
z
" clip-path="url(#pe8a3d1cd88)" style="fill: #7a68a6; opacity: 0.5"/>
   </g>
   <g id="patch_56">
    <path d="M 57.835227 55.44 
L 59.584443 55.44 
L 59.584443 55.44 
L 57.835227 55.44 
z
" clip-path="url(#pe8a3d1cd88)" style="fill: #7a68a6; opacity: 0.5"/>
   </g>
   <g id="patch_57">
    <path d="M 59.584443 55.44 
L 61.33366 55.44 
L 61.33366 55.44 
L 59.584443 55.44 
z
" clip-path="url(#pe8a3d1cd88)" style="fill: #7a68a6; opacity: 0.5"/>
   </g>
   <g id="patch_58">
    <path d="M 61.33366 55.44 
L 63.082876 55.44 
L 63.082876 54.497143 
L 61.33366 54.497143 
z
" clip-path="url(#pe8a3d1cd88)" style="fill: #7a68a6; opacity: 0.5"/>
   </g>
   <g id="patch_59">
    <path d="M 63.082876 55.44 
L 64.832092 55.44 
L 64.832092 54.497143 
L 63.082876 54.497143 
z
" clip-path="url(#pe8a3d1cd88)" style="fill: #7a68a6; opacity: 0.5"/>
   </g>
   <g id="patch_60">
    <path d="M 64.832092 55.44 
L 66.581309 55.44 
L 66.581309 54.497143 
L 64.832092 54.497143 
z
" clip-path="url(#pe8a3d1cd88)" style="fill: #7a68a6; opacity: 0.5"/>
   </g>
   <g id="patch_61">
    <path d="M 13.317672 55.44 
L 13.317672 -0 
" style="fill: none; stroke: #000000; stroke-width: 0.8; stroke-linejoin: miter; stroke-linecap: square"/>
   </g>
   <g id="patch_62">
    <path d="M 13.317672 55.44 
L 69.117672 55.44 
" style="fill: none; stroke: #000000; stroke-width: 0.8; stroke-linejoin: miter; stroke-linecap: square"/>
   </g>
  </g>
 </g>
 <defs>
  <clipPath id="pe8a3d1cd88">
   <rect x="13.317672" y="0" width="55.8" height="55.44"/>
  </clipPath>
 </defs>
</svg>
