<?xml version="1.0" encoding="utf-8" standalone="no"?>
<!DOCTYPE svg PUBLIC "-//W3C//DTD SVG 1.1//EN"
  "http://www.w3.org/Graphics/SVG/1.1/DTD/svg11.dtd">
<svg xmlns:xlink="http://www.w3.org/1999/xlink" width="78.087784pt" height="76.286883pt" viewBox="0 0 78.087784 76.286883" xmlns="http://www.w3.org/2000/svg" version="1.1">
 <metadata>
  <rdf:RDF xmlns:dc="http://purl.org/dc/elements/1.1/" xmlns:cc="http://creativecommons.org/ns#" xmlns:rdf="http://www.w3.org/1999/02/22-rdf-syntax-ns#">
   <cc:Work>
    <dc:type rdf:resource="http://purl.org/dc/dcmitype/StillImage"/>
    <dc:date>2023-02-23T15:33:45.642016</dc:date>
    <dc:format>image/svg+xml</dc:format>
    <dc:creator>
     <cc:Agent>
      <dc:title>Matplotlib v3.6.2, https://matplotlib.org/</dc:title>
     </cc:Agent>
    </dc:creator>
   </cc:Work>
  </rdf:RDF>
 </metadata>
 <defs>
  <style type="text/css">*{stroke-linejoin: round; stroke-linecap: butt}</style>
 </defs>
 <g id="figure_1">
  <g id="patch_1">
   <path d="M 0 76.286883 
L 78.087784 76.286883 
L 78.087784 0 
L 0 0 
L 0 76.286883 
z
" style="fill: none"/>
  </g>
  <g id="axes_1">
   <g id="patch_2">
    <path d="M 22.287784 55.44 
L 78.087784 55.44 
L 78.087784 0 
L 22.287784 0 
L 22.287784 55.44 
z
" style="fill: none"/>
   </g>
   <g id="matplotlib.axis_1">
    <g id="xtick_1">
     <g id="line2d_1">
      <defs>
       <path id="m0a1e5ac413" d="M 0 0 
L 0 3.5 
" style="stroke: #000000; stroke-width: 0.8"/>
      </defs>
      <g>
       <use xlink:href="#m0a1e5ac413" x="33.278693" y="55.44" style="stroke: #000000; stroke-width: 0.8"/>
      </g>
     </g>
     <g id="text_1">
      <!-- $\mathdefault{0}$ -->
      <g transform="translate(31.074275 65.703102) scale(0.0833 -0.0833)">
       <defs>
        <path id="CMR17-30" d="M 2688 2038 
C 2688 2430 2682 3099 2413 3613 
C 2176 4063 1798 4224 1466 4224 
C 1158 4224 768 4082 525 3620 
C 269 3137 243 2539 243 2038 
C 243 1671 250 1112 448 623 
C 723 -39 1216 -128 1466 -128 
C 1760 -128 2208 -7 2470 604 
C 2662 1048 2688 1568 2688 2038 
z
M 1466 -26 
C 1056 -26 813 328 723 816 
C 653 1196 653 1749 653 2109 
C 653 2604 653 3015 736 3407 
C 858 3954 1216 4121 1466 4121 
C 1728 4121 2067 3947 2189 3420 
C 2272 3054 2278 2623 2278 2109 
C 2278 1691 2278 1176 2202 797 
C 2067 96 1690 -26 1466 -26 
z
" transform="scale(0.015625)"/>
       </defs>
       <use xlink:href="#CMR17-30" transform="scale(0.996264)"/>
      </g>
     </g>
    </g>
    <g id="xtick_2">
     <g id="line2d_2">
      <g>
       <use xlink:href="#m0a1e5ac413" x="75.551421" y="55.44" style="stroke: #000000; stroke-width: 0.8"/>
      </g>
     </g>
     <g id="text_2">
      <!-- $\mathdefault{1}$ -->
      <g transform="translate(73.347003 65.703102) scale(0.0833 -0.0833)">
       <defs>
        <path id="CMR17-31" d="M 1702 4083 
C 1702 4217 1696 4224 1606 4224 
C 1357 3927 979 3833 621 3820 
C 602 3820 570 3820 563 3808 
C 557 3795 557 3782 557 3648 
C 755 3648 1088 3686 1344 3839 
L 1344 467 
C 1344 243 1331 166 781 166 
L 589 166 
L 589 0 
C 896 6 1216 12 1523 12 
C 1830 12 2150 6 2458 0 
L 2458 166 
L 2266 166 
C 1715 166 1702 236 1702 467 
L 1702 4083 
z
" transform="scale(0.015625)"/>
       </defs>
       <use xlink:href="#CMR17-31" transform="scale(0.996264)"/>
      </g>
     </g>
    </g>
    <g id="text_3">
     <!-- A $\cdot$ A' -->
     <g transform="translate(37.646025 74.543421) scale(0.09 -0.09)">
      <defs>
       <path id="CMR17-41" d="M 2323 4441 
C 2291 4524 2278 4544 2214 4544 
C 2150 4544 2138 4524 2106 4441 
L 749 580 
C 627 236 371 166 147 166 
L 147 0 
C 262 12 518 12 640 12 
C 800 12 1056 12 1210 0 
L 1210 166 
C 909 179 864 382 864 459 
C 864 516 877 548 890 586 
L 1229 1536 
L 2906 1536 
L 3290 453 
C 3322 376 3322 363 3322 338 
C 3322 166 3046 166 2925 166 
L 2925 0 
C 3110 12 3443 12 3642 12 
C 3808 12 4128 12 4282 0 
L 4282 166 
C 3942 166 3827 166 3744 402 
L 2323 4441 
z
M 2067 3924 
L 2848 1702 
L 1286 1702 
L 2067 3924 
z
" transform="scale(0.015625)"/>
       <path id="CMSY10-1" d="M 1229 1619 
C 1229 1804 1075 1958 890 1958 
C 704 1958 550 1804 550 1619 
C 550 1433 704 1280 890 1280 
C 1075 1280 1229 1433 1229 1619 
z
" transform="scale(0.015625)"/>
       <path id="CMR17-27" d="M 1024 4012 
C 1037 3942 1043 3916 1043 3810 
C 1043 3418 883 3058 634 2803 
C 608 2777 595 2758 595 2732 
C 595 2707 621 2681 646 2681 
C 691 2681 1146 3120 1146 3804 
C 1146 3942 1133 4416 800 4416 
C 659 4416 538 4319 538 4153 
C 538 3987 659 3891 800 3891 
C 858 3891 966 3910 1024 4012 
z
" transform="scale(0.015625)"/>
      </defs>
      <use xlink:href="#CMR17-41" transform="scale(0.996264)"/>
      <use xlink:href="#CMSY10-1" transform="translate(99.148396 0) scale(0.996264)"/>
      <use xlink:href="#CMR17-41" transform="translate(156.898447 0) scale(0.996264)"/>
      <use xlink:href="#CMR17-27" transform="translate(225.970877 0) scale(0.996264)"/>
     </g>
    </g>
   </g>
   <g id="matplotlib.axis_2">
    <g id="ytick_1">
     <g id="line2d_3">
      <defs>
       <path id="mf15924dc70" d="M 0 0 
L -3.5 0 
" style="stroke: #000000; stroke-width: 0.8"/>
      </defs>
      <g>
       <use xlink:href="#mf15924dc70" x="22.287784" y="55.44" style="stroke: #000000; stroke-width: 0.8"/>
      </g>
     </g>
     <g id="text_4">
      <!-- $\mathdefault{0}$ -->
      <g transform="translate(13.378948 58.321551) scale(0.0833 -0.0833)">
       <use xlink:href="#CMR17-30" transform="scale(0.996264)"/>
      </g>
     </g>
    </g>
    <g id="ytick_2">
     <g id="line2d_4">
      <g>
       <use xlink:href="#mf15924dc70" x="22.287784" y="33.591724" style="stroke: #000000; stroke-width: 0.8"/>
      </g>
     </g>
     <g id="text_5">
      <!-- $\mathdefault{10}$ -->
      <g transform="translate(8.970112 36.473275) scale(0.0833 -0.0833)">
       <use xlink:href="#CMR17-31" transform="scale(0.996264)"/>
       <use xlink:href="#CMR17-30" transform="translate(45.690477 0) scale(0.996264)"/>
      </g>
     </g>
    </g>
    <g id="ytick_3">
     <g id="line2d_5">
      <g>
       <use xlink:href="#mf15924dc70" x="22.287784" y="11.743448" style="stroke: #000000; stroke-width: 0.8"/>
      </g>
     </g>
     <g id="text_6">
      <!-- $\mathdefault{20}$ -->
      <g transform="translate(8.970112 14.624999) scale(0.0833 -0.0833)">
       <defs>
        <path id="CMR17-32" d="M 2669 990 
L 2554 990 
C 2490 537 2438 460 2413 422 
C 2381 371 1920 371 1830 371 
L 602 371 
C 832 620 1280 1073 1824 1596 
C 2214 1966 2669 2400 2669 3033 
C 2669 3788 2067 4224 1395 4224 
C 691 4224 262 3603 262 3027 
C 262 2777 448 2745 525 2745 
C 589 2745 781 2783 781 3007 
C 781 3206 614 3264 525 3264 
C 486 3264 448 3257 422 3244 
C 544 3788 915 4057 1306 4057 
C 1862 4057 2227 3616 2227 3033 
C 2227 2477 1901 1998 1536 1583 
L 262 147 
L 262 0 
L 2515 0 
L 2669 990 
z
" transform="scale(0.015625)"/>
       </defs>
       <use xlink:href="#CMR17-32" transform="scale(0.996264)"/>
       <use xlink:href="#CMR17-30" transform="translate(45.690477 0) scale(0.996264)"/>
      </g>
     </g>
    </g>
    <g id="text_7">
     <!-- Density -->
     <g transform="translate(6.22665 43.041945) rotate(-90) scale(0.09 -0.09)">
      <defs>
       <path id="CMR17-44" d="M 333 4352 
L 333 4185 
C 774 4185 845 4185 845 3898 
L 845 453 
C 845 166 774 166 333 166 
L 333 0 
L 2368 0 
C 3398 0 4224 943 4224 2140 
C 4224 3344 3411 4352 2368 4352 
L 333 4352 
z
M 1523 166 
C 1267 166 1254 198 1254 414 
L 1254 3936 
C 1254 4153 1267 4185 1523 4185 
L 2240 4185 
C 2771 4185 3750 3873 3750 2140 
C 3750 1242 3488 879 3366 707 
C 3213 510 2848 166 2240 166 
L 1523 166 
z
" transform="scale(0.015625)"/>
       <path id="CMR17-65" d="M 2438 1503 
C 2464 1529 2464 1542 2464 1606 
C 2464 2251 2118 2816 1389 2816 
C 710 2816 173 2175 173 1394 
C 173 554 781 -64 1459 -64 
C 2176 -64 2458 619 2458 755 
C 2458 800 2419 800 2406 800 
C 2362 800 2355 787 2330 709 
C 2189 270 1837 51 1504 51 
C 1229 51 954 206 781 490 
C 582 819 582 1200 582 1503 
L 2438 1503 
z
M 589 1600 
C 634 2511 1126 2713 1382 2713 
C 1818 2713 2112 2308 2118 1600 
L 589 1600 
z
" transform="scale(0.015625)"/>
       <path id="CMR17-6e" d="M 2656 1954 
C 2656 2282 2592 2816 1837 2816 
C 1331 2816 1069 2424 973 2166 
L 966 2166 
L 966 2816 
L 211 2745 
L 211 2578 
C 589 2578 646 2540 646 2231 
L 646 443 
C 646 198 621 166 211 166 
L 211 0 
C 365 12 646 12 813 12 
C 979 12 1267 12 1421 0 
L 1421 166 
C 1011 166 986 192 986 443 
L 986 1678 
C 986 2269 1344 2713 1792 2713 
C 2266 2713 2317 2289 2317 1980 
L 2317 443 
C 2317 198 2291 166 1882 166 
L 1882 0 
C 2035 12 2317 12 2483 12 
C 2650 12 2938 12 3091 0 
L 3091 166 
C 2682 166 2656 192 2656 443 
L 2656 1954 
z
" transform="scale(0.015625)"/>
       <path id="CMR17-73" d="M 1978 2688 
C 1978 2803 1971 2809 1933 2809 
C 1907 2809 1901 2803 1824 2707 
C 1805 2681 1747 2617 1728 2592 
C 1523 2809 1235 2816 1126 2816 
C 416 2816 160 2444 160 2073 
C 160 1497 813 1363 998 1324 
C 1402 1241 1542 1216 1677 1100 
C 1760 1024 1901 883 1901 652 
C 1901 384 1747 38 1158 38 
C 602 38 403 460 288 1024 
C 269 1113 269 1120 218 1120 
C 166 1120 160 1113 160 985 
L 160 64 
C 160 -52 166 -58 205 -58 
C 237 -58 243 -52 275 0 
C 314 57 410 211 448 275 
C 576 102 800 -64 1158 -64 
C 1792 -64 2131 281 2131 780 
C 2131 1107 1958 1280 1875 1356 
C 1683 1555 1459 1600 1190 1651 
C 838 1728 390 1817 390 2208 
C 390 2374 480 2726 1126 2726 
C 1811 2726 1850 2086 1862 1881 
C 1869 1849 1901 1843 1920 1843 
C 1978 1843 1978 1862 1978 1971 
L 1978 2688 
z
" transform="scale(0.015625)"/>
       <path id="CMR17-69" d="M 992 3961 
C 992 4102 877 4224 730 4224 
C 589 4224 467 4108 467 3961 
C 467 3820 582 3699 730 3699 
C 870 3699 992 3814 992 3961 
z
M 243 2745 
L 243 2579 
C 602 2579 653 2540 653 2231 
L 653 443 
C 653 198 627 166 218 166 
L 218 0 
C 371 12 646 12 806 12 
C 960 12 1222 12 1370 0 
L 1370 166 
C 992 166 979 205 979 436 
L 979 2816 
L 243 2745 
z
" transform="scale(0.015625)"/>
       <path id="CMR17-74" d="M 966 2585 
L 1862 2585 
L 1862 2752 
L 966 2752 
L 966 3968 
L 851 3968 
C 838 3292 614 2700 70 2687 
L 70 2585 
L 627 2585 
L 627 778 
C 627 655 627 -64 1370 -64 
C 1747 -64 1965 308 1965 784 
L 1965 1151 
L 1850 1151 
L 1850 790 
C 1850 347 1677 51 1408 51 
C 1222 51 966 179 966 765 
L 966 2585 
z
" transform="scale(0.015625)"/>
       <path id="CMR17-79" d="M 2496 2183 
C 2656 2579 2944 2585 3034 2585 
L 3034 2752 
C 2912 2745 2752 2739 2630 2739 
C 2496 2739 2285 2739 2157 2752 
L 2157 2585 
C 2400 2566 2406 2384 2406 2332 
C 2406 2268 2394 2235 2362 2158 
L 1664 409 
L 902 2300 
C 870 2378 870 2423 870 2430 
C 870 2572 1018 2585 1171 2585 
L 1171 2752 
C 1018 2739 742 2739 582 2739 
C 410 2739 205 2739 64 2752 
L 64 2585 
C 410 2585 448 2553 531 2345 
L 1485 -31 
C 1197 -795 1030 -1242 627 -1242 
C 557 -1242 397 -1223 282 -1106 
C 429 -1093 493 -1002 493 -892 
C 493 -782 416 -685 288 -685 
C 147 -685 77 -782 77 -899 
C 77 -1158 339 -1344 627 -1344 
C 998 -1344 1229 -983 1357 -659 
L 2496 2183 
z
" transform="scale(0.015625)"/>
      </defs>
      <use xlink:href="#CMR17-44" transform="scale(0.996264)"/>
      <use xlink:href="#CMR17-65" transform="translate(70.393556 0) scale(0.996264)"/>
      <use xlink:href="#CMR17-6e" transform="translate(110.879216 0) scale(0.996264)"/>
      <use xlink:href="#CMR17-73" transform="translate(161.774586 0) scale(0.996264)"/>
      <use xlink:href="#CMR17-69" transform="translate(197.575924 0) scale(0.996264)"/>
      <use xlink:href="#CMR17-74" transform="translate(222.446982 0) scale(0.996264)"/>
      <use xlink:href="#CMR17-79" transform="translate(255.125296 0) scale(0.996264)"/>
     </g>
    </g>
   </g>
   <g id="patch_3">
    <path d="M 24.824148 55.44 
L 26.573364 55.44 
L 26.573364 55.44 
L 24.824148 55.44 
z
" clip-path="url(#p30a32aa557)" style="fill: #348abd; opacity: 0.5"/>
   </g>
   <g id="patch_4">
    <path d="M 26.573364 55.44 
L 28.322581 55.44 
L 28.322581 55.44 
L 26.573364 55.44 
z
" clip-path="url(#p30a32aa557)" style="fill: #348abd; opacity: 0.5"/>
   </g>
   <g id="patch_5">
    <path d="M 28.322581 55.44 
L 30.071797 55.44 
L 30.071797 55.44 
L 28.322581 55.44 
z
" clip-path="url(#p30a32aa557)" style="fill: #348abd; opacity: 0.5"/>
   </g>
   <g id="patch_6">
    <path d="M 30.071797 55.44 
L 31.821013 55.44 
L 31.821013 55.44 
L 30.071797 55.44 
z
" clip-path="url(#p30a32aa557)" style="fill: #348abd; opacity: 0.5"/>
   </g>
   <g id="patch_7">
    <path d="M 31.821013 55.44 
L 33.570229 55.44 
L 33.570229 55.44 
L 31.821013 55.44 
z
" clip-path="url(#p30a32aa557)" style="fill: #348abd; opacity: 0.5"/>
   </g>
   <g id="patch_8">
    <path d="M 33.570229 55.44 
L 35.319446 55.44 
L 35.319446 55.44 
L 33.570229 55.44 
z
" clip-path="url(#p30a32aa557)" style="fill: #348abd; opacity: 0.5"/>
   </g>
   <g id="patch_9">
    <path d="M 35.319446 55.44 
L 37.068662 55.44 
L 37.068662 55.44 
L 35.319446 55.44 
z
" clip-path="url(#p30a32aa557)" style="fill: #348abd; opacity: 0.5"/>
   </g>
   <g id="patch_10">
    <path d="M 37.068662 55.44 
L 38.817878 55.44 
L 38.817878 55.44 
L 37.068662 55.44 
z
" clip-path="url(#p30a32aa557)" style="fill: #348abd; opacity: 0.5"/>
   </g>
   <g id="patch_11">
    <path d="M 38.817878 55.44 
L 40.567095 55.44 
L 40.567095 55.44 
L 38.817878 55.44 
z
" clip-path="url(#p30a32aa557)" style="fill: #348abd; opacity: 0.5"/>
   </g>
   <g id="patch_12">
    <path d="M 40.567095 55.44 
L 42.316311 55.44 
L 42.316311 55.44 
L 40.567095 55.44 
z
" clip-path="url(#p30a32aa557)" style="fill: #348abd; opacity: 0.5"/>
   </g>
   <g id="patch_13">
    <path d="M 42.316311 55.44 
L 44.065527 55.44 
L 44.065527 55.44 
L 42.316311 55.44 
z
" clip-path="url(#p30a32aa557)" style="fill: #348abd; opacity: 0.5"/>
   </g>
   <g id="patch_14">
    <path d="M 44.065527 55.44 
L 45.814744 55.44 
L 45.814744 55.44 
L 44.065527 55.44 
z
" clip-path="url(#p30a32aa557)" style="fill: #348abd; opacity: 0.5"/>
   </g>
   <g id="patch_15">
    <path d="M 45.814744 55.44 
L 47.56396 55.44 
L 47.56396 55.44 
L 45.814744 55.44 
z
" clip-path="url(#p30a32aa557)" style="fill: #348abd; opacity: 0.5"/>
   </g>
   <g id="patch_16">
    <path d="M 47.56396 55.44 
L 49.313176 55.44 
L 49.313176 55.44 
L 47.56396 55.44 
z
" clip-path="url(#p30a32aa557)" style="fill: #348abd; opacity: 0.5"/>
   </g>
   <g id="patch_17">
    <path d="M 49.313176 55.44 
L 51.062392 55.44 
L 51.062392 55.44 
L 49.313176 55.44 
z
" clip-path="url(#p30a32aa557)" style="fill: #348abd; opacity: 0.5"/>
   </g>
   <g id="patch_18">
    <path d="M 51.062392 55.44 
L 52.811609 55.44 
L 52.811609 55.44 
L 51.062392 55.44 
z
" clip-path="url(#p30a32aa557)" style="fill: #348abd; opacity: 0.5"/>
   </g>
   <g id="patch_19">
    <path d="M 52.811609 55.44 
L 54.560825 55.44 
L 54.560825 55.44 
L 52.811609 55.44 
z
" clip-path="url(#p30a32aa557)" style="fill: #348abd; opacity: 0.5"/>
   </g>
   <g id="patch_20">
    <path d="M 54.560825 55.44 
L 56.310041 55.44 
L 56.310041 55.44 
L 54.560825 55.44 
z
" clip-path="url(#p30a32aa557)" style="fill: #348abd; opacity: 0.5"/>
   </g>
   <g id="patch_21">
    <path d="M 56.310041 55.44 
L 58.059258 55.44 
L 58.059258 55.44 
L 56.310041 55.44 
z
" clip-path="url(#p30a32aa557)" style="fill: #348abd; opacity: 0.5"/>
   </g>
   <g id="patch_22">
    <path d="M 58.059258 55.44 
L 59.808474 55.44 
L 59.808474 55.44 
L 58.059258 55.44 
z
" clip-path="url(#p30a32aa557)" style="fill: #348abd; opacity: 0.5"/>
   </g>
   <g id="patch_23">
    <path d="M 59.808474 55.44 
L 61.55769 55.44 
L 61.55769 55.44 
L 59.808474 55.44 
z
" clip-path="url(#p30a32aa557)" style="fill: #348abd; opacity: 0.5"/>
   </g>
   <g id="patch_24">
    <path d="M 61.55769 55.44 
L 63.306907 55.44 
L 63.306907 55.44 
L 61.55769 55.44 
z
" clip-path="url(#p30a32aa557)" style="fill: #348abd; opacity: 0.5"/>
   </g>
   <g id="patch_25">
    <path d="M 63.306907 55.44 
L 65.056123 55.44 
L 65.056123 55.44 
L 63.306907 55.44 
z
" clip-path="url(#p30a32aa557)" style="fill: #348abd; opacity: 0.5"/>
   </g>
   <g id="patch_26">
    <path d="M 65.056123 55.44 
L 66.805339 55.44 
L 66.805339 55.44 
L 65.056123 55.44 
z
" clip-path="url(#p30a32aa557)" style="fill: #348abd; opacity: 0.5"/>
   </g>
   <g id="patch_27">
    <path d="M 66.805339 55.44 
L 68.554555 55.44 
L 68.554555 55.44 
L 66.805339 55.44 
z
" clip-path="url(#p30a32aa557)" style="fill: #348abd; opacity: 0.5"/>
   </g>
   <g id="patch_28">
    <path d="M 68.554555 55.44 
L 70.303772 55.44 
L 70.303772 55.44 
L 68.554555 55.44 
z
" clip-path="url(#p30a32aa557)" style="fill: #348abd; opacity: 0.5"/>
   </g>
   <g id="patch_29">
    <path d="M 70.303772 55.44 
L 72.052988 55.44 
L 72.052988 55.44 
L 70.303772 55.44 
z
" clip-path="url(#p30a32aa557)" style="fill: #348abd; opacity: 0.5"/>
   </g>
   <g id="patch_30">
    <path d="M 72.052988 55.44 
L 73.802204 55.44 
L 73.802204 55.44 
L 72.052988 55.44 
z
" clip-path="url(#p30a32aa557)" style="fill: #348abd; opacity: 0.5"/>
   </g>
   <g id="patch_31">
    <path d="M 73.802204 55.44 
L 75.551421 55.44 
L 75.551421 2.64 
L 73.802204 2.64 
z
" clip-path="url(#p30a32aa557)" style="fill: #348abd; opacity: 0.5"/>
   </g>
   <g id="patch_32">
    <path d="M 24.824148 55.44 
L 26.573364 55.44 
L 26.573364 55.44 
L 24.824148 55.44 
z
" clip-path="url(#p30a32aa557)" style="fill: #7a68a6; opacity: 0.5"/>
   </g>
   <g id="patch_33">
    <path d="M 26.573364 55.44 
L 28.322581 55.44 
L 28.322581 49.908571 
L 26.573364 49.908571 
z
" clip-path="url(#p30a32aa557)" style="fill: #7a68a6; opacity: 0.5"/>
   </g>
   <g id="patch_34">
    <path d="M 28.322581 55.44 
L 30.071797 55.44 
L 30.071797 37.84 
L 28.322581 37.84 
z
" clip-path="url(#p30a32aa557)" style="fill: #7a68a6; opacity: 0.5"/>
   </g>
   <g id="patch_35">
    <path d="M 30.071797 55.44 
L 31.821013 55.44 
L 31.821013 33.817143 
L 30.071797 33.817143 
z
" clip-path="url(#p30a32aa557)" style="fill: #7a68a6; opacity: 0.5"/>
   </g>
   <g id="patch_36">
    <path d="M 31.821013 55.44 
L 33.570229 55.44 
L 33.570229 53.931429 
L 31.821013 53.931429 
z
" clip-path="url(#p30a32aa557)" style="fill: #7a68a6; opacity: 0.5"/>
   </g>
   <g id="patch_37">
    <path d="M 33.570229 55.44 
L 35.319446 55.44 
L 35.319446 55.44 
L 33.570229 55.44 
z
" clip-path="url(#p30a32aa557)" style="fill: #7a68a6; opacity: 0.5"/>
   </g>
   <g id="patch_38">
    <path d="M 35.319446 55.44 
L 37.068662 55.44 
L 37.068662 54.937143 
L 35.319446 54.937143 
z
" clip-path="url(#p30a32aa557)" style="fill: #7a68a6; opacity: 0.5"/>
   </g>
   <g id="patch_39">
    <path d="M 37.068662 55.44 
L 38.817878 55.44 
L 38.817878 55.44 
L 37.068662 55.44 
z
" clip-path="url(#p30a32aa557)" style="fill: #7a68a6; opacity: 0.5"/>
   </g>
   <g id="patch_40">
    <path d="M 38.817878 55.44 
L 40.567095 55.44 
L 40.567095 54.434286 
L 38.817878 54.434286 
z
" clip-path="url(#p30a32aa557)" style="fill: #7a68a6; opacity: 0.5"/>
   </g>
   <g id="patch_41">
    <path d="M 40.567095 55.44 
L 42.316311 55.44 
L 42.316311 54.937143 
L 40.567095 54.937143 
z
" clip-path="url(#p30a32aa557)" style="fill: #7a68a6; opacity: 0.5"/>
   </g>
   <g id="patch_42">
    <path d="M 42.316311 55.44 
L 44.065527 55.44 
L 44.065527 54.937143 
L 42.316311 54.937143 
z
" clip-path="url(#p30a32aa557)" style="fill: #7a68a6; opacity: 0.5"/>
   </g>
   <g id="patch_43">
    <path d="M 44.065527 55.44 
L 45.814744 55.44 
L 45.814744 54.434286 
L 44.065527 54.434286 
z
" clip-path="url(#p30a32aa557)" style="fill: #7a68a6; opacity: 0.5"/>
   </g>
   <g id="patch_44">
    <path d="M 45.814744 55.44 
L 47.56396 55.44 
L 47.56396 53.931429 
L 45.814744 53.931429 
z
" clip-path="url(#p30a32aa557)" style="fill: #7a68a6; opacity: 0.5"/>
   </g>
   <g id="patch_45">
    <path d="M 47.56396 55.44 
L 49.313176 55.44 
L 49.313176 55.44 
L 47.56396 55.44 
z
" clip-path="url(#p30a32aa557)" style="fill: #7a68a6; opacity: 0.5"/>
   </g>
   <g id="patch_46">
    <path d="M 49.313176 55.44 
L 51.062392 55.44 
L 51.062392 55.44 
L 49.313176 55.44 
z
" clip-path="url(#p30a32aa557)" style="fill: #7a68a6; opacity: 0.5"/>
   </g>
   <g id="patch_47">
    <path d="M 51.062392 55.44 
L 52.811609 55.44 
L 52.811609 55.44 
L 51.062392 55.44 
z
" clip-path="url(#p30a32aa557)" style="fill: #7a68a6; opacity: 0.5"/>
   </g>
   <g id="patch_48">
    <path d="M 52.811609 55.44 
L 54.560825 55.44 
L 54.560825 54.937143 
L 52.811609 54.937143 
z
" clip-path="url(#p30a32aa557)" style="fill: #7a68a6; opacity: 0.5"/>
   </g>
   <g id="patch_49">
    <path d="M 54.560825 55.44 
L 56.310041 55.44 
L 56.310041 55.44 
L 54.560825 55.44 
z
" clip-path="url(#p30a32aa557)" style="fill: #7a68a6; opacity: 0.5"/>
   </g>
   <g id="patch_50">
    <path d="M 56.310041 55.44 
L 58.059258 55.44 
L 58.059258 55.44 
L 56.310041 55.44 
z
" clip-path="url(#p30a32aa557)" style="fill: #7a68a6; opacity: 0.5"/>
   </g>
   <g id="patch_51">
    <path d="M 58.059258 55.44 
L 59.808474 55.44 
L 59.808474 54.937143 
L 58.059258 54.937143 
z
" clip-path="url(#p30a32aa557)" style="fill: #7a68a6; opacity: 0.5"/>
   </g>
   <g id="patch_52">
    <path d="M 59.808474 55.44 
L 61.55769 55.44 
L 61.55769 55.44 
L 59.808474 55.44 
z
" clip-path="url(#p30a32aa557)" style="fill: #7a68a6; opacity: 0.5"/>
   </g>
   <g id="patch_53">
    <path d="M 61.55769 55.44 
L 63.306907 55.44 
L 63.306907 55.44 
L 61.55769 55.44 
z
" clip-path="url(#p30a32aa557)" style="fill: #7a68a6; opacity: 0.5"/>
   </g>
   <g id="patch_54">
    <path d="M 63.306907 55.44 
L 65.056123 55.44 
L 65.056123 55.44 
L 63.306907 55.44 
z
" clip-path="url(#p30a32aa557)" style="fill: #7a68a6; opacity: 0.5"/>
   </g>
   <g id="patch_55">
    <path d="M 65.056123 55.44 
L 66.805339 55.44 
L 66.805339 55.44 
L 65.056123 55.44 
z
" clip-path="url(#p30a32aa557)" style="fill: #7a68a6; opacity: 0.5"/>
   </g>
   <g id="patch_56">
    <path d="M 66.805339 55.44 
L 68.554555 55.44 
L 68.554555 54.937143 
L 66.805339 54.937143 
z
" clip-path="url(#p30a32aa557)" style="fill: #7a68a6; opacity: 0.5"/>
   </g>
   <g id="patch_57">
    <path d="M 68.554555 55.44 
L 70.303772 55.44 
L 70.303772 55.44 
L 68.554555 55.44 
z
" clip-path="url(#p30a32aa557)" style="fill: #7a68a6; opacity: 0.5"/>
   </g>
   <g id="patch_58">
    <path d="M 70.303772 55.44 
L 72.052988 55.44 
L 72.052988 55.44 
L 70.303772 55.44 
z
" clip-path="url(#p30a32aa557)" style="fill: #7a68a6; opacity: 0.5"/>
   </g>
   <g id="patch_59">
    <path d="M 72.052988 55.44 
L 73.802204 55.44 
L 73.802204 55.44 
L 72.052988 55.44 
z
" clip-path="url(#p30a32aa557)" style="fill: #7a68a6; opacity: 0.5"/>
   </g>
   <g id="patch_60">
    <path d="M 73.802204 55.44 
L 75.551421 55.44 
L 75.551421 55.44 
L 73.802204 55.44 
z
" clip-path="url(#p30a32aa557)" style="fill: #7a68a6; opacity: 0.5"/>
   </g>
   <g id="patch_61">
    <path d="M 22.287784 55.44 
L 22.287784 0 
" style="fill: none; stroke: #000000; stroke-width: 0.8; stroke-linejoin: miter; stroke-linecap: square"/>
   </g>
   <g id="patch_62">
    <path d="M 22.287784 55.44 
L 78.087784 55.44 
" style="fill: none; stroke: #000000; stroke-width: 0.8; stroke-linejoin: miter; stroke-linecap: square"/>
   </g>
  </g>
 </g>
 <defs>
  <clipPath id="p30a32aa557">
   <rect x="22.287784" y="0" width="55.8" height="55.44"/>
  </clipPath>
 </defs>
</svg>
