<?xml version="1.0" encoding="utf-8" standalone="no"?>
<!DOCTYPE svg PUBLIC "-//W3C//DTD SVG 1.1//EN"
  "http://www.w3.org/Graphics/SVG/1.1/DTD/svg11.dtd">
<svg xmlns:xlink="http://www.w3.org/1999/xlink" width="55.44pt" height="55.44pt" viewBox="0 0 55.44 55.44" xmlns="http://www.w3.org/2000/svg" version="1.1">
 <metadata>
  <rdf:RDF xmlns:dc="http://purl.org/dc/elements/1.1/" xmlns:cc="http://creativecommons.org/ns#" xmlns:rdf="http://www.w3.org/1999/02/22-rdf-syntax-ns#">
   <cc:Work>
    <dc:type rdf:resource="http://purl.org/dc/dcmitype/StillImage"/>
    <dc:date>2023-10-09T10:21:35.896751</dc:date>
    <dc:format>image/svg+xml</dc:format>
    <dc:creator>
     <cc:Agent>
      <dc:title>Matplotlib v3.7.1, https://matplotlib.org/</dc:title>
     </cc:Agent>
    </dc:creator>
   </cc:Work>
  </rdf:RDF>
 </metadata>
 <defs>
  <style type="text/css">*{stroke-linejoin: round; stroke-linecap: butt}</style>
 </defs>
 <g id="figure_1">
  <g id="patch_1">
   <path d="M 0 55.44 
L 55.44 55.44 
L 55.44 0 
L 0 0 
L 0 55.44 
z
" style="fill: none"/>
  </g>
  <g id="axes_1">
   <g id="line2d_1">
    <path d="M 30.662004 15.828659 
L 29.867091 14.842811 
L 28.746754 15.08198 
L 26.997883 15.780143 
L 25.593005 16.173307 
L 24.092817 16.728079 
L 23.162461 16.643605 
L 20.580964 17.747026 
L 18.780589 16.863331 
L 18.112901 16.296476 
L 16.569084 14.310926 
L 16.147353 13.201571 
L 15.925677 13.067299 
L 14.607044 12.124738 
L 13.718924 12.218465 
L 12.810693 12.763704 
L 12.390298 13.238818 
L 12.166553 14.772385 
L 11.979475 15.235211 
L 11.29262 16.007414 
L 12.045934 17.629487 
L 13.128452 18.115025 
L 13.429653 18.886435 
L 14.356296 20.172008 
L 14.093773 22.21848 
L 13.653783 22.787528 
L 11.434552 22.324542 
L 11.690161 24.272351 
L 11.670948 25.166347 
L 12.310622 26.330646 
L 13.058441 28.232177 
L 13.186015 29.202687 
L 12.742506 29.752193 
L 12.107304 30.762382 
L 11.570006 31.189362 
L 10.944703 31.072527 
L 11.557542 30.084856 
L 11.275706 29.0743 
L 11.314405 28.515668 
L 12.271456 27.348427 
L 13.536248 26.71876 
L 14.132313 25.73418 
L 14.515141 24.313654 
L 14.131359 24.258892 
L 13.107122 23.57556 
L 11.566853 23.199403 
L 11.077545 23.195366 
L 11.190722 23.687962 
L 10.91906 24.989908 
L 11.162513 26.322699 
L 11.017857 27.645196 
L 11.048201 28.418092 
L 11.281469 28.990324 
L 11.123778 30.253126 
L 11.70387 30.665499 
L 13.748393 33.329945 
L 13.477056 33.90471 
L 13.895183 35.240575 
L 13.476429 35.901874 
L 13.583203 36.629164 
L 14.153903 37.761651 
L 14.351179 38.74077 
L 14.2694 39.787587 
L 13.642224 41.415171 
L 13.443935 42.376797 
L 13.130795 42.79453 
L 11.442969 42.774154 
L 11.16838 44.280499 
L 11.331432 41.657095 
L 11.815342 41.079604 
L 14.911567 40.094922 
L 16.700145 41.113967 
L 17.56782 41.697602 
L 19.310679 42.435484 
L 19.720501 43.094629 
L 20.345279 43.244276 
L 21.165465 42.962577 
L 21.410637 42.295253 
L 21.222128 41.700685 
L 21.054889 40.776355 
L 21.602726 37.730114 
L 22.110198 36.766022 
L 23.012764 36.233963 
L 24.267127 35.777676 
L 24.514513 35.44719 
L 25.560718 34.919582 
L 28.191451 34.77325 
L 28.5504 32.502343 
L 29.823345 31.239976 
L 30.125316 30.449032 
L 30.1066 29.003984 
L 29.874287 28.027932 
L 29.425607 27.660563 
L 27.848347 25.195852 
L 27.097404 24.415741 
L 26.690166 23.036862 
L 26.848648 21.631556 
L 27.954373 20.111883 
L 28.447867 19.669473 
L 30.851809 19.645811 
L 32.23425 19.348434 
L 32.729378 19.092769 
L 34.407744 17.41159 
L 34.403298 16.908183 
L 34.237875 16.370733 
L 34.467349 16.062088 
L 35.028079 14.88436 
L 36.317751 14.292467 
L 37.879774 14.525956 
L 38.587942 14.902434 
L 39.407658 17.409471 
L 39.265201 17.945868 
L 39.357363 20.442876 
L 39.377443 21.46687 
L 38.542729 22.032665 
L 37.495379 22.386149 
L 36.588264 23.680736 
L 36.019728 24.978961 
L 36.640965 26.904308 
L 37.736808 27.745714 
L 38.940529 27.018521 
L 39.775108 24.535215 
L 39.969027 22.057837 
L 40.885329 20.273112 
L 41.565395 16.144517 
L 41.88824 15.67448 
L 42.599246 15.042606 
L 44.099403 14.07469 
L 44.499713 13.564848 
L 44.352565 11.700876 
L 40.43752 11.776081 
L 39.709124 12.611925 
L 38.598308 14.583662 
L 38.936513 15.38764 
L 38.68581 16.191077 
L 38.568624 17.108274 
L 38.047401 17.964624 
L 36.538371 18.526639 
L 35.405175 18.682452 
L 33.646482 17.816874 
L 31.148429 18.700374 
L 29.952279 19.431696 
L 28.269382 21.029085 
L 27.739957 21.988142 
L 27.139563 23.806631 
L 27.552159 24.81271 
L 27.220615 25.640369 
L 25.471752 27.30331 
L 25.514567 28.158614 
L 24.970391 29.123476 
L 25.554485 32.041958 
L 25.622106 33.65144 
L 25.070021 34.751093 
L 24.53221 36.29344 
L 23.712139 37.234429 
L 23.617276 38.062174 
L 21.755913 39.817874 
L 21.494881 40.419483 
L 21.250107 41.572511 
L 20.409299 42.150003 
L 20.448329 42.204073 
L 20.391156 43.88973 
L 20.279151 44.023564 
L 19.333231 44.460853 
L 18.399295 44.077585 
L 16.567478 44.448536 
L 16.037102 43.055292 
L 16.098922 41.68024 
L 15.185241 41.129869 
L 12.827396 40.418308 
L 11.813869 39.889656 
L 11.299576 39.887079 
L 10.978864 39.550365 
L 10.942889 38.540815 
L 11.99649 38.203368 
L 12.870535 38.075458 
L 14.660587 38.033709 
L 15.548423 38.173271 
L 16.422336 39.013489 
L 18.624755 40.296351 
L 19.876994 40.552675 
L 20.81697 40.230081 
L 21.676138 41.084284 
L 21.916858 41.93919 
L 21.869314 42.45604 
L 21.219662 42.918398 
L 20.601325 44.36464 
L 22.15278 44.251613 
L 24.850329 42.185756 
L 24.170366 40.591349 
L 23.876822 39.663655 
L 23.023389 38.991592 
L 22.897426 38.465725 
L 23.785437 37.224295 
L 23.913438 35.890371 
L 23.897685 34.746766 
L 23.265822 33.907644 
L 22.946375 33.710242 
L 22.052221 33.428173 
L 19.657252 32.838034 
L 18.46544 32.782366 
L 17.313271 32.294285 
L 16.319537 31.386449 
L 16.321171 30.431826 
L 16.437184 29.670943 
L 17.097977 28.605681 
L 18.535459 28.627652 
L 19.042546 28.06703 
L 20.865475 27.119738 
L 22.157027 27.151776 
L 23.710646 27.62335 
L 25.452504 28.913572 
L 26.092851 28.837357 
L 28.612096 28.923898 
L 29.746195 30.718048 
L 28.540774 32.548022 
L 28.899526 34.167468 
L 28.917399 35.255869 
L 29.383873 35.77285 
L 30.335541 36.101656 
L 31.77242 35.126534 
L 32.03945 35.364412 
L 32.364172 36.387793 
L 32.706698 36.970707 
L 35.813007 37.278039 
L 36.723965 37.255673 
L 37.644297 35.655941 
L 37.10436 34.014477 
L 36.755985 33.331444 
L 37.340692 31.850168 
L 37.60269 30.47222 
L 37.915376 28.330505 
L 37.063623 26.497602 
L 37.421335 25.015305 
L 38.543605 24.053222 
L 39.505226 22.295643 
L 39.827337 21.107971 
L 39.66876 20.338617 
L 40.578317 19.652691 
L 40.821543 18.361471 
L 41.774199 16.635107 
L 41.544051 16.140597 
L 41.580258 15.925299 
L 41.207959 15.222244 
L 40.519151 13.579294 
L 37.58437 12.137123 
L 37.056953 12.594264 
L 36.509891 13.359433 
L 36.417645 14.605441 
L 37.366285 18.097175 
L 38.014445 19.230496 
L 38.690067 20.179011 
L 39.486854 21.635248 
L 39.997588 22.072689 
L 41.655654 22.588464 
L 43.013917 22.714557 
L 44.462592 24.045663 
L 43.822316 25.194363 
L 43.250345 25.706364 
L 42.810731 26.384302 
L 41.066362 26.751315 
L 40.183777 27.208346 
L 38.805103 27.498507 
L 37.147865 28.291137 
L 36.100171 27.928008 
L 35.334122 28.013284 
L 33.79025 28.608317 
L 32.124008 30.316984 
L 31.491181 30.123686 
L 28.953978 30.038775 
L 28.299045 30.246732 
L 27.575727 29.735391 
L 26.735922 29.381514 
L 26.250721 28.541976 
L 25.136609 27.233287 
L 25.027522 26.29042 
L 25.081005 25.575358 
L 25.813241 23.311927 
L 25.806947 20.802104 
L 26.332742 20.400935 
L 24.944504 20.743968 
L 22.268136 21.006497 
L 21.609562 20.759672 
L 19.961394 21.118156 
L 19.411126 21.43603 
L 18.854143 22.049409 
L 18.038832 22.399266 
L 17.264478 22.84919 
L 15.728998 21.384563 
L 14.903238 21.156948 
L 14.522444 21.415672 
L 13.883494 21.409093 
L 13.231091 20.489899 
L 13.36079 19.430123 
L 12.9564 17.517268 
L 12.310613 16.238208 
L 12.14647 14.600167 
L 11.899774 13.888306 
L 12.059956 12.69057 
L 11.928521 11.269686 
L 13.284268 11.185184 
L 14.305047 10.943628 
L 16.279819 11.08517 
L 17.580051 11.715674 
L 19.709411 13.953666 
L 20.661172 13.873749 
L 22.090177 14.171845 
L 23.485009 13.896898 
L 25.210446 14.168194 
L 25.616951 14.055844 
L 26.257201 12.893525 
L 27.856113 12.460655 
L 29.136103 13.274754 
L 29.615351 13.420306 
L 30.573721 13.228753 
L 31.811045 12.299466 
L 32.508787 11.93055 
L 32.841449 11.348482 
L 33.182794 11.130129 
L 33.966085 10.932579 
L 34.560596 11.138291 
L 36.161802 11.541679 
L 38.041719 10.986844 
L 40.336816 11.506895 
L 41.180377 12.219235 
L 42.264597 12.572826 
L 43.3562 12.602182 
L 44.151999 14.18722 
L 44.257968 15.140853 
L 44.115122 16.627183 
L 42.828026 17.707903 
L 41.92658 19.098777 
L 41.629724 19.288476 
L 41.167651 20.350378 
L 40.092846 20.532005 
L 39.728908 20.866238 
L 39.448691 22.878329 
L 38.531211 23.669352 
L 35.59804 24.595707 
L 35.312862 24.395566 
L 35.399732 24.17299 
L 35.966007 23.646101 
L 36.162244 21.919711 
L 36.04573 21.509969 
L 34.837261 19.614313 
L 33.692464 16.40066 
L 31.502467 14.594614 
L 30.127095 13.679315 
L 29.806388 13.121965 
L 28.814244 12.974697 
L 27.935803 12.952076 
L 27.462679 12.807231 
L 25.446504 12.534375 
L 23.610956 12.380257 
L 23.286997 12.532702 
L 22.468316 13.061815 
L 21.005501 13.014301 
L 20.640984 12.772178 
L 20.478994 12.494771 
L 20.263145 12.347157 
L 21.065317 10.943358 
L 21.71362 11.334743 
L 23.417783 11.922868 
L 24.044713 12.059039 
L 24.353441 12.356563 
L 25.803482 13.237847 
L 26.164356 14.180015 
L 24.752194 15.668644 
L 23.775874 17.217585 
L 23.592905 18.629981 
L 23.430712 18.927385 
L 22.411055 18.701743 
L 21.18248 18.721418 
L 19.040253 18.502442 
L 18.604079 18.146868 
L 17.298052 17.912566 
L 15.812415 17.300821 
L 14.58706 16.588465 
L 14.043546 16.550282 
L 12.853399 16.763738 
L 12.460708 16.407284 
L 11.798085 16.276795 
L 11.730139 15.330626 
L 12.079685 13.081629 
L 12.994539 12.398222 
L 13.915156 11.391101 
L 14.952623 11.697848 
L 15.861721 12.535882 
L 15.861721 12.535882 
" clip-path="url(#p42fe9e0ea0)" style="fill: none; stroke: #000000; stroke-opacity: 0.7; stroke-width: 0.25; stroke-linecap: square"/>
   </g>
   <g id="line2d_2">
    <path d="M 44.521816 10.918184 
L 10.918184 10.918184 
" clip-path="url(#p42fe9e0ea0)" style="fill: none; stroke: #000000; stroke-width: 0.8; stroke-linecap: square"/>
   </g>
   <g id="line2d_3">
    <path d="M 10.918184 10.918184 
L 10.918184 44.521816 
" clip-path="url(#p42fe9e0ea0)" style="fill: none; stroke: #000000; stroke-width: 0.8; stroke-linecap: square"/>
   </g>
   <g id="line2d_4">
    <path d="M 10.918184 44.521816 
L 44.521816 44.521816 
" clip-path="url(#p42fe9e0ea0)" style="fill: none; stroke: #000000; stroke-width: 0.8; stroke-linecap: square"/>
   </g>
   <g id="line2d_5">
    <path d="M 44.521816 44.521816 
L 44.521816 10.918184 
" clip-path="url(#p42fe9e0ea0)" style="fill: none; stroke: #000000; stroke-width: 0.8; stroke-linecap: square"/>
   </g>
  </g>
 </g>
 <defs>
  <clipPath id="p42fe9e0ea0">
   <rect x="0" y="-0" width="55.44" height="55.44"/>
  </clipPath>
 </defs>
</svg>
