<?xml version="1.0" encoding="utf-8" standalone="no"?>
<!DOCTYPE svg PUBLIC "-//W3C//DTD SVG 1.1//EN"
  "http://www.w3.org/Graphics/SVG/1.1/DTD/svg11.dtd">
<svg xmlns:xlink="http://www.w3.org/1999/xlink" width="55.44pt" height="55.44pt" viewBox="0 0 55.44 55.44" xmlns="http://www.w3.org/2000/svg" version="1.1">
 <metadata>
  <rdf:RDF xmlns:dc="http://purl.org/dc/elements/1.1/" xmlns:cc="http://creativecommons.org/ns#" xmlns:rdf="http://www.w3.org/1999/02/22-rdf-syntax-ns#">
   <cc:Work>
    <dc:type rdf:resource="http://purl.org/dc/dcmitype/StillImage"/>
    <dc:date>2023-10-09T10:21:35.930707</dc:date>
    <dc:format>image/svg+xml</dc:format>
    <dc:creator>
     <cc:Agent>
      <dc:title>Matplotlib v3.7.1, https://matplotlib.org/</dc:title>
     </cc:Agent>
    </dc:creator>
   </cc:Work>
  </rdf:RDF>
 </metadata>
 <defs>
  <style type="text/css">*{stroke-linejoin: round; stroke-linecap: butt}</style>
 </defs>
 <g id="figure_1">
  <g id="patch_1">
   <path d="M 0 55.44 
L 55.44 55.44 
L 55.44 0 
L 0 0 
L 0 55.44 
z
" style="fill: none"/>
  </g>
  <g id="axes_1">
   <g id="line2d_1">
    <path d="M 19.140535 34.637518 
L 19.174022 35.966884 
L 21.220457 39.169932 
L 21.283035 40.2082 
L 22.135363 41.29371 
L 22.877683 41.178163 
L 24.264296 40.095541 
L 24.375063 40.707772 
L 23.999318 41.439943 
L 23.838889 43.887669 
L 24.742501 44.03738 
L 26.611102 43.473361 
L 26.962993 41.858689 
L 27.54438 40.762762 
L 28.042229 39.34287 
L 29.613794 40.018766 
L 30.275457 39.509653 
L 31.434797 39.211768 
L 32.459146 39.31825 
L 33.516467 41.389007 
L 33.772107 42.914403 
L 33.057171 43.507107 
L 32.276447 43.475923 
L 31.442843 43.285448 
L 28.290466 42.979746 
L 27.971666 43.107705 
L 26.279208 43.312156 
L 25.53253 44.008012 
L 24.222526 44.0406 
L 22.951552 43.390057 
L 22.315165 42.815856 
L 21.764745 41.534657 
L 21.298101 40.81155 
L 20.473466 40.31501 
L 18.929481 40.083289 
L 18.346709 39.840075 
L 17.476151 39.798814 
L 16.51104 39.595261 
L 15.128974 38.158066 
L 14.432045 37.742999 
L 13.648518 36.570766 
L 12.639609 34.446046 
L 12.232727 32.440856 
L 12.326819 31.102001 
L 12.325677 29.081762 
L 13.597938 27.705345 
L 14.0202 26.987776 
L 14.553417 24.91087 
L 14.845258 22.54482 
L 15.022063 22.148119 
L 15.389005 21.642728 
L 17.753968 20.14785 
L 19.337654 20.407247 
L 20.552483 20.115788 
L 22.080273 18.522124 
L 22.361102 18.38107 
L 23.348948 17.44008 
L 23.833364 16.454155 
L 23.087283 16.186831 
L 22.320586 15.697352 
L 22.26043 13.973613 
L 22.741933 13.066128 
L 23.744159 12.117678 
L 25.009581 11.521439 
L 26.198127 11.479536 
L 26.841865 11.638878 
L 28.589267 12.559904 
L 30.766816 13.247678 
L 30.942822 13.713645 
L 30.922862 14.777207 
L 31.027455 15.964347 
L 31.355247 16.96196 
L 32.066994 17.881358 
L 32.983436 20.560008 
L 32.748229 22.063017 
L 32.747048 23.533698 
L 32.567999 23.770859 
L 30.850524 25.432843 
L 30.019506 25.872934 
L 29.062747 26.750384 
L 27.828485 27.436838 
L 25.725577 29.887569 
L 25.985132 31.043597 
L 25.519344 32.409532 
L 24.758701 32.931766 
L 24.612274 33.227524 
L 24.599398 34.419315 
L 24.39896 35.799354 
L 24.542187 36.734762 
L 23.406917 39.41665 
L 20.82668 40.616522 
L 20.069897 41.880214 
L 18.188634 41.379723 
L 17.767004 41.140503 
L 17.044849 39.664713 
L 15.785397 39.032034 
L 15.019923 37.946934 
L 13.843961 37.131322 
L 13.687957 36.859805 
L 13.380385 35.765931 
L 13.146568 35.259289 
L 13.174505 33.93751 
L 13.809412 33.129003 
L 13.280983 32.205572 
L 12.216027 31.732488 
L 11.018009 28.938422 
L 10.999739 28.784602 
L 11.067425 27.732982 
L 12.822555 25.499994 
L 14.31885 24.777115 
L 12.623019 23.428814 
L 11.767198 22.601715 
L 12.204625 21.371976 
L 13.249902 20.673795 
L 13.89498 20.517461 
L 14.726768 20.803416 
L 15.263082 21.373591 
L 15.377127 21.68289 
L 15.827571 22.261611 
L 15.937206 24.000197 
L 15.663885 24.110454 
L 14.125541 24.968978 
L 13.293777 26.033129 
L 11.965937 26.993626 
L 11.426006 27.149446 
L 11.11772 28.136685 
L 11.860165 28.506202 
L 12.501608 28.609088 
L 13.379624 30.369394 
L 13.506674 31.284374 
L 13.166816 33.661835 
L 13.48969 34.997437 
L 13.427468 35.848202 
L 13.877804 36.807635 
L 16.826488 39.476308 
L 18.019155 39.874409 
L 18.439986 40.453845 
L 18.921382 40.390348 
L 19.574541 38.456816 
L 19.488419 36.901988 
L 18.822565 36.596215 
L 17.968303 36.614866 
L 17.398672 36.03296 
L 16.924071 35.763403 
L 16.676899 35.352666 
L 15.991159 34.534815 
L 14.508025 33.987957 
L 13.164683 33.856623 
L 12.427756 33.644878 
L 12.065186 33.156685 
L 11.895233 32.39225 
L 11.953854 31.525757 
L 11.771921 30.477276 
L 11.060169 29.807193 
L 11.130775 29.457152 
L 12.411963 28.332201 
L 13.788221 28.228856 
L 14.298306 28.769451 
L 14.725734 29.474701 
L 14.945767 30.421908 
L 15.615207 31.481835 
L 15.315555 32.441027 
L 15.826713 32.788539 
L 17.232846 33.420118 
L 18.85741 33.969115 
L 19.228967 34.703904 
L 21.316576 35.123031 
L 23.149603 35.295647 
L 23.608175 36.004992 
L 23.800266 36.848417 
L 23.981983 38.716076 
L 22.83047 40.118278 
L 22.13012 41.426546 
L 22.827582 42.036821 
L 23.823535 42.410888 
L 24.676206 42.318437 
L 27.058657 41.835405 
L 27.833957 42.252687 
L 29.288223 44.275291 
L 30.338685 44.281261 
L 31.638823 42.980356 
L 32.264871 42.068619 
L 32.734692 41.941296 
L 33.457494 41.581495 
L 33.621065 39.67249 
L 33.891684 38.861359 
L 34.063395 37.592621 
L 35.236233 36.935187 
L 37.270114 36.448912 
L 37.923018 36.54826 
L 38.497765 36.345981 
L 39.161301 35.951019 
L 38.994383 35.479679 
L 37.411162 35.217272 
L 36.093903 35.724497 
L 35.941884 35.632898 
L 34.912919 35.543086 
L 34.423605 35.018972 
L 33.931142 33.861792 
L 33.82685 32.966676 
L 33.097307 33.814918 
L 29.527396 36.451823 
L 29.406037 38.194293 
L 30.847623 39.971268 
L 32.333541 41.203574 
L 33.579275 41.018377 
L 34.449911 40.669977 
L 35.023369 40.854645 
L 35.17442 41.024103 
L 35.511569 41.890222 
L 35.093226 42.785669 
L 33.975661 41.898045 
L 32.619104 41.385426 
L 32.919279 39.159576 
L 33.567625 38.544401 
L 34.657558 36.982363 
L 35.156219 36.183148 
L 35.354522 35.283912 
L 35.107012 34.785336 
L 33.855017 33.514044 
L 32.709358 33.051123 
L 30.979811 32.017752 
L 30.138958 32.600287 
L 28.243669 32.17395 
L 27.602476 32.291713 
L 26.388537 31.613093 
L 25.555682 30.914138 
L 24.983197 29.215168 
L 24.819226 27.657209 
L 24.377576 25.514556 
L 24.45025 23.797905 
L 24.678066 22.991081 
L 24.862849 21.363562 
L 25.192918 20.467303 
L 26.587443 19.973819 
L 27.343102 19.426853 
L 28.498287 17.7874 
L 28.072787 16.961678 
L 27.739976 15.728284 
L 27.953808 13.935968 
L 29.265695 13.517588 
L 29.61698 12.738428 
L 29.075415 11.985782 
L 30.274815 12.622939 
L 30.925962 12.82451 
L 31.429568 13.462617 
L 32.320685 13.849064 
L 33.911582 13.741997 
L 35.167982 14.02881 
L 35.906298 14.392432 
L 37.241471 16.186963 
L 38.082851 15.596694 
L 39.147225 15.799632 
L 39.973106 16.521783 
L 40.413143 17.08552 
L 40.720995 18.455337 
L 40.775199 19.568419 
L 40.669936 20.336263 
L 36.316494 22.323441 
L 35.725752 21.353958 
L 35.681727 19.091516 
L 34.660195 18.036757 
L 33.937993 17.472545 
L 32.955566 17.12851 
L 31.807091 17.17906 
L 30.674312 17.453026 
L 29.704703 17.392321 
L 29.096515 16.295877 
L 29.252966 15.967049 
L 30.80543 15.184028 
L 34.72216 14.524609 
L 35.602788 14.692245 
L 36.5307 13.989794 
L 38.043241 14.51173 
L 37.713472 15.714649 
L 38.273997 17.25424 
L 38.737404 18.051286 
L 39.142704 18.382911 
L 39.235217 19.358469 
L 36.173117 20.679244 
L 35.446707 20.514515 
L 35.107099 20.318517 
L 34.096935 19.503334 
L 33.030221 18.786143 
L 32.735825 18.82076 
L 31.898048 19.103507 
L 30.809762 19.803717 
L 30.535312 20.784501 
L 29.583082 21.096288 
L 29.199309 20.892962 
L 28.350726 21.076423 
L 27.292344 21.51878 
L 26.321938 22.202358 
L 24.431742 21.875597 
L 24.230235 21.976695 
L 22.831307 23.106736 
L 22.660261 23.090385 
L 19.600884 24.593433 
L 19.052389 25.050972 
L 18.309561 25.326462 
L 17.152195 25.924274 
L 16.37976 25.679321 
L 15.5599 25.700757 
L 14.577539 23.957785 
L 14.541263 23.453206 
L 14.858017 22.290661 
L 15.949671 21.520007 
L 16.118826 20.891701 
L 15.831442 19.42835 
L 15.740463 17.004788 
L 15.886562 15.973723 
L 17.249847 14.653932 
L 17.734714 14.596169 
L 18.075674 14.38007 
L 18.537146 13.931866 
L 19.708042 13.674966 
L 20.480783 13.03439 
L 22.516721 12.5964 
L 22.947713 12.011953 
L 23.39306 11.966406 
L 24.160657 12.159534 
L 24.803502 12.562847 
L 26.343366 14.632895 
L 27.837279 14.840904 
L 29.22489 15.686585 
L 31.053088 15.558972 
L 31.703378 15.809969 
L 35.728845 13.836409 
L 36.268653 16.296616 
L 37.008095 16.852829 
L 38.603161 17.622407 
L 39.635839 18.297009 
L 40.256369 21.408445 
L 38.949255 24.812226 
L 38.524607 25.411523 
L 37.951537 25.541514 
L 37.385673 25.819885 
L 37.043053 25.685683 
L 36.621998 24.097057 
L 36.700291 21.894959 
L 37.888005 20.550394 
L 38.608043 20.15531 
L 39.093474 19.166675 
L 39.967745 18.301866 
L 39.076331 15.989109 
L 37.865545 15.543989 
L 37.155948 15.557687 
L 36.410474 16.581906 
L 35.860193 17.688244 
L 35.708958 18.463617 
L 35.731343 19.579984 
L 37.94804 20.252809 
L 38.532861 20.585769 
L 39.415849 21.253502 
L 40.090862 21.167881 
L 40.64292 21.355642 
L 41.284419 21.473409 
L 41.956474 21.839406 
L 42.471649 23.743183 
L 41.7148 25.191629 
L 40.561132 26.13165 
L 40.276544 30.058234 
L 40.676238 30.630157 
L 41.301066 30.896944 
L 41.623094 31.727231 
L 41.373027 33.663443 
L 39.435237 36.108457 
L 38.915669 37.358662 
L 39.289684 38.003185 
L 39.125545 38.507052 
L 36.982617 40.787404 
L 36.574526 41.016105 
L 35.987834 41.871717 
L 34.992784 42.732847 
L 34.266752 42.296261 
L 34.153682 41.932723 
L 33.576011 40.974547 
L 34.57585 38.605767 
L 34.74588 38.447041 
L 34.6673 37.328413 
L 34.284713 35.922415 
L 33.590759 33.897274 
L 32.983853 33.29845 
L 31.726122 32.458937 
L 30.786448 30.846128 
L 30.581056 29.897357 
L 28.735416 29.898196 
L 26.604969 30.59776 
L 26.895303 32.006382 
L 26.611293 32.762909 
L 25.78269 34.594628 
L 25.72652 35.659475 
L 23.808149 38.01218 
L 23.614875 38.764309 
L 22.027609 41.045378 
L 22.132389 41.76926 
L 21.571793 42.605152 
L 19.979021 42.594589 
L 19.979021 42.594589 
" clip-path="url(#p52b30fb9e5)" style="fill: none; stroke: #000000; stroke-opacity: 0.7; stroke-width: 0.25; stroke-linecap: square"/>
   </g>
   <g id="line2d_2">
    <path d="M 44.389329 25.614174 
L 43.993956 23.541558 
" clip-path="url(#p52b30fb9e5)" style="fill: none; stroke: #000000; stroke-width: 0.8; stroke-linecap: square"/>
   </g>
   <g id="line2d_3">
    <path d="M 43.993956 23.541558 
L 43.341933 21.534839 
" clip-path="url(#p52b30fb9e5)" style="fill: none; stroke: #000000; stroke-width: 0.8; stroke-linecap: square"/>
   </g>
   <g id="line2d_4">
    <path d="M 43.341933 21.534839 
L 42.443544 19.625663 
" clip-path="url(#p52b30fb9e5)" style="fill: none; stroke: #000000; stroke-width: 0.8; stroke-linecap: square"/>
   </g>
   <g id="line2d_5">
    <path d="M 42.443544 19.625663 
L 41.312955 17.84414 
" clip-path="url(#p52b30fb9e5)" style="fill: none; stroke: #000000; stroke-width: 0.8; stroke-linecap: square"/>
   </g>
   <g id="line2d_6">
    <path d="M 41.312955 17.84414 
L 39.967997 16.218365 
" clip-path="url(#p52b30fb9e5)" style="fill: none; stroke: #000000; stroke-width: 0.8; stroke-linecap: square"/>
   </g>
   <g id="line2d_7">
    <path d="M 39.967997 16.218365 
L 38.429881 14.773978 
" clip-path="url(#p52b30fb9e5)" style="fill: none; stroke: #000000; stroke-width: 0.8; stroke-linecap: square"/>
   </g>
   <g id="line2d_8">
    <path d="M 38.429881 14.773978 
L 36.722863 13.533758 
" clip-path="url(#p52b30fb9e5)" style="fill: none; stroke: #000000; stroke-width: 0.8; stroke-linecap: square"/>
   </g>
   <g id="line2d_9">
    <path d="M 36.722863 13.533758 
L 34.873865 12.517262 
" clip-path="url(#p52b30fb9e5)" style="fill: none; stroke: #000000; stroke-width: 0.8; stroke-linecap: square"/>
   </g>
   <g id="line2d_10">
    <path d="M 34.873865 12.517262 
L 32.912047 11.740523 
" clip-path="url(#p52b30fb9e5)" style="fill: none; stroke: #000000; stroke-width: 0.8; stroke-linecap: square"/>
   </g>
   <g id="line2d_11">
    <path d="M 32.912047 11.740523 
L 30.868346 11.21579 
" clip-path="url(#p52b30fb9e5)" style="fill: none; stroke: #000000; stroke-width: 0.8; stroke-linecap: square"/>
   </g>
   <g id="line2d_12">
    <path d="M 30.868346 11.21579 
L 28.774995 10.951339 
" clip-path="url(#p52b30fb9e5)" style="fill: none; stroke: #000000; stroke-width: 0.8; stroke-linecap: square"/>
   </g>
   <g id="line2d_13">
    <path d="M 28.774995 10.951339 
L 26.665005 10.951339 
" clip-path="url(#p52b30fb9e5)" style="fill: none; stroke: #000000; stroke-width: 0.8; stroke-linecap: square"/>
   </g>
   <g id="line2d_14">
    <path d="M 26.665005 10.951339 
L 24.571654 11.21579 
" clip-path="url(#p52b30fb9e5)" style="fill: none; stroke: #000000; stroke-width: 0.8; stroke-linecap: square"/>
   </g>
   <g id="line2d_15">
    <path d="M 24.571654 11.21579 
L 22.527953 11.740523 
" clip-path="url(#p52b30fb9e5)" style="fill: none; stroke: #000000; stroke-width: 0.8; stroke-linecap: square"/>
   </g>
   <g id="line2d_16">
    <path d="M 22.527953 11.740523 
L 20.566135 12.517262 
" clip-path="url(#p52b30fb9e5)" style="fill: none; stroke: #000000; stroke-width: 0.8; stroke-linecap: square"/>
   </g>
   <g id="line2d_17">
    <path d="M 20.566135 12.517262 
L 18.717137 13.533758 
" clip-path="url(#p52b30fb9e5)" style="fill: none; stroke: #000000; stroke-width: 0.8; stroke-linecap: square"/>
   </g>
   <g id="line2d_18">
    <path d="M 18.717137 13.533758 
L 17.010119 14.773978 
" clip-path="url(#p52b30fb9e5)" style="fill: none; stroke: #000000; stroke-width: 0.8; stroke-linecap: square"/>
   </g>
   <g id="line2d_19">
    <path d="M 17.010119 14.773978 
L 15.472003 16.218365 
" clip-path="url(#p52b30fb9e5)" style="fill: none; stroke: #000000; stroke-width: 0.8; stroke-linecap: square"/>
   </g>
   <g id="line2d_20">
    <path d="M 15.472003 16.218365 
L 14.127045 17.84414 
" clip-path="url(#p52b30fb9e5)" style="fill: none; stroke: #000000; stroke-width: 0.8; stroke-linecap: square"/>
   </g>
   <g id="line2d_21">
    <path d="M 14.127045 17.84414 
L 12.996456 19.625663 
" clip-path="url(#p52b30fb9e5)" style="fill: none; stroke: #000000; stroke-width: 0.8; stroke-linecap: square"/>
   </g>
   <g id="line2d_22">
    <path d="M 12.996456 19.625663 
L 12.098067 21.534839 
" clip-path="url(#p52b30fb9e5)" style="fill: none; stroke: #000000; stroke-width: 0.8; stroke-linecap: square"/>
   </g>
   <g id="line2d_23">
    <path d="M 12.098067 21.534839 
L 11.446044 23.541558 
" clip-path="url(#p52b30fb9e5)" style="fill: none; stroke: #000000; stroke-width: 0.8; stroke-linecap: square"/>
   </g>
   <g id="line2d_24">
    <path d="M 11.446044 23.541558 
L 11.050671 25.614174 
" clip-path="url(#p52b30fb9e5)" style="fill: none; stroke: #000000; stroke-width: 0.8; stroke-linecap: square"/>
   </g>
   <g id="line2d_25">
    <path d="M 11.050671 25.614174 
L 10.918184 27.72 
" clip-path="url(#p52b30fb9e5)" style="fill: none; stroke: #000000; stroke-width: 0.8; stroke-linecap: square"/>
   </g>
   <g id="line2d_26">
    <path d="M 10.918184 27.72 
L 11.050671 29.825826 
" clip-path="url(#p52b30fb9e5)" style="fill: none; stroke: #000000; stroke-width: 0.8; stroke-linecap: square"/>
   </g>
   <g id="line2d_27">
    <path d="M 11.050671 29.825826 
L 11.446044 31.898442 
" clip-path="url(#p52b30fb9e5)" style="fill: none; stroke: #000000; stroke-width: 0.8; stroke-linecap: square"/>
   </g>
   <g id="line2d_28">
    <path d="M 11.446044 31.898442 
L 12.098067 33.905161 
" clip-path="url(#p52b30fb9e5)" style="fill: none; stroke: #000000; stroke-width: 0.8; stroke-linecap: square"/>
   </g>
   <g id="line2d_29">
    <path d="M 12.098067 33.905161 
L 12.996456 35.814337 
" clip-path="url(#p52b30fb9e5)" style="fill: none; stroke: #000000; stroke-width: 0.8; stroke-linecap: square"/>
   </g>
   <g id="line2d_30">
    <path d="M 12.996456 35.814337 
L 14.127045 37.59586 
" clip-path="url(#p52b30fb9e5)" style="fill: none; stroke: #000000; stroke-width: 0.8; stroke-linecap: square"/>
   </g>
   <g id="line2d_31">
    <path d="M 14.127045 37.59586 
L 15.472003 39.221635 
" clip-path="url(#p52b30fb9e5)" style="fill: none; stroke: #000000; stroke-width: 0.8; stroke-linecap: square"/>
   </g>
   <g id="line2d_32">
    <path d="M 15.472003 39.221635 
L 17.010119 40.666022 
" clip-path="url(#p52b30fb9e5)" style="fill: none; stroke: #000000; stroke-width: 0.8; stroke-linecap: square"/>
   </g>
   <g id="line2d_33">
    <path d="M 17.010119 40.666022 
L 18.717137 41.906242 
" clip-path="url(#p52b30fb9e5)" style="fill: none; stroke: #000000; stroke-width: 0.8; stroke-linecap: square"/>
   </g>
   <g id="line2d_34">
    <path d="M 18.717137 41.906242 
L 20.566135 42.922738 
" clip-path="url(#p52b30fb9e5)" style="fill: none; stroke: #000000; stroke-width: 0.8; stroke-linecap: square"/>
   </g>
   <g id="line2d_35">
    <path d="M 20.566135 42.922738 
L 22.527953 43.699477 
" clip-path="url(#p52b30fb9e5)" style="fill: none; stroke: #000000; stroke-width: 0.8; stroke-linecap: square"/>
   </g>
   <g id="line2d_36">
    <path d="M 22.527953 43.699477 
L 24.571654 44.22421 
" clip-path="url(#p52b30fb9e5)" style="fill: none; stroke: #000000; stroke-width: 0.8; stroke-linecap: square"/>
   </g>
   <g id="line2d_37">
    <path d="M 24.571654 44.22421 
L 26.665005 44.488661 
" clip-path="url(#p52b30fb9e5)" style="fill: none; stroke: #000000; stroke-width: 0.8; stroke-linecap: square"/>
   </g>
   <g id="line2d_38">
    <path d="M 26.665005 44.488661 
L 28.774995 44.488661 
" clip-path="url(#p52b30fb9e5)" style="fill: none; stroke: #000000; stroke-width: 0.8; stroke-linecap: square"/>
   </g>
   <g id="line2d_39">
    <path d="M 28.774995 44.488661 
L 30.868346 44.22421 
" clip-path="url(#p52b30fb9e5)" style="fill: none; stroke: #000000; stroke-width: 0.8; stroke-linecap: square"/>
   </g>
   <g id="line2d_40">
    <path d="M 30.868346 44.22421 
L 32.912047 43.699477 
" clip-path="url(#p52b30fb9e5)" style="fill: none; stroke: #000000; stroke-width: 0.8; stroke-linecap: square"/>
   </g>
   <g id="line2d_41">
    <path d="M 32.912047 43.699477 
L 34.873865 42.922738 
" clip-path="url(#p52b30fb9e5)" style="fill: none; stroke: #000000; stroke-width: 0.8; stroke-linecap: square"/>
   </g>
   <g id="line2d_42">
    <path d="M 34.873865 42.922738 
L 36.722863 41.906242 
" clip-path="url(#p52b30fb9e5)" style="fill: none; stroke: #000000; stroke-width: 0.8; stroke-linecap: square"/>
   </g>
   <g id="line2d_43">
    <path d="M 36.722863 41.906242 
L 38.429881 40.666022 
" clip-path="url(#p52b30fb9e5)" style="fill: none; stroke: #000000; stroke-width: 0.8; stroke-linecap: square"/>
   </g>
   <g id="line2d_44">
    <path d="M 38.429881 40.666022 
L 39.967997 39.221635 
" clip-path="url(#p52b30fb9e5)" style="fill: none; stroke: #000000; stroke-width: 0.8; stroke-linecap: square"/>
   </g>
   <g id="line2d_45">
    <path d="M 39.967997 39.221635 
L 41.312955 37.59586 
" clip-path="url(#p52b30fb9e5)" style="fill: none; stroke: #000000; stroke-width: 0.8; stroke-linecap: square"/>
   </g>
   <g id="line2d_46">
    <path d="M 41.312955 37.59586 
L 42.443544 35.814337 
" clip-path="url(#p52b30fb9e5)" style="fill: none; stroke: #000000; stroke-width: 0.8; stroke-linecap: square"/>
   </g>
   <g id="line2d_47">
    <path d="M 42.443544 35.814337 
L 43.341933 33.905161 
" clip-path="url(#p52b30fb9e5)" style="fill: none; stroke: #000000; stroke-width: 0.8; stroke-linecap: square"/>
   </g>
   <g id="line2d_48">
    <path d="M 43.341933 33.905161 
L 43.993956 31.898442 
" clip-path="url(#p52b30fb9e5)" style="fill: none; stroke: #000000; stroke-width: 0.8; stroke-linecap: square"/>
   </g>
   <g id="line2d_49">
    <path d="M 43.993956 31.898442 
L 44.389329 29.825826 
" clip-path="url(#p52b30fb9e5)" style="fill: none; stroke: #000000; stroke-width: 0.8; stroke-linecap: square"/>
   </g>
   <g id="line2d_50">
    <path d="M 44.389329 29.825826 
L 44.521816 27.72 
" clip-path="url(#p52b30fb9e5)" style="fill: none; stroke: #000000; stroke-width: 0.8; stroke-linecap: square"/>
   </g>
   <g id="line2d_51">
    <path d="M 44.521816 27.72 
L 44.389329 25.614174 
" clip-path="url(#p52b30fb9e5)" style="fill: none; stroke: #000000; stroke-width: 0.8; stroke-linecap: square"/>
   </g>
  </g>
 </g>
 <defs>
  <clipPath id="p52b30fb9e5">
   <rect x="0" y="-0" width="55.44" height="55.44"/>
  </clipPath>
 </defs>
</svg>
