<?xml version="1.0" encoding="utf-8" standalone="no"?>
<!DOCTYPE svg PUBLIC "-//W3C//DTD SVG 1.1//EN"
  "http://www.w3.org/Graphics/SVG/1.1/DTD/svg11.dtd">
<svg xmlns:xlink="http://www.w3.org/1999/xlink" width="55.44pt" height="55.44pt" viewBox="0 0 55.44 55.44" xmlns="http://www.w3.org/2000/svg" version="1.1">
 <metadata>
  <rdf:RDF xmlns:dc="http://purl.org/dc/elements/1.1/" xmlns:cc="http://creativecommons.org/ns#" xmlns:rdf="http://www.w3.org/1999/02/22-rdf-syntax-ns#">
   <cc:Work>
    <dc:type rdf:resource="http://purl.org/dc/dcmitype/StillImage"/>
    <dc:date>2023-10-09T10:21:36.029387</dc:date>
    <dc:format>image/svg+xml</dc:format>
    <dc:creator>
     <cc:Agent>
      <dc:title>Matplotlib v3.7.1, https://matplotlib.org/</dc:title>
     </cc:Agent>
    </dc:creator>
   </cc:Work>
  </rdf:RDF>
 </metadata>
 <defs>
  <style type="text/css">*{stroke-linejoin: round; stroke-linecap: butt}</style>
 </defs>
 <g id="figure_1">
  <g id="patch_1">
   <path d="M 0 55.44 
L 55.44 55.44 
L 55.44 0 
L 0 0 
L 0 55.44 
z
" style="fill: none"/>
  </g>
  <g id="axes_1">
   <g id="line2d_1">
    <path d="M 33.376266 28.195769 
L 35.236976 30.239872 
L 36.042571 32.865745 
L 36.117312 34.073285 
L 36.34553 35.356212 
L 37.426914 37.775879 
L 37.5322 37.943521 
L 38.119015 38.294313 
L 38.941433 38.644449 
L 39.768136 39.511137 
L 40.798355 39.48312 
L 42.158659 39.930265 
L 44.154299 39.581697 
L 44.456212 37.190718 
L 43.711213 35.816692 
L 43.019909 34.195417 
L 44.418505 33.908639 
L 42.881373 35.513751 
L 41.77735 35.962519 
L 41.10591 37.912876 
L 41.731057 39.283338 
L 41.949074 40.583583 
L 40.164129 41.818983 
L 37.789454 41.508809 
L 36.375658 40.906019 
L 35.537956 40.182294 
L 33.705508 39.509176 
L 32.81554 38.785139 
L 31.814711 37.533082 
L 30.913767 36.892201 
L 30.371547 36.002691 
L 29.617583 35.090325 
L 28.474838 34.294531 
L 28.21375 33.426627 
L 27.792128 32.728459 
L 27.874055 31.80359 
L 28.25032 30.40851 
L 29.266595 30.126016 
L 29.770379 30.655854 
L 30.561235 30.440218 
L 32.435648 30.57357 
L 32.844338 30.961262 
L 34.865642 31.058609 
L 36.492189 31.501615 
L 38.889161 31.646865 
L 39.350136 31.614877 
L 40.961272 32.420521 
L 42.977913 32.739254 
L 43.250272 34.850498 
L 43.653412 34.952641 
L 43.57731 36.641088 
L 40.969951 39.822794 
L 39.932954 40.481082 
L 39.858239 40.955503 
L 39.600782 41.802458 
L 38.939133 42.49374 
L 38.739686 43.210705 
L 36.715046 43.480081 
L 33.788628 41.953045 
L 33.019305 41.246265 
L 32.56739 39.860724 
L 31.85235 38.852837 
L 29.431872 38.539068 
L 28.3973 38.144444 
L 28.288913 37.977292 
L 28.263 35.12316 
L 27.885007 32.843669 
L 28.127537 29.295448 
L 27.84129 28.373372 
L 28.582598 27.210776 
L 29.942324 26.402366 
L 31.13178 26.248143 
L 32.58661 25.426684 
L 33.005643 25.034166 
L 33.787569 24.456444 
L 34.007859 24.620219 
L 34.355025 25.088002 
L 34.33267 26.22908 
L 34.097164 26.292093 
L 32.140576 25.688408 
L 31.411954 24.73963 
L 31.169096 22.836321 
L 31.614069 22.333381 
L 32.31058 22.200278 
L 33.333567 22.582613 
L 34.992328 24.081881 
L 35.479185 24.063427 
L 36.408001 23.908909 
L 36.836295 23.685724 
L 37.816859 22.846381 
L 38.481942 21.23222 
L 38.783319 20.817908 
L 40.142602 19.491858 
L 41.998087 19.179995 
L 42.711115 18.812462 
L 43.111093 18.736559 
L 44.131167 17.57341 
L 44.342663 14.096931 
L 44.179776 13.333118 
L 44.321518 12.17918 
L 42.514005 11.377567 
L 41.09437 11.390055 
L 39.827242 14.775673 
L 39.526379 16.990385 
L 38.920066 17.85734 
L 37.393613 18.554685 
L 36.469348 19.132742 
L 35.882223 18.904934 
L 35.717874 17.403483 
L 35.736351 17.230853 
L 36.254035 16.686645 
L 36.806293 15.61322 
L 37.77678 15.13286 
L 39.112634 16.202473 
L 41.085039 16.04738 
L 41.450072 15.409201 
L 42.310976 14.960701 
L 43.751592 14.346109 
L 44.467991 13.780166 
L 44.342157 12.877227 
L 43.181517 11.78879 
L 41.177775 12.519113 
L 40.715043 13.562436 
L 38.338291 14.567928 
L 37.190204 15.904217 
L 36.751397 16.64595 
L 34.599582 19.404192 
L 33.2818 22.001946 
L 34.626051 21.771177 
L 36.138169 22.263411 
L 36.966602 22.710194 
L 37.732808 22.042518 
L 39.100505 22.146308 
L 39.364505 23.148905 
L 39.907741 24.70369 
L 39.915168 25.311738 
L 38.721507 25.7117 
L 37.054136 26.487917 
L 35.950998 27.398907 
L 35.777578 28.258602 
L 35.200034 29.044175 
L 34.756922 29.858428 
L 34.004045 30.690656 
L 33.155645 31.326494 
L 32.966704 31.287935 
L 31.104964 31.691529 
L 30.082904 31.433406 
L 28.283978 30.340284 
L 28.138036 29.31714 
L 27.778111 28.988199 
L 27.86224 27.208798 
L 28.365229 26.428643 
L 28.799796 26.144726 
L 29.680116 25.929845 
L 30.24589 26.016852 
L 31.228057 24.576617 
L 31.985061 23.24955 
L 33.199627 23.235223 
L 35.101131 24.40254 
L 35.753504 24.706337 
L 36.956109 26.050962 
L 37.660485 27.276206 
L 37.838791 28.906727 
L 38.044131 29.534222 
L 38.033531 30.18109 
L 37.60611 30.923421 
L 37.718779 32.387564 
L 37.585347 33.673969 
L 37.77703 35.078999 
L 37.389352 36.068778 
L 37.369501 37.401253 
L 36.597695 37.489731 
L 36.006918 38.806696 
L 36.17986 39.059366 
L 37.381021 38.952351 
L 38.258358 38.370176 
L 39.499084 38.432044 
L 43.086928 37.344162 
L 44.490993 35.229588 
L 44.492221 34.755824 
L 44.294033 34.01542 
L 44.384798 33.51629 
L 44.045522 33.353646 
L 42.753722 31.478966 
L 42.150104 30.134059 
L 42.046753 29.377801 
L 41.820161 28.621351 
L 42.463111 27.379311 
L 43.130336 27.306469 
L 43.87493 27.572729 
L 44.47754 28.068777 
L 44.426792 28.889265 
L 43.544154 30.254697 
L 40.283312 29.636593 
L 39.817835 29.813801 
L 39.054086 30.252055 
L 37.94179 30.12059 
L 36.926525 30.677319 
L 35.923899 31.071103 
L 35.020498 30.128846 
L 34.53507 29.746905 
L 33.996395 29.003527 
L 33.089812 28.3878 
L 30.346721 28.137233 
L 28.555787 27.23169 
L 29.025587 25.872555 
L 29.066258 25.364424 
L 29.927087 24.345238 
L 30.457732 24.085457 
L 30.904887 23.996473 
L 31.863739 24.41219 
L 33.918024 25.122228 
L 35.824245 26.084438 
L 37.341314 27.197068 
L 37.833629 27.870701 
L 38.233727 28.939435 
L 37.804711 29.568842 
L 37.421612 30.526748 
L 37.392856 32.35998 
L 38.091739 32.795342 
L 39.375343 33.923964 
L 40.474824 33.768891 
L 41.111373 33.903642 
L 41.494226 35.022072 
L 41.509229 35.530934 
L 41.036163 36.27384 
L 40.780036 36.991221 
L 41.181561 38.818998 
L 42.509927 39.609329 
L 42.754254 41.416549 
L 43.723497 43.25428 
L 44.197384 43.487419 
L 44.473387 40.106936 
L 44.198217 39.188355 
L 42.945343 39.103493 
L 40.198842 39.19512 
L 38.339239 38.498458 
L 35.707674 37.768925 
L 34.795888 37.019064 
L 34.638232 36.707623 
L 36.106067 36.535209 
L 38.853938 35.996026 
L 40.592113 35.079234 
L 41.638218 34.966235 
L 44.236509 35.57526 
L 44.374427 36.795699 
L 42.907308 37.866347 
L 41.874161 38.384786 
L 40.394623 38.643664 
L 39.394221 39.518179 
L 39.138846 39.907627 
L 38.720103 41.253858 
L 37.726869 42.774254 
L 37.314947 43.052756 
L 35.886892 43.759234 
L 34.07317 44.082424 
L 32.911785 44.20805 
L 30.20607 44.00281 
L 26.882874 43.041241 
L 26.478922 42.557738 
L 25.587157 41.992746 
L 20.771466 40.303526 
L 20.341252 39.896228 
L 19.238426 39.646116 
L 17.735323 38.879799 
L 16.871425 38.566228 
L 16.559241 37.774855 
L 15.243153 38.046717 
L 14.788771 38.356499 
L 13.33879 38.091024 
L 12.19447 38.38491 
L 11.575903 37.981286 
L 11.08452 36.411906 
L 11.071156 35.952569 
L 11.454837 34.557205 
L 11.199673 33.893041 
L 10.969326 32.435395 
L 11.896234 31.707001 
L 12.75971 31.557727 
L 13.816784 31.887213 
L 15.282792 31.39747 
L 16.06126 31.379419 
L 17.771108 31.794814 
L 18.803369 31.526315 
L 20.237288 32.168162 
L 21.131442 32.216835 
L 22.125032 32.809724 
L 22.354691 33.968488 
L 22.630573 34.650172 
L 22.448626 35.424614 
L 22.166649 35.997724 
L 21.502836 36.595684 
L 20.910281 37.609427 
L 20.261679 37.882993 
L 19.427901 38.124079 
L 18.77686 39.016601 
L 18.958741 40.227782 
L 20.119087 40.84965 
L 21.389331 39.352809 
L 22.326444 39.161716 
L 25.237219 35.813795 
L 25.117142 34.652848 
L 25.932079 33.070022 
L 26.661396 32.33081 
L 26.945273 31.382427 
L 27.527238 30.776367 
L 27.532032 30.212679 
L 27.667894 28.505816 
L 27.225233 28.040859 
L 26.386311 26.355204 
L 25.942207 25.924758 
L 24.611609 26.885739 
L 22.797175 26.53689 
L 23.415832 27.36988 
L 22.90857 28.091081 
L 22.278075 28.598224 
L 21.601994 29.294192 
L 20.355914 29.908586 
L 18.907906 30.264075 
L 17.575389 28.761635 
L 16.579846 28.565812 
L 15.466525 28.511489 
L 14.382834 27.377924 
L 11.443508 27.181492 
L 13.330086 31.109267 
L 13.320567 32.393414 
L 12.115599 34.075976 
L 11.022996 34.968548 
L 11.095218 36.525484 
L 11.128095 37.717468 
L 11.330784 39.119707 
L 11.769257 40.335681 
L 13.924049 41.317207 
L 14.831033 40.58011 
L 14.878137 39.598881 
L 15.040295 39.034315 
L 15.372077 38.871066 
L 16.956625 38.411527 
L 17.960744 38.390101 
L 18.470432 39.331343 
L 19.546732 40.561386 
L 19.601564 40.736929 
L 20.548282 41.271543 
L 21.051952 41.205363 
L 22.066799 40.365917 
L 23.398005 40.500319 
L 23.607368 39.814504 
L 23.487972 39.439075 
L 23.628969 38.203444 
L 23.16781 36.758826 
L 23.108762 34.472387 
L 21.677872 32.058492 
L 20.809361 31.049124 
L 19.989165 29.53243 
L 19.001901 28.540154 
L 18.41449 28.404233 
L 17.726942 28.042589 
L 17.217379 27.988967 
L 16.068196 27.994841 
L 14.862054 27.173747 
L 14.777429 26.580989 
L 14.549587 26.033306 
L 14.597031 25.041234 
L 14.97962 24.204572 
L 15.021838 23.439497 
L 14.86272 22.743005 
L 14.175472 20.911618 
L 14.187535 19.659519 
L 14.338597 19.466146 
L 15.125285 18.748693 
L 16.142944 17.475823 
L 16.934808 16.83606 
L 17.136576 15.262653 
L 18.02958 14.270263 
L 17.747817 13.116942 
L 17.742177 12.382915 
L 15.863549 11.889336 
L 14.117215 11.686484 
L 12.878003 12.433665 
L 11.764203 12.733255 
L 11.91719 14.982898 
L 13.662329 15.262461 
L 14.202969 15.658406 
L 14.544178 15.395419 
L 17.521394 14.087442 
L 18.165667 14.138907 
L 19.423413 14.488916 
L 21.27679 14.098456 
L 21.27679 14.098456 
" clip-path="url(#p77a11d5d8d)" style="fill: none; stroke: #000000; stroke-opacity: 0.7; stroke-width: 0.25; stroke-linecap: square"/>
   </g>
   <g id="line2d_2">
    <path d="M 44.521816 10.918184 
L 10.918184 10.918184 
" clip-path="url(#p77a11d5d8d)" style="fill: none; stroke: #000000; stroke-width: 0.8; stroke-linecap: square"/>
   </g>
   <g id="line2d_3">
    <path d="M 10.918184 10.918184 
L 10.918184 44.521816 
" clip-path="url(#p77a11d5d8d)" style="fill: none; stroke: #000000; stroke-width: 0.8; stroke-linecap: square"/>
   </g>
   <g id="line2d_4">
    <path d="M 10.918184 44.521816 
L 44.521816 44.521816 
" clip-path="url(#p77a11d5d8d)" style="fill: none; stroke: #000000; stroke-width: 0.8; stroke-linecap: square"/>
   </g>
   <g id="line2d_5">
    <path d="M 44.521816 44.521816 
L 44.521816 10.918184 
" clip-path="url(#p77a11d5d8d)" style="fill: none; stroke: #000000; stroke-width: 0.8; stroke-linecap: square"/>
   </g>
   <g id="line2d_6">
    <path d="M 27.72 36.120908 
L 27.72 19.319092 
" clip-path="url(#p77a11d5d8d)" style="fill: none; stroke: #000000; stroke-width: 0.8; stroke-linecap: square"/>
   </g>
   <g id="line2d_7">
    <path d="M 27.72 36.120908 
L 27.72 19.319092 
" clip-path="url(#p77a11d5d8d)" style="fill: none; stroke: #000000; stroke-width: 0.8; stroke-linecap: square"/>
   </g>
  </g>
 </g>
 <defs>
  <clipPath id="p77a11d5d8d">
   <rect x="0" y="-0" width="55.44" height="55.44"/>
  </clipPath>
 </defs>
</svg>
