<?xml version="1.0" encoding="utf-8" standalone="no"?>
<!DOCTYPE svg PUBLIC "-//W3C//DTD SVG 1.1//EN"
  "http://www.w3.org/Graphics/SVG/1.1/DTD/svg11.dtd">
<svg xmlns:xlink="http://www.w3.org/1999/xlink" width="55.44pt" height="55.44pt" viewBox="0 0 55.44 55.44" xmlns="http://www.w3.org/2000/svg" version="1.1">
 <metadata>
  <rdf:RDF xmlns:dc="http://purl.org/dc/elements/1.1/" xmlns:cc="http://creativecommons.org/ns#" xmlns:rdf="http://www.w3.org/1999/02/22-rdf-syntax-ns#">
   <cc:Work>
    <dc:type rdf:resource="http://purl.org/dc/dcmitype/StillImage"/>
    <dc:date>2023-10-09T10:21:36.046876</dc:date>
    <dc:format>image/svg+xml</dc:format>
    <dc:creator>
     <cc:Agent>
      <dc:title>Matplotlib v3.7.1, https://matplotlib.org/</dc:title>
     </cc:Agent>
    </dc:creator>
   </cc:Work>
  </rdf:RDF>
 </metadata>
 <defs>
  <style type="text/css">*{stroke-linejoin: round; stroke-linecap: butt}</style>
 </defs>
 <g id="figure_1">
  <g id="patch_1">
   <path d="M 0 55.44 
L 55.44 55.44 
L 55.44 0 
L 0 0 
L 0 55.44 
z
" style="fill: none"/>
  </g>
  <g id="axes_1">
   <g id="line2d_1">
    <path d="M 16.625246 5.407448 
L 16.304524 5.734903 
L 16.411341 8.805435 
L 16.282865 10.287324 
L 15.992357 10.681451 
L 15.125 11.03428 
L 14.45768 11.109314 
L 13.903771 11.285887 
L 13.258622 12.350787 
L 13.042093 13.078746 
L 12.232326 14.904108 
L 10.754707 15.341058 
L 8.396097 15.5851 
L 7.323575 15.601416 
L 6.915137 15.123485 
L 5.907139 12.883443 
L 4.973352 10.450902 
L 3.452031 9.396348 
L 3.417931 7.859137 
L 3.805134 7.380558 
L 3.578694 6.982836 
L 3.10034 5.288531 
L 2.651134 4.185907 
L 2.750083 3.980032 
L 4.124738 2.89961 
L 5.332009 3.423669 
L 5.242368 4.443851 
L 5.901024 5.483383 
L 5.783833 6.671891 
L 6.666697 8.880322 
L 6.023287 10.305229 
L 5.928394 11.4364 
L 6.200306 12.478755 
L 5.870544 13.545955 
L 4.674885 14.695987 
L 3.959702 15.997871 
L 4.679628 17.670491 
L 5.90481 17.686292 
L 6.695377 17.479652 
L 6.817332 16.290879 
L 6.592993 16.140703 
L 6.133553 16.159946 
L 5.484382 16.360232 
L 4.728167 17.120547 
L 3.735151 17.23724 
L 2.617581 16.761629 
L 2.905929 13.78157 
L 2.671011 12.004705 
L 3.159458 11.169321 
L 4.699806 10.503964 
L 5.219935 9.888402 
L 4.599937 8.266063 
L 4.530257 7.590961 
L 3.020178 7.39103 
L 2.736711 5.554859 
L 3.075415 4.326561 
L 4.750372 3.061865 
L 5.098067 2.552962 
L 6.637585 2.699633 
L 8.98111 3.23413 
L 11.534487 3.311493 
L 11.64036 3.886092 
L 12.20851 4.770471 
L 14.624821 6.215298 
L 16.800884 7.931255 
L 18.73268 8.009499 
L 19.296618 8.237028 
L 20.845837 8.188401 
L 22.212997 7.984417 
L 23.43974 9.266962 
L 24.766529 10.318105 
L 24.606035 10.917397 
L 24.117436 12.014255 
L 23.928752 12.919955 
L 26.319988 15.215431 
L 26.626508 15.832111 
L 27.188287 16.190483 
L 28.591119 16.189273 
L 29.397642 16.395407 
L 30.020271 16.695884 
L 30.743592 17.694956 
L 31.777637 18.161641 
L 32.548942 18.76087 
L 32.928953 18.862823 
L 34.688888 18.98607 
L 35.567333 19.442642 
L 37.721175 19.868898 
L 38.458052 20.557761 
L 38.853314 20.746673 
L 37.886944 23.097086 
L 36.83712 23.543942 
L 34.646016 25.341984 
L 33.722791 25.209321 
L 33.510209 24.291705 
L 32.539565 23.162152 
L 32.179042 22.342401 
L 31.987728 21.434733 
L 30.794204 20.213429 
L 30.840713 19.637067 
L 31.224175 17.595599 
L 31.314651 17.048759 
L 31.545357 16.746641 
L 33.713317 15.334291 
L 34.899919 15.282275 
L 35.981786 16.144603 
L 37.103548 16.055898 
L 37.637013 15.88509 
L 38.06001 15.452007 
L 38.430739 14.766598 
L 38.718004 14.540942 
L 40.088419 13.695026 
L 39.765936 12.21504 
L 40.511392 11.411881 
L 41.278858 10.865899 
L 42.093691 10.539179 
L 42.712575 10.477497 
L 43.477352 10.255412 
L 46.098516 10.339731 
L 46.909083 11.57967 
L 46.97001 12.104629 
L 50.453755 14.264166 
L 51.386883 15.140053 
L 51.90936 15.070901 
L 52.424721 15.315866 
L 51.742853 16.091728 
L 50.439562 16.237046 
L 50.10871 15.909325 
L 49.880704 15.509745 
L 48.380125 15.256947 
L 47.485756 13.933363 
L 47.054432 12.702889 
L 46.202765 11.459179 
L 46.142609 11.117002 
L 45.8916 10.374077 
L 45.680667 8.514449 
L 46.646839 7.063564 
L 47.125484 5.654011 
L 45.958189 3.87934 
L 44.741872 3.181134 
L 42.487485 3.91214 
L 41.753262 4.005078 
L 40.519902 4.042483 
L 39.463784 4.274385 
L 38.646716 4.94459 
L 38.365732 4.940171 
L 36.689794 5.706958 
L 35.927823 6.279204 
L 35.018976 7.549338 
L 34.9175 8.671473 
L 34.6511 9.536201 
L 33.946806 10.676388 
L 33.998987 11.038115 
L 33.548503 11.489791 
L 33.433957 13.284739 
L 32.804526 13.882004 
L 31.739925 14.597308 
L 30.35566 16.241384 
L 29.25523 16.765831 
L 28.551646 17.543517 
L 27.915747 18.781464 
L 27.63797 20.97339 
L 27.939497 21.870381 
L 27.48712 22.409185 
L 26.441309 23.090189 
L 25.883785 23.427689 
L 25.329793 24.205932 
L 25.301069 24.658915 
L 25.572189 27.218285 
L 24.906227 29.191784 
L 24.794471 30.308477 
L 24.979232 31.541395 
L 24.524995 32.499889 
L 24.005142 32.873313 
L 23.689566 33.641134 
L 23.493531 34.527372 
L 22.964762 35.55871 
L 22.522196 35.71662 
L 22.290512 35.67285 
L 19.658214 35.566153 
L 18.988126 35.282565 
L 18.24286 35.183676 
L 17.754579 35.548497 
L 17.035751 36.438466 
L 16.503341 36.907985 
L 15.821958 37.173466 
L 15.013513 36.943602 
L 14.620975 37.061142 
L 13.093685 36.594948 
L 11.646287 37.143094 
L 10.189948 38.146528 
L 9.075594 37.94893 
L 8.769989 37.697177 
L 7.82658 35.440516 
L 7.460656 33.923196 
L 5.777846 31.372064 
L 5.094071 29.62429 
L 3.62911 27.794713 
L 2.762745 27.390712 
L 2.618072 26.540334 
L 3.047192 25.408795 
L 3.66607 24.814666 
L 4.913002 23.983325 
L 7.374001 22.867776 
L 8.260287 21.488314 
L 9.645304 20.140797 
L 9.553754 19.815111 
L 8.804615 18.724342 
L 8.556058 17.924768 
L 8.439237 17.120063 
L 9.660076 14.585919 
L 9.646414 13.799296 
L 8.603811 12.303145 
L 8.021194 11.91029 
L 7.443527 11.040296 
L 6.094882 10.272649 
L 4.799047 10.023823 
L 4.243467 9.303266 
L 4.031393 8.191085 
L 3.48292 6.785519 
L 2.775506 6.420565 
L 3.688389 4.627476 
L 3.961511 3.352651 
L 5.889181 3.063209 
L 7.309593 3.100564 
L 7.827407 2.715524 
L 10.321895 2.541776 
L 11.330426 2.708941 
L 11.946939 3.561753 
L 12.918009 3.918075 
L 14.187237 4.683518 
L 15.191383 5.797637 
L 16.170019 6.164941 
L 16.655086 5.993568 
L 17.488566 6.088705 
L 19.186826 7.311702 
L 19.339594 7.783921 
L 19.564394 8.553822 
L 20.047268 9.561355 
L 20.835248 9.726513 
L 22.570849 9.938253 
L 23.613549 10.847837 
L 24.002502 11.815284 
L 24.119521 14.988594 
L 24.562931 16.168887 
L 25.619806 16.745684 
L 26.864751 17.025719 
L 30.168484 16.962997 
L 30.795707 16.048463 
L 31.028382 15.226016 
L 31.478758 14.633071 
L 33.467418 13.401825 
L 34.051062 12.33886 
L 35.305844 11.566125 
L 36.080538 9.665614 
L 36.209597 8.324547 
L 36.584908 7.477152 
L 37.217694 6.697456 
L 37.435886 5.742258 
L 37.115691 4.146389 
L 37.777997 3.535841 
L 37.949043 2.595202 
L 36.02019 3.015862 
L 34.616411 3.187549 
L 34.134269 3.02019 
L 33.586569 2.670104 
L 31.995204 2.8891 
L 30.785774 3.399954 
L 29.989034 3.546341 
L 28.39033 4.332267 
L 27.915203 4.868376 
L 27.670152 5.658615 
L 26.111529 8.670776 
L 24.67955 7.811263 
L 23.595373 7.570256 
L 20.38154 6.386551 
L 19.24823 5.347468 
L 18.841879 4.814239 
L 19.019317 3.32746 
L 18.348932 2.52 
L 17.163652 2.914616 
L 14.306674 5.293651 
L 13.310372 5.29699 
L 12.681846 4.868264 
L 11.498926 4.424603 
L 11.301859 2.827624 
L 10.709238 2.555794 
L 10.203019 2.563664 
L 9.333932 2.969781 
L 8.671649 3.078932 
L 6.16587 4.023177 
L 5.128433 4.616243 
L 4.105563 6.149228 
L 4.553397 6.867922 
L 4.81363 8.35417 
L 4.37385 9.552402 
L 4.748423 10.837532 
L 4.686388 11.243462 
L 6.300796 12.297306 
L 6.472281 13.389701 
L 7.144535 14.142095 
L 6.853144 16.149475 
L 7.260084 16.869721 
L 6.237415 18.31806 
L 6.032302 18.810061 
L 5.141038 20.3806 
L 5.065603 21.128513 
L 5.220654 22.195806 
L 4.61263 23.4851 
L 3.95583 24.665372 
L 3.702501 25.574382 
L 3.686053 27.266686 
L 3.555136 27.766139 
L 2.637576 28.526702 
L 3.053782 29.039813 
L 3.286496 29.039336 
L 3.575319 28.711197 
L 3.727402 28.22106 
L 4.82745 26.693074 
L 5.194556 25.973993 
L 7.306885 25.370094 
L 8.110752 25.69985 
L 8.423413 25.598534 
L 9.343258 24.783873 
L 10.871211 25.038264 
L 12.104536 24.564024 
L 13.112499 25.03513 
L 14.484868 26.112915 
L 15.517724 27.021881 
L 15.895451 27.645453 
L 17.330027 29.061581 
L 17.50428 29.391829 
L 18.947889 31.120161 
L 18.709825 32.027663 
L 19.242558 33.492066 
L 21.444407 35.167318 
L 21.654391 35.436517 
L 22.127185 35.701315 
L 22.662901 35.851563 
L 24.108334 35.762653 
L 24.820171 35.489258 
L 25.432645 34.158768 
L 25.807518 32.407123 
L 25.596028 31.986431 
L 25.593385 29.366407 
L 26.493441 28.403304 
L 27.743338 26.633697 
L 28.197152 26.52922 
L 28.653651 25.795611 
L 29.493896 26.36779 
L 29.849923 27.064866 
L 30.0232 27.971896 
L 30.064528 28.98401 
L 29.651525 31.045852 
L 28.971496 32.894578 
L 29.026993 34.469385 
L 29.238837 35.165126 
L 29.822551 36.508382 
L 30.852788 38.061016 
L 31.710406 37.887293 
L 34.786859 37.543231 
L 35.856778 38.117624 
L 36.244885 39.303316 
L 36.783513 41.368314 
L 37.65278 41.954614 
L 38.288597 42.085436 
L 38.915682 42.907321 
L 38.71882 44.419884 
L 40.19161 45.168457 
L 41.320009 45.32247 
L 41.603623 45.162961 
L 42.912285 45.287297 
L 43.375845 47.858962 
L 43.695123 48.52261 
L 43.856647 49.508904 
L 44.694687 50.54338 
L 45.097339 51.614082 
L 43.07621 51.404074 
L 40.446699 50.487873 
L 37.653445 51.334178 
L 36.297132 51.92569 
L 35.702312 52.048588 
L 34.866635 52.883619 
L 34.652391 52.746075 
L 33.844785 52.420941 
L 33.109687 51.62397 
L 31.948678 50.660746 
L 31.137289 50.501651 
L 30.02333 49.673104 
L 28.849293 49.330138 
L 28.437186 49.506857 
L 27.14831 48.884045 
L 24.65513 48.590411 
L 23.868399 48.656524 
L 22.30358 48.178874 
L 20.928561 47.207432 
L 20.252542 45.34956 
L 19.54926 44.443321 
L 18.609208 43.567564 
L 18.523392 41.93936 
L 17.833238 40.912933 
L 17.990326 39.628333 
L 17.834478 39.31723 
L 17.834478 39.31723 
" clip-path="url(#pa1187ac413)" style="fill: none; stroke: #000000; stroke-opacity: 0.7; stroke-width: 0.25; stroke-linecap: square"/>
   </g>
   <g id="line2d_2">
    <path d="M 52.922724 2.517276 
L 2.517276 2.517276 
" clip-path="url(#pa1187ac413)" style="fill: none; stroke: #000000; stroke-width: 0.8; stroke-linecap: square"/>
   </g>
   <g id="line2d_3">
    <path d="M 2.517276 2.517276 
L 2.517276 52.922724 
" clip-path="url(#pa1187ac413)" style="fill: none; stroke: #000000; stroke-width: 0.8; stroke-linecap: square"/>
   </g>
   <g id="line2d_4">
    <path d="M 2.517276 52.922724 
L 52.922724 52.922724 
" clip-path="url(#pa1187ac413)" style="fill: none; stroke: #000000; stroke-width: 0.8; stroke-linecap: square"/>
   </g>
   <g id="line2d_5">
    <path d="M 52.922724 52.922724 
L 52.922724 2.517276 
" clip-path="url(#pa1187ac413)" style="fill: none; stroke: #000000; stroke-width: 0.8; stroke-linecap: square"/>
   </g>
  </g>
 </g>
 <defs>
  <clipPath id="pa1187ac413">
   <rect x="0" y="-0" width="55.44" height="55.44"/>
  </clipPath>
 </defs>
</svg>
