<?xml version="1.0" encoding="utf-8" standalone="no"?>
<!DOCTYPE svg PUBLIC "-//W3C//DTD SVG 1.1//EN"
  "http://www.w3.org/Graphics/SVG/1.1/DTD/svg11.dtd">
<svg xmlns:xlink="http://www.w3.org/1999/xlink" width="55.44pt" height="55.44pt" viewBox="0 0 55.44 55.44" xmlns="http://www.w3.org/2000/svg" version="1.1">
 <metadata>
  <rdf:RDF xmlns:dc="http://purl.org/dc/elements/1.1/" xmlns:cc="http://creativecommons.org/ns#" xmlns:rdf="http://www.w3.org/1999/02/22-rdf-syntax-ns#">
   <cc:Work>
    <dc:type rdf:resource="http://purl.org/dc/dcmitype/StillImage"/>
    <dc:date>2023-10-09T10:21:36.063842</dc:date>
    <dc:format>image/svg+xml</dc:format>
    <dc:creator>
     <cc:Agent>
      <dc:title>Matplotlib v3.7.1, https://matplotlib.org/</dc:title>
     </cc:Agent>
    </dc:creator>
   </cc:Work>
  </rdf:RDF>
 </metadata>
 <defs>
  <style type="text/css">*{stroke-linejoin: round; stroke-linecap: butt}</style>
 </defs>
 <g id="figure_1">
  <g id="patch_1">
   <path d="M 0 55.44 
L 55.44 55.44 
L 55.44 0 
L 0 0 
L 0 55.44 
z
" style="fill: none"/>
  </g>
  <g id="axes_1">
   <g id="line2d_1">
    <path d="M 19.207097 27.647217 
L 19.178193 25.932128 
L 19.598287 24.835577 
L 19.967696 21.836939 
L 19.909729 20.74656 
L 19.601715 19.569662 
L 18.954204 19.3431 
L 17.733925 19.361259 
L 16.35449 18.746585 
L 15.8643 18.862375 
L 15.240036 18.594049 
L 15.200113 17.554675 
L 15.005709 16.648846 
L 13.827015 15.771441 
L 12.43018 14.592911 
L 11.12181 12.839256 
L 10.587229 12.385721 
L 10.086631 12.185862 
L 9.029569 11.184015 
L 7.488879 11.220094 
L 7.119881 11.098204 
L 6.308236 11.417343 
L 5.093993 11.588085 
L 4.827506 11.343001 
L 3.627073 11.073961 
L 2.55658 12.118335 
L 2.678234 14.355139 
L 3.970642 17.234082 
L 4.300849 18.394094 
L 4.989462 19.067579 
L 6.150097 19.837505 
L 9.79108 21.42005 
L 9.984283 21.384855 
L 11.087247 20.927814 
L 14.781121 20.580072 
L 16.607899 21.338705 
L 19.732585 20.160747 
L 21.502527 20.910435 
L 21.786705 21.41264 
L 21.697779 21.707095 
L 20.901482 22.754139 
L 19.958436 24.164596 
L 18.769675 24.564892 
L 18.552766 24.788229 
L 18.054761 26.308569 
L 17.298469 27.576075 
L 16.985508 27.716592 
L 17.1563 29.197849 
L 17.647943 30.562538 
L 16.422792 31.800396 
L 15.913089 32.719943 
L 16.109182 33.375529 
L 16.789231 34.967345 
L 16.68893 36.017219 
L 16.793664 37.083907 
L 15.77977 37.692169 
L 14.433419 38.102243 
L 13.258341 38.611265 
L 12.533883 38.518941 
L 11.734087 38.163377 
L 10.413113 37.186621 
L 9.226423 37.038969 
L 8.433466 35.640591 
L 7.215649 35.005297 
L 6.578911 34.342024 
L 5.761746 33.981374 
L 5.212436 34.198181 
L 4.179065 34.191941 
L 3.108199 35.15307 
L 2.966996 37.61722 
L 3.208678 38.002248 
L 4.68522 39.264389 
L 5.421979 41.677875 
L 6.22617 42.94875 
L 7.339418 43.034085 
L 8.092559 42.926059 
L 9.08665 43.308474 
L 9.800452 44.010655 
L 10.766147 44.192401 
L 11.576358 44.117224 
L 12.324802 43.46535 
L 12.175732 42.836583 
L 12.27085 41.608028 
L 12.727506 40.939648 
L 12.593364 40.023402 
L 12.658234 37.938127 
L 13.249647 36.824037 
L 14.682148 35.636568 
L 16.371107 34.994299 
L 17.969322 34.153902 
L 19.173697 34.612471 
L 20.560474 35.496084 
L 22.621855 36.061476 
L 22.996831 36.514689 
L 24.337037 36.631553 
L 25.592004 36.88403 
L 26.496761 37.429028 
L 26.573204 37.83004 
L 26.917905 38.820261 
L 27.801476 38.260148 
L 28.905558 39.034318 
L 29.317859 40.420335 
L 29.712082 41.203475 
L 29.981323 41.255049 
L 31.65832 42.048308 
L 31.833441 43.716263 
L 32.483738 44.121739 
L 33.262235 43.757761 
L 34.708718 42.30524 
L 35.374866 42.310888 
L 36.593909 42.095642 
L 37.829743 42.160542 
L 39.887436 43.569431 
L 41.764805 42.855206 
L 42.7969 42.718324 
L 45.405686 43.628314 
L 45.65429 44.519809 
L 47.007323 43.288572 
L 48.544448 42.828461 
L 49.963061 41.965181 
L 51.553748 41.299295 
L 52.117237 40.882455 
L 52.449635 38.669411 
L 52.670553 38.131686 
L 52.204008 37.861654 
L 51.078936 36.088831 
L 50.297667 35.391482 
L 49.861558 35.285195 
L 48.761738 34.670465 
L 48.563317 34.273308 
L 48.115361 31.637973 
L 48.219648 30.342175 
L 48.107692 29.591531 
L 47.659885 27.485818 
L 47.867895 25.388362 
L 46.302617 23.051155 
L 45.6881 22.880139 
L 45.069502 22.299777 
L 43.504547 21.36437 
L 40.741664 20.75484 
L 39.046525 19.491542 
L 37.726473 18.727087 
L 33.682281 18.770118 
L 32.353324 18.33271 
L 31.191171 18.173782 
L 30.547691 17.784916 
L 30.159028 17.23587 
L 29.023288 16.155378 
L 26.464173 16.001676 
L 25.31121 14.43673 
L 24.86191 12.709064 
L 24.276318 12.314097 
L 24.403133 11.327389 
L 26.067951 11.662345 
L 28.0282 12.18294 
L 29.039869 12.628928 
L 29.768156 14.946823 
L 30.216519 15.820889 
L 31.045424 17.074162 
L 31.351789 18.603399 
L 31.810444 19.291566 
L 32.096793 20.062147 
L 32.993295 21.989294 
L 34.059158 23.084268 
L 34.986973 24.687106 
L 35.378004 25.754439 
L 35.210055 27.187493 
L 36.166244 27.549148 
L 36.949964 28.331235 
L 38.334816 27.711165 
L 38.932009 27.651625 
L 40.089848 26.943725 
L 42.25153 27.311417 
L 43.294791 27.980323 
L 44.646128 27.481458 
L 46.305566 27.580718 
L 47.157485 27.186694 
L 47.983062 27.552429 
L 48.406768 27.140353 
L 48.901438 26.10686 
L 49.761325 25.170083 
L 51.826715 24.546788 
L 51.709291 22.426531 
L 50.606254 22.184933 
L 49.291017 22.982522 
L 48.567389 23.934877 
L 47.779021 25.573537 
L 49.358357 26.658366 
L 49.996357 27.584397 
L 50.483555 27.276999 
L 51.052251 27.657834 
L 52.875519 28.535332 
L 52.675808 29.658909 
L 52.008271 30.276019 
L 50.820348 30.690388 
L 50.31098 30.491964 
L 50.214405 30.140528 
L 49.267867 29.082635 
L 49.065837 27.926964 
L 49.909719 27.168213 
L 50.618614 27.052723 
L 51.179225 26.715105 
L 52.428713 25.683505 
L 52.59922 25.261823 
L 52.603809 24.149164 
L 51.656762 21.955705 
L 50.953755 21.444727 
L 51.903197 20.22265 
L 52.502615 19.070034 
L 52.826814 17.943983 
L 52.252825 17.303986 
L 50.916162 15.199014 
L 50.138053 14.690436 
L 48.564713 14.375261 
L 47.47814 14.379961 
L 45.568835 13.661333 
L 45.371296 11.966149 
L 47.321569 11.16059 
L 48.108948 11.059959 
L 49.68402 10.974844 
L 51.000013 11.515588 
L 51.699651 12.081108 
L 52.670244 13.541464 
L 52.002202 15.218664 
L 52.369242 16.28728 
L 52.301993 16.682568 
L 52.829229 17.008486 
L 52.412441 19.498325 
L 52.358017 20.796903 
L 50.472755 22.384519 
L 50.182977 23.237414 
L 49.610226 23.409538 
L 47.745326 22.495429 
L 47.036021 22.572494 
L 46.493859 22.461173 
L 44.484528 20.992521 
L 44.258839 21.011753 
L 42.75307 20.55561 
L 41.955328 19.953559 
L 40.850964 19.525995 
L 40.030933 19.594427 
L 39.180879 20.451631 
L 37.890778 21.934011 
L 37.1312 21.871515 
L 36.979112 21.678618 
L 36.631931 19.841912 
L 37.161279 18.300138 
L 36.860307 17.707437 
L 35.578123 16.428541 
L 35.42443 15.457597 
L 35.767303 14.51005 
L 35.806721 13.396577 
L 35.423389 13.021304 
L 35.004853 12.121232 
L 35.350861 11.272606 
L 35.69862 11.139241 
L 36.577257 11.123867 
L 37.716914 10.964976 
L 38.125127 11.602545 
L 39.076623 11.673606 
L 39.798505 12.392441 
L 39.70465 13.193939 
L 40.473821 14.336841 
L 40.31441 14.884394 
L 39.220247 15.876509 
L 38.56319 17.221783 
L 37.724216 17.83505 
L 37.530907 19.448052 
L 36.795503 19.905344 
L 35.25226 20.477172 
L 33.612948 20.842852 
L 31.859102 21.067646 
L 29.800737 21.488134 
L 28.31721 20.843124 
L 27.556935 20.765361 
L 26.88736 20.085335 
L 26.404549 19.247017 
L 26.809646 18.295922 
L 28.457688 16.942511 
L 29.013505 15.951542 
L 29.906543 15.348569 
L 29.853517 14.928986 
L 28.902276 14.350953 
L 27.097669 11.783974 
L 25.459904 12.19244 
L 24.984178 12.502789 
L 23.830088 12.82592 
L 23.502951 12.365973 
L 20.837872 11.102251 
L 19.469974 11.318524 
L 18.518898 12.720729 
L 18.462247 13.247046 
L 19.851599 14.301974 
L 20.545338 15.357339 
L 22.105056 16.51102 
L 22.466881 17.823777 
L 22.252725 18.819437 
L 22.82877 20.31223 
L 21.346851 23.344996 
L 21.202642 25.016439 
L 21.203634 28.499335 
L 21.679573 30.354524 
L 21.390045 31.134639 
L 20.555826 32.965517 
L 20.189534 34.003092 
L 19.959584 33.642781 
L 19.266228 33.105431 
L 18.284339 32.822863 
L 17.223725 32.719443 
L 15.896438 32.244797 
L 15.991968 30.99048 
L 16.330496 30.787396 
L 17.500625 30.793524 
L 18.048757 31.215413 
L 19.019081 31.644528 
L 20.036554 33.191334 
L 20.179506 33.912753 
L 19.860258 34.377151 
L 17.528145 34.750166 
L 16.481511 34.984882 
L 14.762999 33.622445 
L 13.926252 32.652777 
L 13.63353 32.525342 
L 13.123412 32.718044 
L 11.824022 30.965755 
L 11.784479 30.498447 
L 12.663579 30.201714 
L 14.41081 30.019354 
L 14.840124 30.15947 
L 15.805664 30.810296 
L 18.110656 30.921844 
L 18.085434 32.080245 
L 17.299804 33.022122 
L 16.649608 33.822049 
L 16.079417 35.034367 
L 15.400353 37.338583 
L 15.081316 39.234808 
L 15.142694 40.217655 
L 15.337664 40.820224 
L 15.366715 41.376979 
L 15.235602 42.062295 
L 15.204949 43.887519 
L 13.354324 44.414298 
L 12.058901 44.498163 
L 11.359262 44.35281 
L 9.865166 43.071613 
L 9.479057 42.276697 
L 9.664132 39.369563 
L 8.878063 38.53608 
L 7.643864 37.894144 
L 7.456534 37.360272 
L 6.990309 34.631702 
L 6.593242 33.614299 
L 6.611326 32.602478 
L 6.800151 32.043899 
L 6.58368 30.648132 
L 6.745917 30.253036 
L 6.179326 29.463342 
L 6.058156 28.487535 
L 6.606391 27.290854 
L 5.897733 26.361008 
L 5.417362 24.563749 
L 4.801428 23.945374 
L 4.28619 23.234964 
L 2.937471 22.993503 
L 2.58822 23.45391 
L 2.712702 24.004543 
L 3.132144 24.128981 
L 3.989071 24.077495 
L 4.993912 23.124708 
L 5.478974 22.307003 
L 6.181867 21.797685 
L 6.417182 20.994916 
L 7.567468 20.215536 
L 8.862272 19.64759 
L 9.246474 18.887134 
L 10.073718 17.911595 
L 9.639852 16.801075 
L 8.547633 15.932419 
L 8.135241 15.43271 
L 7.33358 14.062635 
L 7.124604 12.76381 
L 5.031535 11.080696 
L 3.837547 11.044081 
L 2.946575 11.479859 
L 2.636845 12.495847 
L 4.200941 16.221344 
L 5.867936 18.61639 
L 4.911095 19.765106 
L 4.81209 20.602035 
L 5.139844 20.990825 
L 6.80499 20.914548 
L 7.145184 21.395704 
L 8.135714 22.284577 
L 10.06278 23.170079 
L 11.327476 23.443168 
L 11.96271 23.335271 
L 12.452937 23.507249 
L 13.424643 24.531495 
L 13.938723 27.739776 
L 13.867685 28.707273 
L 12.418349 26.172158 
L 12.684756 24.221483 
L 13.00521 23.660339 
L 13.12125 22.536386 
L 13.12125 22.536386 
" clip-path="url(#p4626564b7d)" style="fill: none; stroke: #000000; stroke-opacity: 0.7; stroke-width: 0.25; stroke-linecap: square"/>
   </g>
   <g id="line2d_2">
    <path d="M 52.922724 10.918184 
L 2.517276 10.918184 
" clip-path="url(#p4626564b7d)" style="fill: none; stroke: #000000; stroke-width: 0.8; stroke-linecap: square"/>
   </g>
   <g id="line2d_3">
    <path d="M 2.517276 10.918184 
L 2.517276 44.521816 
" clip-path="url(#p4626564b7d)" style="fill: none; stroke: #000000; stroke-width: 0.8; stroke-linecap: square"/>
   </g>
   <g id="line2d_4">
    <path d="M 2.517276 44.521816 
L 52.922724 44.521816 
" clip-path="url(#p4626564b7d)" style="fill: none; stroke: #000000; stroke-width: 0.8; stroke-linecap: square"/>
   </g>
   <g id="line2d_5">
    <path d="M 52.922724 44.521816 
L 52.922724 10.918184 
" clip-path="url(#p4626564b7d)" style="fill: none; stroke: #000000; stroke-width: 0.8; stroke-linecap: square"/>
   </g>
  </g>
 </g>
 <defs>
  <clipPath id="p4626564b7d">
   <rect x="0" y="-0" width="55.44" height="55.44"/>
  </clipPath>
 </defs>
</svg>
