<?xml version="1.0" encoding="utf-8" standalone="no"?>
<!DOCTYPE svg PUBLIC "-//W3C//DTD SVG 1.1//EN"
  "http://www.w3.org/Graphics/SVG/1.1/DTD/svg11.dtd">
<svg xmlns:xlink="http://www.w3.org/1999/xlink" width="55.44pt" height="55.44pt" viewBox="0 0 55.44 55.44" xmlns="http://www.w3.org/2000/svg" version="1.1">
 <metadata>
  <rdf:RDF xmlns:dc="http://purl.org/dc/elements/1.1/" xmlns:cc="http://creativecommons.org/ns#" xmlns:rdf="http://www.w3.org/1999/02/22-rdf-syntax-ns#">
   <cc:Work>
    <dc:type rdf:resource="http://purl.org/dc/dcmitype/StillImage"/>
    <dc:date>2023-10-09T10:21:36.083078</dc:date>
    <dc:format>image/svg+xml</dc:format>
    <dc:creator>
     <cc:Agent>
      <dc:title>Matplotlib v3.7.1, https://matplotlib.org/</dc:title>
     </cc:Agent>
    </dc:creator>
   </cc:Work>
  </rdf:RDF>
 </metadata>
 <defs>
  <style type="text/css">*{stroke-linejoin: round; stroke-linecap: butt}</style>
 </defs>
 <g id="figure_1">
  <g id="patch_1">
   <path d="M 0 55.44 
L 55.44 55.44 
L 55.44 0 
L 0 0 
L 0 55.44 
z
" style="fill: none"/>
  </g>
  <g id="axes_1">
   <g id="line2d_1">
    <path d="M 33.170815 37.57756 
L 33.920282 36.626752 
L 35.456538 36.586158 
L 35.470623 37.854562 
L 35.831985 39.356884 
L 35.462628 40.65607 
L 35.53777 41.753957 
L 35.297133 42.187644 
L 33.593786 43.099342 
L 30.766456 44.153575 
L 29.672027 44.369206 
L 25.487608 43.240602 
L 24.404088 43.463726 
L 23.830769 43.576314 
L 22.92335 41.955712 
L 22.722053 41.900531 
L 21.094807 40.918382 
L 20.080955 39.95084 
L 19.126288 38.369806 
L 17.58134 37.697355 
L 16.65706 37.500791 
L 15.654086 36.421698 
L 14.644873 35.803349 
L 13.812769 33.91371 
L 13.673141 31.18874 
L 13.903896 30.189922 
L 13.750322 29.492667 
L 12.283576 28.282135 
L 11.566857 27.387884 
L 11.609449 27.048253 
L 12.194832 26.237713 
L 12.263375 25.524527 
L 14.730845 24.19012 
L 14.958189 23.588304 
L 15.394845 22.901861 
L 15.045059 22.265638 
L 15.633045 20.865397 
L 16.384189 20.33538 
L 17.942267 20.06189 
L 19.411328 18.270604 
L 18.978629 13.384627 
L 19.375525 12.465127 
L 19.332619 11.410578 
L 18.438696 11.123476 
L 17.384517 13.809018 
L 17.25848 14.047889 
L 16.643574 15.692765 
L 17.98888 17.527182 
L 18.240196 17.675844 
L 18.799615 18.186212 
L 19.147717 20.196861 
L 19.103388 20.829226 
L 18.536317 23.285452 
L 18.071956 23.796317 
L 17.818185 25.180222 
L 17.910837 26.373645 
L 17.216711 28.27421 
L 16.964694 28.57838 
L 16.640129 29.964496 
L 16.696655 31.227866 
L 16.518926 31.94865 
L 16.483171 33.186837 
L 17.535804 34.301139 
L 18.665979 34.434792 
L 19.278107 35.165116 
L 19.317985 35.462982 
L 19.218284 36.032451 
L 18.253027 36.600432 
L 16.910641 37.316369 
L 16.789569 37.995039 
L 17.748955 39.645877 
L 17.803375 40.284555 
L 17.412922 42.942106 
L 15.506995 43.226941 
L 14.986057 43.44722 
L 13.744834 44.205883 
L 11.100149 44.332777 
L 11.379373 43.755737 
L 12.299814 42.439113 
L 12.752709 41.426504 
L 14.826044 41.08634 
L 15.37161 40.622476 
L 16.481311 40.513482 
L 17.322206 39.343658 
L 17.68284 39.220636 
L 18.151955 38.230961 
L 18.075833 37.35274 
L 17.338719 36.622478 
L 15.330297 35.453909 
L 15.216639 34.50913 
L 15.625612 33.967218 
L 16.803598 31.600896 
L 16.89572 30.786684 
L 15.779082 30.452201 
L 14.573863 30.57451 
L 13.389971 31.301348 
L 12.971123 31.987777 
L 12.624511 33.784767 
L 13.090147 35.224859 
L 12.204504 37.73481 
L 11.137425 38.802311 
L 10.940985 39.416861 
L 11.204242 40.596754 
L 11.576432 41.63218 
L 11.009544 42.890922 
L 11.08311 44.36904 
L 13.060476 44.342808 
L 13.737043 44.209114 
L 14.734733 43.27632 
L 15.566363 40.837849 
L 16.371414 39.357602 
L 16.797847 37.425301 
L 17.288018 36.510261 
L 18.343762 35.884589 
L 20.071753 36.443266 
L 21.694142 36.235773 
L 23.770204 36.60765 
L 25.201891 37.614021 
L 27.23114 37.593463 
L 27.887939 36.879453 
L 28.939431 36.897462 
L 30.135041 38.108972 
L 32.501945 38.285775 
L 33.878821 39.618903 
L 34.784948 42.700843 
L 35.456205 44.187981 
L 36.292598 44.382708 
L 37.393168 43.483594 
L 37.897681 43.250782 
L 41.606964 43.018026 
L 41.588999 42.081784 
L 41.747256 40.09733 
L 42.045681 39.154137 
L 42.914376 38.16406 
L 43.307633 37.970401 
L 44.235333 36.20471 
L 44.409544 35.574012 
L 44.204967 34.925627 
L 43.052296 34.29332 
L 41.319944 34.050421 
L 40.283678 33.112371 
L 40.062042 33.12958 
L 39.465755 33.822543 
L 38.931621 35.48403 
L 38.570456 36.988261 
L 38.580769 37.477222 
L 39.021834 38.922164 
L 38.691892 39.91093 
L 38.68555 40.363468 
L 38.547064 41.335531 
L 39.340148 43.46346 
L 38.580197 44.295727 
L 36.965151 43.825121 
L 35.925569 44.103154 
L 35.493618 43.662653 
L 35.397552 42.000053 
L 35.180456 41.158042 
L 35.918144 40.06927 
L 36.522348 40.679099 
L 37.371785 41.124494 
L 37.804178 41.851974 
L 39.282061 41.12322 
L 39.990568 40.460434 
L 41.993918 39.299076 
L 43.878799 38.004512 
L 44.099801 36.934006 
L 41.877649 35.300043 
L 40.028653 35.90509 
L 39.237957 37.566776 
L 39.370647 38.917474 
L 38.595228 39.919519 
L 37.139003 39.883663 
L 36.31492 39.182401 
L 34.607295 39.500846 
L 34.164656 39.699446 
L 33.096331 41.027319 
L 32.590142 42.130116 
L 31.101164 43.234732 
L 29.010383 43.106385 
L 26.511708 44.132126 
L 25.913416 43.71222 
L 24.372747 43.48568 
L 22.823294 43.777633 
L 20.744279 44.208182 
L 18.879688 44.16702 
L 18.245834 43.681804 
L 16.153413 41.409367 
L 13.593559 40.108618 
L 12.487809 38.996322 
L 11.66705 38.456799 
L 10.962456 37.165051 
L 11.223654 36.599904 
L 12.854102 35.468631 
L 13.717124 35.366968 
L 16.703499 37.286744 
L 17.318024 38.115693 
L 18.083018 38.592181 
L 18.605417 40.766318 
L 17.988786 42.983298 
L 16.631088 44.490994 
L 16.343249 44.493952 
L 15.854352 44.348541 
L 15.427015 44.445816 
L 14.264906 43.948805 
L 13.191613 41.570779 
L 13.405196 40.541684 
L 13.754998 40.227746 
L 13.861737 39.563161 
L 14.790268 39.707965 
L 16.251018 39.41758 
L 16.107862 40.035273 
L 17.699806 41.548654 
L 18.569882 41.921515 
L 18.956241 42.949271 
L 19.661725 43.952647 
L 19.630962 44.445263 
L 21.34916 43.978286 
L 23.021074 43.294915 
L 24.059697 44.206238 
L 25.422229 44.275259 
L 26.99893 41.300378 
L 28.188933 39.757409 
L 28.15084 39.07124 
L 27.848022 38.909649 
L 27.534313 38.516773 
L 27.189515 37.707656 
L 25.51388 36.62509 
L 24.563 36.501687 
L 23.691886 37.298669 
L 23.570813 38.961851 
L 23.318829 39.8706 
L 22.677105 41.428704 
L 22.179359 43.240326 
L 21.464046 44.038328 
L 19.840493 43.61172 
L 18.562728 43.497639 
L 16.691719 42.879812 
L 15.938358 41.784752 
L 14.949645 41.100911 
L 14.06517 39.502554 
L 13.515466 39.041981 
L 12.9087 38.756841 
L 11.817897 38.85215 
L 11.135663 39.098797 
L 11.121944 39.869841 
L 12.188983 40.69749 
L 12.278343 43.114059 
L 11.968702 43.244441 
L 11.225752 41.511945 
L 11.810169 41.174707 
L 11.977575 40.497291 
L 11.847308 40.103062 
L 11.080034 39.749273 
L 11.100431 38.634481 
L 11.410395 37.07065 
L 11.912335 36.663202 
L 11.98076 36.26372 
L 10.978513 34.175442 
L 10.955013 33.869335 
L 11.099792 33.193384 
L 11.324087 32.720475 
L 10.99478 31.80145 
L 11.28313 31.52722 
L 11.522509 30.507695 
L 11.355638 29.82727 
L 12.172997 28.562656 
L 11.822173 26.42693 
L 10.941251 25.196081 
L 11.079351 23.856082 
L 11.649819 21.797238 
L 12.303893 20.371214 
L 12.085092 19.50711 
L 11.174192 16.951781 
L 11.141608 15.863863 
L 11.687647 14.813811 
L 12.303841 14.299431 
L 12.712691 14.654259 
L 12.734569 15.145081 
L 12.59844 15.705496 
L 11.540274 16.351858 
L 11.111252 19.350394 
L 11.401066 21.141149 
L 11.88209 22.301068 
L 12.247968 22.709928 
L 12.886448 23.725885 
L 13.803348 26.079254 
L 13.708958 26.248689 
L 13.904993 26.801339 
L 14.741411 28.548267 
L 15.99568 30.62445 
L 16.242882 33.396484 
L 16.151039 34.801597 
L 16.475795 36.004652 
L 17.849212 36.637328 
L 18.259678 36.314385 
L 19.110311 36.224248 
L 19.4444 36.319796 
L 20.43834 36.132147 
L 21.954337 36.152509 
L 22.170666 36.482323 
L 23.130387 37.148676 
L 24.639714 37.877652 
L 25.810897 37.959742 
L 26.756198 38.713914 
L 27.10411 40.432994 
L 27.860971 41.239472 
L 28.536007 42.191084 
L 28.985355 44.047132 
L 26.78072 44.362245 
L 25.139098 44.447689 
L 23.069157 43.462854 
L 22.709454 42.950025 
L 22.713832 42.274181 
L 23.902827 38.727232 
L 24.592172 37.539302 
L 25.80193 36.715942 
L 29.124374 36.826213 
L 30.901961 37.824329 
L 32.881714 37.658108 
L 33.337177 37.811003 
L 35.160579 37.677806 
L 36.671493 38.327503 
L 38.464194 38.63889 
L 39.890013 38.377378 
L 42.886573 38.469881 
L 43.540558 37.811339 
L 44.128854 36.812171 
L 43.951223 35.840867 
L 43.878671 34.562328 
L 43.355314 33.790501 
L 42.820895 33.440925 
L 41.579669 33.285355 
L 40.97947 32.359718 
L 40.265254 31.564768 
L 39.351607 31.878404 
L 38.137723 32.736009 
L 37.719307 32.78413 
L 36.860484 32.60198 
L 36.193121 30.561418 
L 36.468806 27.939832 
L 37.279638 26.245633 
L 36.530813 24.67881 
L 36.121711 24.149066 
L 36.830622 22.898311 
L 37.206101 21.641707 
L 38.534644 18.961995 
L 39.059061 18.484128 
L 38.101382 17.333084 
L 35.785928 16.291598 
L 35.001496 16.1824 
L 33.549909 16.984172 
L 30.991521 17.812063 
L 30.393302 17.999127 
L 29.389331 17.762578 
L 27.83535 17.73368 
L 27.119667 18.026185 
L 23.743444 18.598293 
L 21.629039 17.734574 
L 19.623553 17.793267 
L 18.240344 17.219313 
L 17.781411 16.424189 
L 16.133545 16.203545 
L 15.501814 16.285146 
L 15.034657 16.185717 
L 13.278681 15.644724 
L 12.683994 15.176799 
L 11.760416 14.7405 
L 11.055328 13.456084 
L 11.009878 12.547481 
L 11.370871 11.399445 
L 12.234297 11.107311 
L 13.466127 11.718278 
L 14.772885 11.180767 
L 16.701884 11.165483 
L 17.146072 11.698355 
L 17.543279 14.272191 
L 17.447148 14.475941 
L 17.337323 15.057525 
L 17.030874 16.01604 
L 16.943231 17.127438 
L 16.60891 17.552991 
L 15.88818 18.113502 
L 15.46553 18.727673 
L 14.506484 19.780118 
L 13.66214 20.763749 
L 12.800782 20.861231 
L 12.540266 20.960022 
L 11.816668 21.019812 
L 11.07523 20.843813 
L 11.12377 19.692158 
L 12.363238 19.327737 
L 12.363238 19.327737 
" clip-path="url(#p9b379e6d8d)" style="fill: none; stroke: #000000; stroke-opacity: 0.7; stroke-width: 0.25; stroke-linecap: square"/>
   </g>
   <g id="line2d_2">
    <path d="M 44.521816 10.918184 
L 10.918184 10.918184 
" clip-path="url(#p9b379e6d8d)" style="fill: none; stroke: #000000; stroke-width: 0.8; stroke-linecap: square"/>
   </g>
   <g id="line2d_3">
    <path d="M 10.918184 10.918184 
L 10.918184 44.521816 
" clip-path="url(#p9b379e6d8d)" style="fill: none; stroke: #000000; stroke-width: 0.8; stroke-linecap: square"/>
   </g>
   <g id="line2d_4">
    <path d="M 10.918184 44.521816 
L 44.521816 44.521816 
" clip-path="url(#p9b379e6d8d)" style="fill: none; stroke: #000000; stroke-width: 0.8; stroke-linecap: square"/>
   </g>
   <g id="line2d_5">
    <path d="M 44.521816 44.521816 
L 44.521816 10.918184 
" clip-path="url(#p9b379e6d8d)" style="fill: none; stroke: #000000; stroke-width: 0.8; stroke-linecap: square"/>
   </g>
   <g id="line2d_6">
    <path d="M 36.120908 19.319092 
L 19.319092 19.319092 
" clip-path="url(#p9b379e6d8d)" style="fill: none; stroke: #000000; stroke-width: 0.8; stroke-linecap: square"/>
   </g>
   <g id="line2d_7">
    <path d="M 19.319092 19.319092 
L 19.319092 36.120908 
" clip-path="url(#p9b379e6d8d)" style="fill: none; stroke: #000000; stroke-width: 0.8; stroke-linecap: square"/>
   </g>
   <g id="line2d_8">
    <path d="M 19.319092 36.120908 
L 36.120908 36.120908 
" clip-path="url(#p9b379e6d8d)" style="fill: none; stroke: #000000; stroke-width: 0.8; stroke-linecap: square"/>
   </g>
   <g id="line2d_9">
    <path d="M 36.120908 36.120908 
L 36.120908 19.319092 
" clip-path="url(#p9b379e6d8d)" style="fill: none; stroke: #000000; stroke-width: 0.8; stroke-linecap: square"/>
   </g>
  </g>
 </g>
 <defs>
  <clipPath id="p9b379e6d8d">
   <rect x="0" y="-0" width="55.44" height="55.44"/>
  </clipPath>
 </defs>
</svg>
